<svg width="488" height="221" viewBox="0 0 488 221" fill="none" xmlns="http://www.w3.org/2000/svg">
<path d="M116.568 218.112C116.072 217.304 115.684 216.46 115.404 215.58C115.124 214.692 114.984 213.72 114.984 212.664C114.984 211.608 115.124 210.636 115.404 209.748C115.684 208.86 116.072 208.016 116.568 207.216L117.18 207.504C116.716 208.264 116.368 209.088 116.136 209.976C115.912 210.856 115.8 211.752 115.8 212.664C115.8 213.576 115.912 214.472 116.136 215.352C116.368 216.232 116.716 217.056 117.18 217.824L116.568 218.112ZM124.402 218.04L124.162 217.464C124.506 217.312 124.774 217.104 124.966 216.84C125.158 216.584 125.25 216.296 125.242 215.976L125.134 215.088L125.626 215.808C125.554 215.88 125.474 215.932 125.386 215.964C125.306 215.996 125.218 216.012 125.122 216.012C124.93 216.012 124.762 215.952 124.618 215.832C124.482 215.712 124.414 215.544 124.414 215.328C124.414 215.112 124.486 214.944 124.63 214.824C124.782 214.696 124.954 214.632 125.146 214.632C125.41 214.632 125.614 214.736 125.758 214.944C125.902 215.144 125.974 215.428 125.974 215.796C125.974 216.308 125.834 216.76 125.554 217.152C125.274 217.544 124.89 217.84 124.402 218.04ZM135.757 218.04L135.517 217.464C135.861 217.312 136.129 217.104 136.321 216.84C136.513 216.584 136.605 216.296 136.597 215.976L136.489 215.088L136.981 215.808C136.909 215.88 136.829 215.932 136.741 215.964C136.661 215.996 136.573 216.012 136.477 216.012C136.285 216.012 136.117 215.952 135.973 215.832C135.837 215.712 135.769 215.544 135.769 215.328C135.769 215.112 135.841 214.944 135.985 214.824C136.137 214.696 136.309 214.632 136.501 214.632C136.765 214.632 136.969 214.736 137.113 214.944C137.257 215.144 137.329 215.428 137.329 215.796C137.329 216.308 137.189 216.76 136.909 217.152C136.629 217.544 136.245 217.84 135.757 218.04ZM147.377 218.112L146.765 217.824C147.229 217.056 147.573 216.232 147.797 215.352C148.029 214.472 148.145 213.576 148.145 212.664C148.145 211.752 148.029 210.856 147.797 209.976C147.573 209.088 147.229 208.264 146.765 207.504L147.377 207.216C147.881 208.016 148.269 208.86 148.541 209.748C148.821 210.636 148.961 211.608 148.961 212.664C148.961 213.72 148.821 214.692 148.541 215.58C148.269 216.46 147.881 217.304 147.377 218.112Z" fill="black"/>
<path d="M120.621 216.144C119.853 216.144 119.249 215.8 118.809 215.112C118.377 214.416 118.161 213.428 118.161 212.148C118.161 210.86 118.377 209.88 118.809 209.208C119.249 208.536 119.853 208.2 120.621 208.2C121.381 208.2 121.977 208.54 122.409 209.22C122.849 209.892 123.069 210.868 123.069 212.148C123.069 213.428 122.849 214.416 122.409 215.112C121.977 215.8 121.381 216.144 120.621 216.144ZM120.621 215.352C120.917 215.352 121.177 215.24 121.401 215.016C121.625 214.792 121.797 214.444 121.917 213.972C122.045 213.5 122.109 212.892 122.109 212.148C122.109 211.396 122.045 210.788 121.917 210.324C121.797 209.86 121.625 209.524 121.401 209.316C121.177 209.1 120.917 208.992 120.621 208.992C120.317 208.992 120.053 209.1 119.829 209.316C119.605 209.524 119.429 209.86 119.301 210.324C119.181 210.788 119.121 211.396 119.121 212.148C119.121 212.892 119.181 213.5 119.301 213.972C119.429 214.444 119.605 214.792 119.829 215.016C120.053 215.24 120.317 215.352 120.621 215.352Z" fill="#FF00E6"/>
<path d="M131.976 216.144C131.208 216.144 130.604 215.8 130.164 215.112C129.732 214.416 129.516 213.428 129.516 212.148C129.516 210.86 129.732 209.88 130.164 209.208C130.604 208.536 131.208 208.2 131.976 208.2C132.736 208.2 133.332 208.54 133.764 209.22C134.204 209.892 134.424 210.868 134.424 212.148C134.424 213.428 134.204 214.416 133.764 215.112C133.332 215.8 132.736 216.144 131.976 216.144ZM131.976 215.352C132.272 215.352 132.532 215.24 132.756 215.016C132.98 214.792 133.152 214.444 133.272 213.972C133.4 213.5 133.464 212.892 133.464 212.148C133.464 211.396 133.4 210.788 133.272 210.324C133.152 209.86 132.98 209.524 132.756 209.316C132.532 209.1 132.272 208.992 131.976 208.992C131.672 208.992 131.408 209.1 131.184 209.316C130.96 209.524 130.784 209.86 130.656 210.324C130.536 210.788 130.476 211.396 130.476 212.148C130.476 212.892 130.536 213.5 130.656 213.972C130.784 214.444 130.96 214.792 131.184 215.016C131.408 215.24 131.672 215.352 131.976 215.352Z" fill="#2A5D57"/>
<path d="M143.332 216.144C142.564 216.144 141.96 215.8 141.52 215.112C141.088 214.416 140.872 213.428 140.872 212.148C140.872 210.86 141.088 209.88 141.52 209.208C141.96 208.536 142.564 208.2 143.332 208.2C144.092 208.2 144.688 208.54 145.12 209.22C145.56 209.892 145.78 210.868 145.78 212.148C145.78 213.428 145.56 214.416 145.12 215.112C144.688 215.8 144.092 216.144 143.332 216.144ZM143.332 215.352C143.628 215.352 143.888 215.24 144.112 215.016C144.336 214.792 144.508 214.444 144.628 213.972C144.756 213.5 144.82 212.892 144.82 212.148C144.82 211.396 144.756 210.788 144.628 210.324C144.508 209.86 144.336 209.524 144.112 209.316C143.888 209.1 143.628 208.992 143.332 208.992C143.028 208.992 142.764 209.1 142.54 209.316C142.316 209.524 142.14 209.86 142.012 210.324C141.892 210.788 141.832 211.396 141.832 212.148C141.832 212.892 141.892 213.5 142.012 213.972C142.14 214.444 142.316 214.792 142.54 215.016C142.764 215.24 143.028 215.352 143.332 215.352Z" fill="#5447E9"/>
<path d="M180 178L237 34H387.5L330 178H180Z" fill="#D9D9D9" fill-opacity="0.2" stroke="#757575"/>
<path d="M237 34L172.5 62.5L112 203.5L180 178L237 34Z" fill="#D9D9D9" fill-opacity="0.2" stroke="#757575"/>
<path d="M264 204.5L330 178.5L180 178L111.5 204L264 204.5Z" fill="#D9D9D9" fill-opacity="0.2" stroke="#757575"/>
<path d="M387 34.5L323 62.5L265 203.5L330 178.5L387 34.5Z" fill="#D9D9D9" fill-opacity="0.2" stroke="#757575"/>
<path d="M112 203.5L173 62H323.5L264.5 203.5H112Z" fill="#D9D9D9" fill-opacity="0.2" stroke="#757575"/>
<path d="M322.998 62.5L387.998 33.5H237.499L172.5 62.5H322.998Z" fill="#D9D9D9" fill-opacity="0.2" stroke="#757575"/>
<path d="M103.96 205.18C102.94 205.18 102.115 204.755 101.485 203.905C100.865 203.055 100.555 201.82 100.555 200.2C100.555 198.57 100.865 197.345 101.485 196.525C102.115 195.705 102.94 195.295 103.96 195.295C104.98 195.295 105.8 195.71 106.42 196.54C107.05 197.36 107.365 198.58 107.365 200.2C107.365 201.82 107.05 203.055 106.42 203.905C105.8 204.755 104.98 205.18 103.96 205.18ZM103.96 203.47C104.21 203.47 104.435 203.38 104.635 203.2C104.835 203.01 104.99 202.68 105.1 202.21C105.22 201.73 105.28 201.06 105.28 200.2C105.28 199.33 105.22 198.665 105.1 198.205C104.99 197.745 104.835 197.43 104.635 197.26C104.435 197.09 104.21 197.005 103.96 197.005C103.71 197.005 103.485 197.09 103.285 197.26C103.085 197.43 102.925 197.745 102.805 198.205C102.695 198.665 102.64 199.33 102.64 200.2C102.64 201.06 102.695 201.73 102.805 202.21C102.925 202.68 103.085 203.01 103.285 203.2C103.485 203.38 103.71 203.47 103.96 203.47Z" fill="#CD93F0"/>
<path d="M112.354 39.6466C112.158 39.4513 111.842 39.4513 111.646 39.6466L108.464 42.8285C108.269 43.0238 108.269 43.3404 108.464 43.5356C108.66 43.7309 108.976 43.7309 109.172 43.5356L112 40.7072L114.828 43.5356C115.024 43.7309 115.34 43.7309 115.536 43.5356C115.731 43.3404 115.731 43.0238 115.536 42.8285L112.354 39.6466ZM112.5 202.062L112.5 40.0001H111.5L111.5 202.062H112.5Z" fill="black"/>
<path d="M318.354 204.354C318.549 204.158 318.549 203.842 318.354 203.646L315.172 200.464C314.976 200.269 314.66 200.269 314.464 200.464C314.269 200.66 314.269 200.976 314.464 201.172L317.293 204L314.464 206.828C314.269 207.024 314.269 207.34 314.464 207.536C314.66 207.731 314.976 207.731 315.172 207.536L318.354 204.354ZM114 204.5H318V203.5H114V204.5Z" fill="black"/>
<path d="M227.459 159.198C227.568 158.944 227.451 158.65 227.198 158.541L223.064 156.762C222.811 156.653 222.516 156.77 222.407 157.023C222.298 157.277 222.415 157.571 222.669 157.68L226.343 159.262L224.762 162.936C224.653 163.189 224.77 163.484 225.023 163.593C225.277 163.702 225.571 163.585 225.68 163.331L227.459 159.198ZM114.185 204.465L227.185 159.465L226.815 158.535L113.815 203.535L114.185 204.465Z" fill="black"/>
<path d="M320.168 207L322.076 203.952L320.312 201.168H321.38L322.16 202.452C322.248 202.604 322.34 202.764 322.436 202.932C322.54 203.092 322.64 203.256 322.736 203.424H322.784C322.872 203.256 322.96 203.092 323.048 202.932C323.136 202.764 323.224 202.604 323.312 202.452L324.02 201.168H325.052L323.288 204.06L325.184 207H324.116L323.264 205.644C323.16 205.468 323.052 205.292 322.94 205.116C322.836 204.94 322.732 204.768 322.628 204.6H322.58C322.476 204.768 322.376 204.94 322.28 205.116C322.184 205.284 322.088 205.46 321.992 205.644L321.2 207H320.168Z" fill="black"/>
<path d="M219.08 173.508C218.952 173.508 218.828 173.496 218.708 173.472C218.596 173.448 218.492 173.42 218.396 173.388L218.612 172.62C218.684 172.644 218.756 172.66 218.828 172.668C218.9 172.684 218.968 172.692 219.032 172.692C219.368 172.692 219.64 172.572 219.848 172.332C220.064 172.1 220.232 171.804 220.352 171.444L220.484 171.012L218.144 165.168H219.164L220.352 168.396C220.448 168.644 220.544 168.912 220.64 169.2C220.736 169.488 220.828 169.768 220.916 170.04H220.964C221.052 169.768 221.136 169.492 221.216 169.212C221.304 168.924 221.384 168.652 221.456 168.396L222.5 165.168H223.46L221.264 171.48C221.128 171.864 220.964 172.208 220.772 172.512C220.58 172.824 220.348 173.068 220.076 173.244C219.804 173.42 219.472 173.508 219.08 173.508Z" fill="black"/>
<path d="M119.372 49V48.472L122.444 43.972H119.708V43.168H123.692V43.696L120.62 48.196H123.788V49H119.372Z" fill="black"/>
<path d="M171.132 199.144C170.38 199.144 169.788 198.788 169.356 198.076C168.924 197.356 168.708 196.228 168.708 194.692C168.708 193.74 168.804 192.94 168.996 192.292C169.196 191.636 169.476 191.144 169.836 190.816C170.204 190.48 170.636 190.312 171.132 190.312C171.628 190.312 172.056 190.48 172.416 190.816C172.784 191.144 173.064 191.636 173.256 192.292C173.456 192.94 173.556 193.74 173.556 194.692C173.556 196.228 173.34 197.356 172.908 198.076C172.476 198.788 171.884 199.144 171.132 199.144ZM171.132 198.328C171.412 198.328 171.66 198.216 171.876 197.992C172.1 197.76 172.272 197.38 172.392 196.852C172.52 196.316 172.584 195.596 172.584 194.692C172.584 194.06 172.548 193.52 172.476 193.072C172.404 192.616 172.3 192.244 172.164 191.956C172.036 191.668 171.884 191.46 171.708 191.332C171.532 191.196 171.34 191.128 171.132 191.128C170.924 191.128 170.732 191.196 170.556 191.332C170.38 191.46 170.224 191.668 170.088 191.956C169.96 192.244 169.86 192.616 169.788 193.072C169.716 193.52 169.68 194.06 169.68 194.692C169.68 195.596 169.74 196.316 169.86 196.852C169.988 197.38 170.16 197.76 170.376 197.992C170.6 198.216 170.852 198.328 171.132 198.328ZM169.248 195.064V194.284H173.016V195.064H169.248Z" fill="#201E1E"/>
<path d="M189.348 216.144C188.828 216.144 188.352 216.024 187.92 215.784C187.496 215.536 187.16 215.188 186.912 214.74C186.664 214.284 186.54 213.732 186.54 213.084C186.54 212.452 186.668 211.908 186.924 211.452C187.18 210.996 187.508 210.644 187.908 210.396C188.308 210.148 188.732 210.024 189.18 210.024C189.676 210.024 190.096 210.14 190.44 210.372C190.792 210.596 191.056 210.912 191.232 211.32C191.408 211.728 191.496 212.208 191.496 212.76C191.496 212.864 191.492 212.964 191.484 213.06C191.484 213.156 191.472 213.252 191.448 213.348H187.248V212.568H190.608C190.608 212.008 190.484 211.58 190.236 211.284C189.996 210.98 189.648 210.828 189.192 210.828C188.928 210.828 188.668 210.904 188.412 211.056C188.156 211.2 187.944 211.436 187.776 211.764C187.616 212.092 187.536 212.528 187.536 213.072C187.536 213.568 187.62 213.984 187.788 214.32C187.964 214.656 188.2 214.912 188.496 215.088C188.792 215.256 189.116 215.34 189.468 215.34C189.748 215.34 190.008 215.3 190.248 215.22C190.496 215.14 190.72 215.032 190.92 214.896L191.28 215.544C191.024 215.72 190.736 215.864 190.416 215.976C190.104 216.088 189.748 216.144 189.348 216.144ZM192.901 216V215.184H194.653V209.544H193.261V208.908C193.605 208.844 193.909 208.768 194.173 208.68C194.437 208.584 194.673 208.472 194.881 208.344H195.637V215.184H197.221V216H192.901Z" fill="#0686FD"/>
<path d="M141.348 187.144C140.828 187.144 140.352 187.024 139.92 186.784C139.496 186.536 139.16 186.188 138.912 185.74C138.664 185.284 138.54 184.732 138.54 184.084C138.54 183.452 138.668 182.908 138.924 182.452C139.18 181.996 139.508 181.644 139.908 181.396C140.308 181.148 140.732 181.024 141.18 181.024C141.676 181.024 142.096 181.14 142.44 181.372C142.792 181.596 143.056 181.912 143.232 182.32C143.408 182.728 143.496 183.208 143.496 183.76C143.496 183.864 143.492 183.964 143.484 184.06C143.484 184.156 143.472 184.252 143.448 184.348H139.248V183.568H142.608C142.608 183.008 142.484 182.58 142.236 182.284C141.996 181.98 141.648 181.828 141.192 181.828C140.928 181.828 140.668 181.904 140.412 182.056C140.156 182.2 139.944 182.436 139.776 182.764C139.616 183.092 139.536 183.528 139.536 184.072C139.536 184.568 139.62 184.984 139.788 185.32C139.964 185.656 140.2 185.912 140.496 186.088C140.792 186.256 141.116 186.34 141.468 186.34C141.748 186.34 142.008 186.3 142.248 186.22C142.496 186.14 142.72 186.032 142.92 185.896L143.28 186.544C143.024 186.72 142.736 186.864 142.416 186.976C142.104 187.088 141.748 187.144 141.348 187.144ZM144.433 187V186.4C145.193 185.648 145.841 184.984 146.377 184.408C146.921 183.824 147.333 183.296 147.613 182.824C147.893 182.352 148.033 181.912 148.033 181.504C148.033 181.064 147.913 180.704 147.673 180.424C147.433 180.144 147.069 180.004 146.581 180.004C146.261 180.004 145.965 180.092 145.693 180.268C145.421 180.444 145.173 180.664 144.949 180.928L144.397 180.388C144.717 180.028 145.057 179.74 145.417 179.524C145.785 179.308 146.213 179.2 146.701 179.2C147.173 179.2 147.581 179.296 147.925 179.488C148.269 179.672 148.533 179.932 148.717 180.268C148.901 180.604 148.993 180.996 148.993 181.444C148.993 181.94 148.853 182.432 148.573 182.92C148.301 183.408 147.925 183.92 147.445 184.456C146.965 184.992 146.413 185.58 145.789 186.22C145.997 186.196 146.213 186.18 146.437 186.172C146.661 186.156 146.873 186.148 147.073 186.148H149.377V187H144.433Z" fill="#FF9900"/>
<path d="M126.348 143.144C125.828 143.144 125.352 143.024 124.92 142.784C124.496 142.536 124.16 142.188 123.912 141.74C123.664 141.284 123.54 140.732 123.54 140.084C123.54 139.452 123.668 138.908 123.924 138.452C124.18 137.996 124.508 137.644 124.908 137.396C125.308 137.148 125.732 137.024 126.18 137.024C126.676 137.024 127.096 137.14 127.44 137.372C127.792 137.596 128.056 137.912 128.232 138.32C128.408 138.728 128.496 139.208 128.496 139.76C128.496 139.864 128.492 139.964 128.484 140.06C128.484 140.156 128.472 140.252 128.448 140.348H124.248V139.568H127.608C127.608 139.008 127.484 138.58 127.236 138.284C126.996 137.98 126.648 137.828 126.192 137.828C125.928 137.828 125.668 137.904 125.412 138.056C125.156 138.2 124.944 138.436 124.776 138.764C124.616 139.092 124.536 139.528 124.536 140.072C124.536 140.568 124.62 140.984 124.788 141.32C124.964 141.656 125.2 141.912 125.496 142.088C125.792 142.256 126.116 142.34 126.468 142.34C126.748 142.34 127.008 142.3 127.248 142.22C127.496 142.14 127.72 142.032 127.92 141.896L128.28 142.544C128.024 142.72 127.736 142.864 127.416 142.976C127.104 143.088 126.748 143.144 126.348 143.144ZM131.785 143.144C131.377 143.144 131.013 143.092 130.693 142.988C130.381 142.884 130.109 142.752 129.877 142.592C129.645 142.432 129.441 142.256 129.265 142.064L129.769 141.416C130.001 141.656 130.269 141.868 130.573 142.052C130.885 142.236 131.269 142.328 131.725 142.328C132.189 142.328 132.569 142.2 132.865 141.944C133.161 141.688 133.309 141.348 133.309 140.924C133.309 140.62 133.229 140.356 133.069 140.132C132.917 139.9 132.661 139.72 132.301 139.592C131.949 139.464 131.469 139.4 130.861 139.4V138.644C131.405 138.644 131.833 138.58 132.145 138.452C132.465 138.324 132.693 138.156 132.829 137.948C132.965 137.732 133.033 137.488 133.033 137.216C133.033 136.84 132.913 136.544 132.673 136.328C132.441 136.112 132.121 136.004 131.713 136.004C131.393 136.004 131.097 136.076 130.825 136.22C130.553 136.364 130.305 136.552 130.081 136.784L129.553 136.16C129.849 135.88 130.177 135.652 130.537 135.476C130.897 135.292 131.301 135.2 131.749 135.2C132.197 135.2 132.593 135.276 132.937 135.428C133.281 135.58 133.549 135.8 133.741 136.088C133.941 136.376 134.041 136.728 134.041 137.144C134.041 137.608 133.913 137.988 133.657 138.284C133.401 138.58 133.065 138.808 132.649 138.968V139.016C132.961 139.088 133.241 139.212 133.489 139.388C133.737 139.556 133.933 139.772 134.077 140.036C134.229 140.3 134.305 140.608 134.305 140.96C134.305 141.416 134.193 141.808 133.969 142.136C133.745 142.456 133.441 142.704 133.057 142.88C132.673 143.056 132.249 143.144 131.785 143.144Z" fill="#81DB7A"/>
<path d="M172.928 62.6286C172.723 62.1158 172.141 61.8664 171.629 62.0715L163.272 65.414C162.76 65.6192 162.51 66.2011 162.715 66.7139C162.92 67.2267 163.502 67.4761 164.015 67.271L171.443 64.2999L174.414 71.7277C174.619 72.2405 175.201 72.4899 175.714 72.2848C176.227 72.0797 176.476 71.4977 176.271 70.9849L172.928 62.6286ZM171.081 62.6061L111.081 202.606L112.919 203.394L172.919 63.3939L171.081 62.6061Z" fill="#81DB7A"/>
<path d="M180.915 178.403C181.138 177.898 180.909 177.308 180.403 177.085L172.168 173.454C171.663 173.232 171.073 173.461 170.85 173.966C170.627 174.471 170.856 175.062 171.361 175.284L178.682 178.512L175.454 185.832C175.232 186.337 175.461 186.927 175.966 187.15C176.471 187.373 177.062 187.144 177.284 186.639L180.915 178.403ZM179.638 177.068L112.638 203.068L113.362 204.932L180.362 178.932L179.638 177.068Z" fill="#FF9900"/>
<path d="M264.707 204.707C265.098 204.317 265.098 203.683 264.707 203.293L258.343 196.929C257.953 196.538 257.32 196.538 256.929 196.929C256.539 197.319 256.539 197.952 256.929 198.343L262.586 204L256.929 209.657C256.538 210.047 256.538 210.68 256.929 211.071C257.319 211.461 257.952 211.461 258.343 211.071L264.707 204.707ZM264 203L113 202.995L113 204.995L264 205L264 203Z" fill="#0686FD"/>
<path d="M157.095 187.973C156.829 188.047 156.673 188.322 156.746 188.588L157.943 192.926C158.017 193.192 158.292 193.348 158.558 193.275C158.824 193.201 158.981 192.926 158.907 192.66L157.843 188.804L161.699 187.74C161.965 187.666 162.121 187.391 162.048 187.125C161.974 186.859 161.699 186.702 161.433 186.776L157.095 187.973ZM167.5 202.5C167.5 198.055 164.948 194.423 162.468 191.937C161.222 190.688 159.978 189.711 159.045 189.047C158.578 188.715 158.189 188.459 157.914 188.287C157.777 188.2 157.669 188.135 157.594 188.09C157.556 188.068 157.527 188.051 157.507 188.039C157.497 188.033 157.49 188.029 157.484 188.026C157.481 188.024 157.479 188.023 157.478 188.022C157.477 188.021 157.476 188.021 157.476 188.021C157.476 188.021 157.475 188.02 157.475 188.02C157.475 188.02 157.475 188.02 157.228 188.455C156.981 188.89 156.981 188.89 156.981 188.89C156.981 188.89 156.981 188.89 156.981 188.89C156.981 188.89 156.981 188.89 156.982 188.89C156.983 188.891 156.984 188.892 156.986 188.893C156.99 188.895 156.996 188.899 157.005 188.903C157.022 188.913 157.047 188.928 157.082 188.949C157.15 188.99 157.251 189.051 157.382 189.133C157.642 189.297 158.015 189.541 158.465 189.861C159.365 190.502 160.563 191.443 161.76 192.643C164.166 195.054 166.5 198.445 166.5 202.5L167.5 202.5Z" fill="black"/>
<circle cx="112" cy="204" r="2" fill="#CD93F0"/>
</svg>
