<svg width="651" height="298" viewBox="0 0 651 298" fill="none" xmlns="http://www.w3.org/2000/svg">
<path d="M371 24V207" stroke="#757575"/>
<path d="M370.32 207.349L369.967 206.995L370.674 206.288L371.027 206.641L370.32 207.349ZM434.392 271.42L370.32 207.349L371.027 206.641L435.099 270.713L434.392 271.42Z" fill="#757575"/>
<path d="M371 207L192 207" stroke="#757575"/>
<path d="M371.543 24.0164C371.543 24.0164 435 86.4941 435 87.2471C435 88 253.487 88 253.487 88C253.487 88 193.251 24.0004 194.007 24C194.762 23.9996 371.543 24.0164 371.543 24.0164Z" fill="#D9D9D9" fill-opacity="0.4" stroke="#757575"/>
<path d="M435 88H253V271H435V88Z" fill="#D9D9D9" fill-opacity="0.4" stroke="#757575"/>
<path d="M192.357 24.0066C193.115 23.2443 253 88.8025 253 88.8025C253 88.8025 252.927 270.231 252.927 270.993C252.927 271.756 192.281 207.722 192.281 207.722C192.281 207.722 191.6 24.7689 192.357 24.0066Z" fill="#D9D9D9" fill-opacity="0.4" stroke="#757575"/>
<ellipse cx="1.5" cy="2" rx="1.5" ry="2" transform="matrix(-1 0 0 1 282 115)" fill="black"/>
<circle cx="1.5" cy="1.5" r="1.5" transform="matrix(-1 0 0 1 226 141)" fill="black"/>
<circle cx="3" cy="3" r="3" transform="matrix(-1 0 0 1 305 140)" fill="black"/>
<circle cx="3" cy="3" r="3" transform="matrix(-1 0 0 1 374 21)" fill="#CD93F0"/>
<circle cx="3" cy="3" r="3" transform="matrix(-1 0 0 1 256 268)" fill="#CD93F0"/>
<circle cx="1.5" cy="1.5" r="1.5" transform="matrix(-1 0 0 1 304 53)" fill="black"/>
<path d="M310.568 141.112C310.072 140.304 309.684 139.46 309.404 138.58C309.124 137.692 308.984 136.72 308.984 135.664C308.984 134.608 309.124 133.636 309.404 132.748C309.684 131.86 310.072 131.016 310.568 130.216L311.18 130.504C310.716 131.264 310.368 132.088 310.136 132.976C309.912 133.856 309.8 134.752 309.8 135.664C309.8 136.576 309.912 137.472 310.136 138.352C310.368 139.232 310.716 140.056 311.18 140.824L310.568 141.112ZM314.621 139.144C313.853 139.144 313.249 138.8 312.809 138.112C312.377 137.416 312.161 136.428 312.161 135.148C312.161 133.86 312.377 132.88 312.809 132.208C313.249 131.536 313.853 131.2 314.621 131.2C315.381 131.2 315.977 131.54 316.409 132.22C316.849 132.892 317.069 133.868 317.069 135.148C317.069 136.428 316.849 137.416 316.409 138.112C315.977 138.8 315.381 139.144 314.621 139.144ZM314.621 138.352C314.917 138.352 315.177 138.24 315.401 138.016C315.625 137.792 315.797 137.444 315.917 136.972C316.045 136.5 316.109 135.892 316.109 135.148C316.109 134.396 316.045 133.788 315.917 133.324C315.797 132.86 315.625 132.524 315.401 132.316C315.177 132.1 314.917 131.992 314.621 131.992C314.317 131.992 314.053 132.1 313.829 132.316C313.605 132.524 313.429 132.86 313.301 133.324C313.181 133.788 313.121 134.396 313.121 135.148C313.121 135.892 313.181 136.5 313.301 136.972C313.429 137.444 313.605 137.792 313.829 138.016C314.053 138.24 314.317 138.352 314.621 138.352ZM318.402 141.04L318.162 140.464C318.506 140.312 318.774 140.104 318.966 139.84C319.158 139.584 319.25 139.296 319.242 138.976L319.134 138.088L319.626 138.808C319.554 138.88 319.474 138.932 319.386 138.964C319.306 138.996 319.218 139.012 319.122 139.012C318.93 139.012 318.762 138.952 318.618 138.832C318.482 138.712 318.414 138.544 318.414 138.328C318.414 138.112 318.486 137.944 318.63 137.824C318.782 137.696 318.954 137.632 319.146 137.632C319.41 137.632 319.614 137.736 319.758 137.944C319.902 138.144 319.974 138.428 319.974 138.796C319.974 139.308 319.834 139.76 319.554 140.152C319.274 140.544 318.89 140.84 318.402 141.04ZM323.574 139.144C322.806 139.144 322.202 138.8 321.762 138.112C321.33 137.416 321.114 136.428 321.114 135.148C321.114 133.86 321.33 132.88 321.762 132.208C322.202 131.536 322.806 131.2 323.574 131.2C324.334 131.2 324.93 131.54 325.362 132.22C325.802 132.892 326.022 133.868 326.022 135.148C326.022 136.428 325.802 137.416 325.362 138.112C324.93 138.8 324.334 139.144 323.574 139.144ZM323.574 138.352C323.87 138.352 324.13 138.24 324.354 138.016C324.578 137.792 324.75 137.444 324.87 136.972C324.998 136.5 325.062 135.892 325.062 135.148C325.062 134.396 324.998 133.788 324.87 133.324C324.75 132.86 324.578 132.524 324.354 132.316C324.13 132.1 323.87 131.992 323.574 131.992C323.27 131.992 323.006 132.1 322.782 132.316C322.558 132.524 322.382 132.86 322.254 133.324C322.134 133.788 322.074 134.396 322.074 135.148C322.074 135.892 322.134 136.5 322.254 136.972C322.382 137.444 322.558 137.792 322.782 138.016C323.006 138.24 323.27 138.352 323.574 138.352ZM327.355 141.04L327.115 140.464C327.459 140.312 327.727 140.104 327.919 139.84C328.111 139.584 328.203 139.296 328.195 138.976L328.087 138.088L328.579 138.808C328.507 138.88 328.427 138.932 328.339 138.964C328.259 138.996 328.171 139.012 328.075 139.012C327.883 139.012 327.715 138.952 327.571 138.832C327.435 138.712 327.367 138.544 327.367 138.328C327.367 138.112 327.439 137.944 327.583 137.824C327.735 137.696 327.907 137.632 328.099 137.632C328.363 137.632 328.567 137.736 328.711 137.944C328.855 138.144 328.927 138.428 328.927 138.796C328.927 139.308 328.787 139.76 328.507 140.152C328.227 140.544 327.843 140.84 327.355 141.04ZM332.527 139.144C331.759 139.144 331.155 138.8 330.715 138.112C330.283 137.416 330.067 136.428 330.067 135.148C330.067 133.86 330.283 132.88 330.715 132.208C331.155 131.536 331.759 131.2 332.527 131.2C333.287 131.2 333.883 131.54 334.315 132.22C334.755 132.892 334.975 133.868 334.975 135.148C334.975 136.428 334.755 137.416 334.315 138.112C333.883 138.8 333.287 139.144 332.527 139.144ZM332.527 138.352C332.823 138.352 333.083 138.24 333.307 138.016C333.531 137.792 333.703 137.444 333.823 136.972C333.951 136.5 334.015 135.892 334.015 135.148C334.015 134.396 333.951 133.788 333.823 133.324C333.703 132.86 333.531 132.524 333.307 132.316C333.083 132.1 332.823 131.992 332.527 131.992C332.223 131.992 331.959 132.1 331.735 132.316C331.511 132.524 331.335 132.86 331.207 133.324C331.087 133.788 331.027 134.396 331.027 135.148C331.027 135.892 331.087 136.5 331.207 136.972C331.335 137.444 331.511 137.792 331.735 138.016C331.959 138.24 332.223 138.352 332.527 138.352ZM336.572 141.112L335.96 140.824C336.424 140.056 336.768 139.232 336.992 138.352C337.224 137.472 337.34 136.576 337.34 135.664C337.34 134.752 337.224 133.856 336.992 132.976C336.768 132.088 336.424 131.264 335.96 130.504L336.572 130.216C337.076 131.016 337.464 131.86 337.736 132.748C338.016 133.636 338.156 134.608 338.156 135.664C338.156 136.72 338.016 137.692 337.736 138.58C337.464 139.46 337.076 140.304 336.572 141.112Z" fill="black"/>
<path d="M259.568 286.112C259.072 285.304 258.684 284.46 258.404 283.58C258.124 282.692 257.984 281.72 257.984 280.664C257.984 279.608 258.124 278.636 258.404 277.748C258.684 276.86 259.072 276.016 259.568 275.216L260.18 275.504C259.716 276.264 259.368 277.088 259.136 277.976C258.912 278.856 258.8 279.752 258.8 280.664C258.8 281.576 258.912 282.472 259.136 283.352C259.368 284.232 259.716 285.056 260.18 285.824L259.568 286.112ZM271.128 286.04L270.888 285.464C271.232 285.312 271.5 285.104 271.692 284.84C271.884 284.584 271.976 284.296 271.968 283.976L271.86 283.088L272.352 283.808C272.28 283.88 272.2 283.932 272.112 283.964C272.032 283.996 271.944 284.012 271.848 284.012C271.656 284.012 271.488 283.952 271.344 283.832C271.208 283.712 271.14 283.544 271.14 283.328C271.14 283.112 271.212 282.944 271.356 282.824C271.508 282.696 271.68 282.632 271.872 282.632C272.136 282.632 272.34 282.736 272.484 282.944C272.628 283.144 272.7 283.428 272.7 283.796C272.7 284.308 272.56 284.76 272.28 285.152C272 285.544 271.616 285.84 271.128 286.04ZM286.21 286.04L285.97 285.464C286.314 285.312 286.582 285.104 286.774 284.84C286.966 284.584 287.058 284.296 287.05 283.976L286.942 283.088L287.434 283.808C287.362 283.88 287.282 283.932 287.194 283.964C287.114 283.996 287.026 284.012 286.93 284.012C286.738 284.012 286.57 283.952 286.426 283.832C286.29 283.712 286.222 283.544 286.222 283.328C286.222 283.112 286.294 282.944 286.438 282.824C286.59 282.696 286.762 282.632 286.954 282.632C287.218 282.632 287.422 282.736 287.566 282.944C287.71 283.144 287.782 283.428 287.782 283.796C287.782 284.308 287.642 284.76 287.362 285.152C287.082 285.544 286.698 285.84 286.21 286.04ZM301.556 286.112L300.944 285.824C301.408 285.056 301.752 284.232 301.976 283.352C302.208 282.472 302.324 281.576 302.324 280.664C302.324 279.752 302.208 278.856 301.976 277.976C301.752 277.088 301.408 276.264 300.944 275.504L301.556 275.216C302.06 276.016 302.448 276.86 302.72 277.748C303 278.636 303.14 279.608 303.14 280.664C303.14 281.72 303 282.692 302.72 283.58C302.448 284.46 302.06 285.304 301.556 286.112Z" fill="black"/>
<path d="M261.125 281.372V280.616H263.885V281.372H261.125ZM265.307 284V283.184H267.059V277.544H265.667V276.908C266.011 276.844 266.315 276.768 266.579 276.68C266.843 276.584 267.079 276.472 267.287 276.344H268.043V283.184H269.627V284H265.307Z" fill="#FF00E6"/>
<path d="M276.207 281.372V280.616H278.967V281.372H276.207ZM280.389 284V283.184H282.141V277.544H280.749V276.908C281.093 276.844 281.397 276.768 281.661 276.68C281.925 276.584 282.161 276.472 282.369 276.344H283.125V283.184H284.709V284H280.389Z" fill="#2A5D57"/>
<path d="M291.289 281.372V280.616H294.049V281.372H291.289ZM295.471 284V283.184H297.223V277.544H295.831V276.908C296.175 276.844 296.479 276.768 296.743 276.68C297.007 276.584 297.243 276.472 297.451 276.344H298.207V283.184H299.791V284H295.471Z" fill="#5447E9"/>
<path d="M328.568 244.112C328.072 243.304 327.684 242.46 327.404 241.58C327.124 240.692 326.984 239.72 326.984 238.664C326.984 237.608 327.124 236.636 327.404 235.748C327.684 234.86 328.072 234.016 328.568 233.216L329.18 233.504C328.716 234.264 328.368 235.088 328.136 235.976C327.912 236.856 327.8 237.752 327.8 238.664C327.8 239.576 327.912 240.472 328.136 241.352C328.368 242.232 328.716 243.056 329.18 243.824L328.568 244.112ZM336.402 244.04L336.162 243.464C336.506 243.312 336.774 243.104 336.966 242.84C337.158 242.584 337.25 242.296 337.242 241.976L337.134 241.088L337.626 241.808C337.554 241.88 337.474 241.932 337.386 241.964C337.306 241.996 337.218 242.012 337.122 242.012C336.93 242.012 336.762 241.952 336.618 241.832C336.482 241.712 336.414 241.544 336.414 241.328C336.414 241.112 336.486 240.944 336.63 240.824C336.782 240.696 336.954 240.632 337.146 240.632C337.41 240.632 337.614 240.736 337.758 240.944C337.902 241.144 337.974 241.428 337.974 241.796C337.974 242.308 337.834 242.76 337.554 243.152C337.274 243.544 336.89 243.84 336.402 244.04ZM347.757 244.04L347.517 243.464C347.861 243.312 348.129 243.104 348.321 242.84C348.513 242.584 348.605 242.296 348.597 241.976L348.489 241.088L348.981 241.808C348.909 241.88 348.829 241.932 348.741 241.964C348.661 241.996 348.573 242.012 348.477 242.012C348.285 242.012 348.117 241.952 347.973 241.832C347.837 241.712 347.769 241.544 347.769 241.328C347.769 241.112 347.841 240.944 347.985 240.824C348.137 240.696 348.309 240.632 348.501 240.632C348.765 240.632 348.969 240.736 349.113 240.944C349.257 241.144 349.329 241.428 349.329 241.796C349.329 242.308 349.189 242.76 348.909 243.152C348.629 243.544 348.245 243.84 347.757 244.04ZM363.103 244.112L362.491 243.824C362.955 243.056 363.299 242.232 363.523 241.352C363.755 240.472 363.871 239.576 363.871 238.664C363.871 237.752 363.755 236.856 363.523 235.976C363.299 235.088 362.955 234.264 362.491 233.504L363.103 233.216C363.607 234.016 363.995 234.86 364.267 235.748C364.547 236.636 364.687 237.608 364.687 238.664C364.687 239.72 364.547 240.692 364.267 241.58C363.995 242.46 363.607 243.304 363.103 244.112Z" fill="black"/>
<path d="M332.621 242.144C331.853 242.144 331.249 241.8 330.809 241.112C330.377 240.416 330.161 239.428 330.161 238.148C330.161 236.86 330.377 235.88 330.809 235.208C331.249 234.536 331.853 234.2 332.621 234.2C333.381 234.2 333.977 234.54 334.409 235.22C334.849 235.892 335.069 236.868 335.069 238.148C335.069 239.428 334.849 240.416 334.409 241.112C333.977 241.8 333.381 242.144 332.621 242.144ZM332.621 241.352C332.917 241.352 333.177 241.24 333.401 241.016C333.625 240.792 333.797 240.444 333.917 239.972C334.045 239.5 334.109 238.892 334.109 238.148C334.109 237.396 334.045 236.788 333.917 236.324C333.797 235.86 333.625 235.524 333.401 235.316C333.177 235.1 332.917 234.992 332.621 234.992C332.317 234.992 332.053 235.1 331.829 235.316C331.605 235.524 331.429 235.86 331.301 236.324C331.181 236.788 331.121 237.396 331.121 238.148C331.121 238.892 331.181 239.5 331.301 239.972C331.429 240.444 331.605 240.792 331.829 241.016C332.053 241.24 332.317 241.352 332.621 241.352Z" fill="#FF00E6"/>
<path d="M343.976 242.144C343.208 242.144 342.604 241.8 342.164 241.112C341.732 240.416 341.516 239.428 341.516 238.148C341.516 236.86 341.732 235.88 342.164 235.208C342.604 234.536 343.208 234.2 343.976 234.2C344.736 234.2 345.332 234.54 345.764 235.22C346.204 235.892 346.424 236.868 346.424 238.148C346.424 239.428 346.204 240.416 345.764 241.112C345.332 241.8 344.736 242.144 343.976 242.144ZM343.976 241.352C344.272 241.352 344.532 241.24 344.756 241.016C344.98 240.792 345.152 240.444 345.272 239.972C345.4 239.5 345.464 238.892 345.464 238.148C345.464 237.396 345.4 236.788 345.272 236.324C345.152 235.86 344.98 235.524 344.756 235.316C344.532 235.1 344.272 234.992 343.976 234.992C343.672 234.992 343.408 235.1 343.184 235.316C342.96 235.524 342.784 235.86 342.656 236.324C342.536 236.788 342.476 237.396 342.476 238.148C342.476 238.892 342.536 239.5 342.656 239.972C342.784 240.444 342.96 240.792 343.184 241.016C343.408 241.24 343.672 241.352 343.976 241.352Z" fill="#2A5D57"/>
<path d="M352.836 239.372V238.616H355.596V239.372H352.836ZM357.018 242V241.184H358.77V235.544H357.378V234.908C357.722 234.844 358.026 234.768 358.29 234.68C358.554 234.584 358.79 234.472 358.998 234.344H359.754V241.184H361.338V242H357.018Z" fill="#5447E9"/>
<path d="M319.568 198.112C319.072 197.304 318.684 196.46 318.404 195.58C318.124 194.692 317.984 193.72 317.984 192.664C317.984 191.608 318.124 190.636 318.404 189.748C318.684 188.86 319.072 188.016 319.568 187.216L320.18 187.504C319.716 188.264 319.368 189.088 319.136 189.976C318.912 190.856 318.8 191.752 318.8 192.664C318.8 193.576 318.912 194.472 319.136 195.352C319.368 196.232 319.716 197.056 320.18 197.824L319.568 198.112ZM327.402 198.04L327.162 197.464C327.506 197.312 327.774 197.104 327.966 196.84C328.158 196.584 328.25 196.296 328.242 195.976L328.134 195.088L328.626 195.808C328.554 195.88 328.474 195.932 328.386 195.964C328.306 195.996 328.218 196.012 328.122 196.012C327.93 196.012 327.762 195.952 327.618 195.832C327.482 195.712 327.414 195.544 327.414 195.328C327.414 195.112 327.486 194.944 327.63 194.824C327.782 194.696 327.954 194.632 328.146 194.632C328.41 194.632 328.614 194.736 328.758 194.944C328.902 195.144 328.974 195.428 328.974 195.796C328.974 196.308 328.834 196.76 328.554 197.152C328.274 197.544 327.89 197.84 327.402 198.04ZM342.484 198.04L342.244 197.464C342.588 197.312 342.856 197.104 343.048 196.84C343.24 196.584 343.332 196.296 343.324 195.976L343.216 195.088L343.708 195.808C343.636 195.88 343.556 195.932 343.468 195.964C343.388 195.996 343.3 196.012 343.204 196.012C343.012 196.012 342.844 195.952 342.7 195.832C342.564 195.712 342.496 195.544 342.496 195.328C342.496 195.112 342.568 194.944 342.712 194.824C342.864 194.696 343.036 194.632 343.228 194.632C343.492 194.632 343.696 194.736 343.84 194.944C343.984 195.144 344.056 195.428 344.056 195.796C344.056 196.308 343.916 196.76 343.636 197.152C343.356 197.544 342.972 197.84 342.484 198.04ZM354.103 198.112L353.491 197.824C353.955 197.056 354.299 196.232 354.523 195.352C354.755 194.472 354.871 193.576 354.871 192.664C354.871 191.752 354.755 190.856 354.523 189.976C354.299 189.088 353.955 188.264 353.491 187.504L354.103 187.216C354.607 188.016 354.995 188.86 355.267 189.748C355.547 190.636 355.687 191.608 355.687 192.664C355.687 193.72 355.547 194.692 355.267 195.58C354.995 196.46 354.607 197.304 354.103 198.112Z" fill="black"/>
<path d="M323.621 196.144C322.853 196.144 322.249 195.8 321.809 195.112C321.377 194.416 321.161 193.428 321.161 192.148C321.161 190.86 321.377 189.88 321.809 189.208C322.249 188.536 322.853 188.2 323.621 188.2C324.381 188.2 324.977 188.54 325.409 189.22C325.849 189.892 326.069 190.868 326.069 192.148C326.069 193.428 325.849 194.416 325.409 195.112C324.977 195.8 324.381 196.144 323.621 196.144ZM323.621 195.352C323.917 195.352 324.177 195.24 324.401 195.016C324.625 194.792 324.797 194.444 324.917 193.972C325.045 193.5 325.109 192.892 325.109 192.148C325.109 191.396 325.045 190.788 324.917 190.324C324.797 189.86 324.625 189.524 324.401 189.316C324.177 189.1 323.917 188.992 323.621 188.992C323.317 188.992 323.053 189.1 322.829 189.316C322.605 189.524 322.429 189.86 322.301 190.324C322.181 190.788 322.121 191.396 322.121 192.148C322.121 192.892 322.181 193.5 322.301 193.972C322.429 194.444 322.605 194.792 322.829 195.016C323.053 195.24 323.317 195.352 323.621 195.352Z" fill="#FF00E6"/>
<path d="M332.48 193.372V192.616H335.24V193.372H332.48ZM336.663 196V195.184H338.415V189.544H337.023V188.908C337.367 188.844 337.671 188.768 337.935 188.68C338.199 188.584 338.435 188.472 338.643 188.344H339.399V195.184H340.983V196H336.663Z" fill="#2A5D57"/>
<path d="M350.058 196.144C349.29 196.144 348.686 195.8 348.246 195.112C347.814 194.416 347.598 193.428 347.598 192.148C347.598 190.86 347.814 189.88 348.246 189.208C348.686 188.536 349.29 188.2 350.058 188.2C350.818 188.2 351.414 188.54 351.846 189.22C352.286 189.892 352.506 190.868 352.506 192.148C352.506 193.428 352.286 194.416 351.846 195.112C351.414 195.8 350.818 196.144 350.058 196.144ZM350.058 195.352C350.354 195.352 350.614 195.24 350.838 195.016C351.062 194.792 351.234 194.444 351.354 193.972C351.482 193.5 351.546 192.892 351.546 192.148C351.546 191.396 351.482 190.788 351.354 190.324C351.234 189.86 351.062 189.524 350.838 189.316C350.614 189.1 350.354 188.992 350.058 188.992C349.754 188.992 349.49 189.1 349.266 189.316C349.042 189.524 348.866 189.86 348.738 190.324C348.618 190.788 348.558 191.396 348.558 192.148C348.558 192.892 348.618 193.5 348.738 193.972C348.866 194.444 349.042 194.792 349.266 195.016C349.49 195.24 349.754 195.352 350.058 195.352Z" fill="#5447E9"/>
<path d="M200.568 134.112C200.072 133.304 199.684 132.46 199.404 131.58C199.124 130.692 198.984 129.72 198.984 128.664C198.984 127.608 199.124 126.636 199.404 125.748C199.684 124.86 200.072 124.016 200.568 123.216L201.18 123.504C200.716 124.264 200.368 125.088 200.136 125.976C199.912 126.856 199.8 127.752 199.8 128.664C199.8 129.576 199.912 130.472 200.136 131.352C200.368 132.232 200.716 133.056 201.18 133.824L200.568 134.112ZM212.128 134.04L211.888 133.464C212.232 133.312 212.5 133.104 212.692 132.84C212.884 132.584 212.976 132.296 212.968 131.976L212.86 131.088L213.352 131.808C213.28 131.88 213.2 131.932 213.112 131.964C213.032 131.996 212.944 132.012 212.848 132.012C212.656 132.012 212.488 131.952 212.344 131.832C212.208 131.712 212.14 131.544 212.14 131.328C212.14 131.112 212.212 130.944 212.356 130.824C212.508 130.696 212.68 130.632 212.872 130.632C213.136 130.632 213.34 130.736 213.484 130.944C213.628 131.144 213.7 131.428 213.7 131.796C213.7 132.308 213.56 132.76 213.28 133.152C213 133.544 212.616 133.84 212.128 134.04ZM223.484 134.04L223.244 133.464C223.588 133.312 223.856 133.104 224.048 132.84C224.24 132.584 224.332 132.296 224.324 131.976L224.216 131.088L224.708 131.808C224.636 131.88 224.556 131.932 224.468 131.964C224.388 131.996 224.3 132.012 224.204 132.012C224.012 132.012 223.844 131.952 223.7 131.832C223.564 131.712 223.496 131.544 223.496 131.328C223.496 131.112 223.568 130.944 223.712 130.824C223.864 130.696 224.036 130.632 224.228 130.632C224.492 130.632 224.696 130.736 224.84 130.944C224.984 131.144 225.056 131.428 225.056 131.796C225.056 132.308 224.916 132.76 224.636 133.152C224.356 133.544 223.972 133.84 223.484 134.04ZM235.103 134.112L234.491 133.824C234.955 133.056 235.299 132.232 235.523 131.352C235.755 130.472 235.871 129.576 235.871 128.664C235.871 127.752 235.755 126.856 235.523 125.976C235.299 125.088 234.955 124.264 234.491 123.504L235.103 123.216C235.607 124.016 235.995 124.86 236.267 125.748C236.547 126.636 236.687 127.608 236.687 128.664C236.687 129.72 236.547 130.692 236.267 131.58C235.995 132.46 235.607 133.304 235.103 134.112Z" fill="black"/>
<path d="M202.125 129.372V128.616H204.885V129.372H202.125ZM206.307 132V131.184H208.059V125.544H206.667V124.908C207.011 124.844 207.315 124.768 207.579 124.68C207.843 124.584 208.079 124.472 208.287 124.344H209.043V131.184H210.627V132H206.307Z" fill="#FF00E6"/>
<path d="M219.703 132.144C218.935 132.144 218.331 131.8 217.891 131.112C217.459 130.416 217.243 129.428 217.243 128.148C217.243 126.86 217.459 125.88 217.891 125.208C218.331 124.536 218.935 124.2 219.703 124.2C220.463 124.2 221.059 124.54 221.491 125.22C221.931 125.892 222.151 126.868 222.151 128.148C222.151 129.428 221.931 130.416 221.491 131.112C221.059 131.8 220.463 132.144 219.703 132.144ZM219.703 131.352C219.999 131.352 220.259 131.24 220.483 131.016C220.707 130.792 220.879 130.444 220.999 129.972C221.127 129.5 221.191 128.892 221.191 128.148C221.191 127.396 221.127 126.788 220.999 126.324C220.879 125.86 220.707 125.524 220.483 125.316C220.259 125.1 219.999 124.992 219.703 124.992C219.399 124.992 219.135 125.1 218.911 125.316C218.687 125.524 218.511 125.86 218.383 126.324C218.263 126.788 218.203 127.396 218.203 128.148C218.203 128.892 218.263 129.5 218.383 129.972C218.511 130.444 218.687 130.792 218.911 131.016C219.135 131.24 219.399 131.352 219.703 131.352Z" fill="#2A5D57"/>
<path d="M231.058 132.144C230.29 132.144 229.686 131.8 229.246 131.112C228.814 130.416 228.598 129.428 228.598 128.148C228.598 126.86 228.814 125.88 229.246 125.208C229.686 124.536 230.29 124.2 231.058 124.2C231.818 124.2 232.414 124.54 232.846 125.22C233.286 125.892 233.506 126.868 233.506 128.148C233.506 129.428 233.286 130.416 232.846 131.112C232.414 131.8 231.818 132.144 231.058 132.144ZM231.058 131.352C231.354 131.352 231.614 131.24 231.838 131.016C232.062 130.792 232.234 130.444 232.354 129.972C232.482 129.5 232.546 128.892 232.546 128.148C232.546 127.396 232.482 126.788 232.354 126.324C232.234 125.86 232.062 125.524 231.838 125.316C231.614 125.1 231.354 124.992 231.058 124.992C230.754 124.992 230.49 125.1 230.266 125.316C230.042 125.524 229.866 125.86 229.738 126.324C229.618 126.788 229.558 127.396 229.558 128.148C229.558 128.892 229.618 129.5 229.738 129.972C229.866 130.444 230.042 130.792 230.266 131.016C230.49 131.24 230.754 131.352 231.058 131.352Z" fill="#5447E9"/>
<path d="M312.568 59.112C312.072 58.304 311.684 57.46 311.404 56.58C311.124 55.692 310.984 54.72 310.984 53.664C310.984 52.608 311.124 51.636 311.404 50.748C311.684 49.86 312.072 49.016 312.568 48.216L313.18 48.504C312.716 49.264 312.368 50.088 312.136 50.976C311.912 51.856 311.8 52.752 311.8 53.664C311.8 54.576 311.912 55.472 312.136 56.352C312.368 57.232 312.716 58.056 313.18 58.824L312.568 59.112ZM320.402 59.04L320.162 58.464C320.506 58.312 320.774 58.104 320.966 57.84C321.158 57.584 321.25 57.296 321.242 56.976L321.134 56.088L321.626 56.808C321.554 56.88 321.474 56.932 321.386 56.964C321.306 56.996 321.218 57.012 321.122 57.012C320.93 57.012 320.762 56.952 320.618 56.832C320.482 56.712 320.414 56.544 320.414 56.328C320.414 56.112 320.486 55.944 320.63 55.824C320.782 55.696 320.954 55.632 321.146 55.632C321.41 55.632 321.614 55.736 321.758 55.944C321.902 56.144 321.974 56.428 321.974 56.796C321.974 57.308 321.834 57.76 321.554 58.152C321.274 58.544 320.89 58.84 320.402 59.04ZM331.757 59.04L331.517 58.464C331.861 58.312 332.129 58.104 332.321 57.84C332.513 57.584 332.605 57.296 332.597 56.976L332.489 56.088L332.981 56.808C332.909 56.88 332.829 56.932 332.741 56.964C332.661 56.996 332.573 57.012 332.477 57.012C332.285 57.012 332.117 56.952 331.973 56.832C331.837 56.712 331.769 56.544 331.769 56.328C331.769 56.112 331.841 55.944 331.985 55.824C332.137 55.696 332.309 55.632 332.501 55.632C332.765 55.632 332.969 55.736 333.113 55.944C333.257 56.144 333.329 56.428 333.329 56.796C333.329 57.308 333.189 57.76 332.909 58.152C332.629 58.544 332.245 58.84 331.757 59.04ZM343.377 59.112L342.765 58.824C343.229 58.056 343.573 57.232 343.797 56.352C344.029 55.472 344.145 54.576 344.145 53.664C344.145 52.752 344.029 51.856 343.797 50.976C343.573 50.088 343.229 49.264 342.765 48.504L343.377 48.216C343.881 49.016 344.269 49.86 344.541 50.748C344.821 51.636 344.961 52.608 344.961 53.664C344.961 54.72 344.821 55.692 344.541 56.58C344.269 57.46 343.881 58.304 343.377 59.112Z" fill="black"/>
<path d="M316.621 57.144C315.853 57.144 315.249 56.8 314.809 56.112C314.377 55.416 314.161 54.428 314.161 53.148C314.161 51.86 314.377 50.88 314.809 50.208C315.249 49.536 315.853 49.2 316.621 49.2C317.381 49.2 317.977 49.54 318.409 50.22C318.849 50.892 319.069 51.868 319.069 53.148C319.069 54.428 318.849 55.416 318.409 56.112C317.977 56.8 317.381 57.144 316.621 57.144ZM316.621 56.352C316.917 56.352 317.177 56.24 317.401 56.016C317.625 55.792 317.797 55.444 317.917 54.972C318.045 54.5 318.109 53.892 318.109 53.148C318.109 52.396 318.045 51.788 317.917 51.324C317.797 50.86 317.625 50.524 317.401 50.316C317.177 50.1 316.917 49.992 316.621 49.992C316.317 49.992 316.053 50.1 315.829 50.316C315.605 50.524 315.429 50.86 315.301 51.324C315.181 51.788 315.121 52.396 315.121 53.148C315.121 53.892 315.181 54.5 315.301 54.972C315.429 55.444 315.605 55.792 315.829 56.016C316.053 56.24 316.317 56.352 316.621 56.352Z" fill="#FF00E6"/>
<path d="M327.976 57.144C327.208 57.144 326.604 56.8 326.164 56.112C325.732 55.416 325.516 54.428 325.516 53.148C325.516 51.86 325.732 50.88 326.164 50.208C326.604 49.536 327.208 49.2 327.976 49.2C328.736 49.2 329.332 49.54 329.764 50.22C330.204 50.892 330.424 51.868 330.424 53.148C330.424 54.428 330.204 55.416 329.764 56.112C329.332 56.8 328.736 57.144 327.976 57.144ZM327.976 56.352C328.272 56.352 328.532 56.24 328.756 56.016C328.98 55.792 329.152 55.444 329.272 54.972C329.4 54.5 329.464 53.892 329.464 53.148C329.464 52.396 329.4 51.788 329.272 51.324C329.152 50.86 328.98 50.524 328.756 50.316C328.532 50.1 328.272 49.992 327.976 49.992C327.672 49.992 327.408 50.1 327.184 50.316C326.96 50.524 326.784 50.86 326.656 51.324C326.536 51.788 326.476 52.396 326.476 53.148C326.476 53.892 326.536 54.5 326.656 54.972C326.784 55.444 326.96 55.792 327.184 56.016C327.408 56.24 327.672 56.352 327.976 56.352Z" fill="#2A5D57"/>
<path d="M337.292 57V56.184H339.044V50.544H337.652V49.908C337.996 49.844 338.3 49.768 338.564 49.68C338.828 49.584 339.064 49.472 339.272 49.344H340.028V56.184H341.612V57H337.292Z" fill="#5447E9"/>
<path d="M400.568 167.112C400.072 166.304 399.684 165.46 399.404 164.58C399.124 163.692 398.984 162.72 398.984 161.664C398.984 160.608 399.124 159.636 399.404 158.748C399.684 157.86 400.072 157.016 400.568 156.216L401.18 156.504C400.716 157.264 400.368 158.088 400.136 158.976C399.912 159.856 399.8 160.752 399.8 161.664C399.8 162.576 399.912 163.472 400.136 164.352C400.368 165.232 400.716 166.056 401.18 166.824L400.568 167.112ZM408.402 167.04L408.162 166.464C408.506 166.312 408.774 166.104 408.966 165.84C409.158 165.584 409.25 165.296 409.242 164.976L409.134 164.088L409.626 164.808C409.554 164.88 409.474 164.932 409.386 164.964C409.306 164.996 409.218 165.012 409.122 165.012C408.93 165.012 408.762 164.952 408.618 164.832C408.482 164.712 408.414 164.544 408.414 164.328C408.414 164.112 408.486 163.944 408.63 163.824C408.782 163.696 408.954 163.632 409.146 163.632C409.41 163.632 409.614 163.736 409.758 163.944C409.902 164.144 409.974 164.428 409.974 164.796C409.974 165.308 409.834 165.76 409.554 166.152C409.274 166.544 408.89 166.84 408.402 167.04ZM419.757 167.04L419.517 166.464C419.861 166.312 420.129 166.104 420.321 165.84C420.513 165.584 420.605 165.296 420.597 164.976L420.489 164.088L420.981 164.808C420.909 164.88 420.829 164.932 420.741 164.964C420.661 164.996 420.573 165.012 420.477 165.012C420.285 165.012 420.117 164.952 419.973 164.832C419.837 164.712 419.769 164.544 419.769 164.328C419.769 164.112 419.841 163.944 419.985 163.824C420.137 163.696 420.309 163.632 420.501 163.632C420.765 163.632 420.969 163.736 421.113 163.944C421.257 164.144 421.329 164.428 421.329 164.796C421.329 165.308 421.189 165.76 420.909 166.152C420.629 166.544 420.245 166.84 419.757 167.04ZM431.377 167.112L430.765 166.824C431.229 166.056 431.573 165.232 431.797 164.352C432.029 163.472 432.145 162.576 432.145 161.664C432.145 160.752 432.029 159.856 431.797 158.976C431.573 158.088 431.229 157.264 430.765 156.504L431.377 156.216C431.881 157.016 432.269 157.86 432.541 158.748C432.821 159.636 432.961 160.608 432.961 161.664C432.961 162.72 432.821 163.692 432.541 164.58C432.269 165.46 431.881 166.304 431.377 167.112Z" fill="black"/>
<path d="M402.581 165V164.184H404.333V158.544H402.941V157.908C403.285 157.844 403.589 157.768 403.853 157.68C404.117 157.584 404.353 157.472 404.561 157.344H405.317V164.184H406.901V165H402.581Z" fill="#FF00E6"/>
<path d="M415.976 165.144C415.208 165.144 414.604 164.8 414.164 164.112C413.732 163.416 413.516 162.428 413.516 161.148C413.516 159.86 413.732 158.88 414.164 158.208C414.604 157.536 415.208 157.2 415.976 157.2C416.736 157.2 417.332 157.54 417.764 158.22C418.204 158.892 418.424 159.868 418.424 161.148C418.424 162.428 418.204 163.416 417.764 164.112C417.332 164.8 416.736 165.144 415.976 165.144ZM415.976 164.352C416.272 164.352 416.532 164.24 416.756 164.016C416.98 163.792 417.152 163.444 417.272 162.972C417.4 162.5 417.464 161.892 417.464 161.148C417.464 160.396 417.4 159.788 417.272 159.324C417.152 158.86 416.98 158.524 416.756 158.316C416.532 158.1 416.272 157.992 415.976 157.992C415.672 157.992 415.408 158.1 415.184 158.316C414.96 158.524 414.784 158.86 414.656 159.324C414.536 159.788 414.476 160.396 414.476 161.148C414.476 161.892 414.536 162.5 414.656 162.972C414.784 163.444 414.96 163.792 415.184 164.016C415.408 164.24 415.672 164.352 415.976 164.352Z" fill="#2A5D57"/>
<path d="M427.332 165.144C426.564 165.144 425.96 164.8 425.52 164.112C425.088 163.416 424.872 162.428 424.872 161.148C424.872 159.86 425.088 158.88 425.52 158.208C425.96 157.536 426.564 157.2 427.332 157.2C428.092 157.2 428.688 157.54 429.12 158.22C429.56 158.892 429.78 159.868 429.78 161.148C429.78 162.428 429.56 163.416 429.12 164.112C428.688 164.8 428.092 165.144 427.332 165.144ZM427.332 164.352C427.628 164.352 427.888 164.24 428.112 164.016C428.336 163.792 428.508 163.444 428.628 162.972C428.756 162.5 428.82 161.892 428.82 161.148C428.82 160.396 428.756 159.788 428.628 159.324C428.508 158.86 428.336 158.524 428.112 158.316C427.888 158.1 427.628 157.992 427.332 157.992C427.028 157.992 426.764 158.1 426.54 158.316C426.316 158.524 426.14 158.86 426.012 159.324C425.892 159.788 425.832 160.396 425.832 161.148C425.832 161.892 425.892 162.5 426.012 162.972C426.14 163.444 426.316 163.792 426.54 164.016C426.764 164.24 427.028 164.352 427.332 164.352Z" fill="#5447E9"/>
<path d="M253.568 139.112C253.072 138.304 252.684 137.46 252.404 136.58C252.124 135.692 251.984 134.72 251.984 133.664C251.984 132.608 252.124 131.636 252.404 130.748C252.684 129.86 253.072 129.016 253.568 128.216L254.18 128.504C253.716 129.264 253.368 130.088 253.136 130.976C252.912 131.856 252.8 132.752 252.8 133.664C252.8 134.576 252.912 135.472 253.136 136.352C253.368 137.232 253.716 138.056 254.18 138.824L253.568 139.112ZM261.402 139.04L261.162 138.464C261.506 138.312 261.774 138.104 261.966 137.84C262.158 137.584 262.25 137.296 262.242 136.976L262.134 136.088L262.626 136.808C262.554 136.88 262.474 136.932 262.386 136.964C262.306 136.996 262.218 137.012 262.122 137.012C261.93 137.012 261.762 136.952 261.618 136.832C261.482 136.712 261.414 136.544 261.414 136.328C261.414 136.112 261.486 135.944 261.63 135.824C261.782 135.696 261.954 135.632 262.146 135.632C262.41 135.632 262.614 135.736 262.758 135.944C262.902 136.144 262.974 136.428 262.974 136.796C262.974 137.308 262.834 137.76 262.554 138.152C262.274 138.544 261.89 138.84 261.402 139.04ZM272.757 139.04L272.517 138.464C272.861 138.312 273.129 138.104 273.321 137.84C273.513 137.584 273.605 137.296 273.597 136.976L273.489 136.088L273.981 136.808C273.909 136.88 273.829 136.932 273.741 136.964C273.661 136.996 273.573 137.012 273.477 137.012C273.285 137.012 273.117 136.952 272.973 136.832C272.837 136.712 272.769 136.544 272.769 136.328C272.769 136.112 272.841 135.944 272.985 135.824C273.137 135.696 273.309 135.632 273.501 135.632C273.765 135.632 273.969 135.736 274.113 135.944C274.257 136.144 274.329 136.428 274.329 136.796C274.329 137.308 274.189 137.76 273.909 138.152C273.629 138.544 273.245 138.84 272.757 139.04ZM284.377 139.112L283.765 138.824C284.229 138.056 284.573 137.232 284.797 136.352C285.029 135.472 285.145 134.576 285.145 133.664C285.145 132.752 285.029 131.856 284.797 130.976C284.573 130.088 284.229 129.264 283.765 128.504L284.377 128.216C284.881 129.016 285.269 129.86 285.541 130.748C285.821 131.636 285.961 132.608 285.961 133.664C285.961 134.72 285.821 135.692 285.541 136.58C285.269 137.46 284.881 138.304 284.377 139.112Z" fill="black"/>
<path d="M257.621 137.144C256.853 137.144 256.249 136.8 255.809 136.112C255.377 135.416 255.161 134.428 255.161 133.148C255.161 131.86 255.377 130.88 255.809 130.208C256.249 129.536 256.853 129.2 257.621 129.2C258.381 129.2 258.977 129.54 259.409 130.22C259.849 130.892 260.069 131.868 260.069 133.148C260.069 134.428 259.849 135.416 259.409 136.112C258.977 136.8 258.381 137.144 257.621 137.144ZM257.621 136.352C257.917 136.352 258.177 136.24 258.401 136.016C258.625 135.792 258.797 135.444 258.917 134.972C259.045 134.5 259.109 133.892 259.109 133.148C259.109 132.396 259.045 131.788 258.917 131.324C258.797 130.86 258.625 130.524 258.401 130.316C258.177 130.1 257.917 129.992 257.621 129.992C257.317 129.992 257.053 130.1 256.829 130.316C256.605 130.524 256.429 130.86 256.301 131.324C256.181 131.788 256.121 132.396 256.121 133.148C256.121 133.892 256.181 134.5 256.301 134.972C256.429 135.444 256.605 135.792 256.829 136.016C257.053 136.24 257.317 136.352 257.621 136.352Z" fill="#FF00E6"/>
<path d="M266.936 137V136.184H268.688V130.544H267.296V129.908C267.64 129.844 267.944 129.768 268.208 129.68C268.472 129.584 268.708 129.472 268.916 129.344H269.672V136.184H271.256V137H266.936Z" fill="#2A5D57"/>
<path d="M280.332 137.144C279.564 137.144 278.96 136.8 278.52 136.112C278.088 135.416 277.872 134.428 277.872 133.148C277.872 131.86 278.088 130.88 278.52 130.208C278.96 129.536 279.564 129.2 280.332 129.2C281.092 129.2 281.688 129.54 282.12 130.22C282.56 130.892 282.78 131.868 282.78 133.148C282.78 134.428 282.56 135.416 282.12 136.112C281.688 136.8 281.092 137.144 280.332 137.144ZM280.332 136.352C280.628 136.352 280.888 136.24 281.112 136.016C281.336 135.792 281.508 135.444 281.628 134.972C281.756 134.5 281.82 133.892 281.82 133.148C281.82 132.396 281.756 131.788 281.628 131.324C281.508 130.86 281.336 130.524 281.112 130.316C280.888 130.1 280.628 129.992 280.332 129.992C280.028 129.992 279.764 130.1 279.54 130.316C279.316 130.524 279.14 130.86 279.012 131.324C278.892 131.788 278.832 132.396 278.832 133.148C278.832 133.892 278.892 134.5 279.012 134.972C279.14 135.444 279.316 135.792 279.54 136.016C279.764 136.24 280.028 136.352 280.332 136.352Z" fill="#5447E9"/>
<path d="M382.568 31.112C382.072 30.304 381.684 29.46 381.404 28.58C381.124 27.692 380.984 26.72 380.984 25.664C380.984 24.608 381.124 23.636 381.404 22.748C381.684 21.86 382.072 21.016 382.568 20.216L383.18 20.504C382.716 21.264 382.368 22.088 382.136 22.976C381.912 23.856 381.8 24.752 381.8 25.664C381.8 26.576 381.912 27.472 382.136 28.352C382.368 29.232 382.716 30.056 383.18 30.824L382.568 31.112ZM390.402 31.04L390.162 30.464C390.506 30.312 390.774 30.104 390.966 29.84C391.158 29.584 391.25 29.296 391.242 28.976L391.134 28.088L391.626 28.808C391.554 28.88 391.474 28.932 391.386 28.964C391.306 28.996 391.218 29.012 391.122 29.012C390.93 29.012 390.762 28.952 390.618 28.832C390.482 28.712 390.414 28.544 390.414 28.328C390.414 28.112 390.486 27.944 390.63 27.824C390.782 27.696 390.954 27.632 391.146 27.632C391.41 27.632 391.614 27.736 391.758 27.944C391.902 28.144 391.974 28.428 391.974 28.796C391.974 29.308 391.834 29.76 391.554 30.152C391.274 30.544 390.89 30.84 390.402 31.04ZM401.757 31.04L401.517 30.464C401.861 30.312 402.129 30.104 402.321 29.84C402.513 29.584 402.605 29.296 402.597 28.976L402.489 28.088L402.981 28.808C402.909 28.88 402.829 28.932 402.741 28.964C402.661 28.996 402.573 29.012 402.477 29.012C402.285 29.012 402.117 28.952 401.973 28.832C401.837 28.712 401.769 28.544 401.769 28.328C401.769 28.112 401.841 27.944 401.985 27.824C402.137 27.696 402.309 27.632 402.501 27.632C402.765 27.632 402.969 27.736 403.113 27.944C403.257 28.144 403.329 28.428 403.329 28.796C403.329 29.308 403.189 29.76 402.909 30.152C402.629 30.544 402.245 30.84 401.757 31.04ZM413.377 31.112L412.765 30.824C413.229 30.056 413.573 29.232 413.797 28.352C414.029 27.472 414.145 26.576 414.145 25.664C414.145 24.752 414.029 23.856 413.797 22.976C413.573 22.088 413.229 21.264 412.765 20.504L413.377 20.216C413.881 21.016 414.269 21.86 414.541 22.748C414.821 23.636 414.961 24.608 414.961 25.664C414.961 26.72 414.821 27.692 414.541 28.58C414.269 29.46 413.881 30.304 413.377 31.112Z" fill="black"/>
<path d="M384.581 29V28.184H386.333V22.544H384.941V21.908C385.285 21.844 385.589 21.768 385.853 21.68C386.117 21.584 386.353 21.472 386.561 21.344H387.317V28.184H388.901V29H384.581Z" fill="#FF00E6"/>
<path d="M395.936 29V28.184H397.688V22.544H396.296V21.908C396.64 21.844 396.944 21.768 397.208 21.68C397.472 21.584 397.708 21.472 397.916 21.344H398.672V28.184H400.256V29H395.936Z" fill="#2A5D57"/>
<path d="M407.292 29V28.184H409.044V22.544H407.652V21.908C407.996 21.844 408.3 21.768 408.564 21.68C408.828 21.584 409.064 21.472 409.272 21.344H410.028V28.184H411.612V29H407.292Z" fill="#5447E9"/>
<path d="M281.695 120.005C281.715 119.73 281.954 119.522 282.229 119.542L286.718 119.863C286.993 119.882 287.201 120.121 287.181 120.397C287.161 120.672 286.922 120.88 286.647 120.86L282.657 120.575L282.372 124.565C282.352 124.84 282.113 125.048 281.838 125.028C281.562 125.008 281.355 124.769 281.374 124.494L281.695 120.005ZM301.648 143.251L281.816 120.368L282.572 119.713L302.403 142.596L301.648 143.251Z" fill="#2A5D57"/>
<path d="M377.354 143.354C377.549 143.158 377.549 142.842 377.354 142.646L374.172 139.464C373.976 139.269 373.66 139.269 373.464 139.464C373.269 139.66 373.269 139.976 373.464 140.172L376.293 143L373.464 145.828C373.269 146.024 373.269 146.34 373.464 146.536C373.66 146.731 373.976 146.731 374.172 146.536L377.354 143.354ZM304 143.5L377 143.5V142.5L304 142.5V143.5Z" fill="#FF00E6"/>
<path d="M301.646 58.6464C301.842 58.4512 302.158 58.4512 302.354 58.6464L305.536 61.8284C305.731 62.0237 305.731 62.3403 305.536 62.5355C305.34 62.7308 305.024 62.7308 304.828 62.5355L302 59.7071L299.172 62.5355C298.976 62.7308 298.66 62.7308 298.464 62.5355C298.269 62.3403 298.269 62.0237 298.464 61.8284L301.646 58.6464ZM301.5 143V59H302.5V143H301.5Z" fill="#5447E9"/>
<path d="M363.168 153L365.076 149.952L363.312 147.168H364.38L365.16 148.452C365.248 148.604 365.34 148.764 365.436 148.932C365.54 149.092 365.64 149.256 365.736 149.424H365.784C365.872 149.256 365.96 149.092 366.048 148.932C366.136 148.764 366.224 148.604 366.312 148.452L367.02 147.168H368.052L366.288 150.06L368.184 153H367.116L366.264 151.644C366.16 151.468 366.052 151.292 365.94 151.116C365.836 150.94 365.732 150.768 365.628 150.6H365.58C365.476 150.768 365.376 150.94 365.28 151.116C365.184 151.284 365.088 151.46 364.992 151.644L364.2 153H363.168Z" fill="#FF00E6"/>
<path d="M289.08 123.508C288.952 123.508 288.828 123.496 288.708 123.472C288.596 123.448 288.492 123.42 288.396 123.388L288.612 122.62C288.684 122.644 288.756 122.66 288.828 122.668C288.9 122.684 288.968 122.692 289.032 122.692C289.368 122.692 289.64 122.572 289.848 122.332C290.064 122.1 290.232 121.804 290.352 121.444L290.484 121.012L288.144 115.168H289.164L290.352 118.396C290.448 118.644 290.544 118.912 290.64 119.2C290.736 119.488 290.828 119.768 290.916 120.04H290.964C291.052 119.768 291.136 119.492 291.216 119.212C291.304 118.924 291.384 118.652 291.456 118.396L292.5 115.168H293.46L291.264 121.48C291.128 121.864 290.964 122.208 290.772 122.512C290.58 122.824 290.348 123.068 290.076 123.244C289.804 123.42 289.472 123.508 289.08 123.508Z" fill="#2A5D57"/>
<path d="M307.372 70V69.472L310.444 64.972H307.708V64.168H311.692V64.696L308.62 69.196H311.788V70H307.372Z" fill="#5447E9"/>
<path d="M269.96 112.18C268.94 112.18 268.115 111.755 267.485 110.905C266.865 110.055 266.555 108.82 266.555 107.2C266.555 105.57 266.865 104.345 267.485 103.525C268.115 102.705 268.94 102.295 269.96 102.295C270.98 102.295 271.8 102.71 272.42 103.54C273.05 104.36 273.365 105.58 273.365 107.2C273.365 108.82 273.05 110.055 272.42 110.905C271.8 111.755 270.98 112.18 269.96 112.18ZM269.96 110.47C270.21 110.47 270.435 110.38 270.635 110.2C270.835 110.01 270.99 109.68 271.1 109.21C271.22 108.73 271.28 108.06 271.28 107.2C271.28 106.33 271.22 105.665 271.1 105.205C270.99 104.745 270.835 104.43 270.635 104.26C270.435 104.09 270.21 104.005 269.96 104.005C269.71 104.005 269.485 104.09 269.285 104.26C269.085 104.43 268.925 104.745 268.805 105.205C268.695 105.665 268.64 106.33 268.64 107.2C268.64 108.06 268.695 108.73 268.805 109.21C268.925 109.68 269.085 110.01 269.285 110.2C269.485 110.38 269.71 110.47 269.96 110.47Z" fill="#CD93F0"/>
<path d="M321.05 230V228.215H323.12V222.71H321.335V221.345C321.855 221.245 322.295 221.125 322.655 220.985C323.025 220.845 323.375 220.675 323.705 220.475H325.325V228.215H327.11V230H321.05Z" fill="#CD93F0"/>
<path d="M262.555 265V263.635C263.355 262.925 264.065 262.26 264.685 261.64C265.315 261.02 265.805 260.445 266.155 259.915C266.515 259.385 266.695 258.9 266.695 258.46C266.695 257.99 266.575 257.635 266.335 257.395C266.095 257.145 265.765 257.02 265.345 257.02C265.005 257.02 264.695 257.12 264.415 257.32C264.145 257.51 263.89 257.735 263.65 257.995L262.495 256.855C262.955 256.335 263.425 255.945 263.905 255.685C264.395 255.425 264.975 255.295 265.645 255.295C266.265 255.295 266.81 255.42 267.28 255.67C267.76 255.92 268.13 256.27 268.39 256.72C268.66 257.17 268.795 257.7 268.795 258.31C268.795 258.88 268.64 259.44 268.33 259.99C268.03 260.53 267.63 261.07 267.13 261.61C266.63 262.15 266.1 262.7 265.54 263.26C265.78 263.23 266.05 263.205 266.35 263.185C266.65 263.155 266.91 263.14 267.13 263.14H269.26V265H262.555Z" fill="#CD93F0"/>
<path d="M212.645 155.18C212.135 155.18 211.67 155.12 211.25 155C210.84 154.89 210.475 154.735 210.155 154.535C209.835 154.335 209.56 154.1 209.33 153.83L210.35 152.435C210.64 152.715 210.96 152.945 211.31 153.125C211.66 153.305 212.035 153.395 212.435 153.395C212.895 153.395 213.265 153.3 213.545 153.11C213.835 152.91 213.98 152.63 213.98 152.27C213.98 151.99 213.91 151.75 213.77 151.55C213.63 151.34 213.375 151.18 213.005 151.07C212.645 150.96 212.115 150.905 211.415 150.905V149.345C211.985 149.345 212.435 149.29 212.765 149.18C213.095 149.07 213.325 148.92 213.455 148.73C213.595 148.54 213.665 148.32 213.665 148.07C213.665 147.73 213.56 147.47 213.35 147.29C213.15 147.11 212.865 147.02 212.495 147.02C212.155 147.02 211.845 147.095 211.565 147.245C211.295 147.385 211.01 147.59 210.71 147.86L209.6 146.51C210.04 146.13 210.505 145.835 210.995 145.625C211.485 145.405 212.02 145.295 212.6 145.295C213.25 145.295 213.82 145.4 214.31 145.61C214.81 145.81 215.195 146.105 215.465 146.495C215.745 146.875 215.885 147.345 215.885 147.905C215.885 148.395 215.745 148.815 215.465 149.165C215.195 149.515 214.805 149.8 214.295 150.02V150.08C214.655 150.19 214.98 150.35 215.27 150.56C215.56 150.76 215.785 151.015 215.945 151.325C216.105 151.635 216.185 151.995 216.185 152.405C216.185 152.995 216.02 153.5 215.69 153.92C215.37 154.33 214.94 154.645 214.4 154.865C213.87 155.075 213.285 155.18 212.645 155.18Z" fill="#CD93F0"/>
<path d="M375.41 15V9.495C375.41 9.195 375.42 8.84 375.44 8.43C375.47 8.02 375.49 7.665 375.5 7.365H375.44C375.32 7.625 375.195 7.89 375.065 8.16C374.935 8.42 374.8 8.69 374.66 8.97L373.4 11.04H378.56V12.72H371.285V11.205L374.765 5.475H377.465V15H375.41Z" fill="#CD93F0"/>
<path d="M409.705 140.18C409.185 140.18 408.715 140.12 408.295 140C407.885 139.88 407.52 139.72 407.2 139.52C406.88 139.32 406.595 139.095 406.345 138.845L407.335 137.45C407.625 137.71 407.94 137.935 408.28 138.125C408.62 138.305 408.99 138.395 409.39 138.395C409.71 138.395 409.99 138.34 410.23 138.23C410.47 138.11 410.655 137.94 410.785 137.72C410.925 137.5 410.995 137.23 410.995 136.91C410.995 136.43 410.855 136.065 410.575 135.815C410.295 135.565 409.935 135.44 409.495 135.44C409.225 135.44 408.995 135.475 408.805 135.545C408.615 135.615 408.375 135.74 408.085 135.92L407.095 135.29L407.365 130.475H412.765V132.335H409.27L409.105 134.12C409.295 134.04 409.47 133.985 409.63 133.955C409.79 133.915 409.97 133.895 410.17 133.895C410.72 133.895 411.225 134 411.685 134.21C412.145 134.42 412.51 134.745 412.78 135.185C413.06 135.625 413.2 136.18 413.2 136.85C413.2 137.56 413.035 138.165 412.705 138.665C412.385 139.155 411.96 139.53 411.43 139.79C410.9 140.05 410.325 140.18 409.705 140.18Z" fill="#CD93F0"/>
<path d="M352.215 174.18C351.755 174.18 351.31 174.09 350.88 173.91C350.45 173.73 350.065 173.45 349.725 173.07C349.385 172.69 349.115 172.205 348.915 171.615C348.715 171.015 348.615 170.295 348.615 169.455C348.615 168.565 348.72 167.795 348.93 167.145C349.14 166.495 349.425 165.96 349.785 165.54C350.145 165.12 350.555 164.81 351.015 164.61C351.475 164.4 351.96 164.295 352.47 164.295C353.1 164.295 353.645 164.41 354.105 164.64C354.565 164.86 354.945 165.125 355.245 165.435L354.09 166.755C353.92 166.575 353.7 166.42 353.43 166.29C353.16 166.15 352.885 166.08 352.605 166.08C352.245 166.08 351.91 166.185 351.6 166.395C351.3 166.605 351.06 166.96 350.88 167.46C350.71 167.95 350.625 168.615 350.625 169.455C350.625 170.245 350.695 170.865 350.835 171.315C350.985 171.755 351.18 172.07 351.42 172.26C351.66 172.44 351.91 172.53 352.17 172.53C352.39 172.53 352.59 172.475 352.77 172.365C352.95 172.255 353.095 172.09 353.205 171.87C353.315 171.64 353.37 171.345 353.37 170.985C353.37 170.645 353.315 170.375 353.205 170.175C353.095 169.975 352.945 169.83 352.755 169.74C352.575 169.65 352.365 169.605 352.125 169.605C351.875 169.605 351.615 169.68 351.345 169.83C351.085 169.98 350.85 170.245 350.64 170.625L350.535 169.185C350.785 168.815 351.105 168.535 351.495 168.345C351.885 168.145 352.235 168.045 352.545 168.045C353.085 168.045 353.57 168.15 354 168.36C354.43 168.57 354.765 168.895 355.005 169.335C355.255 169.765 355.38 170.315 355.38 170.985C355.38 171.645 355.235 172.215 354.945 172.695C354.665 173.175 354.285 173.545 353.805 173.805C353.325 174.055 352.795 174.18 352.215 174.18Z" fill="#CD93F0"/>
<path d="M292.25 50C292.3 49.21 292.38 48.485 292.49 47.825C292.6 47.155 292.755 46.52 292.955 45.92C293.165 45.32 293.43 44.73 293.75 44.15C294.07 43.57 294.465 42.965 294.935 42.335H290.66V40.475H297.29V41.825C296.73 42.505 296.27 43.14 295.91 43.73C295.56 44.32 295.29 44.92 295.1 45.53C294.91 46.14 294.77 46.805 294.68 47.525C294.59 48.245 294.52 49.07 294.47 50H292.25Z" fill="#CD93F0"/>
<circle cx="4.5" cy="4.5" r="4.5" transform="matrix(-1 0 0 1 348 175)" fill="#CD93F0"/>
<circle cx="4.5" cy="4.5" r="4.5" transform="matrix(-1 0 0 1 375 20)" fill="#CD93F0"/>
<circle cx="4.5" cy="4.5" r="4.5" transform="matrix(-1 0 0 1 258 266)" fill="#CD93F0"/>
<circle cx="4.5" cy="4.5" r="4.5" transform="matrix(-1 0 0 1 227 139)" fill="#CD93F0"/>
<circle cx="4.5" cy="4.5" r="4.5" transform="matrix(-1 0 0 1 407 142)" fill="#CD93F0"/>
<circle cx="4.5" cy="4.5" r="4.5" transform="matrix(-1 0 0 1 283 112)" fill="#CD93F0"/>
<circle cx="4.5" cy="4.5" r="4.5" transform="matrix(-1 0 0 1 306 50)" fill="#CD93F0"/>
<circle cx="4.5" cy="4.5" r="4.5" transform="matrix(-1 0 0 1 319 230)" fill="#CD93F0"/>
</svg>
