<svg width="551" height="221" viewBox="0 0 551 221" fill="none" xmlns="http://www.w3.org/2000/svg">
<path d="M116.568 217.112C116.072 216.304 115.684 215.46 115.404 214.58C115.124 213.692 114.984 212.72 114.984 211.664C114.984 210.608 115.124 209.636 115.404 208.748C115.684 207.86 116.072 207.016 116.568 206.216L117.18 206.504C116.716 207.264 116.368 208.088 116.136 208.976C115.912 209.856 115.8 210.752 115.8 211.664C115.8 212.576 115.912 213.472 116.136 214.352C116.368 215.232 116.716 216.056 117.18 216.824L116.568 217.112ZM124.402 217.04L124.162 216.464C124.506 216.312 124.774 216.104 124.966 215.84C125.158 215.584 125.25 215.296 125.242 214.976L125.134 214.088L125.626 214.808C125.554 214.88 125.474 214.932 125.386 214.964C125.306 214.996 125.218 215.012 125.122 215.012C124.93 215.012 124.762 214.952 124.618 214.832C124.482 214.712 124.414 214.544 124.414 214.328C124.414 214.112 124.486 213.944 124.63 213.824C124.782 213.696 124.954 213.632 125.146 213.632C125.41 213.632 125.614 213.736 125.758 213.944C125.902 214.144 125.974 214.428 125.974 214.796C125.974 215.308 125.834 215.76 125.554 216.152C125.274 216.544 124.89 216.84 124.402 217.04ZM135.757 217.04L135.517 216.464C135.861 216.312 136.129 216.104 136.321 215.84C136.513 215.584 136.605 215.296 136.597 214.976L136.489 214.088L136.981 214.808C136.909 214.88 136.829 214.932 136.741 214.964C136.661 214.996 136.573 215.012 136.477 215.012C136.285 215.012 136.117 214.952 135.973 214.832C135.837 214.712 135.769 214.544 135.769 214.328C135.769 214.112 135.841 213.944 135.985 213.824C136.137 213.696 136.309 213.632 136.501 213.632C136.765 213.632 136.969 213.736 137.113 213.944C137.257 214.144 137.329 214.428 137.329 214.796C137.329 215.308 137.189 215.76 136.909 216.152C136.629 216.544 136.245 216.84 135.757 217.04ZM147.377 217.112L146.765 216.824C147.229 216.056 147.573 215.232 147.797 214.352C148.029 213.472 148.145 212.576 148.145 211.664C148.145 210.752 148.029 209.856 147.797 208.976C147.573 208.088 147.229 207.264 146.765 206.504L147.377 206.216C147.881 207.016 148.269 207.86 148.541 208.748C148.821 209.636 148.961 210.608 148.961 211.664C148.961 212.72 148.821 213.692 148.541 214.58C148.269 215.46 147.881 216.304 147.377 217.112Z" fill="black"/>
<path d="M120.621 215.144C119.853 215.144 119.249 214.8 118.809 214.112C118.377 213.416 118.161 212.428 118.161 211.148C118.161 209.86 118.377 208.88 118.809 208.208C119.249 207.536 119.853 207.2 120.621 207.2C121.381 207.2 121.977 207.54 122.409 208.22C122.849 208.892 123.069 209.868 123.069 211.148C123.069 212.428 122.849 213.416 122.409 214.112C121.977 214.8 121.381 215.144 120.621 215.144ZM120.621 214.352C120.917 214.352 121.177 214.24 121.401 214.016C121.625 213.792 121.797 213.444 121.917 212.972C122.045 212.5 122.109 211.892 122.109 211.148C122.109 210.396 122.045 209.788 121.917 209.324C121.797 208.86 121.625 208.524 121.401 208.316C121.177 208.1 120.917 207.992 120.621 207.992C120.317 207.992 120.053 208.1 119.829 208.316C119.605 208.524 119.429 208.86 119.301 209.324C119.181 209.788 119.121 210.396 119.121 211.148C119.121 211.892 119.181 212.5 119.301 212.972C119.429 213.444 119.605 213.792 119.829 214.016C120.053 214.24 120.317 214.352 120.621 214.352Z" fill="#FF00E6"/>
<path d="M131.976 215.144C131.208 215.144 130.604 214.8 130.164 214.112C129.732 213.416 129.516 212.428 129.516 211.148C129.516 209.86 129.732 208.88 130.164 208.208C130.604 207.536 131.208 207.2 131.976 207.2C132.736 207.2 133.332 207.54 133.764 208.22C134.204 208.892 134.424 209.868 134.424 211.148C134.424 212.428 134.204 213.416 133.764 214.112C133.332 214.8 132.736 215.144 131.976 215.144ZM131.976 214.352C132.272 214.352 132.532 214.24 132.756 214.016C132.98 213.792 133.152 213.444 133.272 212.972C133.4 212.5 133.464 211.892 133.464 211.148C133.464 210.396 133.4 209.788 133.272 209.324C133.152 208.86 132.98 208.524 132.756 208.316C132.532 208.1 132.272 207.992 131.976 207.992C131.672 207.992 131.408 208.1 131.184 208.316C130.96 208.524 130.784 208.86 130.656 209.324C130.536 209.788 130.476 210.396 130.476 211.148C130.476 211.892 130.536 212.5 130.656 212.972C130.784 213.444 130.96 213.792 131.184 214.016C131.408 214.24 131.672 214.352 131.976 214.352Z" fill="#2A5D57"/>
<path d="M143.332 215.144C142.564 215.144 141.96 214.8 141.52 214.112C141.088 213.416 140.872 212.428 140.872 211.148C140.872 209.86 141.088 208.88 141.52 208.208C141.96 207.536 142.564 207.2 143.332 207.2C144.092 207.2 144.688 207.54 145.12 208.22C145.56 208.892 145.78 209.868 145.78 211.148C145.78 212.428 145.56 213.416 145.12 214.112C144.688 214.8 144.092 215.144 143.332 215.144ZM143.332 214.352C143.628 214.352 143.888 214.24 144.112 214.016C144.336 213.792 144.508 213.444 144.628 212.972C144.756 212.5 144.82 211.892 144.82 211.148C144.82 210.396 144.756 209.788 144.628 209.324C144.508 208.86 144.336 208.524 144.112 208.316C143.888 208.1 143.628 207.992 143.332 207.992C143.028 207.992 142.764 208.1 142.54 208.316C142.316 208.524 142.14 208.86 142.012 209.324C141.892 209.788 141.832 210.396 141.832 211.148C141.832 211.892 141.892 212.5 142.012 212.972C142.14 213.444 142.316 213.792 142.54 214.016C142.764 214.24 143.028 214.352 143.332 214.352Z" fill="#5447E9"/>
<path d="M339.568 181.112C339.072 180.304 338.684 179.46 338.404 178.58C338.124 177.692 337.984 176.72 337.984 175.664C337.984 174.608 338.124 173.636 338.404 172.748C338.684 171.86 339.072 171.016 339.568 170.216L340.18 170.504C339.716 171.264 339.368 172.088 339.136 172.976C338.912 173.856 338.8 174.752 338.8 175.664C338.8 176.576 338.912 177.472 339.136 178.352C339.368 179.232 339.716 180.056 340.18 180.824L339.568 181.112ZM342.553 176.624C342.497 176.248 342.517 175.916 342.613 175.628C342.709 175.332 342.841 175.068 343.009 174.836C343.185 174.596 343.361 174.368 343.537 174.152C343.721 173.936 343.877 173.72 344.005 173.504C344.133 173.288 344.197 173.052 344.197 172.796C344.197 172.58 344.153 172.384 344.065 172.208C343.977 172.032 343.845 171.892 343.669 171.788C343.501 171.684 343.289 171.632 343.033 171.632C342.777 171.632 342.529 171.696 342.289 171.824C342.057 171.944 341.845 172.112 341.653 172.328L341.089 171.812C341.345 171.524 341.641 171.288 341.977 171.104C342.321 170.912 342.713 170.816 343.153 170.816C343.553 170.816 343.905 170.896 344.209 171.056C344.513 171.208 344.745 171.428 344.905 171.716C345.073 171.996 345.157 172.336 345.157 172.736C345.157 173.048 345.093 173.332 344.965 173.588C344.837 173.836 344.677 174.076 344.485 174.308C344.301 174.532 344.121 174.76 343.945 174.992C343.769 175.216 343.629 175.46 343.525 175.724C343.421 175.988 343.385 176.288 343.417 176.624H342.553ZM343.009 179.144C342.817 179.144 342.649 179.076 342.505 178.94C342.369 178.796 342.301 178.616 342.301 178.4C342.301 178.168 342.369 177.984 342.505 177.848C342.649 177.704 342.817 177.632 343.009 177.632C343.209 177.632 343.377 177.704 343.513 177.848C343.657 177.984 343.729 178.168 343.729 178.4C343.729 178.616 343.657 178.796 343.513 178.94C343.377 179.076 343.209 179.144 343.009 179.144ZM346.534 181.04L346.294 180.464C346.638 180.312 346.906 180.104 347.098 179.84C347.29 179.584 347.382 179.296 347.374 178.976L347.266 178.088L347.758 178.808C347.686 178.88 347.606 178.932 347.518 178.964C347.438 178.996 347.35 179.012 347.254 179.012C347.062 179.012 346.894 178.952 346.75 178.832C346.614 178.712 346.546 178.544 346.546 178.328C346.546 178.112 346.618 177.944 346.762 177.824C346.914 177.696 347.086 177.632 347.278 177.632C347.542 177.632 347.746 177.736 347.89 177.944C348.034 178.144 348.106 178.428 348.106 178.796C348.106 179.308 347.966 179.76 347.686 180.152C347.406 180.544 347.022 180.84 346.534 181.04ZM353.041 176.624C352.985 176.248 353.005 175.916 353.101 175.628C353.197 175.332 353.329 175.068 353.497 174.836C353.673 174.596 353.849 174.368 354.025 174.152C354.209 173.936 354.365 173.72 354.493 173.504C354.621 173.288 354.685 173.052 354.685 172.796C354.685 172.58 354.641 172.384 354.553 172.208C354.465 172.032 354.333 171.892 354.157 171.788C353.989 171.684 353.777 171.632 353.521 171.632C353.265 171.632 353.017 171.696 352.777 171.824C352.545 171.944 352.333 172.112 352.141 172.328L351.577 171.812C351.833 171.524 352.129 171.288 352.465 171.104C352.809 170.912 353.201 170.816 353.641 170.816C354.041 170.816 354.393 170.896 354.697 171.056C355.001 171.208 355.233 171.428 355.393 171.716C355.561 171.996 355.645 172.336 355.645 172.736C355.645 173.048 355.581 173.332 355.453 173.588C355.325 173.836 355.165 174.076 354.973 174.308C354.789 174.532 354.609 174.76 354.433 174.992C354.257 175.216 354.117 175.46 354.013 175.724C353.909 175.988 353.873 176.288 353.905 176.624H353.041ZM353.497 179.144C353.305 179.144 353.137 179.076 352.993 178.94C352.857 178.796 352.789 178.616 352.789 178.4C352.789 178.168 352.857 177.984 352.993 177.848C353.137 177.704 353.305 177.632 353.497 177.632C353.697 177.632 353.865 177.704 354.001 177.848C354.145 177.984 354.217 178.168 354.217 178.4C354.217 178.616 354.145 178.796 354.001 178.94C353.865 179.076 353.697 179.144 353.497 179.144ZM357.023 181.04L356.783 180.464C357.127 180.312 357.395 180.104 357.587 179.84C357.779 179.584 357.871 179.296 357.863 178.976L357.755 178.088L358.247 178.808C358.175 178.88 358.095 178.932 358.007 178.964C357.927 178.996 357.839 179.012 357.743 179.012C357.551 179.012 357.383 178.952 357.239 178.832C357.103 178.712 357.035 178.544 357.035 178.328C357.035 178.112 357.107 177.944 357.251 177.824C357.403 177.696 357.575 177.632 357.767 177.632C358.031 177.632 358.235 177.736 358.379 177.944C358.523 178.144 358.595 178.428 358.595 178.796C358.595 179.308 358.455 179.76 358.175 180.152C357.895 180.544 357.511 180.84 357.023 181.04ZM368.642 181.112L368.03 180.824C368.494 180.056 368.838 179.232 369.062 178.352C369.294 177.472 369.41 176.576 369.41 175.664C369.41 174.752 369.294 173.856 369.062 172.976C368.838 172.088 368.494 171.264 368.03 170.504L368.642 170.216C369.146 171.016 369.534 171.86 369.806 172.748C370.086 173.636 370.226 174.608 370.226 175.664C370.226 176.72 370.086 177.692 369.806 178.58C369.534 179.46 369.146 180.304 368.642 181.112Z" fill="black"/>
<path d="M364.597 179.144C363.829 179.144 363.225 178.8 362.785 178.112C362.353 177.416 362.137 176.428 362.137 175.148C362.137 173.86 362.353 172.88 362.785 172.208C363.225 171.536 363.829 171.2 364.597 171.2C365.357 171.2 365.953 171.54 366.385 172.22C366.825 172.892 367.045 173.868 367.045 175.148C367.045 176.428 366.825 177.416 366.385 178.112C365.953 178.8 365.357 179.144 364.597 179.144ZM364.597 178.352C364.893 178.352 365.153 178.24 365.377 178.016C365.601 177.792 365.773 177.444 365.893 176.972C366.021 176.5 366.085 175.892 366.085 175.148C366.085 174.396 366.021 173.788 365.893 173.324C365.773 172.86 365.601 172.524 365.377 172.316C365.153 172.1 364.893 171.992 364.597 171.992C364.293 171.992 364.029 172.1 363.805 172.316C363.581 172.524 363.405 172.86 363.277 173.324C363.157 173.788 363.097 174.396 363.097 175.148C363.097 175.892 363.157 176.5 363.277 176.972C363.405 177.444 363.581 177.792 363.805 178.016C364.029 178.24 364.293 178.352 364.597 178.352Z" fill="#5447E9"/>
<path d="M267.568 218.112C267.072 217.304 266.684 216.46 266.404 215.58C266.124 214.692 265.984 213.72 265.984 212.664C265.984 211.608 266.124 210.636 266.404 209.748C266.684 208.86 267.072 208.016 267.568 207.216L268.18 207.504C267.716 208.264 267.368 209.088 267.136 209.976C266.912 210.856 266.8 211.752 266.8 212.664C266.8 213.576 266.912 214.472 267.136 215.352C267.368 216.232 267.716 217.056 268.18 217.824L267.568 218.112ZM275.402 218.04L275.162 217.464C275.506 217.312 275.774 217.104 275.966 216.84C276.158 216.584 276.25 216.296 276.242 215.976L276.134 215.088L276.626 215.808C276.554 215.88 276.474 215.932 276.386 215.964C276.306 215.996 276.218 216.012 276.122 216.012C275.93 216.012 275.762 215.952 275.618 215.832C275.482 215.712 275.414 215.544 275.414 215.328C275.414 215.112 275.486 214.944 275.63 214.824C275.782 214.696 275.954 214.632 276.146 214.632C276.41 214.632 276.614 214.736 276.758 214.944C276.902 215.144 276.974 215.428 276.974 215.796C276.974 216.308 276.834 216.76 276.554 217.152C276.274 217.544 275.89 217.84 275.402 218.04ZM286.757 218.04L286.517 217.464C286.861 217.312 287.129 217.104 287.321 216.84C287.513 216.584 287.605 216.296 287.597 215.976L287.489 215.088L287.981 215.808C287.909 215.88 287.829 215.932 287.741 215.964C287.661 215.996 287.573 216.012 287.477 216.012C287.285 216.012 287.117 215.952 286.973 215.832C286.837 215.712 286.769 215.544 286.769 215.328C286.769 215.112 286.841 214.944 286.985 214.824C287.137 214.696 287.309 214.632 287.501 214.632C287.765 214.632 287.969 214.736 288.113 214.944C288.257 215.144 288.329 215.428 288.329 215.796C288.329 216.308 288.189 216.76 287.909 217.152C287.629 217.544 287.245 217.84 286.757 218.04ZM298.377 218.112L297.765 217.824C298.229 217.056 298.573 216.232 298.797 215.352C299.029 214.472 299.145 213.576 299.145 212.664C299.145 211.752 299.029 210.856 298.797 209.976C298.573 209.088 298.229 208.264 297.765 207.504L298.377 207.216C298.881 208.016 299.269 208.86 299.541 209.748C299.821 210.636 299.961 211.608 299.961 212.664C299.961 213.72 299.821 214.692 299.541 215.58C299.269 216.46 298.881 217.304 298.377 218.112Z" fill="black"/>
<path d="M269.581 216V215.184H271.333V209.544H269.941V208.908C270.285 208.844 270.589 208.768 270.853 208.68C271.117 208.584 271.353 208.472 271.561 208.344H272.317V215.184H273.901V216H269.581Z" fill="#FF00E6"/>
<path d="M282.976 216.144C282.208 216.144 281.604 215.8 281.164 215.112C280.732 214.416 280.516 213.428 280.516 212.148C280.516 210.86 280.732 209.88 281.164 209.208C281.604 208.536 282.208 208.2 282.976 208.2C283.736 208.2 284.332 208.54 284.764 209.22C285.204 209.892 285.424 210.868 285.424 212.148C285.424 213.428 285.204 214.416 284.764 215.112C284.332 215.8 283.736 216.144 282.976 216.144ZM282.976 215.352C283.272 215.352 283.532 215.24 283.756 215.016C283.98 214.792 284.152 214.444 284.272 213.972C284.4 213.5 284.464 212.892 284.464 212.148C284.464 211.396 284.4 210.788 284.272 210.324C284.152 209.86 283.98 209.524 283.756 209.316C283.532 209.1 283.272 208.992 282.976 208.992C282.672 208.992 282.408 209.1 282.184 209.316C281.96 209.524 281.784 209.86 281.656 210.324C281.536 210.788 281.476 211.396 281.476 212.148C281.476 212.892 281.536 213.5 281.656 213.972C281.784 214.444 281.96 214.792 282.184 215.016C282.408 215.24 282.672 215.352 282.976 215.352Z" fill="#2A5D57"/>
<path d="M294.332 216.144C293.564 216.144 292.96 215.8 292.52 215.112C292.088 214.416 291.872 213.428 291.872 212.148C291.872 210.86 292.088 209.88 292.52 209.208C292.96 208.536 293.564 208.2 294.332 208.2C295.092 208.2 295.688 208.54 296.12 209.22C296.56 209.892 296.78 210.868 296.78 212.148C296.78 213.428 296.56 214.416 296.12 215.112C295.688 215.8 295.092 216.144 294.332 216.144ZM294.332 215.352C294.628 215.352 294.888 215.24 295.112 215.016C295.336 214.792 295.508 214.444 295.628 213.972C295.756 213.5 295.82 212.892 295.82 212.148C295.82 211.396 295.756 210.788 295.628 210.324C295.508 209.86 295.336 209.524 295.112 209.316C294.888 209.1 294.628 208.992 294.332 208.992C294.028 208.992 293.764 209.1 293.54 209.316C293.316 209.524 293.14 209.86 293.012 210.324C292.892 210.788 292.832 211.396 292.832 212.148C292.832 212.892 292.892 213.5 293.012 213.972C293.14 214.444 293.316 214.792 293.54 215.016C293.764 215.24 294.028 215.352 294.332 215.352Z" fill="#5447E9"/>
<path d="M180 177L237 33H387.5L330 177H180Z" fill="#D9D9D9" fill-opacity="0.2" stroke="#757575"/>
<path d="M237 33L172.5 61.5L112 202.5L180 177L237 33Z" fill="#D9D9D9" fill-opacity="0.2" stroke="#757575"/>
<path d="M264 203.5L330 177.5L180 177L111.5 203L264 203.5Z" fill="#D9D9D9" fill-opacity="0.2" stroke="#757575"/>
<path d="M387 33.5L323 61.5L265 202.5L330 177.5L387 33.5Z" fill="#D9D9D9" fill-opacity="0.2" stroke="#757575"/>
<path d="M111.5 203L172.5 61.5H323L264 203H111.5Z" fill="#D9D9D9" fill-opacity="0.2" stroke="#757575"/>
<path d="M322.998 61.5L387.998 32.5H237.499L172.5 61.5H322.998Z" fill="#D9D9D9" fill-opacity="0.2" stroke="#757575"/>
<circle cx="387" cy="33" r="2" fill="#CD93F0"/>
<circle cx="330" cy="177" r="2" fill="#CD93F0"/>
<circle cx="323" cy="62" r="2" fill="#CD93F0"/>
<circle cx="173" cy="62" r="2" fill="#CD93F0"/>
<circle cx="237" cy="33" r="2" fill="#CD93F0"/>
<path d="M173.05 173V171.215H175.12V165.71H173.335V164.345C173.855 164.245 174.295 164.125 174.655 163.985C175.025 163.845 175.375 163.675 175.705 163.475H177.325V171.215H179.11V173H173.05Z" fill="#CD93F0"/>
<path d="M103.96 204.18C102.94 204.18 102.115 203.755 101.485 202.905C100.865 202.055 100.555 200.82 100.555 199.2C100.555 197.57 100.865 196.345 101.485 195.525C102.115 194.705 102.94 194.295 103.96 194.295C104.98 194.295 105.8 194.71 106.42 195.54C107.05 196.36 107.365 197.58 107.365 199.2C107.365 200.82 107.05 202.055 106.42 202.905C105.8 203.755 104.98 204.18 103.96 204.18ZM103.96 202.47C104.21 202.47 104.435 202.38 104.635 202.2C104.835 202.01 104.99 201.68 105.1 201.21C105.22 200.73 105.28 200.06 105.28 199.2C105.28 198.33 105.22 197.665 105.1 197.205C104.99 196.745 104.835 196.43 104.635 196.26C104.435 196.09 104.21 196.005 103.96 196.005C103.71 196.005 103.485 196.09 103.285 196.26C103.085 196.43 102.925 196.745 102.805 197.205C102.695 197.665 102.64 198.33 102.64 199.2C102.64 200.06 102.695 200.73 102.805 201.21C102.925 201.68 103.085 202.01 103.285 202.2C103.485 202.38 103.71 202.47 103.96 202.47Z" fill="#CD93F0"/>
<path d="M321.555 173V171.635C322.355 170.925 323.065 170.26 323.685 169.64C324.315 169.02 324.805 168.445 325.155 167.915C325.515 167.385 325.695 166.9 325.695 166.46C325.695 165.99 325.575 165.635 325.335 165.395C325.095 165.145 324.765 165.02 324.345 165.02C324.005 165.02 323.695 165.12 323.415 165.32C323.145 165.51 322.89 165.735 322.65 165.995L321.495 164.855C321.955 164.335 322.425 163.945 322.905 163.685C323.395 163.425 323.975 163.295 324.645 163.295C325.265 163.295 325.81 163.42 326.28 163.67C326.76 163.92 327.13 164.27 327.39 164.72C327.66 165.17 327.795 165.7 327.795 166.31C327.795 166.88 327.64 167.44 327.33 167.99C327.03 168.53 326.63 169.07 326.13 169.61C325.63 170.15 325.1 170.7 324.54 171.26C324.78 171.23 325.05 171.205 325.35 171.185C325.65 171.155 325.91 171.14 326.13 171.14H328.26V173H321.555Z" fill="#CD93F0"/>
<path d="M260.645 197.18C260.135 197.18 259.67 197.12 259.25 197C258.84 196.89 258.475 196.735 258.155 196.535C257.835 196.335 257.56 196.1 257.33 195.83L258.35 194.435C258.64 194.715 258.96 194.945 259.31 195.125C259.66 195.305 260.035 195.395 260.435 195.395C260.895 195.395 261.265 195.3 261.545 195.11C261.835 194.91 261.98 194.63 261.98 194.27C261.98 193.99 261.91 193.75 261.77 193.55C261.63 193.34 261.375 193.18 261.005 193.07C260.645 192.96 260.115 192.905 259.415 192.905V191.345C259.985 191.345 260.435 191.29 260.765 191.18C261.095 191.07 261.325 190.92 261.455 190.73C261.595 190.54 261.665 190.32 261.665 190.07C261.665 189.73 261.56 189.47 261.35 189.29C261.15 189.11 260.865 189.02 260.495 189.02C260.155 189.02 259.845 189.095 259.565 189.245C259.295 189.385 259.01 189.59 258.71 189.86L257.6 188.51C258.04 188.13 258.505 187.835 258.995 187.625C259.485 187.405 260.02 187.295 260.6 187.295C261.25 187.295 261.82 187.4 262.31 187.61C262.81 187.81 263.195 188.105 263.465 188.495C263.745 188.875 263.885 189.345 263.885 189.905C263.885 190.395 263.745 190.815 263.465 191.165C263.195 191.515 262.805 191.8 262.295 192.02V192.08C262.655 192.19 262.98 192.35 263.27 192.56C263.56 192.76 263.785 193.015 263.945 193.325C264.105 193.635 264.185 193.995 264.185 194.405C264.185 194.995 264.02 195.5 263.69 195.92C263.37 196.33 262.94 196.645 262.4 196.865C261.87 197.075 261.285 197.18 260.645 197.18Z" fill="#CD93F0"/>
<path d="M230.705 31.18C230.185 31.18 229.715 31.12 229.295 31C228.885 30.88 228.52 30.72 228.2 30.52C227.88 30.32 227.595 30.095 227.345 29.845L228.335 28.45C228.625 28.71 228.94 28.935 229.28 29.125C229.62 29.305 229.99 29.395 230.39 29.395C230.71 29.395 230.99 29.34 231.23 29.23C231.47 29.11 231.655 28.94 231.785 28.72C231.925 28.5 231.995 28.23 231.995 27.91C231.995 27.43 231.855 27.065 231.575 26.815C231.295 26.565 230.935 26.44 230.495 26.44C230.225 26.44 229.995 26.475 229.805 26.545C229.615 26.615 229.375 26.74 229.085 26.92L228.095 26.29L228.365 21.475H233.765V23.335H230.27L230.105 25.12C230.295 25.04 230.47 24.985 230.63 24.955C230.79 24.915 230.97 24.895 231.17 24.895C231.72 24.895 232.225 25 232.685 25.21C233.145 25.42 233.51 25.745 233.78 26.185C234.06 26.625 234.2 27.18 234.2 27.85C234.2 28.56 234.035 29.165 233.705 29.665C233.385 30.155 232.96 30.53 232.43 30.79C231.9 31.05 231.325 31.18 230.705 31.18Z" fill="#CD93F0"/>
<path d="M381.215 31.18C380.755 31.18 380.31 31.09 379.88 30.91C379.45 30.73 379.065 30.45 378.725 30.07C378.385 29.69 378.115 29.205 377.915 28.615C377.715 28.015 377.615 27.295 377.615 26.455C377.615 25.565 377.72 24.795 377.93 24.145C378.14 23.495 378.425 22.96 378.785 22.54C379.145 22.12 379.555 21.81 380.015 21.61C380.475 21.4 380.96 21.295 381.47 21.295C382.1 21.295 382.645 21.41 383.105 21.64C383.565 21.86 383.945 22.125 384.245 22.435L383.09 23.755C382.92 23.575 382.7 23.42 382.43 23.29C382.16 23.15 381.885 23.08 381.605 23.08C381.245 23.08 380.91 23.185 380.6 23.395C380.3 23.605 380.06 23.96 379.88 24.46C379.71 24.95 379.625 25.615 379.625 26.455C379.625 27.245 379.695 27.865 379.835 28.315C379.985 28.755 380.18 29.07 380.42 29.26C380.66 29.44 380.91 29.53 381.17 29.53C381.39 29.53 381.59 29.475 381.77 29.365C381.95 29.255 382.095 29.09 382.205 28.87C382.315 28.64 382.37 28.345 382.37 27.985C382.37 27.645 382.315 27.375 382.205 27.175C382.095 26.975 381.945 26.83 381.755 26.74C381.575 26.65 381.365 26.605 381.125 26.605C380.875 26.605 380.615 26.68 380.345 26.83C380.085 26.98 379.85 27.245 379.64 27.625L379.535 26.185C379.785 25.815 380.105 25.535 380.495 25.345C380.885 25.145 381.235 25.045 381.545 25.045C382.085 25.045 382.57 25.15 383 25.36C383.43 25.57 383.765 25.895 384.005 26.335C384.255 26.765 384.38 27.315 384.38 27.985C384.38 28.645 384.235 29.215 383.945 29.695C383.665 30.175 383.285 30.545 382.805 30.805C382.325 31.055 381.795 31.18 381.215 31.18Z" fill="#CD93F0"/>
<path d="M315.25 60C315.3 59.21 315.38 58.485 315.49 57.825C315.6 57.155 315.755 56.52 315.955 55.92C316.165 55.32 316.43 54.73 316.75 54.15C317.07 53.57 317.465 52.965 317.935 52.335H313.66V50.475H320.29V51.825C319.73 52.505 319.27 53.14 318.91 53.73C318.56 54.32 318.29 54.92 318.1 55.53C317.91 56.14 317.77 56.805 317.68 57.525C317.59 58.245 317.52 59.07 317.47 60H315.25Z" fill="#CD93F0"/>
<path d="M168.41 60V54.495C168.41 54.195 168.42 53.84 168.44 53.43C168.47 53.02 168.49 52.665 168.5 52.365H168.44C168.32 52.625 168.195 52.89 168.065 53.16C167.935 53.42 167.8 53.69 167.66 53.97L166.4 56.04H171.56V57.72H164.285V56.205L167.765 50.475H170.465V60H168.41Z" fill="#CD93F0"/>
<path d="M112.354 38.6466C112.158 38.4513 111.842 38.4513 111.646 38.6466L108.464 41.8285C108.269 42.0238 108.269 42.3404 108.464 42.5356C108.66 42.7309 108.976 42.7309 109.172 42.5356L112 39.7072L114.828 42.5356C115.024 42.7309 115.34 42.7309 115.536 42.5356C115.731 42.3404 115.731 42.0238 115.536 41.8285L112.354 38.6466ZM112.5 201.062L112.5 39.0001H111.5L111.5 201.062H112.5Z" fill="black"/>
<path d="M318.354 203.354C318.549 203.158 318.549 202.842 318.354 202.646L315.172 199.464C314.976 199.269 314.66 199.269 314.464 199.464C314.269 199.66 314.269 199.976 314.464 200.172L317.293 203L314.464 205.828C314.269 206.024 314.269 206.34 314.464 206.536C314.66 206.731 314.976 206.731 315.172 206.536L318.354 203.354ZM114 203.5H318V202.5H114V203.5Z" fill="black"/>
<path d="M227.459 158.198C227.568 157.944 227.451 157.65 227.198 157.541L223.064 155.762C222.811 155.653 222.516 155.77 222.407 156.023C222.298 156.277 222.415 156.571 222.669 156.68L226.343 158.262L224.762 161.936C224.653 162.189 224.77 162.484 225.023 162.593C225.277 162.702 225.571 162.585 225.68 162.331L227.459 158.198ZM114.185 203.465L227.185 158.465L226.815 157.535L113.815 202.535L114.185 203.465Z" fill="black"/>
<circle cx="180" cy="177" r="2" fill="#CD93F0"/>
<path d="M320.168 206L322.076 202.952L320.312 200.168H321.38L322.16 201.452C322.248 201.604 322.34 201.764 322.436 201.932C322.54 202.092 322.64 202.256 322.736 202.424H322.784C322.872 202.256 322.96 202.092 323.048 201.932C323.136 201.764 323.224 201.604 323.312 201.452L324.02 200.168H325.052L323.288 203.06L325.184 206H324.116L323.264 204.644C323.16 204.468 323.052 204.292 322.94 204.116C322.836 203.94 322.732 203.768 322.628 203.6H322.58C322.476 203.768 322.376 203.94 322.28 204.116C322.184 204.284 322.088 204.46 321.992 204.644L321.2 206H320.168Z" fill="black"/>
<path d="M219.08 172.508C218.952 172.508 218.828 172.496 218.708 172.472C218.596 172.448 218.492 172.42 218.396 172.388L218.612 171.62C218.684 171.644 218.756 171.66 218.828 171.668C218.9 171.684 218.968 171.692 219.032 171.692C219.368 171.692 219.64 171.572 219.848 171.332C220.064 171.1 220.232 170.804 220.352 170.444L220.484 170.012L218.144 164.168H219.164L220.352 167.396C220.448 167.644 220.544 167.912 220.64 168.2C220.736 168.488 220.828 168.768 220.916 169.04H220.964C221.052 168.768 221.136 168.492 221.216 168.212C221.304 167.924 221.384 167.652 221.456 167.396L222.5 164.168H223.46L221.264 170.48C221.128 170.864 220.964 171.208 220.772 171.512C220.58 171.824 220.348 172.068 220.076 172.244C219.804 172.42 219.472 172.508 219.08 172.508Z" fill="black"/>
<path d="M119.372 48V47.472L122.444 42.972H119.708V42.168H123.692V42.696L120.62 47.196H123.788V48H119.372Z" fill="black"/>
<path d="M184.568 191.112C184.072 190.304 183.684 189.46 183.404 188.58C183.124 187.692 182.984 186.72 182.984 185.664C182.984 184.608 183.124 183.636 183.404 182.748C183.684 181.86 184.072 181.016 184.568 180.216L185.18 180.504C184.716 181.264 184.368 182.088 184.136 182.976C183.912 183.856 183.8 184.752 183.8 185.664C183.8 186.576 183.912 187.472 184.136 188.352C184.368 189.232 184.716 190.056 185.18 190.824L184.568 191.112ZM209.441 191.04L209.201 190.464C209.545 190.312 209.813 190.104 210.005 189.84C210.197 189.584 210.289 189.296 210.281 188.976L210.173 188.088L210.665 188.808C210.593 188.88 210.513 188.932 210.425 188.964C210.345 188.996 210.257 189.012 210.161 189.012C209.969 189.012 209.801 188.952 209.657 188.832C209.521 188.712 209.453 188.544 209.453 188.328C209.453 188.112 209.525 187.944 209.669 187.824C209.821 187.696 209.993 187.632 210.185 187.632C210.449 187.632 210.653 187.736 210.797 187.944C210.941 188.144 211.013 188.428 211.013 188.796C211.013 189.308 210.873 189.76 210.593 190.152C210.313 190.544 209.929 190.84 209.441 191.04ZM235.644 191.04L235.404 190.464C235.748 190.312 236.016 190.104 236.208 189.84C236.4 189.584 236.492 189.296 236.484 188.976L236.376 188.088L236.868 188.808C236.796 188.88 236.716 188.932 236.628 188.964C236.548 188.996 236.46 189.012 236.364 189.012C236.172 189.012 236.004 188.952 235.86 188.832C235.724 188.712 235.656 188.544 235.656 188.328C235.656 188.112 235.728 187.944 235.872 187.824C236.024 187.696 236.196 187.632 236.388 187.632C236.652 187.632 236.856 187.736 237 187.944C237.144 188.144 237.216 188.428 237.216 188.796C237.216 189.308 237.076 189.76 236.796 190.152C236.516 190.544 236.132 190.84 235.644 191.04ZM247.263 191.112L246.651 190.824C247.115 190.056 247.459 189.232 247.683 188.352C247.915 187.472 248.031 186.576 248.031 185.664C248.031 184.752 247.915 183.856 247.683 182.976C247.459 182.088 247.115 181.264 246.651 180.504L247.263 180.216C247.767 181.016 248.155 181.86 248.427 182.748C248.707 183.636 248.847 184.608 248.847 185.664C248.847 186.72 248.707 187.692 248.427 188.58C248.155 189.46 247.767 190.304 247.263 191.112Z" fill="black"/>
<path d="M188.933 189.144C188.413 189.144 187.945 189.024 187.529 188.784C187.113 188.544 186.785 188.196 186.545 187.74C186.305 187.284 186.185 186.736 186.185 186.096C186.185 185.44 186.313 184.884 186.569 184.428C186.833 183.972 187.177 183.624 187.601 183.384C188.033 183.144 188.497 183.024 188.993 183.024C189.377 183.024 189.705 183.088 189.977 183.216C190.257 183.344 190.497 183.508 190.697 183.708L190.205 184.32C190.061 184.176 189.889 184.064 189.689 183.984C189.497 183.896 189.277 183.852 189.029 183.852C188.685 183.852 188.373 183.948 188.093 184.14C187.821 184.324 187.605 184.584 187.445 184.92C187.285 185.256 187.205 185.648 187.205 186.096C187.205 186.536 187.281 186.924 187.433 187.26C187.585 187.596 187.797 187.86 188.069 188.052C188.341 188.236 188.657 188.328 189.017 188.328C189.289 188.328 189.541 188.276 189.773 188.172C190.005 188.068 190.205 187.936 190.373 187.776L190.805 188.376C190.557 188.608 190.277 188.796 189.965 188.94C189.653 189.076 189.309 189.144 188.933 189.144ZM194.111 189.144C193.639 189.144 193.195 189.024 192.779 188.784C192.371 188.544 192.039 188.196 191.783 187.74C191.535 187.284 191.411 186.736 191.411 186.096C191.411 185.44 191.535 184.884 191.783 184.428C192.039 183.972 192.371 183.624 192.779 183.384C193.195 183.144 193.639 183.024 194.111 183.024C194.591 183.024 195.035 183.144 195.443 183.384C195.851 183.624 196.179 183.972 196.427 184.428C196.683 184.884 196.811 185.44 196.811 186.096C196.811 186.736 196.683 187.284 196.427 187.74C196.179 188.196 195.851 188.544 195.443 188.784C195.035 189.024 194.591 189.144 194.111 189.144ZM194.111 188.328C194.447 188.328 194.743 188.236 194.999 188.052C195.255 187.86 195.451 187.596 195.587 187.26C195.723 186.924 195.791 186.536 195.791 186.096C195.791 185.648 195.723 185.256 195.587 184.92C195.451 184.576 195.255 184.312 194.999 184.128C194.743 183.936 194.447 183.84 194.111 183.84C193.775 183.84 193.479 183.936 193.223 184.128C192.975 184.312 192.779 184.576 192.635 184.92C192.499 185.256 192.431 185.648 192.431 186.096C192.431 186.536 192.499 186.924 192.635 187.26C192.779 187.596 192.975 187.86 193.223 188.052C193.479 188.236 193.775 188.328 194.111 188.328ZM199.848 189.144C199.424 189.144 199.02 189.072 198.636 188.928C198.26 188.776 197.94 188.568 197.676 188.304L198.132 187.728C198.388 187.936 198.652 188.096 198.924 188.208C199.204 188.32 199.524 188.376 199.884 188.376C200.268 188.376 200.556 188.288 200.748 188.112C200.94 187.928 201.036 187.712 201.036 187.464C201.036 187.264 200.968 187.1 200.832 186.972C200.704 186.836 200.54 186.724 200.34 186.636C200.148 186.54 199.94 186.452 199.716 186.372C199.428 186.268 199.152 186.148 198.888 186.012C198.624 185.868 198.408 185.692 198.24 185.484C198.08 185.268 198 185 198 184.68C198 184.208 198.176 183.816 198.528 183.504C198.888 183.184 199.384 183.024 200.016 183.024C200.376 183.024 200.712 183.088 201.024 183.216C201.336 183.336 201.604 183.492 201.828 183.684L201.372 184.248C201.164 184.104 200.952 183.992 200.736 183.912C200.52 183.832 200.28 183.792 200.016 183.792C199.648 183.792 199.376 183.876 199.2 184.044C199.032 184.212 198.948 184.408 198.948 184.632C198.948 184.808 199 184.956 199.104 185.076C199.208 185.188 199.352 185.288 199.536 185.376C199.728 185.464 199.944 185.548 200.184 185.628C200.488 185.74 200.776 185.868 201.048 186.012C201.328 186.148 201.552 186.328 201.72 186.552C201.896 186.768 201.984 187.052 201.984 187.404C201.984 187.724 201.9 188.016 201.732 188.28C201.572 188.536 201.332 188.744 201.012 188.904C200.7 189.064 200.312 189.144 199.848 189.144ZM205.499 189.144C204.747 189.144 204.155 188.788 203.723 188.076C203.291 187.356 203.075 186.228 203.075 184.692C203.075 183.74 203.171 182.94 203.363 182.292C203.563 181.636 203.843 181.144 204.203 180.816C204.571 180.48 205.003 180.312 205.499 180.312C205.995 180.312 206.423 180.48 206.783 180.816C207.151 181.144 207.431 181.636 207.623 182.292C207.823 182.94 207.923 183.74 207.923 184.692C207.923 186.228 207.707 187.356 207.275 188.076C206.843 188.788 206.251 189.144 205.499 189.144ZM205.499 188.328C205.779 188.328 206.027 188.216 206.243 187.992C206.467 187.76 206.639 187.38 206.759 186.852C206.887 186.316 206.951 185.596 206.951 184.692C206.951 184.06 206.915 183.52 206.843 183.072C206.771 182.616 206.667 182.244 206.531 181.956C206.403 181.668 206.251 181.46 206.075 181.332C205.899 181.196 205.707 181.128 205.499 181.128C205.291 181.128 205.099 181.196 204.923 181.332C204.747 181.46 204.591 181.668 204.455 181.956C204.327 182.244 204.227 182.616 204.155 183.072C204.083 183.52 204.047 184.06 204.047 184.692C204.047 185.596 204.107 186.316 204.227 186.852C204.355 187.38 204.527 187.76 204.743 187.992C204.967 188.216 205.219 188.328 205.499 188.328ZM203.615 185.064V184.284H207.383V185.064H203.615Z" fill="#FF00E6"/>
<path d="M216.535 189.144C216.111 189.144 215.707 189.072 215.323 188.928C214.947 188.776 214.627 188.568 214.363 188.304L214.819 187.728C215.075 187.936 215.339 188.096 215.611 188.208C215.891 188.32 216.211 188.376 216.571 188.376C216.955 188.376 217.243 188.288 217.435 188.112C217.627 187.928 217.723 187.712 217.723 187.464C217.723 187.264 217.655 187.1 217.519 186.972C217.391 186.836 217.227 186.724 217.027 186.636C216.835 186.54 216.627 186.452 216.403 186.372C216.115 186.268 215.839 186.148 215.575 186.012C215.311 185.868 215.095 185.692 214.927 185.484C214.767 185.268 214.687 185 214.687 184.68C214.687 184.208 214.863 183.816 215.215 183.504C215.575 183.184 216.071 183.024 216.703 183.024C217.063 183.024 217.399 183.088 217.711 183.216C218.023 183.336 218.291 183.492 218.515 183.684L218.059 184.248C217.851 184.104 217.639 183.992 217.423 183.912C217.207 183.832 216.967 183.792 216.703 183.792C216.335 183.792 216.063 183.876 215.887 184.044C215.719 184.212 215.635 184.408 215.635 184.632C215.635 184.808 215.687 184.956 215.791 185.076C215.895 185.188 216.039 185.288 216.223 185.376C216.415 185.464 216.631 185.548 216.871 185.628C217.175 185.74 217.463 185.868 217.735 186.012C218.015 186.148 218.239 186.328 218.407 186.552C218.583 186.768 218.671 187.052 218.671 187.404C218.671 187.724 218.587 188.016 218.419 188.28C218.259 188.536 218.019 188.744 217.699 188.904C217.387 189.064 216.999 189.144 216.535 189.144ZM220.039 189V183.168H221.023V189H220.039ZM220.531 181.968C220.339 181.968 220.179 181.908 220.051 181.788C219.931 181.668 219.871 181.512 219.871 181.32C219.871 181.128 219.931 180.972 220.051 180.852C220.179 180.732 220.339 180.672 220.531 180.672C220.723 180.672 220.879 180.732 220.999 180.852C221.127 180.972 221.191 181.128 221.191 181.32C221.191 181.512 221.127 181.668 220.999 181.788C220.879 181.908 220.723 181.968 220.531 181.968ZM222.992 189V183.168H223.808L223.892 184.008H223.928C224.208 183.728 224.504 183.496 224.816 183.312C225.128 183.12 225.484 183.024 225.884 183.024C226.5 183.024 226.948 183.22 227.228 183.612C227.516 183.996 227.66 184.56 227.66 185.304V189H226.676V185.436C226.676 184.884 226.588 184.488 226.412 184.248C226.244 184 225.964 183.876 225.572 183.876C225.276 183.876 225.008 183.952 224.768 184.104C224.536 184.256 224.272 184.48 223.976 184.776V189H222.992ZM231.702 189.144C230.95 189.144 230.358 188.788 229.926 188.076C229.494 187.356 229.278 186.228 229.278 184.692C229.278 183.74 229.374 182.94 229.566 182.292C229.766 181.636 230.046 181.144 230.406 180.816C230.774 180.48 231.206 180.312 231.702 180.312C232.198 180.312 232.626 180.48 232.986 180.816C233.354 181.144 233.634 181.636 233.826 182.292C234.026 182.94 234.126 183.74 234.126 184.692C234.126 186.228 233.91 187.356 233.478 188.076C233.046 188.788 232.454 189.144 231.702 189.144ZM231.702 188.328C231.982 188.328 232.23 188.216 232.446 187.992C232.67 187.76 232.842 187.38 232.962 186.852C233.09 186.316 233.154 185.596 233.154 184.692C233.154 184.06 233.118 183.52 233.046 183.072C232.974 182.616 232.87 182.244 232.734 181.956C232.606 181.668 232.454 181.46 232.278 181.332C232.102 181.196 231.91 181.128 231.702 181.128C231.494 181.128 231.302 181.196 231.126 181.332C230.95 181.46 230.794 181.668 230.658 181.956C230.53 182.244 230.43 182.616 230.358 183.072C230.286 183.52 230.25 184.06 230.25 184.692C230.25 185.596 230.31 186.316 230.43 186.852C230.558 187.38 230.73 187.76 230.946 187.992C231.17 188.216 231.422 188.328 231.702 188.328ZM229.818 185.064V184.284H233.586V185.064H229.818Z" fill="#2A5D57"/>
<path d="M243.218 189.144C242.45 189.144 241.846 188.8 241.406 188.112C240.974 187.416 240.758 186.428 240.758 185.148C240.758 183.86 240.974 182.88 241.406 182.208C241.846 181.536 242.45 181.2 243.218 181.2C243.978 181.2 244.574 181.54 245.006 182.22C245.446 182.892 245.666 183.868 245.666 185.148C245.666 186.428 245.446 187.416 245.006 188.112C244.574 188.8 243.978 189.144 243.218 189.144ZM243.218 188.352C243.514 188.352 243.774 188.24 243.998 188.016C244.222 187.792 244.394 187.444 244.514 186.972C244.642 186.5 244.706 185.892 244.706 185.148C244.706 184.396 244.642 183.788 244.514 183.324C244.394 182.86 244.222 182.524 243.998 182.316C243.774 182.1 243.514 181.992 243.218 181.992C242.914 181.992 242.65 182.1 242.426 182.316C242.202 182.524 242.026 182.86 241.898 183.324C241.778 183.788 241.718 184.396 241.718 185.148C241.718 185.892 241.778 186.5 241.898 186.972C242.026 187.444 242.202 187.792 242.426 188.016C242.65 188.24 242.914 188.352 243.218 188.352Z" fill="#5447E9"/>
<path d="M180.348 77.144C179.828 77.144 179.352 77.024 178.92 76.784C178.496 76.536 178.16 76.188 177.912 75.74C177.664 75.284 177.54 74.732 177.54 74.084C177.54 73.452 177.668 72.908 177.924 72.452C178.18 71.996 178.508 71.644 178.908 71.396C179.308 71.148 179.732 71.024 180.18 71.024C180.676 71.024 181.096 71.14 181.44 71.372C181.792 71.596 182.056 71.912 182.232 72.32C182.408 72.728 182.496 73.208 182.496 73.76C182.496 73.864 182.492 73.964 182.484 74.06C182.484 74.156 182.472 74.252 182.448 74.348H178.248V73.568H181.608C181.608 73.008 181.484 72.58 181.236 72.284C180.996 71.98 180.648 71.828 180.192 71.828C179.928 71.828 179.668 71.904 179.412 72.056C179.156 72.2 178.944 72.436 178.776 72.764C178.616 73.092 178.536 73.528 178.536 74.072C178.536 74.568 178.62 74.984 178.788 75.32C178.964 75.656 179.2 75.912 179.496 76.088C179.792 76.256 180.116 76.34 180.468 76.34C180.748 76.34 181.008 76.3 181.248 76.22C181.496 76.14 181.72 76.032 181.92 75.896L182.28 76.544C182.024 76.72 181.736 76.864 181.416 76.976C181.104 77.088 180.748 77.144 180.348 77.144ZM185.785 77.144C185.377 77.144 185.013 77.092 184.693 76.988C184.381 76.884 184.109 76.752 183.877 76.592C183.645 76.432 183.441 76.256 183.265 76.064L183.769 75.416C184.001 75.656 184.269 75.868 184.573 76.052C184.885 76.236 185.269 76.328 185.725 76.328C186.189 76.328 186.569 76.2 186.865 75.944C187.161 75.688 187.309 75.348 187.309 74.924C187.309 74.62 187.229 74.356 187.069 74.132C186.917 73.9 186.661 73.72 186.301 73.592C185.949 73.464 185.469 73.4 184.861 73.4V72.644C185.405 72.644 185.833 72.58 186.145 72.452C186.465 72.324 186.693 72.156 186.829 71.948C186.965 71.732 187.033 71.488 187.033 71.216C187.033 70.84 186.913 70.544 186.673 70.328C186.441 70.112 186.121 70.004 185.713 70.004C185.393 70.004 185.097 70.076 184.825 70.22C184.553 70.364 184.305 70.552 184.081 70.784L183.553 70.16C183.849 69.88 184.177 69.652 184.537 69.476C184.897 69.292 185.301 69.2 185.749 69.2C186.197 69.2 186.593 69.276 186.937 69.428C187.281 69.58 187.549 69.8 187.741 70.088C187.941 70.376 188.041 70.728 188.041 71.144C188.041 71.608 187.913 71.988 187.657 72.284C187.401 72.58 187.065 72.808 186.649 72.968V73.016C186.961 73.088 187.241 73.212 187.489 73.388C187.737 73.556 187.933 73.772 188.077 74.036C188.229 74.3 188.305 74.608 188.305 74.96C188.305 75.416 188.193 75.808 187.969 76.136C187.745 76.456 187.441 76.704 187.057 76.88C186.673 77.056 186.249 77.144 185.785 77.144Z" fill="black"/>
<path d="M313.348 192.144C312.828 192.144 312.352 192.024 311.92 191.784C311.496 191.536 311.16 191.188 310.912 190.74C310.664 190.284 310.54 189.732 310.54 189.084C310.54 188.452 310.668 187.908 310.924 187.452C311.18 186.996 311.508 186.644 311.908 186.396C312.308 186.148 312.732 186.024 313.18 186.024C313.676 186.024 314.096 186.14 314.44 186.372C314.792 186.596 315.056 186.912 315.232 187.32C315.408 187.728 315.496 188.208 315.496 188.76C315.496 188.864 315.492 188.964 315.484 189.06C315.484 189.156 315.472 189.252 315.448 189.348H311.248V188.568H314.608C314.608 188.008 314.484 187.58 314.236 187.284C313.996 186.98 313.648 186.828 313.192 186.828C312.928 186.828 312.668 186.904 312.412 187.056C312.156 187.2 311.944 187.436 311.776 187.764C311.616 188.092 311.536 188.528 311.536 189.072C311.536 189.568 311.62 189.984 311.788 190.32C311.964 190.656 312.2 190.912 312.496 191.088C312.792 191.256 313.116 191.34 313.468 191.34C313.748 191.34 314.008 191.3 314.248 191.22C314.496 191.14 314.72 191.032 314.92 190.896L315.28 191.544C315.024 191.72 314.736 191.864 314.416 191.976C314.104 192.088 313.748 192.144 313.348 192.144ZM316.901 192V191.184H318.653V185.544H317.261V184.908C317.605 184.844 317.909 184.768 318.173 184.68C318.437 184.584 318.673 184.472 318.881 184.344H319.637V191.184H321.221V192H316.901ZM326.912 190.752V188.412H324.728V187.668H326.912V185.328H327.692V187.668H329.876V188.412H327.692V190.752H326.912ZM336.036 192.144C335.516 192.144 335.04 192.024 334.608 191.784C334.184 191.536 333.848 191.188 333.6 190.74C333.352 190.284 333.228 189.732 333.228 189.084C333.228 188.452 333.356 187.908 333.612 187.452C333.868 186.996 334.196 186.644 334.596 186.396C334.996 186.148 335.42 186.024 335.868 186.024C336.364 186.024 336.784 186.14 337.128 186.372C337.48 186.596 337.744 186.912 337.92 187.32C338.096 187.728 338.184 188.208 338.184 188.76C338.184 188.864 338.18 188.964 338.172 189.06C338.172 189.156 338.16 189.252 338.136 189.348H333.936V188.568H337.296C337.296 188.008 337.172 187.58 336.924 187.284C336.684 186.98 336.336 186.828 335.88 186.828C335.616 186.828 335.356 186.904 335.1 187.056C334.844 187.2 334.632 187.436 334.464 187.764C334.304 188.092 334.224 188.528 334.224 189.072C334.224 189.568 334.308 189.984 334.476 190.32C334.652 190.656 334.888 190.912 335.184 191.088C335.48 191.256 335.804 191.34 336.156 191.34C336.436 191.34 336.696 191.3 336.936 191.22C337.184 191.14 337.408 191.032 337.608 190.896L337.968 191.544C337.712 191.72 337.424 191.864 337.104 191.976C336.792 192.088 336.436 192.144 336.036 192.144ZM339.121 192V191.4C339.881 190.648 340.529 189.984 341.065 189.408C341.609 188.824 342.021 188.296 342.301 187.824C342.581 187.352 342.721 186.912 342.721 186.504C342.721 186.064 342.601 185.704 342.361 185.424C342.121 185.144 341.757 185.004 341.269 185.004C340.949 185.004 340.653 185.092 340.381 185.268C340.109 185.444 339.861 185.664 339.637 185.928L339.085 185.388C339.405 185.028 339.745 184.74 340.105 184.524C340.473 184.308 340.901 184.2 341.389 184.2C341.861 184.2 342.269 184.296 342.613 184.488C342.957 184.672 343.221 184.932 343.405 185.268C343.589 185.604 343.681 185.996 343.681 186.444C343.681 186.94 343.541 187.432 343.261 187.92C342.989 188.408 342.613 188.92 342.133 189.456C341.653 189.992 341.101 190.58 340.477 191.22C340.685 191.196 340.901 191.18 341.125 191.172C341.349 191.156 341.561 191.148 341.761 191.148H344.065V192H339.121Z" fill="black"/>
<path d="M396.348 33.144C395.828 33.144 395.352 33.024 394.92 32.784C394.496 32.536 394.16 32.188 393.912 31.74C393.664 31.284 393.54 30.732 393.54 30.084C393.54 29.452 393.668 28.908 393.924 28.452C394.18 27.996 394.508 27.644 394.908 27.396C395.308 27.148 395.732 27.024 396.18 27.024C396.676 27.024 397.096 27.14 397.44 27.372C397.792 27.596 398.056 27.912 398.232 28.32C398.408 28.728 398.496 29.208 398.496 29.76C398.496 29.864 398.492 29.964 398.484 30.06C398.484 30.156 398.472 30.252 398.448 30.348H394.248V29.568H397.608C397.608 29.008 397.484 28.58 397.236 28.284C396.996 27.98 396.648 27.828 396.192 27.828C395.928 27.828 395.668 27.904 395.412 28.056C395.156 28.2 394.944 28.436 394.776 28.764C394.616 29.092 394.536 29.528 394.536 30.072C394.536 30.568 394.62 30.984 394.788 31.32C394.964 31.656 395.2 31.912 395.496 32.088C395.792 32.256 396.116 32.34 396.468 32.34C396.748 32.34 397.008 32.3 397.248 32.22C397.496 32.14 397.72 32.032 397.92 31.896L398.28 32.544C398.024 32.72 397.736 32.864 397.416 32.976C397.104 33.088 396.748 33.144 396.348 33.144ZM399.901 33V32.184H401.653V26.544H400.261V25.908C400.605 25.844 400.909 25.768 401.173 25.68C401.437 25.584 401.673 25.472 401.881 25.344H402.637V32.184H404.221V33H399.901ZM409.912 31.752V29.412H407.728V28.668H409.912V26.328H410.692V28.668H412.876V29.412H410.692V31.752H409.912ZM419.036 33.144C418.516 33.144 418.04 33.024 417.608 32.784C417.184 32.536 416.848 32.188 416.6 31.74C416.352 31.284 416.228 30.732 416.228 30.084C416.228 29.452 416.356 28.908 416.612 28.452C416.868 27.996 417.196 27.644 417.596 27.396C417.996 27.148 418.42 27.024 418.868 27.024C419.364 27.024 419.784 27.14 420.128 27.372C420.48 27.596 420.744 27.912 420.92 28.32C421.096 28.728 421.184 29.208 421.184 29.76C421.184 29.864 421.18 29.964 421.172 30.06C421.172 30.156 421.16 30.252 421.136 30.348H416.936V29.568H420.296C420.296 29.008 420.172 28.58 419.924 28.284C419.684 27.98 419.336 27.828 418.88 27.828C418.616 27.828 418.356 27.904 418.1 28.056C417.844 28.2 417.632 28.436 417.464 28.764C417.304 29.092 417.224 29.528 417.224 30.072C417.224 30.568 417.308 30.984 417.476 31.32C417.652 31.656 417.888 31.912 418.184 32.088C418.48 32.256 418.804 32.34 419.156 32.34C419.436 32.34 419.696 32.3 419.936 32.22C420.184 32.14 420.408 32.032 420.608 31.896L420.968 32.544C420.712 32.72 420.424 32.864 420.104 32.976C419.792 33.088 419.436 33.144 419.036 33.144ZM422.121 33V32.4C422.881 31.648 423.529 30.984 424.065 30.408C424.609 29.824 425.021 29.296 425.301 28.824C425.581 28.352 425.721 27.912 425.721 27.504C425.721 27.064 425.601 26.704 425.361 26.424C425.121 26.144 424.757 26.004 424.269 26.004C423.949 26.004 423.653 26.092 423.381 26.268C423.109 26.444 422.861 26.664 422.637 26.928L422.085 26.388C422.405 26.028 422.745 25.74 423.105 25.524C423.473 25.308 423.901 25.2 424.389 25.2C424.861 25.2 425.269 25.296 425.613 25.488C425.957 25.672 426.221 25.932 426.405 26.268C426.589 26.604 426.681 26.996 426.681 27.444C426.681 27.94 426.541 28.432 426.261 28.92C425.989 29.408 425.613 29.92 425.133 30.456C424.653 30.992 424.101 31.58 423.477 32.22C423.685 32.196 423.901 32.18 424.125 32.172C424.349 32.156 424.561 32.148 424.761 32.148H427.065V33H422.121ZM432.6 31.752V29.412H430.416V28.668H432.6V26.328H433.38V28.668H435.564V29.412H433.38V31.752H432.6ZM441.723 33.144C441.203 33.144 440.727 33.024 440.295 32.784C439.871 32.536 439.535 32.188 439.287 31.74C439.039 31.284 438.915 30.732 438.915 30.084C438.915 29.452 439.043 28.908 439.299 28.452C439.555 27.996 439.883 27.644 440.283 27.396C440.683 27.148 441.107 27.024 441.555 27.024C442.051 27.024 442.471 27.14 442.815 27.372C443.167 27.596 443.431 27.912 443.607 28.32C443.783 28.728 443.871 29.208 443.871 29.76C443.871 29.864 443.867 29.964 443.859 30.06C443.859 30.156 443.847 30.252 443.823 30.348H439.623V29.568H442.983C442.983 29.008 442.859 28.58 442.611 28.284C442.371 27.98 442.023 27.828 441.567 27.828C441.303 27.828 441.043 27.904 440.787 28.056C440.531 28.2 440.319 28.436 440.151 28.764C439.991 29.092 439.911 29.528 439.911 30.072C439.911 30.568 439.995 30.984 440.163 31.32C440.339 31.656 440.575 31.912 440.871 32.088C441.167 32.256 441.491 32.34 441.843 32.34C442.123 32.34 442.383 32.3 442.623 32.22C442.871 32.14 443.095 32.032 443.295 31.896L443.655 32.544C443.399 32.72 443.111 32.864 442.791 32.976C442.479 33.088 442.123 33.144 441.723 33.144ZM447.16 33.144C446.752 33.144 446.388 33.092 446.068 32.988C445.756 32.884 445.484 32.752 445.252 32.592C445.02 32.432 444.816 32.256 444.64 32.064L445.144 31.416C445.376 31.656 445.644 31.868 445.948 32.052C446.26 32.236 446.644 32.328 447.1 32.328C447.564 32.328 447.944 32.2 448.24 31.944C448.536 31.688 448.684 31.348 448.684 30.924C448.684 30.62 448.604 30.356 448.444 30.132C448.292 29.9 448.036 29.72 447.676 29.592C447.324 29.464 446.844 29.4 446.236 29.4V28.644C446.78 28.644 447.208 28.58 447.52 28.452C447.84 28.324 448.068 28.156 448.204 27.948C448.34 27.732 448.408 27.488 448.408 27.216C448.408 26.84 448.288 26.544 448.048 26.328C447.816 26.112 447.496 26.004 447.088 26.004C446.768 26.004 446.472 26.076 446.2 26.22C445.928 26.364 445.68 26.552 445.456 26.784L444.928 26.16C445.224 25.88 445.552 25.652 445.912 25.476C446.272 25.292 446.676 25.2 447.124 25.2C447.572 25.2 447.968 25.276 448.312 25.428C448.656 25.58 448.924 25.8 449.116 26.088C449.316 26.376 449.416 26.728 449.416 27.144C449.416 27.608 449.288 27.988 449.032 28.284C448.776 28.58 448.44 28.808 448.024 28.968V29.016C448.336 29.088 448.616 29.212 448.864 29.388C449.112 29.556 449.308 29.772 449.452 30.036C449.604 30.3 449.68 30.608 449.68 30.96C449.68 31.416 449.568 31.808 449.344 32.136C449.12 32.456 448.816 32.704 448.432 32.88C448.048 33.056 447.624 33.144 447.16 33.144Z" fill="black"/>
<path d="M329.348 72.144C328.828 72.144 328.352 72.024 327.92 71.784C327.496 71.536 327.16 71.188 326.912 70.74C326.664 70.284 326.54 69.732 326.54 69.084C326.54 68.452 326.668 67.908 326.924 67.452C327.18 66.996 327.508 66.644 327.908 66.396C328.308 66.148 328.732 66.024 329.18 66.024C329.676 66.024 330.096 66.14 330.44 66.372C330.792 66.596 331.056 66.912 331.232 67.32C331.408 67.728 331.496 68.208 331.496 68.76C331.496 68.864 331.492 68.964 331.484 69.06C331.484 69.156 331.472 69.252 331.448 69.348H327.248V68.568H330.608C330.608 68.008 330.484 67.58 330.236 67.284C329.996 66.98 329.648 66.828 329.192 66.828C328.928 66.828 328.668 66.904 328.412 67.056C328.156 67.2 327.944 67.436 327.776 67.764C327.616 68.092 327.536 68.528 327.536 69.072C327.536 69.568 327.62 69.984 327.788 70.32C327.964 70.656 328.2 70.912 328.496 71.088C328.792 71.256 329.116 71.34 329.468 71.34C329.748 71.34 330.008 71.3 330.248 71.22C330.496 71.14 330.72 71.032 330.92 70.896L331.28 71.544C331.024 71.72 330.736 71.864 330.416 71.976C330.104 72.088 329.748 72.144 329.348 72.144ZM332.901 72V71.184H334.653V65.544H333.261V64.908C333.605 64.844 333.909 64.768 334.173 64.68C334.437 64.584 334.673 64.472 334.881 64.344H335.637V71.184H337.221V72H332.901ZM342.912 70.752V68.412H340.728V67.668H342.912V65.328H343.692V67.668H345.876V68.412H343.692V70.752H342.912ZM352.036 72.144C351.516 72.144 351.04 72.024 350.608 71.784C350.184 71.536 349.848 71.188 349.6 70.74C349.352 70.284 349.228 69.732 349.228 69.084C349.228 68.452 349.356 67.908 349.612 67.452C349.868 66.996 350.196 66.644 350.596 66.396C350.996 66.148 351.42 66.024 351.868 66.024C352.364 66.024 352.784 66.14 353.128 66.372C353.48 66.596 353.744 66.912 353.92 67.32C354.096 67.728 354.184 68.208 354.184 68.76C354.184 68.864 354.18 68.964 354.172 69.06C354.172 69.156 354.16 69.252 354.136 69.348H349.936V68.568H353.296C353.296 68.008 353.172 67.58 352.924 67.284C352.684 66.98 352.336 66.828 351.88 66.828C351.616 66.828 351.356 66.904 351.1 67.056C350.844 67.2 350.632 67.436 350.464 67.764C350.304 68.092 350.224 68.528 350.224 69.072C350.224 69.568 350.308 69.984 350.476 70.32C350.652 70.656 350.888 70.912 351.184 71.088C351.48 71.256 351.804 71.34 352.156 71.34C352.436 71.34 352.696 71.3 352.936 71.22C353.184 71.14 353.408 71.032 353.608 70.896L353.968 71.544C353.712 71.72 353.424 71.864 353.104 71.976C352.792 72.088 352.436 72.144 352.036 72.144ZM357.473 72.144C357.065 72.144 356.701 72.092 356.381 71.988C356.069 71.884 355.797 71.752 355.565 71.592C355.333 71.432 355.129 71.256 354.953 71.064L355.457 70.416C355.689 70.656 355.957 70.868 356.261 71.052C356.573 71.236 356.957 71.328 357.413 71.328C357.877 71.328 358.257 71.2 358.553 70.944C358.849 70.688 358.997 70.348 358.997 69.924C358.997 69.62 358.917 69.356 358.757 69.132C358.605 68.9 358.349 68.72 357.989 68.592C357.637 68.464 357.157 68.4 356.549 68.4V67.644C357.093 67.644 357.521 67.58 357.833 67.452C358.153 67.324 358.381 67.156 358.517 66.948C358.653 66.732 358.721 66.488 358.721 66.216C358.721 65.84 358.601 65.544 358.361 65.328C358.129 65.112 357.809 65.004 357.401 65.004C357.081 65.004 356.785 65.076 356.513 65.22C356.241 65.364 355.993 65.552 355.769 65.784L355.241 65.16C355.537 64.88 355.865 64.652 356.225 64.476C356.585 64.292 356.989 64.2 357.437 64.2C357.885 64.2 358.281 64.276 358.625 64.428C358.969 64.58 359.237 64.8 359.429 65.088C359.629 65.376 359.729 65.728 359.729 66.144C359.729 66.608 359.601 66.988 359.345 67.284C359.089 67.58 358.753 67.808 358.337 67.968V68.016C358.649 68.088 358.929 68.212 359.177 68.388C359.425 68.556 359.621 68.772 359.765 69.036C359.917 69.3 359.993 69.608 359.993 69.96C359.993 70.416 359.881 70.808 359.657 71.136C359.433 71.456 359.129 71.704 358.745 71.88C358.361 72.056 357.937 72.144 357.473 72.144Z" fill="black"/>
<path d="M242.348 29.144C241.828 29.144 241.352 29.024 240.92 28.784C240.496 28.536 240.16 28.188 239.912 27.74C239.664 27.284 239.54 26.732 239.54 26.084C239.54 25.452 239.668 24.908 239.924 24.452C240.18 23.996 240.508 23.644 240.908 23.396C241.308 23.148 241.732 23.024 242.18 23.024C242.676 23.024 243.096 23.14 243.44 23.372C243.792 23.596 244.056 23.912 244.232 24.32C244.408 24.728 244.496 25.208 244.496 25.76C244.496 25.864 244.492 25.964 244.484 26.06C244.484 26.156 244.472 26.252 244.448 26.348H240.248V25.568H243.608C243.608 25.008 243.484 24.58 243.236 24.284C242.996 23.98 242.648 23.828 242.192 23.828C241.928 23.828 241.668 23.904 241.412 24.056C241.156 24.2 240.944 24.436 240.776 24.764C240.616 25.092 240.536 25.528 240.536 26.072C240.536 26.568 240.62 26.984 240.788 27.32C240.964 27.656 241.2 27.912 241.496 28.088C241.792 28.256 242.116 28.34 242.468 28.34C242.748 28.34 243.008 28.3 243.248 28.22C243.496 28.14 243.72 28.032 243.92 27.896L244.28 28.544C244.024 28.72 243.736 28.864 243.416 28.976C243.104 29.088 242.748 29.144 242.348 29.144ZM245.433 29V28.4C246.193 27.648 246.841 26.984 247.377 26.408C247.921 25.824 248.333 25.296 248.613 24.824C248.893 24.352 249.033 23.912 249.033 23.504C249.033 23.064 248.913 22.704 248.673 22.424C248.433 22.144 248.069 22.004 247.581 22.004C247.261 22.004 246.965 22.092 246.693 22.268C246.421 22.444 246.173 22.664 245.949 22.928L245.397 22.388C245.717 22.028 246.057 21.74 246.417 21.524C246.785 21.308 247.213 21.2 247.701 21.2C248.173 21.2 248.581 21.296 248.925 21.488C249.269 21.672 249.533 21.932 249.717 22.268C249.901 22.604 249.993 22.996 249.993 23.444C249.993 23.94 249.853 24.432 249.573 24.92C249.301 25.408 248.925 25.92 248.445 26.456C247.965 26.992 247.413 27.58 246.789 28.22C246.997 28.196 247.213 28.18 247.437 28.172C247.661 28.156 247.873 28.148 248.073 28.148H250.377V29H245.433ZM255.912 27.752V25.412H253.728V24.668H255.912V22.328H256.692V24.668H258.876V25.412H256.692V27.752H255.912ZM265.036 29.144C264.516 29.144 264.04 29.024 263.608 28.784C263.184 28.536 262.848 28.188 262.6 27.74C262.352 27.284 262.228 26.732 262.228 26.084C262.228 25.452 262.356 24.908 262.612 24.452C262.868 23.996 263.196 23.644 263.596 23.396C263.996 23.148 264.42 23.024 264.868 23.024C265.364 23.024 265.784 23.14 266.128 23.372C266.48 23.596 266.744 23.912 266.92 24.32C267.096 24.728 267.184 25.208 267.184 25.76C267.184 25.864 267.18 25.964 267.172 26.06C267.172 26.156 267.16 26.252 267.136 26.348H262.936V25.568H266.296C266.296 25.008 266.172 24.58 265.924 24.284C265.684 23.98 265.336 23.828 264.88 23.828C264.616 23.828 264.356 23.904 264.1 24.056C263.844 24.2 263.632 24.436 263.464 24.764C263.304 25.092 263.224 25.528 263.224 26.072C263.224 26.568 263.308 26.984 263.476 27.32C263.652 27.656 263.888 27.912 264.184 28.088C264.48 28.256 264.804 28.34 265.156 28.34C265.436 28.34 265.696 28.3 265.936 28.22C266.184 28.14 266.408 28.032 266.608 27.896L266.968 28.544C266.712 28.72 266.424 28.864 266.104 28.976C265.792 29.088 265.436 29.144 265.036 29.144ZM270.473 29.144C270.065 29.144 269.701 29.092 269.381 28.988C269.069 28.884 268.797 28.752 268.565 28.592C268.333 28.432 268.129 28.256 267.953 28.064L268.457 27.416C268.689 27.656 268.957 27.868 269.261 28.052C269.573 28.236 269.957 28.328 270.413 28.328C270.877 28.328 271.257 28.2 271.553 27.944C271.849 27.688 271.997 27.348 271.997 26.924C271.997 26.62 271.917 26.356 271.757 26.132C271.605 25.9 271.349 25.72 270.989 25.592C270.637 25.464 270.157 25.4 269.549 25.4V24.644C270.093 24.644 270.521 24.58 270.833 24.452C271.153 24.324 271.381 24.156 271.517 23.948C271.653 23.732 271.721 23.488 271.721 23.216C271.721 22.84 271.601 22.544 271.361 22.328C271.129 22.112 270.809 22.004 270.401 22.004C270.081 22.004 269.785 22.076 269.513 22.22C269.241 22.364 268.993 22.552 268.769 22.784L268.241 22.16C268.537 21.88 268.865 21.652 269.225 21.476C269.585 21.292 269.989 21.2 270.437 21.2C270.885 21.2 271.281 21.276 271.625 21.428C271.969 21.58 272.237 21.8 272.429 22.088C272.629 22.376 272.729 22.728 272.729 23.144C272.729 23.608 272.601 23.988 272.345 24.284C272.089 24.58 271.753 24.808 271.337 24.968V25.016C271.649 25.088 271.929 25.212 272.177 25.388C272.425 25.556 272.621 25.772 272.765 26.036C272.917 26.3 272.993 26.608 272.993 26.96C272.993 27.416 272.881 27.808 272.657 28.136C272.433 28.456 272.129 28.704 271.745 28.88C271.361 29.056 270.937 29.144 270.473 29.144Z" fill="black"/>
<path d="M189.348 215.144C188.828 215.144 188.352 215.024 187.92 214.784C187.496 214.536 187.16 214.188 186.912 213.74C186.664 213.284 186.54 212.732 186.54 212.084C186.54 211.452 186.668 210.908 186.924 210.452C187.18 209.996 187.508 209.644 187.908 209.396C188.308 209.148 188.732 209.024 189.18 209.024C189.676 209.024 190.096 209.14 190.44 209.372C190.792 209.596 191.056 209.912 191.232 210.32C191.408 210.728 191.496 211.208 191.496 211.76C191.496 211.864 191.492 211.964 191.484 212.06C191.484 212.156 191.472 212.252 191.448 212.348H187.248V211.568H190.608C190.608 211.008 190.484 210.58 190.236 210.284C189.996 209.98 189.648 209.828 189.192 209.828C188.928 209.828 188.668 209.904 188.412 210.056C188.156 210.2 187.944 210.436 187.776 210.764C187.616 211.092 187.536 211.528 187.536 212.072C187.536 212.568 187.62 212.984 187.788 213.32C187.964 213.656 188.2 213.912 188.496 214.088C188.792 214.256 189.116 214.34 189.468 214.34C189.748 214.34 190.008 214.3 190.248 214.22C190.496 214.14 190.72 214.032 190.92 213.896L191.28 214.544C191.024 214.72 190.736 214.864 190.416 214.976C190.104 215.088 189.748 215.144 189.348 215.144ZM192.901 215V214.184H194.653V208.544H193.261V207.908C193.605 207.844 193.909 207.768 194.173 207.68C194.437 207.584 194.673 207.472 194.881 207.344H195.637V214.184H197.221V215H192.901Z" fill="#0686FD"/>
<path d="M141.348 186.144C140.828 186.144 140.352 186.024 139.92 185.784C139.496 185.536 139.16 185.188 138.912 184.74C138.664 184.284 138.54 183.732 138.54 183.084C138.54 182.452 138.668 181.908 138.924 181.452C139.18 180.996 139.508 180.644 139.908 180.396C140.308 180.148 140.732 180.024 141.18 180.024C141.676 180.024 142.096 180.14 142.44 180.372C142.792 180.596 143.056 180.912 143.232 181.32C143.408 181.728 143.496 182.208 143.496 182.76C143.496 182.864 143.492 182.964 143.484 183.06C143.484 183.156 143.472 183.252 143.448 183.348H139.248V182.568H142.608C142.608 182.008 142.484 181.58 142.236 181.284C141.996 180.98 141.648 180.828 141.192 180.828C140.928 180.828 140.668 180.904 140.412 181.056C140.156 181.2 139.944 181.436 139.776 181.764C139.616 182.092 139.536 182.528 139.536 183.072C139.536 183.568 139.62 183.984 139.788 184.32C139.964 184.656 140.2 184.912 140.496 185.088C140.792 185.256 141.116 185.34 141.468 185.34C141.748 185.34 142.008 185.3 142.248 185.22C142.496 185.14 142.72 185.032 142.92 184.896L143.28 185.544C143.024 185.72 142.736 185.864 142.416 185.976C142.104 186.088 141.748 186.144 141.348 186.144ZM144.433 186V185.4C145.193 184.648 145.841 183.984 146.377 183.408C146.921 182.824 147.333 182.296 147.613 181.824C147.893 181.352 148.033 180.912 148.033 180.504C148.033 180.064 147.913 179.704 147.673 179.424C147.433 179.144 147.069 179.004 146.581 179.004C146.261 179.004 145.965 179.092 145.693 179.268C145.421 179.444 145.173 179.664 144.949 179.928L144.397 179.388C144.717 179.028 145.057 178.74 145.417 178.524C145.785 178.308 146.213 178.2 146.701 178.2C147.173 178.2 147.581 178.296 147.925 178.488C148.269 178.672 148.533 178.932 148.717 179.268C148.901 179.604 148.993 179.996 148.993 180.444C148.993 180.94 148.853 181.432 148.573 181.92C148.301 182.408 147.925 182.92 147.445 183.456C146.965 183.992 146.413 184.58 145.789 185.22C145.997 185.196 146.213 185.18 146.437 185.172C146.661 185.156 146.873 185.148 147.073 185.148H149.377V186H144.433Z" fill="#FF9900"/>
<path d="M126.348 142.144C125.828 142.144 125.352 142.024 124.92 141.784C124.496 141.536 124.16 141.188 123.912 140.74C123.664 140.284 123.54 139.732 123.54 139.084C123.54 138.452 123.668 137.908 123.924 137.452C124.18 136.996 124.508 136.644 124.908 136.396C125.308 136.148 125.732 136.024 126.18 136.024C126.676 136.024 127.096 136.14 127.44 136.372C127.792 136.596 128.056 136.912 128.232 137.32C128.408 137.728 128.496 138.208 128.496 138.76C128.496 138.864 128.492 138.964 128.484 139.06C128.484 139.156 128.472 139.252 128.448 139.348H124.248V138.568H127.608C127.608 138.008 127.484 137.58 127.236 137.284C126.996 136.98 126.648 136.828 126.192 136.828C125.928 136.828 125.668 136.904 125.412 137.056C125.156 137.2 124.944 137.436 124.776 137.764C124.616 138.092 124.536 138.528 124.536 139.072C124.536 139.568 124.62 139.984 124.788 140.32C124.964 140.656 125.2 140.912 125.496 141.088C125.792 141.256 126.116 141.34 126.468 141.34C126.748 141.34 127.008 141.3 127.248 141.22C127.496 141.14 127.72 141.032 127.92 140.896L128.28 141.544C128.024 141.72 127.736 141.864 127.416 141.976C127.104 142.088 126.748 142.144 126.348 142.144ZM131.785 142.144C131.377 142.144 131.013 142.092 130.693 141.988C130.381 141.884 130.109 141.752 129.877 141.592C129.645 141.432 129.441 141.256 129.265 141.064L129.769 140.416C130.001 140.656 130.269 140.868 130.573 141.052C130.885 141.236 131.269 141.328 131.725 141.328C132.189 141.328 132.569 141.2 132.865 140.944C133.161 140.688 133.309 140.348 133.309 139.924C133.309 139.62 133.229 139.356 133.069 139.132C132.917 138.9 132.661 138.72 132.301 138.592C131.949 138.464 131.469 138.4 130.861 138.4V137.644C131.405 137.644 131.833 137.58 132.145 137.452C132.465 137.324 132.693 137.156 132.829 136.948C132.965 136.732 133.033 136.488 133.033 136.216C133.033 135.84 132.913 135.544 132.673 135.328C132.441 135.112 132.121 135.004 131.713 135.004C131.393 135.004 131.097 135.076 130.825 135.22C130.553 135.364 130.305 135.552 130.081 135.784L129.553 135.16C129.849 134.88 130.177 134.652 130.537 134.476C130.897 134.292 131.301 134.2 131.749 134.2C132.197 134.2 132.593 134.276 132.937 134.428C133.281 134.58 133.549 134.8 133.741 135.088C133.941 135.376 134.041 135.728 134.041 136.144C134.041 136.608 133.913 136.988 133.657 137.284C133.401 137.58 133.065 137.808 132.649 137.968V138.016C132.961 138.088 133.241 138.212 133.489 138.388C133.737 138.556 133.933 138.772 134.077 139.036C134.229 139.3 134.305 139.608 134.305 139.96C134.305 140.416 134.193 140.808 133.969 141.136C133.745 141.456 133.441 141.704 133.057 141.88C132.673 142.056 132.249 142.144 131.785 142.144Z" fill="#81DB7A"/>
<path d="M172.928 61.6286C172.723 61.1158 172.141 60.8664 171.629 61.0715L163.272 64.414C162.76 64.6192 162.51 65.2011 162.715 65.7139C162.92 66.2267 163.502 66.4761 164.015 66.271L171.443 63.2999L174.414 70.7277C174.619 71.2405 175.201 71.4899 175.714 71.2848C176.227 71.0797 176.476 70.4977 176.271 69.9849L172.928 61.6286ZM171.081 61.6061L111.081 201.606L112.919 202.394L172.919 62.3939L171.081 61.6061Z" fill="#81DB7A"/>
<path d="M177.916 178.401C178.138 177.896 177.907 177.306 177.401 177.084L169.158 173.472C168.652 173.25 168.062 173.481 167.841 173.986C167.619 174.492 167.85 175.082 168.355 175.304L175.683 178.515L172.472 185.842C172.25 186.348 172.481 186.938 172.986 187.159C173.492 187.381 174.082 187.15 174.304 186.645L177.916 178.401ZM176.636 177.069L112.636 202.069L113.364 203.931L177.364 178.931L176.636 177.069Z" fill="#FF9900"/>
<path d="M263.707 203.707C264.098 203.317 264.098 202.684 263.707 202.293L257.344 195.928C256.953 195.538 256.32 195.538 255.93 195.928C255.539 196.319 255.539 196.952 255.93 197.342L261.586 203L255.928 208.656C255.538 209.047 255.538 209.68 255.928 210.07C256.319 210.461 256.952 210.461 257.342 210.07L263.707 203.707ZM263 202L112 201.984L112 203.984L263 204L263 202Z" fill="#0686FD"/>
<path d="M170.781 198.144C170.029 198.144 169.437 197.788 169.005 197.076C168.573 196.356 168.357 195.228 168.357 193.692C168.357 192.74 168.453 191.94 168.645 191.292C168.845 190.636 169.125 190.144 169.485 189.816C169.853 189.48 170.285 189.312 170.781 189.312C171.277 189.312 171.705 189.48 172.065 189.816C172.433 190.144 172.713 190.636 172.905 191.292C173.105 191.94 173.205 192.74 173.205 193.692C173.205 195.228 172.989 196.356 172.557 197.076C172.125 197.788 171.533 198.144 170.781 198.144ZM170.781 197.328C171.061 197.328 171.309 197.216 171.525 196.992C171.749 196.76 171.921 196.38 172.041 195.852C172.169 195.316 172.233 194.596 172.233 193.692C172.233 193.06 172.197 192.52 172.125 192.072C172.053 191.616 171.949 191.244 171.813 190.956C171.685 190.668 171.533 190.46 171.357 190.332C171.181 190.196 170.989 190.128 170.781 190.128C170.573 190.128 170.381 190.196 170.205 190.332C170.029 190.46 169.873 190.668 169.737 190.956C169.609 191.244 169.509 191.616 169.437 192.072C169.365 192.52 169.329 193.06 169.329 193.692C169.329 194.596 169.389 195.316 169.509 195.852C169.637 196.38 169.809 196.76 170.025 196.992C170.249 197.216 170.501 197.328 170.781 197.328ZM168.897 194.064V193.284H172.665V194.064H168.897Z" fill="#201E1E"/>
<path d="M156.744 186.973C156.478 187.047 156.321 187.322 156.395 187.588L157.592 191.926C157.666 192.192 157.941 192.348 158.207 192.275C158.473 192.201 158.629 191.926 158.556 191.66L157.492 187.804L161.348 186.74C161.614 186.666 161.77 186.391 161.697 186.125C161.623 185.859 161.348 185.702 161.082 185.776L156.744 186.973ZM167.149 201.5C167.149 197.055 164.597 193.423 162.117 190.937C160.871 189.688 159.626 188.711 158.694 188.047C158.227 187.715 157.838 187.459 157.563 187.287C157.426 187.2 157.318 187.135 157.243 187.09C157.205 187.068 157.176 187.051 157.156 187.039C157.146 187.033 157.138 187.029 157.133 187.026C157.13 187.024 157.128 187.023 157.127 187.022C157.126 187.021 157.125 187.021 157.125 187.021C157.124 187.021 157.124 187.02 157.124 187.02C157.124 187.02 157.124 187.02 156.877 187.455C156.63 187.89 156.63 187.89 156.63 187.89C156.63 187.89 156.63 187.89 156.63 187.89C156.63 187.89 156.63 187.89 156.631 187.89C156.632 187.891 156.633 187.892 156.635 187.893C156.639 187.895 156.645 187.899 156.654 187.903C156.671 187.913 156.696 187.928 156.731 187.949C156.799 187.99 156.9 188.051 157.03 188.133C157.291 188.297 157.664 188.541 158.114 188.861C159.013 189.502 160.212 190.443 161.409 191.643C163.815 194.054 166.149 197.445 166.149 201.5L167.149 201.5Z" fill="black"/>
<circle cx="265" cy="203" r="2" fill="#CD93F0"/>
<circle cx="112" cy="203" r="2" fill="#CD93F0"/>
</svg>
