<svg width="488" height="221" viewBox="0 0 488 221" fill="none" xmlns="http://www.w3.org/2000/svg">
<path d="M116.568 217.112C116.072 216.304 115.684 215.46 115.404 214.58C115.124 213.692 114.984 212.72 114.984 211.664C114.984 210.608 115.124 209.636 115.404 208.748C115.684 207.86 116.072 207.016 116.568 206.216L117.18 206.504C116.716 207.264 116.368 208.088 116.136 208.976C115.912 209.856 115.8 210.752 115.8 211.664C115.8 212.576 115.912 213.472 116.136 214.352C116.368 215.232 116.716 216.056 117.18 216.824L116.568 217.112ZM124.402 217.04L124.162 216.464C124.506 216.312 124.774 216.104 124.966 215.84C125.158 215.584 125.25 215.296 125.242 214.976L125.134 214.088L125.626 214.808C125.554 214.88 125.474 214.932 125.386 214.964C125.306 214.996 125.218 215.012 125.122 215.012C124.93 215.012 124.762 214.952 124.618 214.832C124.482 214.712 124.414 214.544 124.414 214.328C124.414 214.112 124.486 213.944 124.63 213.824C124.782 213.696 124.954 213.632 125.146 213.632C125.41 213.632 125.614 213.736 125.758 213.944C125.902 214.144 125.974 214.428 125.974 214.796C125.974 215.308 125.834 215.76 125.554 216.152C125.274 216.544 124.89 216.84 124.402 217.04ZM135.757 217.04L135.517 216.464C135.861 216.312 136.129 216.104 136.321 215.84C136.513 215.584 136.605 215.296 136.597 214.976L136.489 214.088L136.981 214.808C136.909 214.88 136.829 214.932 136.741 214.964C136.661 214.996 136.573 215.012 136.477 215.012C136.285 215.012 136.117 214.952 135.973 214.832C135.837 214.712 135.769 214.544 135.769 214.328C135.769 214.112 135.841 213.944 135.985 213.824C136.137 213.696 136.309 213.632 136.501 213.632C136.765 213.632 136.969 213.736 137.113 213.944C137.257 214.144 137.329 214.428 137.329 214.796C137.329 215.308 137.189 215.76 136.909 216.152C136.629 216.544 136.245 216.84 135.757 217.04ZM147.377 217.112L146.765 216.824C147.229 216.056 147.573 215.232 147.797 214.352C148.029 213.472 148.145 212.576 148.145 211.664C148.145 210.752 148.029 209.856 147.797 208.976C147.573 208.088 147.229 207.264 146.765 206.504L147.377 206.216C147.881 207.016 148.269 207.86 148.541 208.748C148.821 209.636 148.961 210.608 148.961 211.664C148.961 212.72 148.821 213.692 148.541 214.58C148.269 215.46 147.881 216.304 147.377 217.112Z" fill="black"/>
<path d="M120.621 215.144C119.853 215.144 119.249 214.8 118.809 214.112C118.377 213.416 118.161 212.428 118.161 211.148C118.161 209.86 118.377 208.88 118.809 208.208C119.249 207.536 119.853 207.2 120.621 207.2C121.381 207.2 121.977 207.54 122.409 208.22C122.849 208.892 123.069 209.868 123.069 211.148C123.069 212.428 122.849 213.416 122.409 214.112C121.977 214.8 121.381 215.144 120.621 215.144ZM120.621 214.352C120.917 214.352 121.177 214.24 121.401 214.016C121.625 213.792 121.797 213.444 121.917 212.972C122.045 212.5 122.109 211.892 122.109 211.148C122.109 210.396 122.045 209.788 121.917 209.324C121.797 208.86 121.625 208.524 121.401 208.316C121.177 208.1 120.917 207.992 120.621 207.992C120.317 207.992 120.053 208.1 119.829 208.316C119.605 208.524 119.429 208.86 119.301 209.324C119.181 209.788 119.121 210.396 119.121 211.148C119.121 211.892 119.181 212.5 119.301 212.972C119.429 213.444 119.605 213.792 119.829 214.016C120.053 214.24 120.317 214.352 120.621 214.352Z" fill="#FF00E6"/>
<path d="M131.976 215.144C131.208 215.144 130.604 214.8 130.164 214.112C129.732 213.416 129.516 212.428 129.516 211.148C129.516 209.86 129.732 208.88 130.164 208.208C130.604 207.536 131.208 207.2 131.976 207.2C132.736 207.2 133.332 207.54 133.764 208.22C134.204 208.892 134.424 209.868 134.424 211.148C134.424 212.428 134.204 213.416 133.764 214.112C133.332 214.8 132.736 215.144 131.976 215.144ZM131.976 214.352C132.272 214.352 132.532 214.24 132.756 214.016C132.98 213.792 133.152 213.444 133.272 212.972C133.4 212.5 133.464 211.892 133.464 211.148C133.464 210.396 133.4 209.788 133.272 209.324C133.152 208.86 132.98 208.524 132.756 208.316C132.532 208.1 132.272 207.992 131.976 207.992C131.672 207.992 131.408 208.1 131.184 208.316C130.96 208.524 130.784 208.86 130.656 209.324C130.536 209.788 130.476 210.396 130.476 211.148C130.476 211.892 130.536 212.5 130.656 212.972C130.784 213.444 130.96 213.792 131.184 214.016C131.408 214.24 131.672 214.352 131.976 214.352Z" fill="#2A5D57"/>
<path d="M143.332 215.144C142.564 215.144 141.96 214.8 141.52 214.112C141.088 213.416 140.872 212.428 140.872 211.148C140.872 209.86 141.088 208.88 141.52 208.208C141.96 207.536 142.564 207.2 143.332 207.2C144.092 207.2 144.688 207.54 145.12 208.22C145.56 208.892 145.78 209.868 145.78 211.148C145.78 212.428 145.56 213.416 145.12 214.112C144.688 214.8 144.092 215.144 143.332 215.144ZM143.332 214.352C143.628 214.352 143.888 214.24 144.112 214.016C144.336 213.792 144.508 213.444 144.628 212.972C144.756 212.5 144.82 211.892 144.82 211.148C144.82 210.396 144.756 209.788 144.628 209.324C144.508 208.86 144.336 208.524 144.112 208.316C143.888 208.1 143.628 207.992 143.332 207.992C143.028 207.992 142.764 208.1 142.54 208.316C142.316 208.524 142.14 208.86 142.012 209.324C141.892 209.788 141.832 210.396 141.832 211.148C141.832 211.892 141.892 212.5 142.012 212.972C142.14 213.444 142.316 213.792 142.54 214.016C142.764 214.24 143.028 214.352 143.332 214.352Z" fill="#5447E9"/>
<path d="M267.568 218.112C267.072 217.304 266.684 216.46 266.404 215.58C266.124 214.692 265.984 213.72 265.984 212.664C265.984 211.608 266.124 210.636 266.404 209.748C266.684 208.86 267.072 208.016 267.568 207.216L268.18 207.504C267.716 208.264 267.368 209.088 267.136 209.976C266.912 210.856 266.8 211.752 266.8 212.664C266.8 213.576 266.912 214.472 267.136 215.352C267.368 216.232 267.716 217.056 268.18 217.824L267.568 218.112ZM275.402 218.04L275.162 217.464C275.506 217.312 275.774 217.104 275.966 216.84C276.158 216.584 276.25 216.296 276.242 215.976L276.134 215.088L276.626 215.808C276.554 215.88 276.474 215.932 276.386 215.964C276.306 215.996 276.218 216.012 276.122 216.012C275.93 216.012 275.762 215.952 275.618 215.832C275.482 215.712 275.414 215.544 275.414 215.328C275.414 215.112 275.486 214.944 275.63 214.824C275.782 214.696 275.954 214.632 276.146 214.632C276.41 214.632 276.614 214.736 276.758 214.944C276.902 215.144 276.974 215.428 276.974 215.796C276.974 216.308 276.834 216.76 276.554 217.152C276.274 217.544 275.89 217.84 275.402 218.04ZM286.757 218.04L286.517 217.464C286.861 217.312 287.129 217.104 287.321 216.84C287.513 216.584 287.605 216.296 287.597 215.976L287.489 215.088L287.981 215.808C287.909 215.88 287.829 215.932 287.741 215.964C287.661 215.996 287.573 216.012 287.477 216.012C287.285 216.012 287.117 215.952 286.973 215.832C286.837 215.712 286.769 215.544 286.769 215.328C286.769 215.112 286.841 214.944 286.985 214.824C287.137 214.696 287.309 214.632 287.501 214.632C287.765 214.632 287.969 214.736 288.113 214.944C288.257 215.144 288.329 215.428 288.329 215.796C288.329 216.308 288.189 216.76 287.909 217.152C287.629 217.544 287.245 217.84 286.757 218.04ZM298.377 218.112L297.765 217.824C298.229 217.056 298.573 216.232 298.797 215.352C299.029 214.472 299.145 213.576 299.145 212.664C299.145 211.752 299.029 210.856 298.797 209.976C298.573 209.088 298.229 208.264 297.765 207.504L298.377 207.216C298.881 208.016 299.269 208.86 299.541 209.748C299.821 210.636 299.961 211.608 299.961 212.664C299.961 213.72 299.821 214.692 299.541 215.58C299.269 216.46 298.881 217.304 298.377 218.112Z" fill="black"/>
<path d="M269.581 216V215.184H271.333V209.544H269.941V208.908C270.285 208.844 270.589 208.768 270.853 208.68C271.117 208.584 271.353 208.472 271.561 208.344H272.317V215.184H273.901V216H269.581Z" fill="#FF00E6"/>
<path d="M282.976 216.144C282.208 216.144 281.604 215.8 281.164 215.112C280.732 214.416 280.516 213.428 280.516 212.148C280.516 210.86 280.732 209.88 281.164 209.208C281.604 208.536 282.208 208.2 282.976 208.2C283.736 208.2 284.332 208.54 284.764 209.22C285.204 209.892 285.424 210.868 285.424 212.148C285.424 213.428 285.204 214.416 284.764 215.112C284.332 215.8 283.736 216.144 282.976 216.144ZM282.976 215.352C283.272 215.352 283.532 215.24 283.756 215.016C283.98 214.792 284.152 214.444 284.272 213.972C284.4 213.5 284.464 212.892 284.464 212.148C284.464 211.396 284.4 210.788 284.272 210.324C284.152 209.86 283.98 209.524 283.756 209.316C283.532 209.1 283.272 208.992 282.976 208.992C282.672 208.992 282.408 209.1 282.184 209.316C281.96 209.524 281.784 209.86 281.656 210.324C281.536 210.788 281.476 211.396 281.476 212.148C281.476 212.892 281.536 213.5 281.656 213.972C281.784 214.444 281.96 214.792 282.184 215.016C282.408 215.24 282.672 215.352 282.976 215.352Z" fill="#2A5D57"/>
<path d="M294.332 216.144C293.564 216.144 292.96 215.8 292.52 215.112C292.088 214.416 291.872 213.428 291.872 212.148C291.872 210.86 292.088 209.88 292.52 209.208C292.96 208.536 293.564 208.2 294.332 208.2C295.092 208.2 295.688 208.54 296.12 209.22C296.56 209.892 296.78 210.868 296.78 212.148C296.78 213.428 296.56 214.416 296.12 215.112C295.688 215.8 295.092 216.144 294.332 216.144ZM294.332 215.352C294.628 215.352 294.888 215.24 295.112 215.016C295.336 214.792 295.508 214.444 295.628 213.972C295.756 213.5 295.82 212.892 295.82 212.148C295.82 211.396 295.756 210.788 295.628 210.324C295.508 209.86 295.336 209.524 295.112 209.316C294.888 209.1 294.628 208.992 294.332 208.992C294.028 208.992 293.764 209.1 293.54 209.316C293.316 209.524 293.14 209.86 293.012 210.324C292.892 210.788 292.832 211.396 292.832 212.148C292.832 212.892 292.892 213.5 293.012 213.972C293.14 214.444 293.316 214.792 293.54 215.016C293.764 215.24 294.028 215.352 294.332 215.352Z" fill="#5447E9"/>
<path d="M180 177L237 33H387.5L330 177H180Z" fill="#D9D9D9" fill-opacity="0.2" stroke="#757575"/>
<path d="M237 33L172.5 61.5L112 202.5L180 177L237 33Z" fill="#D9D9D9" fill-opacity="0.2" stroke="#757575"/>
<path d="M264 203.5L330 177.5L180 177L111.5 203L264 203.5Z" fill="#D9D9D9" fill-opacity="0.2" stroke="#757575"/>
<path d="M387 33.5L323 61.5L265 202.5L330 177.5L387 33.5Z" fill="#D9D9D9" fill-opacity="0.2" stroke="#757575"/>
<path d="M111.5 203L172.5 61.5H323L264 203H111.5Z" fill="#D9D9D9" fill-opacity="0.2" stroke="#757575"/>
<path d="M322.998 61.5L387.998 32.5H237.499L172.5 61.5H322.998Z" fill="#D9D9D9" fill-opacity="0.2" stroke="#757575"/>
<path d="M103.96 204.18C102.94 204.18 102.115 203.755 101.485 202.905C100.865 202.055 100.555 200.82 100.555 199.2C100.555 197.57 100.865 196.345 101.485 195.525C102.115 194.705 102.94 194.295 103.96 194.295C104.98 194.295 105.8 194.71 106.42 195.54C107.05 196.36 107.365 197.58 107.365 199.2C107.365 200.82 107.05 202.055 106.42 202.905C105.8 203.755 104.98 204.18 103.96 204.18ZM103.96 202.47C104.21 202.47 104.435 202.38 104.635 202.2C104.835 202.01 104.99 201.68 105.1 201.21C105.22 200.73 105.28 200.06 105.28 199.2C105.28 198.33 105.22 197.665 105.1 197.205C104.99 196.745 104.835 196.43 104.635 196.26C104.435 196.09 104.21 196.005 103.96 196.005C103.71 196.005 103.485 196.09 103.285 196.26C103.085 196.43 102.925 196.745 102.805 197.205C102.695 197.665 102.64 198.33 102.64 199.2C102.64 200.06 102.695 200.73 102.805 201.21C102.925 201.68 103.085 202.01 103.285 202.2C103.485 202.38 103.71 202.47 103.96 202.47Z" fill="#CD93F0"/>
<path d="M112.354 38.6466C112.158 38.4513 111.842 38.4513 111.646 38.6466L108.464 41.8285C108.269 42.0238 108.269 42.3404 108.464 42.5356C108.66 42.7309 108.976 42.7309 109.172 42.5356L112 39.7072L114.828 42.5356C115.024 42.7309 115.34 42.7309 115.536 42.5356C115.731 42.3404 115.731 42.0238 115.536 41.8285L112.354 38.6466ZM112.5 201.062L112.5 39.0001H111.5L111.5 201.062H112.5Z" fill="black"/>
<path d="M318.354 203.354C318.549 203.158 318.549 202.842 318.354 202.646L315.172 199.464C314.976 199.269 314.66 199.269 314.464 199.464C314.269 199.66 314.269 199.976 314.464 200.172L317.293 203L314.464 205.828C314.269 206.024 314.269 206.34 314.464 206.536C314.66 206.731 314.976 206.731 315.172 206.536L318.354 203.354ZM114 203.5H318V202.5H114V203.5Z" fill="black"/>
<path d="M227.459 158.198C227.568 157.944 227.451 157.65 227.198 157.541L223.064 155.762C222.811 155.653 222.516 155.77 222.407 156.023C222.298 156.277 222.415 156.571 222.669 156.68L226.343 158.262L224.762 161.936C224.653 162.189 224.77 162.484 225.023 162.593C225.277 162.702 225.571 162.585 225.68 162.331L227.459 158.198ZM114.185 203.465L227.185 158.465L226.815 157.535L113.815 202.535L114.185 203.465Z" fill="black"/>
<path d="M320.168 206L322.076 202.952L320.312 200.168H321.38L322.16 201.452C322.248 201.604 322.34 201.764 322.436 201.932C322.54 202.092 322.64 202.256 322.736 202.424H322.784C322.872 202.256 322.96 202.092 323.048 201.932C323.136 201.764 323.224 201.604 323.312 201.452L324.02 200.168H325.052L323.288 203.06L325.184 206H324.116L323.264 204.644C323.16 204.468 323.052 204.292 322.94 204.116C322.836 203.94 322.732 203.768 322.628 203.6H322.58C322.476 203.768 322.376 203.94 322.28 204.116C322.184 204.284 322.088 204.46 321.992 204.644L321.2 206H320.168Z" fill="black"/>
<path d="M219.08 172.508C218.952 172.508 218.828 172.496 218.708 172.472C218.596 172.448 218.492 172.42 218.396 172.388L218.612 171.62C218.684 171.644 218.756 171.66 218.828 171.668C218.9 171.684 218.968 171.692 219.032 171.692C219.368 171.692 219.64 171.572 219.848 171.332C220.064 171.1 220.232 170.804 220.352 170.444L220.484 170.012L218.144 164.168H219.164L220.352 167.396C220.448 167.644 220.544 167.912 220.64 168.2C220.736 168.488 220.828 168.768 220.916 169.04H220.964C221.052 168.768 221.136 168.492 221.216 168.212C221.304 167.924 221.384 167.652 221.456 167.396L222.5 164.168H223.46L221.264 170.48C221.128 170.864 220.964 171.208 220.772 171.512C220.58 171.824 220.348 172.068 220.076 172.244C219.804 172.42 219.472 172.508 219.08 172.508Z" fill="black"/>
<path d="M119.372 48V47.472L122.444 42.972H119.708V42.168H123.692V42.696L120.62 47.196H123.788V48H119.372Z" fill="black"/>
<path d="M184.568 191.112C184.072 190.304 183.684 189.46 183.404 188.58C183.124 187.692 182.984 186.72 182.984 185.664C182.984 184.608 183.124 183.636 183.404 182.748C183.684 181.86 184.072 181.016 184.568 180.216L185.18 180.504C184.716 181.264 184.368 182.088 184.136 182.976C183.912 183.856 183.8 184.752 183.8 185.664C183.8 186.576 183.912 187.472 184.136 188.352C184.368 189.232 184.716 190.056 185.18 190.824L184.568 191.112ZM209.441 191.04L209.201 190.464C209.545 190.312 209.813 190.104 210.005 189.84C210.197 189.584 210.289 189.296 210.281 188.976L210.173 188.088L210.665 188.808C210.593 188.88 210.513 188.932 210.425 188.964C210.345 188.996 210.257 189.012 210.161 189.012C209.969 189.012 209.801 188.952 209.657 188.832C209.521 188.712 209.453 188.544 209.453 188.328C209.453 188.112 209.525 187.944 209.669 187.824C209.821 187.696 209.993 187.632 210.185 187.632C210.449 187.632 210.653 187.736 210.797 187.944C210.941 188.144 211.013 188.428 211.013 188.796C211.013 189.308 210.873 189.76 210.593 190.152C210.313 190.544 209.929 190.84 209.441 191.04ZM235.644 191.04L235.404 190.464C235.748 190.312 236.016 190.104 236.208 189.84C236.4 189.584 236.492 189.296 236.484 188.976L236.376 188.088L236.868 188.808C236.796 188.88 236.716 188.932 236.628 188.964C236.548 188.996 236.46 189.012 236.364 189.012C236.172 189.012 236.004 188.952 235.86 188.832C235.724 188.712 235.656 188.544 235.656 188.328C235.656 188.112 235.728 187.944 235.872 187.824C236.024 187.696 236.196 187.632 236.388 187.632C236.652 187.632 236.856 187.736 237 187.944C237.144 188.144 237.216 188.428 237.216 188.796C237.216 189.308 237.076 189.76 236.796 190.152C236.516 190.544 236.132 190.84 235.644 191.04ZM247.263 191.112L246.651 190.824C247.115 190.056 247.459 189.232 247.683 188.352C247.915 187.472 248.031 186.576 248.031 185.664C248.031 184.752 247.915 183.856 247.683 182.976C247.459 182.088 247.115 181.264 246.651 180.504L247.263 180.216C247.767 181.016 248.155 181.86 248.427 182.748C248.707 183.636 248.847 184.608 248.847 185.664C248.847 186.72 248.707 187.692 248.427 188.58C248.155 189.46 247.767 190.304 247.263 191.112Z" fill="black"/>
<path d="M188.933 189.144C188.413 189.144 187.945 189.024 187.529 188.784C187.113 188.544 186.785 188.196 186.545 187.74C186.305 187.284 186.185 186.736 186.185 186.096C186.185 185.44 186.313 184.884 186.569 184.428C186.833 183.972 187.177 183.624 187.601 183.384C188.033 183.144 188.497 183.024 188.993 183.024C189.377 183.024 189.705 183.088 189.977 183.216C190.257 183.344 190.497 183.508 190.697 183.708L190.205 184.32C190.061 184.176 189.889 184.064 189.689 183.984C189.497 183.896 189.277 183.852 189.029 183.852C188.685 183.852 188.373 183.948 188.093 184.14C187.821 184.324 187.605 184.584 187.445 184.92C187.285 185.256 187.205 185.648 187.205 186.096C187.205 186.536 187.281 186.924 187.433 187.26C187.585 187.596 187.797 187.86 188.069 188.052C188.341 188.236 188.657 188.328 189.017 188.328C189.289 188.328 189.541 188.276 189.773 188.172C190.005 188.068 190.205 187.936 190.373 187.776L190.805 188.376C190.557 188.608 190.277 188.796 189.965 188.94C189.653 189.076 189.309 189.144 188.933 189.144ZM194.111 189.144C193.639 189.144 193.195 189.024 192.779 188.784C192.371 188.544 192.039 188.196 191.783 187.74C191.535 187.284 191.411 186.736 191.411 186.096C191.411 185.44 191.535 184.884 191.783 184.428C192.039 183.972 192.371 183.624 192.779 183.384C193.195 183.144 193.639 183.024 194.111 183.024C194.591 183.024 195.035 183.144 195.443 183.384C195.851 183.624 196.179 183.972 196.427 184.428C196.683 184.884 196.811 185.44 196.811 186.096C196.811 186.736 196.683 187.284 196.427 187.74C196.179 188.196 195.851 188.544 195.443 188.784C195.035 189.024 194.591 189.144 194.111 189.144ZM194.111 188.328C194.447 188.328 194.743 188.236 194.999 188.052C195.255 187.86 195.451 187.596 195.587 187.26C195.723 186.924 195.791 186.536 195.791 186.096C195.791 185.648 195.723 185.256 195.587 184.92C195.451 184.576 195.255 184.312 194.999 184.128C194.743 183.936 194.447 183.84 194.111 183.84C193.775 183.84 193.479 183.936 193.223 184.128C192.975 184.312 192.779 184.576 192.635 184.92C192.499 185.256 192.431 185.648 192.431 186.096C192.431 186.536 192.499 186.924 192.635 187.26C192.779 187.596 192.975 187.86 193.223 188.052C193.479 188.236 193.775 188.328 194.111 188.328ZM199.848 189.144C199.424 189.144 199.02 189.072 198.636 188.928C198.26 188.776 197.94 188.568 197.676 188.304L198.132 187.728C198.388 187.936 198.652 188.096 198.924 188.208C199.204 188.32 199.524 188.376 199.884 188.376C200.268 188.376 200.556 188.288 200.748 188.112C200.94 187.928 201.036 187.712 201.036 187.464C201.036 187.264 200.968 187.1 200.832 186.972C200.704 186.836 200.54 186.724 200.34 186.636C200.148 186.54 199.94 186.452 199.716 186.372C199.428 186.268 199.152 186.148 198.888 186.012C198.624 185.868 198.408 185.692 198.24 185.484C198.08 185.268 198 185 198 184.68C198 184.208 198.176 183.816 198.528 183.504C198.888 183.184 199.384 183.024 200.016 183.024C200.376 183.024 200.712 183.088 201.024 183.216C201.336 183.336 201.604 183.492 201.828 183.684L201.372 184.248C201.164 184.104 200.952 183.992 200.736 183.912C200.52 183.832 200.28 183.792 200.016 183.792C199.648 183.792 199.376 183.876 199.2 184.044C199.032 184.212 198.948 184.408 198.948 184.632C198.948 184.808 199 184.956 199.104 185.076C199.208 185.188 199.352 185.288 199.536 185.376C199.728 185.464 199.944 185.548 200.184 185.628C200.488 185.74 200.776 185.868 201.048 186.012C201.328 186.148 201.552 186.328 201.72 186.552C201.896 186.768 201.984 187.052 201.984 187.404C201.984 187.724 201.9 188.016 201.732 188.28C201.572 188.536 201.332 188.744 201.012 188.904C200.7 189.064 200.312 189.144 199.848 189.144ZM205.499 189.144C204.747 189.144 204.155 188.788 203.723 188.076C203.291 187.356 203.075 186.228 203.075 184.692C203.075 183.74 203.171 182.94 203.363 182.292C203.563 181.636 203.843 181.144 204.203 180.816C204.571 180.48 205.003 180.312 205.499 180.312C205.995 180.312 206.423 180.48 206.783 180.816C207.151 181.144 207.431 181.636 207.623 182.292C207.823 182.94 207.923 183.74 207.923 184.692C207.923 186.228 207.707 187.356 207.275 188.076C206.843 188.788 206.251 189.144 205.499 189.144ZM205.499 188.328C205.779 188.328 206.027 188.216 206.243 187.992C206.467 187.76 206.639 187.38 206.759 186.852C206.887 186.316 206.951 185.596 206.951 184.692C206.951 184.06 206.915 183.52 206.843 183.072C206.771 182.616 206.667 182.244 206.531 181.956C206.403 181.668 206.251 181.46 206.075 181.332C205.899 181.196 205.707 181.128 205.499 181.128C205.291 181.128 205.099 181.196 204.923 181.332C204.747 181.46 204.591 181.668 204.455 181.956C204.327 182.244 204.227 182.616 204.155 183.072C204.083 183.52 204.047 184.06 204.047 184.692C204.047 185.596 204.107 186.316 204.227 186.852C204.355 187.38 204.527 187.76 204.743 187.992C204.967 188.216 205.219 188.328 205.499 188.328ZM203.615 185.064V184.284H207.383V185.064H203.615Z" fill="#FF00E6"/>
<path d="M216.535 189.144C216.111 189.144 215.707 189.072 215.323 188.928C214.947 188.776 214.627 188.568 214.363 188.304L214.819 187.728C215.075 187.936 215.339 188.096 215.611 188.208C215.891 188.32 216.211 188.376 216.571 188.376C216.955 188.376 217.243 188.288 217.435 188.112C217.627 187.928 217.723 187.712 217.723 187.464C217.723 187.264 217.655 187.1 217.519 186.972C217.391 186.836 217.227 186.724 217.027 186.636C216.835 186.54 216.627 186.452 216.403 186.372C216.115 186.268 215.839 186.148 215.575 186.012C215.311 185.868 215.095 185.692 214.927 185.484C214.767 185.268 214.687 185 214.687 184.68C214.687 184.208 214.863 183.816 215.215 183.504C215.575 183.184 216.071 183.024 216.703 183.024C217.063 183.024 217.399 183.088 217.711 183.216C218.023 183.336 218.291 183.492 218.515 183.684L218.059 184.248C217.851 184.104 217.639 183.992 217.423 183.912C217.207 183.832 216.967 183.792 216.703 183.792C216.335 183.792 216.063 183.876 215.887 184.044C215.719 184.212 215.635 184.408 215.635 184.632C215.635 184.808 215.687 184.956 215.791 185.076C215.895 185.188 216.039 185.288 216.223 185.376C216.415 185.464 216.631 185.548 216.871 185.628C217.175 185.74 217.463 185.868 217.735 186.012C218.015 186.148 218.239 186.328 218.407 186.552C218.583 186.768 218.671 187.052 218.671 187.404C218.671 187.724 218.587 188.016 218.419 188.28C218.259 188.536 218.019 188.744 217.699 188.904C217.387 189.064 216.999 189.144 216.535 189.144ZM220.039 189V183.168H221.023V189H220.039ZM220.531 181.968C220.339 181.968 220.179 181.908 220.051 181.788C219.931 181.668 219.871 181.512 219.871 181.32C219.871 181.128 219.931 180.972 220.051 180.852C220.179 180.732 220.339 180.672 220.531 180.672C220.723 180.672 220.879 180.732 220.999 180.852C221.127 180.972 221.191 181.128 221.191 181.32C221.191 181.512 221.127 181.668 220.999 181.788C220.879 181.908 220.723 181.968 220.531 181.968ZM222.992 189V183.168H223.808L223.892 184.008H223.928C224.208 183.728 224.504 183.496 224.816 183.312C225.128 183.12 225.484 183.024 225.884 183.024C226.5 183.024 226.948 183.22 227.228 183.612C227.516 183.996 227.66 184.56 227.66 185.304V189H226.676V185.436C226.676 184.884 226.588 184.488 226.412 184.248C226.244 184 225.964 183.876 225.572 183.876C225.276 183.876 225.008 183.952 224.768 184.104C224.536 184.256 224.272 184.48 223.976 184.776V189H222.992ZM231.702 189.144C230.95 189.144 230.358 188.788 229.926 188.076C229.494 187.356 229.278 186.228 229.278 184.692C229.278 183.74 229.374 182.94 229.566 182.292C229.766 181.636 230.046 181.144 230.406 180.816C230.774 180.48 231.206 180.312 231.702 180.312C232.198 180.312 232.626 180.48 232.986 180.816C233.354 181.144 233.634 181.636 233.826 182.292C234.026 182.94 234.126 183.74 234.126 184.692C234.126 186.228 233.91 187.356 233.478 188.076C233.046 188.788 232.454 189.144 231.702 189.144ZM231.702 188.328C231.982 188.328 232.23 188.216 232.446 187.992C232.67 187.76 232.842 187.38 232.962 186.852C233.09 186.316 233.154 185.596 233.154 184.692C233.154 184.06 233.118 183.52 233.046 183.072C232.974 182.616 232.87 182.244 232.734 181.956C232.606 181.668 232.454 181.46 232.278 181.332C232.102 181.196 231.91 181.128 231.702 181.128C231.494 181.128 231.302 181.196 231.126 181.332C230.95 181.46 230.794 181.668 230.658 181.956C230.53 182.244 230.43 182.616 230.358 183.072C230.286 183.52 230.25 184.06 230.25 184.692C230.25 185.596 230.31 186.316 230.43 186.852C230.558 187.38 230.73 187.76 230.946 187.992C231.17 188.216 231.422 188.328 231.702 188.328ZM229.818 185.064V184.284H233.586V185.064H229.818Z" fill="#2A5D57"/>
<path d="M243.218 189.144C242.45 189.144 241.846 188.8 241.406 188.112C240.974 187.416 240.758 186.428 240.758 185.148C240.758 183.86 240.974 182.88 241.406 182.208C241.846 181.536 242.45 181.2 243.218 181.2C243.978 181.2 244.574 181.54 245.006 182.22C245.446 182.892 245.666 183.868 245.666 185.148C245.666 186.428 245.446 187.416 245.006 188.112C244.574 188.8 243.978 189.144 243.218 189.144ZM243.218 188.352C243.514 188.352 243.774 188.24 243.998 188.016C244.222 187.792 244.394 187.444 244.514 186.972C244.642 186.5 244.706 185.892 244.706 185.148C244.706 184.396 244.642 183.788 244.514 183.324C244.394 182.86 244.222 182.524 243.998 182.316C243.774 182.1 243.514 181.992 243.218 181.992C242.914 181.992 242.65 182.1 242.426 182.316C242.202 182.524 242.026 182.86 241.898 183.324C241.778 183.788 241.718 184.396 241.718 185.148C241.718 185.892 241.778 186.5 241.898 186.972C242.026 187.444 242.202 187.792 242.426 188.016C242.65 188.24 242.914 188.352 243.218 188.352Z" fill="#5447E9"/>
<path d="M180.348 77.144C179.828 77.144 179.352 77.024 178.92 76.784C178.496 76.536 178.16 76.188 177.912 75.74C177.664 75.284 177.54 74.732 177.54 74.084C177.54 73.452 177.668 72.908 177.924 72.452C178.18 71.996 178.508 71.644 178.908 71.396C179.308 71.148 179.732 71.024 180.18 71.024C180.676 71.024 181.096 71.14 181.44 71.372C181.792 71.596 182.056 71.912 182.232 72.32C182.408 72.728 182.496 73.208 182.496 73.76C182.496 73.864 182.492 73.964 182.484 74.06C182.484 74.156 182.472 74.252 182.448 74.348H178.248V73.568H181.608C181.608 73.008 181.484 72.58 181.236 72.284C180.996 71.98 180.648 71.828 180.192 71.828C179.928 71.828 179.668 71.904 179.412 72.056C179.156 72.2 178.944 72.436 178.776 72.764C178.616 73.092 178.536 73.528 178.536 74.072C178.536 74.568 178.62 74.984 178.788 75.32C178.964 75.656 179.2 75.912 179.496 76.088C179.792 76.256 180.116 76.34 180.468 76.34C180.748 76.34 181.008 76.3 181.248 76.22C181.496 76.14 181.72 76.032 181.92 75.896L182.28 76.544C182.024 76.72 181.736 76.864 181.416 76.976C181.104 77.088 180.748 77.144 180.348 77.144ZM185.785 77.144C185.377 77.144 185.013 77.092 184.693 76.988C184.381 76.884 184.109 76.752 183.877 76.592C183.645 76.432 183.441 76.256 183.265 76.064L183.769 75.416C184.001 75.656 184.269 75.868 184.573 76.052C184.885 76.236 185.269 76.328 185.725 76.328C186.189 76.328 186.569 76.2 186.865 75.944C187.161 75.688 187.309 75.348 187.309 74.924C187.309 74.62 187.229 74.356 187.069 74.132C186.917 73.9 186.661 73.72 186.301 73.592C185.949 73.464 185.469 73.4 184.861 73.4V72.644C185.405 72.644 185.833 72.58 186.145 72.452C186.465 72.324 186.693 72.156 186.829 71.948C186.965 71.732 187.033 71.488 187.033 71.216C187.033 70.84 186.913 70.544 186.673 70.328C186.441 70.112 186.121 70.004 185.713 70.004C185.393 70.004 185.097 70.076 184.825 70.22C184.553 70.364 184.305 70.552 184.081 70.784L183.553 70.16C183.849 69.88 184.177 69.652 184.537 69.476C184.897 69.292 185.301 69.2 185.749 69.2C186.197 69.2 186.593 69.276 186.937 69.428C187.281 69.58 187.549 69.8 187.741 70.088C187.941 70.376 188.041 70.728 188.041 71.144C188.041 71.608 187.913 71.988 187.657 72.284C187.401 72.58 187.065 72.808 186.649 72.968V73.016C186.961 73.088 187.241 73.212 187.489 73.388C187.737 73.556 187.933 73.772 188.077 74.036C188.229 74.3 188.305 74.608 188.305 74.96C188.305 75.416 188.193 75.808 187.969 76.136C187.745 76.456 187.441 76.704 187.057 76.88C186.673 77.056 186.249 77.144 185.785 77.144Z" fill="black"/>
<path d="M189.348 215.144C188.828 215.144 188.352 215.024 187.92 214.784C187.496 214.536 187.16 214.188 186.912 213.74C186.664 213.284 186.54 212.732 186.54 212.084C186.54 211.452 186.668 210.908 186.924 210.452C187.18 209.996 187.508 209.644 187.908 209.396C188.308 209.148 188.732 209.024 189.18 209.024C189.676 209.024 190.096 209.14 190.44 209.372C190.792 209.596 191.056 209.912 191.232 210.32C191.408 210.728 191.496 211.208 191.496 211.76C191.496 211.864 191.492 211.964 191.484 212.06C191.484 212.156 191.472 212.252 191.448 212.348H187.248V211.568H190.608C190.608 211.008 190.484 210.58 190.236 210.284C189.996 209.98 189.648 209.828 189.192 209.828C188.928 209.828 188.668 209.904 188.412 210.056C188.156 210.2 187.944 210.436 187.776 210.764C187.616 211.092 187.536 211.528 187.536 212.072C187.536 212.568 187.62 212.984 187.788 213.32C187.964 213.656 188.2 213.912 188.496 214.088C188.792 214.256 189.116 214.34 189.468 214.34C189.748 214.34 190.008 214.3 190.248 214.22C190.496 214.14 190.72 214.032 190.92 213.896L191.28 214.544C191.024 214.72 190.736 214.864 190.416 214.976C190.104 215.088 189.748 215.144 189.348 215.144ZM192.901 215V214.184H194.653V208.544H193.261V207.908C193.605 207.844 193.909 207.768 194.173 207.68C194.437 207.584 194.673 207.472 194.881 207.344H195.637V214.184H197.221V215H192.901Z" fill="#0686FD"/>
<path d="M141.348 186.144C140.828 186.144 140.352 186.024 139.92 185.784C139.496 185.536 139.16 185.188 138.912 184.74C138.664 184.284 138.54 183.732 138.54 183.084C138.54 182.452 138.668 181.908 138.924 181.452C139.18 180.996 139.508 180.644 139.908 180.396C140.308 180.148 140.732 180.024 141.18 180.024C141.676 180.024 142.096 180.14 142.44 180.372C142.792 180.596 143.056 180.912 143.232 181.32C143.408 181.728 143.496 182.208 143.496 182.76C143.496 182.864 143.492 182.964 143.484 183.06C143.484 183.156 143.472 183.252 143.448 183.348H139.248V182.568H142.608C142.608 182.008 142.484 181.58 142.236 181.284C141.996 180.98 141.648 180.828 141.192 180.828C140.928 180.828 140.668 180.904 140.412 181.056C140.156 181.2 139.944 181.436 139.776 181.764C139.616 182.092 139.536 182.528 139.536 183.072C139.536 183.568 139.62 183.984 139.788 184.32C139.964 184.656 140.2 184.912 140.496 185.088C140.792 185.256 141.116 185.34 141.468 185.34C141.748 185.34 142.008 185.3 142.248 185.22C142.496 185.14 142.72 185.032 142.92 184.896L143.28 185.544C143.024 185.72 142.736 185.864 142.416 185.976C142.104 186.088 141.748 186.144 141.348 186.144ZM144.433 186V185.4C145.193 184.648 145.841 183.984 146.377 183.408C146.921 182.824 147.333 182.296 147.613 181.824C147.893 181.352 148.033 180.912 148.033 180.504C148.033 180.064 147.913 179.704 147.673 179.424C147.433 179.144 147.069 179.004 146.581 179.004C146.261 179.004 145.965 179.092 145.693 179.268C145.421 179.444 145.173 179.664 144.949 179.928L144.397 179.388C144.717 179.028 145.057 178.74 145.417 178.524C145.785 178.308 146.213 178.2 146.701 178.2C147.173 178.2 147.581 178.296 147.925 178.488C148.269 178.672 148.533 178.932 148.717 179.268C148.901 179.604 148.993 179.996 148.993 180.444C148.993 180.94 148.853 181.432 148.573 181.92C148.301 182.408 147.925 182.92 147.445 183.456C146.965 183.992 146.413 184.58 145.789 185.22C145.997 185.196 146.213 185.18 146.437 185.172C146.661 185.156 146.873 185.148 147.073 185.148H149.377V186H144.433Z" fill="#FF9900"/>
<path d="M126.348 142.144C125.828 142.144 125.352 142.024 124.92 141.784C124.496 141.536 124.16 141.188 123.912 140.74C123.664 140.284 123.54 139.732 123.54 139.084C123.54 138.452 123.668 137.908 123.924 137.452C124.18 136.996 124.508 136.644 124.908 136.396C125.308 136.148 125.732 136.024 126.18 136.024C126.676 136.024 127.096 136.14 127.44 136.372C127.792 136.596 128.056 136.912 128.232 137.32C128.408 137.728 128.496 138.208 128.496 138.76C128.496 138.864 128.492 138.964 128.484 139.06C128.484 139.156 128.472 139.252 128.448 139.348H124.248V138.568H127.608C127.608 138.008 127.484 137.58 127.236 137.284C126.996 136.98 126.648 136.828 126.192 136.828C125.928 136.828 125.668 136.904 125.412 137.056C125.156 137.2 124.944 137.436 124.776 137.764C124.616 138.092 124.536 138.528 124.536 139.072C124.536 139.568 124.62 139.984 124.788 140.32C124.964 140.656 125.2 140.912 125.496 141.088C125.792 141.256 126.116 141.34 126.468 141.34C126.748 141.34 127.008 141.3 127.248 141.22C127.496 141.14 127.72 141.032 127.92 140.896L128.28 141.544C128.024 141.72 127.736 141.864 127.416 141.976C127.104 142.088 126.748 142.144 126.348 142.144ZM131.785 142.144C131.377 142.144 131.013 142.092 130.693 141.988C130.381 141.884 130.109 141.752 129.877 141.592C129.645 141.432 129.441 141.256 129.265 141.064L129.769 140.416C130.001 140.656 130.269 140.868 130.573 141.052C130.885 141.236 131.269 141.328 131.725 141.328C132.189 141.328 132.569 141.2 132.865 140.944C133.161 140.688 133.309 140.348 133.309 139.924C133.309 139.62 133.229 139.356 133.069 139.132C132.917 138.9 132.661 138.72 132.301 138.592C131.949 138.464 131.469 138.4 130.861 138.4V137.644C131.405 137.644 131.833 137.58 132.145 137.452C132.465 137.324 132.693 137.156 132.829 136.948C132.965 136.732 133.033 136.488 133.033 136.216C133.033 135.84 132.913 135.544 132.673 135.328C132.441 135.112 132.121 135.004 131.713 135.004C131.393 135.004 131.097 135.076 130.825 135.22C130.553 135.364 130.305 135.552 130.081 135.784L129.553 135.16C129.849 134.88 130.177 134.652 130.537 134.476C130.897 134.292 131.301 134.2 131.749 134.2C132.197 134.2 132.593 134.276 132.937 134.428C133.281 134.58 133.549 134.8 133.741 135.088C133.941 135.376 134.041 135.728 134.041 136.144C134.041 136.608 133.913 136.988 133.657 137.284C133.401 137.58 133.065 137.808 132.649 137.968V138.016C132.961 138.088 133.241 138.212 133.489 138.388C133.737 138.556 133.933 138.772 134.077 139.036C134.229 139.3 134.305 139.608 134.305 139.96C134.305 140.416 134.193 140.808 133.969 141.136C133.745 141.456 133.441 141.704 133.057 141.88C132.673 142.056 132.249 142.144 131.785 142.144Z" fill="#81DB7A"/>
<path d="M172.928 61.6286C172.723 61.1158 172.141 60.8664 171.629 61.0715L163.272 64.414C162.76 64.6192 162.51 65.2011 162.715 65.7139C162.92 66.2267 163.502 66.4761 164.015 66.271L171.443 63.2999L174.414 70.7277C174.619 71.2405 175.201 71.4899 175.714 71.2848C176.227 71.0797 176.476 70.4977 176.271 69.9849L172.928 61.6286ZM171.081 61.6061L111.081 201.606L112.919 202.394L172.919 62.3939L171.081 61.6061Z" fill="#81DB7A"/>
<path d="M179.917 177.399C180.137 176.892 179.905 176.303 179.399 176.083L171.145 172.494C170.639 172.274 170.05 172.506 169.829 173.013C169.609 173.519 169.841 174.108 170.348 174.329L177.684 177.518L174.494 184.855C174.274 185.361 174.506 185.95 175.013 186.171C175.519 186.391 176.108 186.159 176.329 185.652L179.917 177.399ZM178.633 176.07L112.633 202.07L113.367 203.93L179.367 177.93L178.633 176.07Z" fill="#FF9900"/>
<path d="M264.707 203.707C265.098 203.317 265.098 202.683 264.707 202.293L258.343 195.929C257.953 195.538 257.319 195.538 256.929 195.929C256.538 196.319 256.538 196.953 256.929 197.343L262.586 203L256.929 208.657C256.538 209.047 256.538 209.681 256.929 210.071C257.319 210.462 257.953 210.462 258.343 210.071L264.707 203.707ZM264 202L113.5 202L113.5 204L264 204L264 202Z" fill="#0686FD"/>
<path d="M169.781 198.144C169.029 198.144 168.437 197.788 168.005 197.076C167.573 196.356 167.357 195.228 167.357 193.692C167.357 192.74 167.453 191.94 167.645 191.292C167.845 190.636 168.125 190.144 168.485 189.816C168.853 189.48 169.285 189.312 169.781 189.312C170.277 189.312 170.705 189.48 171.065 189.816C171.433 190.144 171.713 190.636 171.905 191.292C172.105 191.94 172.205 192.74 172.205 193.692C172.205 195.228 171.989 196.356 171.557 197.076C171.125 197.788 170.533 198.144 169.781 198.144ZM169.781 197.328C170.061 197.328 170.309 197.216 170.525 196.992C170.749 196.76 170.921 196.38 171.041 195.852C171.169 195.316 171.233 194.596 171.233 193.692C171.233 193.06 171.197 192.52 171.125 192.072C171.053 191.616 170.949 191.244 170.813 190.956C170.685 190.668 170.533 190.46 170.357 190.332C170.181 190.196 169.989 190.128 169.781 190.128C169.573 190.128 169.381 190.196 169.205 190.332C169.029 190.46 168.873 190.668 168.737 190.956C168.609 191.244 168.509 191.616 168.437 192.072C168.365 192.52 168.329 193.06 168.329 193.692C168.329 194.596 168.389 195.316 168.509 195.852C168.637 196.38 168.809 196.76 169.025 196.992C169.249 197.216 169.501 197.328 169.781 197.328ZM167.897 194.064V193.284H171.665V194.064H167.897Z" fill="#201E1E"/>
<path d="M155.744 186.973C155.478 187.047 155.321 187.322 155.395 187.588L156.592 191.926C156.666 192.192 156.941 192.348 157.207 192.275C157.473 192.201 157.629 191.926 157.556 191.66L156.492 187.804L160.348 186.74C160.614 186.666 160.77 186.391 160.697 186.125C160.623 185.859 160.348 185.702 160.082 185.776L155.744 186.973ZM166.149 201.5C166.149 197.055 163.597 193.423 161.117 190.937C159.871 189.688 158.626 188.711 157.694 188.047C157.227 187.715 156.838 187.459 156.563 187.287C156.426 187.2 156.318 187.135 156.243 187.09C156.205 187.068 156.176 187.051 156.156 187.039C156.146 187.033 156.138 187.029 156.133 187.026C156.13 187.024 156.128 187.023 156.127 187.022C156.126 187.021 156.125 187.021 156.125 187.021C156.124 187.021 156.124 187.02 156.124 187.02C156.124 187.02 156.124 187.02 155.877 187.455C155.63 187.89 155.63 187.89 155.63 187.89C155.63 187.89 155.63 187.89 155.63 187.89C155.63 187.89 155.63 187.89 155.631 187.89C155.632 187.891 155.633 187.892 155.635 187.893C155.639 187.895 155.645 187.899 155.654 187.903C155.671 187.913 155.696 187.928 155.731 187.949C155.799 187.99 155.9 188.051 156.03 188.133C156.291 188.297 156.664 188.541 157.114 188.861C158.013 189.502 159.212 190.443 160.409 191.643C162.815 194.054 165.149 197.445 165.149 201.5L166.149 201.5Z" fill="black"/>
<circle cx="112" cy="203" r="2" fill="#CD93F0"/>
</svg>
