<svg width="434" height="157" viewBox="0 0 434 157" fill="none" xmlns="http://www.w3.org/2000/svg">
<rect x="149.5" y="28.5" width="39" height="39" stroke="black"/>
<path d="M158.775 53.112C158.279 52.304 157.891 51.46 157.611 50.58C157.331 49.692 157.191 48.72 157.191 47.664C157.191 46.608 157.331 45.636 157.611 44.748C157.891 43.86 158.279 43.016 158.775 42.216L159.387 42.504C158.923 43.264 158.575 44.088 158.343 44.976C158.119 45.856 158.007 46.752 158.007 47.664C158.007 48.576 158.119 49.472 158.343 50.352C158.575 51.232 158.923 52.056 159.387 52.824L158.775 53.112ZM162.828 51.144C162.06 51.144 161.456 50.8 161.016 50.112C160.584 49.416 160.368 48.428 160.368 47.148C160.368 45.86 160.584 44.88 161.016 44.208C161.456 43.536 162.06 43.2 162.828 43.2C163.588 43.2 164.184 43.54 164.616 44.22C165.056 44.892 165.276 45.868 165.276 47.148C165.276 48.428 165.056 49.416 164.616 50.112C164.184 50.8 163.588 51.144 162.828 51.144ZM162.828 50.352C163.124 50.352 163.384 50.24 163.608 50.016C163.832 49.792 164.004 49.444 164.124 48.972C164.252 48.5 164.316 47.892 164.316 47.148C164.316 46.396 164.252 45.788 164.124 45.324C164.004 44.86 163.832 44.524 163.608 44.316C163.384 44.1 163.124 43.992 162.828 43.992C162.524 43.992 162.26 44.1 162.036 44.316C161.812 44.524 161.636 44.86 161.508 45.324C161.388 45.788 161.328 46.396 161.328 47.148C161.328 47.892 161.388 48.5 161.508 48.972C161.636 49.444 161.812 49.792 162.036 50.016C162.26 50.24 162.524 50.352 162.828 50.352ZM166.609 53.04L166.369 52.464C166.713 52.312 166.981 52.104 167.173 51.84C167.365 51.584 167.457 51.296 167.449 50.976L167.341 50.088L167.833 50.808C167.761 50.88 167.681 50.932 167.593 50.964C167.513 50.996 167.425 51.012 167.329 51.012C167.137 51.012 166.969 50.952 166.825 50.832C166.689 50.712 166.621 50.544 166.621 50.328C166.621 50.112 166.693 49.944 166.837 49.824C166.989 49.696 167.161 49.632 167.353 49.632C167.617 49.632 167.821 49.736 167.965 49.944C168.109 50.144 168.181 50.428 168.181 50.796C168.181 51.308 168.041 51.76 167.761 52.152C167.481 52.544 167.097 52.84 166.609 53.04ZM174.183 51.144C173.415 51.144 172.811 50.8 172.371 50.112C171.939 49.416 171.723 48.428 171.723 47.148C171.723 45.86 171.939 44.88 172.371 44.208C172.811 43.536 173.415 43.2 174.183 43.2C174.943 43.2 175.539 43.54 175.971 44.22C176.411 44.892 176.631 45.868 176.631 47.148C176.631 48.428 176.411 49.416 175.971 50.112C175.539 50.8 174.943 51.144 174.183 51.144ZM174.183 50.352C174.479 50.352 174.739 50.24 174.963 50.016C175.187 49.792 175.359 49.444 175.479 48.972C175.607 48.5 175.671 47.892 175.671 47.148C175.671 46.396 175.607 45.788 175.479 45.324C175.359 44.86 175.187 44.524 174.963 44.316C174.739 44.1 174.479 43.992 174.183 43.992C173.879 43.992 173.615 44.1 173.391 44.316C173.167 44.524 172.991 44.86 172.863 45.324C172.743 45.788 172.683 46.396 172.683 47.148C172.683 47.892 172.743 48.5 172.863 48.972C172.991 49.444 173.167 49.792 173.391 50.016C173.615 50.24 173.879 50.352 174.183 50.352ZM178.228 53.112L177.616 52.824C178.08 52.056 178.424 51.232 178.648 50.352C178.88 49.472 178.996 48.576 178.996 47.664C178.996 46.752 178.88 45.856 178.648 44.976C178.424 44.088 178.08 43.264 177.616 42.504L178.228 42.216C178.732 43.016 179.12 43.86 179.392 44.748C179.672 45.636 179.812 46.608 179.812 47.664C179.812 48.72 179.672 49.692 179.392 50.58C179.12 51.46 178.732 52.304 178.228 53.112Z" fill="black"/>
<rect x="149.5" y="68.5" width="39" height="39" stroke="black"/>
<path d="M158.775 93.112C158.279 92.304 157.891 91.46 157.611 90.58C157.331 89.692 157.191 88.72 157.191 87.664C157.191 86.608 157.331 85.636 157.611 84.748C157.891 83.86 158.279 83.016 158.775 82.216L159.387 82.504C158.923 83.264 158.575 84.088 158.343 84.976C158.119 85.856 158.007 86.752 158.007 87.664C158.007 88.576 158.119 89.472 158.343 90.352C158.575 91.232 158.923 92.056 159.387 92.824L158.775 93.112ZM162.828 91.144C162.06 91.144 161.456 90.8 161.016 90.112C160.584 89.416 160.368 88.428 160.368 87.148C160.368 85.86 160.584 84.88 161.016 84.208C161.456 83.536 162.06 83.2 162.828 83.2C163.588 83.2 164.184 83.54 164.616 84.22C165.056 84.892 165.276 85.868 165.276 87.148C165.276 88.428 165.056 89.416 164.616 90.112C164.184 90.8 163.588 91.144 162.828 91.144ZM162.828 90.352C163.124 90.352 163.384 90.24 163.608 90.016C163.832 89.792 164.004 89.444 164.124 88.972C164.252 88.5 164.316 87.892 164.316 87.148C164.316 86.396 164.252 85.788 164.124 85.324C164.004 84.86 163.832 84.524 163.608 84.316C163.384 84.1 163.124 83.992 162.828 83.992C162.524 83.992 162.26 84.1 162.036 84.316C161.812 84.524 161.636 84.86 161.508 85.324C161.388 85.788 161.328 86.396 161.328 87.148C161.328 87.892 161.388 88.5 161.508 88.972C161.636 89.444 161.812 89.792 162.036 90.016C162.26 90.24 162.524 90.352 162.828 90.352ZM166.609 93.04L166.369 92.464C166.713 92.312 166.981 92.104 167.173 91.84C167.365 91.584 167.457 91.296 167.449 90.976L167.341 90.088L167.833 90.808C167.761 90.88 167.681 90.932 167.593 90.964C167.513 90.996 167.425 91.012 167.329 91.012C167.137 91.012 166.969 90.952 166.825 90.832C166.689 90.712 166.621 90.544 166.621 90.328C166.621 90.112 166.693 89.944 166.837 89.824C166.989 89.696 167.161 89.632 167.353 89.632C167.617 89.632 167.821 89.736 167.965 89.944C168.109 90.144 168.181 90.428 168.181 90.796C168.181 91.308 168.041 91.76 167.761 92.152C167.481 92.544 167.097 92.84 166.609 93.04ZM172.143 91V90.184H173.895V84.544H172.503V83.908C172.847 83.844 173.151 83.768 173.415 83.68C173.679 83.584 173.915 83.472 174.123 83.344H174.879V90.184H176.463V91H172.143ZM178.228 93.112L177.616 92.824C178.08 92.056 178.424 91.232 178.648 90.352C178.88 89.472 178.996 88.576 178.996 87.664C178.996 86.752 178.88 85.856 178.648 84.976C178.424 84.088 178.08 83.264 177.616 82.504L178.228 82.216C178.732 83.016 179.12 83.86 179.392 84.748C179.672 85.636 179.812 86.608 179.812 87.664C179.812 88.72 179.672 89.692 179.392 90.58C179.12 91.46 178.732 92.304 178.228 93.112Z" fill="black"/>
<path d="M282.49 151L284.398 147.952L282.634 145.168H283.702L284.482 146.452C284.57 146.604 284.662 146.764 284.758 146.932C284.862 147.092 284.962 147.256 285.058 147.424H285.106C285.194 147.256 285.282 147.092 285.37 146.932C285.458 146.764 285.546 146.604 285.634 146.452L286.342 145.168H287.374L285.61 148.06L287.506 151H286.438L285.586 149.644C285.482 149.468 285.374 149.292 285.262 149.116C285.158 148.94 285.054 148.768 284.95 148.6H284.902C284.798 148.768 284.698 148.94 284.602 149.116C284.506 149.284 284.41 149.46 284.314 149.644L283.522 151H282.49Z" fill="black"/>
<path d="M147.279 14.508C147.151 14.508 147.027 14.496 146.907 14.472C146.795 14.448 146.691 14.42 146.595 14.388L146.811 13.62C146.883 13.644 146.955 13.66 147.027 13.668C147.099 13.684 147.167 13.692 147.231 13.692C147.567 13.692 147.839 13.572 148.047 13.332C148.263 13.1 148.431 12.804 148.551 12.444L148.683 12.012L146.343 6.168H147.363L148.551 9.396C148.647 9.644 148.743 9.912 148.839 10.2C148.935 10.488 149.027 10.768 149.115 11.04H149.163C149.251 10.768 149.335 10.492 149.415 10.212C149.503 9.924 149.583 9.652 149.655 9.396L150.699 6.168H151.659L149.463 12.48C149.327 12.864 149.163 13.208 148.971 13.512C148.779 13.824 148.547 14.068 148.275 14.244C148.003 14.42 147.671 14.508 147.279 14.508Z" fill="black"/>
<rect x="149.5" y="108.5" width="39" height="39" stroke="black"/>
<path d="M158.775 133.112C158.279 132.304 157.891 131.46 157.611 130.58C157.331 129.692 157.191 128.72 157.191 127.664C157.191 126.608 157.331 125.636 157.611 124.748C157.891 123.86 158.279 123.016 158.775 122.216L159.387 122.504C158.923 123.264 158.575 124.088 158.343 124.976C158.119 125.856 158.007 126.752 158.007 127.664C158.007 128.576 158.119 129.472 158.343 130.352C158.575 131.232 158.923 132.056 159.387 132.824L158.775 133.112ZM162.828 131.144C162.06 131.144 161.456 130.8 161.016 130.112C160.584 129.416 160.368 128.428 160.368 127.148C160.368 125.86 160.584 124.88 161.016 124.208C161.456 123.536 162.06 123.2 162.828 123.2C163.588 123.2 164.184 123.54 164.616 124.22C165.056 124.892 165.276 125.868 165.276 127.148C165.276 128.428 165.056 129.416 164.616 130.112C164.184 130.8 163.588 131.144 162.828 131.144ZM162.828 130.352C163.124 130.352 163.384 130.24 163.608 130.016C163.832 129.792 164.004 129.444 164.124 128.972C164.252 128.5 164.316 127.892 164.316 127.148C164.316 126.396 164.252 125.788 164.124 125.324C164.004 124.86 163.832 124.524 163.608 124.316C163.384 124.1 163.124 123.992 162.828 123.992C162.524 123.992 162.26 124.1 162.036 124.316C161.812 124.524 161.636 124.86 161.508 125.324C161.388 125.788 161.328 126.396 161.328 127.148C161.328 127.892 161.388 128.5 161.508 128.972C161.636 129.444 161.812 129.792 162.036 130.016C162.26 130.24 162.524 130.352 162.828 130.352ZM166.609 133.04L166.369 132.464C166.713 132.312 166.981 132.104 167.173 131.84C167.365 131.584 167.457 131.296 167.449 130.976L167.341 130.088L167.833 130.808C167.761 130.88 167.681 130.932 167.593 130.964C167.513 130.996 167.425 131.012 167.329 131.012C167.137 131.012 166.969 130.952 166.825 130.832C166.689 130.712 166.621 130.544 166.621 130.328C166.621 130.112 166.693 129.944 166.837 129.824C166.989 129.696 167.161 129.632 167.353 129.632C167.617 129.632 167.821 129.736 167.965 129.944C168.109 130.144 168.181 130.428 168.181 130.796C168.181 131.308 168.041 131.76 167.761 132.152C167.481 132.544 167.097 132.84 166.609 133.04ZM171.675 131V130.4C172.435 129.648 173.083 128.984 173.619 128.408C174.163 127.824 174.575 127.296 174.855 126.824C175.135 126.352 175.275 125.912 175.275 125.504C175.275 125.064 175.155 124.704 174.915 124.424C174.675 124.144 174.311 124.004 173.823 124.004C173.503 124.004 173.207 124.092 172.935 124.268C172.663 124.444 172.415 124.664 172.191 124.928L171.639 124.388C171.959 124.028 172.299 123.74 172.659 123.524C173.027 123.308 173.455 123.2 173.943 123.2C174.415 123.2 174.823 123.296 175.167 123.488C175.511 123.672 175.775 123.932 175.959 124.268C176.143 124.604 176.235 124.996 176.235 125.444C176.235 125.94 176.095 126.432 175.815 126.92C175.543 127.408 175.167 127.92 174.687 128.456C174.207 128.992 173.655 129.58 173.031 130.22C173.239 130.196 173.455 130.18 173.679 130.172C173.903 130.156 174.115 130.148 174.315 130.148H176.619V131H171.675ZM178.228 133.112L177.616 132.824C178.08 132.056 178.424 131.232 178.648 130.352C178.88 129.472 178.996 128.576 178.996 127.664C178.996 126.752 178.88 125.856 178.648 124.976C178.424 124.088 178.08 123.264 177.616 122.504L178.228 122.216C178.732 123.016 179.12 123.86 179.392 124.748C179.672 125.636 179.812 126.608 179.812 127.664C179.812 128.72 179.672 129.692 179.392 130.58C179.12 131.46 178.732 132.304 178.228 133.112Z" fill="black"/>
<rect x="189.5" y="28.5" width="39" height="39" stroke="black"/>
<path d="M198.775 53.112C198.279 52.304 197.891 51.46 197.611 50.58C197.331 49.692 197.191 48.72 197.191 47.664C197.191 46.608 197.331 45.636 197.611 44.748C197.891 43.86 198.279 43.016 198.775 42.216L199.387 42.504C198.923 43.264 198.575 44.088 198.343 44.976C198.119 45.856 198.007 46.752 198.007 47.664C198.007 48.576 198.119 49.472 198.343 50.352C198.575 51.232 198.923 52.056 199.387 52.824L198.775 53.112ZM200.788 51V50.184H202.54V44.544H201.148V43.908C201.492 43.844 201.796 43.768 202.06 43.68C202.324 43.584 202.56 43.472 202.768 43.344H203.524V50.184H205.108V51H200.788ZM206.609 53.04L206.369 52.464C206.713 52.312 206.981 52.104 207.173 51.84C207.365 51.584 207.457 51.296 207.449 50.976L207.341 50.088L207.833 50.808C207.761 50.88 207.681 50.932 207.593 50.964C207.513 50.996 207.425 51.012 207.329 51.012C207.137 51.012 206.969 50.952 206.825 50.832C206.689 50.712 206.621 50.544 206.621 50.328C206.621 50.112 206.693 49.944 206.837 49.824C206.989 49.696 207.161 49.632 207.353 49.632C207.617 49.632 207.821 49.736 207.965 49.944C208.109 50.144 208.181 50.428 208.181 50.796C208.181 51.308 208.041 51.76 207.761 52.152C207.481 52.544 207.097 52.84 206.609 53.04ZM214.183 51.144C213.415 51.144 212.811 50.8 212.371 50.112C211.939 49.416 211.723 48.428 211.723 47.148C211.723 45.86 211.939 44.88 212.371 44.208C212.811 43.536 213.415 43.2 214.183 43.2C214.943 43.2 215.539 43.54 215.971 44.22C216.411 44.892 216.631 45.868 216.631 47.148C216.631 48.428 216.411 49.416 215.971 50.112C215.539 50.8 214.943 51.144 214.183 51.144ZM214.183 50.352C214.479 50.352 214.739 50.24 214.963 50.016C215.187 49.792 215.359 49.444 215.479 48.972C215.607 48.5 215.671 47.892 215.671 47.148C215.671 46.396 215.607 45.788 215.479 45.324C215.359 44.86 215.187 44.524 214.963 44.316C214.739 44.1 214.479 43.992 214.183 43.992C213.879 43.992 213.615 44.1 213.391 44.316C213.167 44.524 212.991 44.86 212.863 45.324C212.743 45.788 212.683 46.396 212.683 47.148C212.683 47.892 212.743 48.5 212.863 48.972C212.991 49.444 213.167 49.792 213.391 50.016C213.615 50.24 213.879 50.352 214.183 50.352ZM218.228 53.112L217.616 52.824C218.08 52.056 218.424 51.232 218.648 50.352C218.88 49.472 218.996 48.576 218.996 47.664C218.996 46.752 218.88 45.856 218.648 44.976C218.424 44.088 218.08 43.264 217.616 42.504L218.228 42.216C218.732 43.016 219.12 43.86 219.392 44.748C219.672 45.636 219.812 46.608 219.812 47.664C219.812 48.72 219.672 49.692 219.392 50.58C219.12 51.46 218.732 52.304 218.228 53.112Z" fill="black"/>
<rect x="189.5" y="68.5" width="39" height="39" stroke="black"/>
<path d="M198.775 93.112C198.279 92.304 197.891 91.46 197.611 90.58C197.331 89.692 197.191 88.72 197.191 87.664C197.191 86.608 197.331 85.636 197.611 84.748C197.891 83.86 198.279 83.016 198.775 82.216L199.387 82.504C198.923 83.264 198.575 84.088 198.343 84.976C198.119 85.856 198.007 86.752 198.007 87.664C198.007 88.576 198.119 89.472 198.343 90.352C198.575 91.232 198.923 92.056 199.387 92.824L198.775 93.112ZM200.788 91V90.184H202.54V84.544H201.148V83.908C201.492 83.844 201.796 83.768 202.06 83.68C202.324 83.584 202.56 83.472 202.768 83.344H203.524V90.184H205.108V91H200.788ZM206.609 93.04L206.369 92.464C206.713 92.312 206.981 92.104 207.173 91.84C207.365 91.584 207.457 91.296 207.449 90.976L207.341 90.088L207.833 90.808C207.761 90.88 207.681 90.932 207.593 90.964C207.513 90.996 207.425 91.012 207.329 91.012C207.137 91.012 206.969 90.952 206.825 90.832C206.689 90.712 206.621 90.544 206.621 90.328C206.621 90.112 206.693 89.944 206.837 89.824C206.989 89.696 207.161 89.632 207.353 89.632C207.617 89.632 207.821 89.736 207.965 89.944C208.109 90.144 208.181 90.428 208.181 90.796C208.181 91.308 208.041 91.76 207.761 92.152C207.481 92.544 207.097 92.84 206.609 93.04ZM212.143 91V90.184H213.895V84.544H212.503V83.908C212.847 83.844 213.151 83.768 213.415 83.68C213.679 83.584 213.915 83.472 214.123 83.344H214.879V90.184H216.463V91H212.143ZM218.228 93.112L217.616 92.824C218.08 92.056 218.424 91.232 218.648 90.352C218.88 89.472 218.996 88.576 218.996 87.664C218.996 86.752 218.88 85.856 218.648 84.976C218.424 84.088 218.08 83.264 217.616 82.504L218.228 82.216C218.732 83.016 219.12 83.86 219.392 84.748C219.672 85.636 219.812 86.608 219.812 87.664C219.812 88.72 219.672 89.692 219.392 90.58C219.12 91.46 218.732 92.304 218.228 93.112Z" fill="black"/>
<rect x="189.5" y="108.5" width="39" height="39" stroke="black"/>
<path d="M198.775 133.112C198.279 132.304 197.891 131.46 197.611 130.58C197.331 129.692 197.191 128.72 197.191 127.664C197.191 126.608 197.331 125.636 197.611 124.748C197.891 123.86 198.279 123.016 198.775 122.216L199.387 122.504C198.923 123.264 198.575 124.088 198.343 124.976C198.119 125.856 198.007 126.752 198.007 127.664C198.007 128.576 198.119 129.472 198.343 130.352C198.575 131.232 198.923 132.056 199.387 132.824L198.775 133.112ZM200.788 131V130.184H202.54V124.544H201.148V123.908C201.492 123.844 201.796 123.768 202.06 123.68C202.324 123.584 202.56 123.472 202.768 123.344H203.524V130.184H205.108V131H200.788ZM206.609 133.04L206.369 132.464C206.713 132.312 206.981 132.104 207.173 131.84C207.365 131.584 207.457 131.296 207.449 130.976L207.341 130.088L207.833 130.808C207.761 130.88 207.681 130.932 207.593 130.964C207.513 130.996 207.425 131.012 207.329 131.012C207.137 131.012 206.969 130.952 206.825 130.832C206.689 130.712 206.621 130.544 206.621 130.328C206.621 130.112 206.693 129.944 206.837 129.824C206.989 129.696 207.161 129.632 207.353 129.632C207.617 129.632 207.821 129.736 207.965 129.944C208.109 130.144 208.181 130.428 208.181 130.796C208.181 131.308 208.041 131.76 207.761 132.152C207.481 132.544 207.097 132.84 206.609 133.04ZM211.675 131V130.4C212.435 129.648 213.083 128.984 213.619 128.408C214.163 127.824 214.575 127.296 214.855 126.824C215.135 126.352 215.275 125.912 215.275 125.504C215.275 125.064 215.155 124.704 214.915 124.424C214.675 124.144 214.311 124.004 213.823 124.004C213.503 124.004 213.207 124.092 212.935 124.268C212.663 124.444 212.415 124.664 212.191 124.928L211.639 124.388C211.959 124.028 212.299 123.74 212.659 123.524C213.027 123.308 213.455 123.2 213.943 123.2C214.415 123.2 214.823 123.296 215.167 123.488C215.511 123.672 215.775 123.932 215.959 124.268C216.143 124.604 216.235 124.996 216.235 125.444C216.235 125.94 216.095 126.432 215.815 126.92C215.543 127.408 215.167 127.92 214.687 128.456C214.207 128.992 213.655 129.58 213.031 130.22C213.239 130.196 213.455 130.18 213.679 130.172C213.903 130.156 214.115 130.148 214.315 130.148H216.619V131H211.675ZM218.228 133.112L217.616 132.824C218.08 132.056 218.424 131.232 218.648 130.352C218.88 129.472 218.996 128.576 218.996 127.664C218.996 126.752 218.88 125.856 218.648 124.976C218.424 124.088 218.08 123.264 217.616 122.504L218.228 122.216C218.732 123.016 219.12 123.86 219.392 124.748C219.672 125.636 219.812 126.608 219.812 127.664C219.812 128.72 219.672 129.692 219.392 130.58C219.12 131.46 218.732 132.304 218.228 133.112Z" fill="black"/>
<rect x="229.5" y="28.5" width="39" height="39" stroke="black"/>
<path d="M238.775 53.112C238.279 52.304 237.891 51.46 237.611 50.58C237.331 49.692 237.191 48.72 237.191 47.664C237.191 46.608 237.331 45.636 237.611 44.748C237.891 43.86 238.279 43.016 238.775 42.216L239.387 42.504C238.923 43.264 238.575 44.088 238.343 44.976C238.119 45.856 238.007 46.752 238.007 47.664C238.007 48.576 238.119 49.472 238.343 50.352C238.575 51.232 238.923 52.056 239.387 52.824L238.775 53.112ZM240.32 51V50.4C241.08 49.648 241.728 48.984 242.264 48.408C242.808 47.824 243.22 47.296 243.5 46.824C243.78 46.352 243.92 45.912 243.92 45.504C243.92 45.064 243.8 44.704 243.56 44.424C243.32 44.144 242.956 44.004 242.468 44.004C242.148 44.004 241.852 44.092 241.58 44.268C241.308 44.444 241.06 44.664 240.836 44.928L240.284 44.388C240.604 44.028 240.944 43.74 241.304 43.524C241.672 43.308 242.1 43.2 242.588 43.2C243.06 43.2 243.468 43.296 243.812 43.488C244.156 43.672 244.42 43.932 244.604 44.268C244.788 44.604 244.88 44.996 244.88 45.444C244.88 45.94 244.74 46.432 244.46 46.92C244.188 47.408 243.812 47.92 243.332 48.456C242.852 48.992 242.3 49.58 241.676 50.22C241.884 50.196 242.1 50.18 242.324 50.172C242.548 50.156 242.76 50.148 242.96 50.148H245.264V51H240.32ZM246.609 53.04L246.369 52.464C246.713 52.312 246.981 52.104 247.173 51.84C247.365 51.584 247.457 51.296 247.449 50.976L247.341 50.088L247.833 50.808C247.761 50.88 247.681 50.932 247.593 50.964C247.513 50.996 247.425 51.012 247.329 51.012C247.137 51.012 246.969 50.952 246.825 50.832C246.689 50.712 246.621 50.544 246.621 50.328C246.621 50.112 246.693 49.944 246.837 49.824C246.989 49.696 247.161 49.632 247.353 49.632C247.617 49.632 247.821 49.736 247.965 49.944C248.109 50.144 248.181 50.428 248.181 50.796C248.181 51.308 248.041 51.76 247.761 52.152C247.481 52.544 247.097 52.84 246.609 53.04ZM254.183 51.144C253.415 51.144 252.811 50.8 252.371 50.112C251.939 49.416 251.723 48.428 251.723 47.148C251.723 45.86 251.939 44.88 252.371 44.208C252.811 43.536 253.415 43.2 254.183 43.2C254.943 43.2 255.539 43.54 255.971 44.22C256.411 44.892 256.631 45.868 256.631 47.148C256.631 48.428 256.411 49.416 255.971 50.112C255.539 50.8 254.943 51.144 254.183 51.144ZM254.183 50.352C254.479 50.352 254.739 50.24 254.963 50.016C255.187 49.792 255.359 49.444 255.479 48.972C255.607 48.5 255.671 47.892 255.671 47.148C255.671 46.396 255.607 45.788 255.479 45.324C255.359 44.86 255.187 44.524 254.963 44.316C254.739 44.1 254.479 43.992 254.183 43.992C253.879 43.992 253.615 44.1 253.391 44.316C253.167 44.524 252.991 44.86 252.863 45.324C252.743 45.788 252.683 46.396 252.683 47.148C252.683 47.892 252.743 48.5 252.863 48.972C252.991 49.444 253.167 49.792 253.391 50.016C253.615 50.24 253.879 50.352 254.183 50.352ZM258.228 53.112L257.616 52.824C258.08 52.056 258.424 51.232 258.648 50.352C258.88 49.472 258.996 48.576 258.996 47.664C258.996 46.752 258.88 45.856 258.648 44.976C258.424 44.088 258.08 43.264 257.616 42.504L258.228 42.216C258.732 43.016 259.12 43.86 259.392 44.748C259.672 45.636 259.812 46.608 259.812 47.664C259.812 48.72 259.672 49.692 259.392 50.58C259.12 51.46 258.732 52.304 258.228 53.112Z" fill="black"/>
<rect x="229.5" y="68.5" width="39" height="39" stroke="black"/>
<path d="M238.775 93.112C238.279 92.304 237.891 91.46 237.611 90.58C237.331 89.692 237.191 88.72 237.191 87.664C237.191 86.608 237.331 85.636 237.611 84.748C237.891 83.86 238.279 83.016 238.775 82.216L239.387 82.504C238.923 83.264 238.575 84.088 238.343 84.976C238.119 85.856 238.007 86.752 238.007 87.664C238.007 88.576 238.119 89.472 238.343 90.352C238.575 91.232 238.923 92.056 239.387 92.824L238.775 93.112ZM240.32 91V90.4C241.08 89.648 241.728 88.984 242.264 88.408C242.808 87.824 243.22 87.296 243.5 86.824C243.78 86.352 243.92 85.912 243.92 85.504C243.92 85.064 243.8 84.704 243.56 84.424C243.32 84.144 242.956 84.004 242.468 84.004C242.148 84.004 241.852 84.092 241.58 84.268C241.308 84.444 241.06 84.664 240.836 84.928L240.284 84.388C240.604 84.028 240.944 83.74 241.304 83.524C241.672 83.308 242.1 83.2 242.588 83.2C243.06 83.2 243.468 83.296 243.812 83.488C244.156 83.672 244.42 83.932 244.604 84.268C244.788 84.604 244.88 84.996 244.88 85.444C244.88 85.94 244.74 86.432 244.46 86.92C244.188 87.408 243.812 87.92 243.332 88.456C242.852 88.992 242.3 89.58 241.676 90.22C241.884 90.196 242.1 90.18 242.324 90.172C242.548 90.156 242.76 90.148 242.96 90.148H245.264V91H240.32ZM246.609 93.04L246.369 92.464C246.713 92.312 246.981 92.104 247.173 91.84C247.365 91.584 247.457 91.296 247.449 90.976L247.341 90.088L247.833 90.808C247.761 90.88 247.681 90.932 247.593 90.964C247.513 90.996 247.425 91.012 247.329 91.012C247.137 91.012 246.969 90.952 246.825 90.832C246.689 90.712 246.621 90.544 246.621 90.328C246.621 90.112 246.693 89.944 246.837 89.824C246.989 89.696 247.161 89.632 247.353 89.632C247.617 89.632 247.821 89.736 247.965 89.944C248.109 90.144 248.181 90.428 248.181 90.796C248.181 91.308 248.041 91.76 247.761 92.152C247.481 92.544 247.097 92.84 246.609 93.04ZM252.143 91V90.184H253.895V84.544H252.503V83.908C252.847 83.844 253.151 83.768 253.415 83.68C253.679 83.584 253.915 83.472 254.123 83.344H254.879V90.184H256.463V91H252.143ZM258.228 93.112L257.616 92.824C258.08 92.056 258.424 91.232 258.648 90.352C258.88 89.472 258.996 88.576 258.996 87.664C258.996 86.752 258.88 85.856 258.648 84.976C258.424 84.088 258.08 83.264 257.616 82.504L258.228 82.216C258.732 83.016 259.12 83.86 259.392 84.748C259.672 85.636 259.812 86.608 259.812 87.664C259.812 88.72 259.672 89.692 259.392 90.58C259.12 91.46 258.732 92.304 258.228 93.112Z" fill="black"/>
<rect x="229.5" y="108.5" width="39" height="39" stroke="black"/>
<path d="M238.775 133.112C238.279 132.304 237.891 131.46 237.611 130.58C237.331 129.692 237.191 128.72 237.191 127.664C237.191 126.608 237.331 125.636 237.611 124.748C237.891 123.86 238.279 123.016 238.775 122.216L239.387 122.504C238.923 123.264 238.575 124.088 238.343 124.976C238.119 125.856 238.007 126.752 238.007 127.664C238.007 128.576 238.119 129.472 238.343 130.352C238.575 131.232 238.923 132.056 239.387 132.824L238.775 133.112ZM240.32 131V130.4C241.08 129.648 241.728 128.984 242.264 128.408C242.808 127.824 243.22 127.296 243.5 126.824C243.78 126.352 243.92 125.912 243.92 125.504C243.92 125.064 243.8 124.704 243.56 124.424C243.32 124.144 242.956 124.004 242.468 124.004C242.148 124.004 241.852 124.092 241.58 124.268C241.308 124.444 241.06 124.664 240.836 124.928L240.284 124.388C240.604 124.028 240.944 123.74 241.304 123.524C241.672 123.308 242.1 123.2 242.588 123.2C243.06 123.2 243.468 123.296 243.812 123.488C244.156 123.672 244.42 123.932 244.604 124.268C244.788 124.604 244.88 124.996 244.88 125.444C244.88 125.94 244.74 126.432 244.46 126.92C244.188 127.408 243.812 127.92 243.332 128.456C242.852 128.992 242.3 129.58 241.676 130.22C241.884 130.196 242.1 130.18 242.324 130.172C242.548 130.156 242.76 130.148 242.96 130.148H245.264V131H240.32ZM246.609 133.04L246.369 132.464C246.713 132.312 246.981 132.104 247.173 131.84C247.365 131.584 247.457 131.296 247.449 130.976L247.341 130.088L247.833 130.808C247.761 130.88 247.681 130.932 247.593 130.964C247.513 130.996 247.425 131.012 247.329 131.012C247.137 131.012 246.969 130.952 246.825 130.832C246.689 130.712 246.621 130.544 246.621 130.328C246.621 130.112 246.693 129.944 246.837 129.824C246.989 129.696 247.161 129.632 247.353 129.632C247.617 129.632 247.821 129.736 247.965 129.944C248.109 130.144 248.181 130.428 248.181 130.796C248.181 131.308 248.041 131.76 247.761 132.152C247.481 132.544 247.097 132.84 246.609 133.04ZM251.675 131V130.4C252.435 129.648 253.083 128.984 253.619 128.408C254.163 127.824 254.575 127.296 254.855 126.824C255.135 126.352 255.275 125.912 255.275 125.504C255.275 125.064 255.155 124.704 254.915 124.424C254.675 124.144 254.311 124.004 253.823 124.004C253.503 124.004 253.207 124.092 252.935 124.268C252.663 124.444 252.415 124.664 252.191 124.928L251.639 124.388C251.959 124.028 252.299 123.74 252.659 123.524C253.027 123.308 253.455 123.2 253.943 123.2C254.415 123.2 254.823 123.296 255.167 123.488C255.511 123.672 255.775 123.932 255.959 124.268C256.143 124.604 256.235 124.996 256.235 125.444C256.235 125.94 256.095 126.432 255.815 126.92C255.543 127.408 255.167 127.92 254.687 128.456C254.207 128.992 253.655 129.58 253.031 130.22C253.239 130.196 253.455 130.18 253.679 130.172C253.903 130.156 254.115 130.148 254.315 130.148H256.619V131H251.675ZM258.228 133.112L257.616 132.824C258.08 132.056 258.424 131.232 258.648 130.352C258.88 129.472 258.996 128.576 258.996 127.664C258.996 126.752 258.88 125.856 258.648 124.976C258.424 124.088 258.08 123.264 257.616 122.504L258.228 122.216C258.732 123.016 259.12 123.86 259.392 124.748C259.672 125.636 259.812 126.608 259.812 127.664C259.812 128.72 259.672 129.692 259.392 130.58C259.12 131.46 258.732 132.304 258.228 133.112Z" fill="black"/>
<rect x="149.5" y="28.5" width="119" height="119" stroke="#7BBAA9"/>
<path d="M280.357 148.354C280.553 148.158 280.553 147.842 280.357 147.646L277.175 144.464C276.98 144.269 276.664 144.269 276.468 144.464C276.273 144.66 276.273 144.976 276.468 145.172L279.297 148L276.468 150.828C276.273 151.024 276.273 151.34 276.468 151.536C276.664 151.731 276.98 151.731 277.175 151.536L280.357 148.354ZM149 148.5H280.004V147.5H149V148.5Z" fill="black"/>
<path d="M149.354 16.6465C149.158 16.4513 148.842 16.4513 148.646 16.6465L145.464 19.8285C145.269 20.0238 145.269 20.3404 145.464 20.5356C145.66 20.7309 145.976 20.7309 146.172 20.5356L149 17.7072L151.828 20.5356C152.024 20.7309 152.34 20.7309 152.536 20.5356C152.731 20.3404 152.731 20.0238 152.536 19.8285L149.354 16.6465ZM149.5 148.004V17.0001H148.5V148.004H149.5Z" fill="black"/>
<rect x="189" y="68" width="40" height="40" fill="#FF00E6" fill-opacity="0.2"/>
</svg>
