<svg width="296" height="199" viewBox="0 0 296 199" fill="none" xmlns="http://www.w3.org/2000/svg">
<path d="M53 17V137" stroke="#757575"/>
<path d="M53.3536 137.354L53.7071 137L53 136.293L52.6464 136.646L53.3536 137.354ZM11.3536 179.354L53.3536 137.354L52.6464 136.646L10.6464 178.646L11.3536 179.354Z" fill="#757575"/>
<path d="M53 137L170 137" stroke="#757575"/>
<path d="M52.6028 17.0107C52.6028 17.0107 11 58.0118 11 58.5059C11 59 130 59 130 59C130 59 169.491 17.0002 168.996 17C168.5 16.9998 52.6028 17.0107 52.6028 17.0107Z" fill="#D9D9D9" fill-opacity="0.4" stroke="#757575"/>
<path d="M11 59H130V179H11V59Z" fill="#D9D9D9" fill-opacity="0.4" stroke="#757575"/>
<path d="M169.766 17.0043C169.269 16.5044 130 59.5021 130 59.5021L130.048 178.996C130.048 179.496 169.816 137.498 169.816 137.498C169.816 137.498 170.262 17.5043 169.766 17.0043Z" fill="#D9D9D9" fill-opacity="0.4" stroke="#757575"/>
<circle cx="11" cy="59" r="2" fill="#CD93F0"/>
<circle cx="130" cy="59" r="2" fill="#CD93F0"/>
<circle cx="169" cy="17" r="2" fill="#CD93F0"/>
<circle cx="53" cy="17" r="2" fill="#CD93F0"/>
<circle cx="53" cy="137" r="2" fill="#CD93F0"/>
<circle cx="11" cy="179" r="2" fill="#CD93F0"/>
<circle cx="130" cy="179" r="2" fill="#CD93F0"/>
<circle cx="170" cy="137" r="2" fill="#CD93F0"/>
<path d="M53.568 32.112C53.072 31.304 52.684 30.46 52.404 29.58C52.124 28.692 51.984 27.72 51.984 26.664C51.984 25.608 52.124 24.636 52.404 23.748C52.684 22.86 53.072 22.016 53.568 21.216L54.18 21.504C53.716 22.264 53.368 23.088 53.136 23.976C52.912 24.856 52.8 25.752 52.8 26.664C52.8 27.576 52.912 28.472 53.136 29.352C53.368 30.232 53.716 31.056 54.18 31.824L53.568 32.112ZM60.886 32.04L60.646 31.464C60.99 31.312 61.258 31.104 61.45 30.84C61.642 30.584 61.734 30.296 61.726 29.976L61.618 29.088L62.11 29.808C62.038 29.88 61.958 29.932 61.87 29.964C61.79 29.996 61.702 30.012 61.606 30.012C61.414 30.012 61.246 29.952 61.102 29.832C60.966 29.712 60.898 29.544 60.898 29.328C60.898 29.112 60.97 28.944 61.114 28.824C61.266 28.696 61.438 28.632 61.63 28.632C61.894 28.632 62.098 28.736 62.242 28.944C62.386 29.144 62.458 29.428 62.458 29.796C62.458 30.308 62.318 30.76 62.038 31.152C61.758 31.544 61.374 31.84 60.886 32.04ZM101.562 32.04L101.322 31.464C101.666 31.312 101.934 31.104 102.126 30.84C102.318 30.584 102.41 30.296 102.402 29.976L102.294 29.088L102.786 29.808C102.714 29.88 102.634 29.932 102.546 29.964C102.466 29.996 102.378 30.012 102.282 30.012C102.09 30.012 101.922 29.952 101.778 29.832C101.642 29.712 101.574 29.544 101.574 29.328C101.574 29.112 101.646 28.944 101.79 28.824C101.942 28.696 102.114 28.632 102.306 28.632C102.57 28.632 102.774 28.736 102.918 28.944C103.062 29.144 103.134 29.428 103.134 29.796C103.134 30.308 102.994 30.76 102.714 31.152C102.434 31.544 102.05 31.84 101.562 32.04ZM141.998 32.112L141.386 31.824C141.85 31.056 142.194 30.232 142.418 29.352C142.65 28.472 142.766 27.576 142.766 26.664C142.766 25.752 142.65 24.856 142.418 23.976C142.194 23.088 141.85 22.264 141.386 21.504L141.998 21.216C142.502 22.016 142.89 22.86 143.162 23.748C143.442 24.636 143.582 25.608 143.582 26.664C143.582 27.72 143.442 28.692 143.162 29.58C142.89 30.46 142.502 31.304 141.998 32.112Z" fill="black"/>
<path d="M54.8008 30L56.7088 26.952L54.9448 24.168H56.0128L56.7928 25.452C56.8808 25.604 56.9728 25.764 57.0688 25.932C57.1728 26.092 57.2728 26.256 57.3688 26.424H57.4168C57.5048 26.256 57.5928 26.092 57.6808 25.932C57.7688 25.764 57.8568 25.604 57.9448 25.452L58.6528 24.168H59.6848L57.9208 27.06L59.8168 30H58.7488L57.8968 28.644C57.7928 28.468 57.6848 28.292 57.5728 28.116C57.4688 27.94 57.3648 27.768 57.2608 27.6H57.2128C57.1088 27.768 57.0088 27.94 56.9128 28.116C56.8168 28.284 56.7208 28.46 56.6248 28.644L55.8328 30H54.8008Z" fill="#FF00E6"/>
<path d="M66.5527 32.508C66.4247 32.508 66.3007 32.496 66.1807 32.472C66.0687 32.448 65.9647 32.42 65.8687 32.388L66.0847 31.62C66.1567 31.644 66.2287 31.66 66.3007 31.668C66.3727 31.684 66.4407 31.692 66.5047 31.692C66.8407 31.692 67.1127 31.572 67.3207 31.332C67.5367 31.1 67.7047 30.804 67.8247 30.444L67.9567 30.012L65.6167 24.168H66.6367L67.8247 27.396C67.9207 27.644 68.0167 27.912 68.1127 28.2C68.2087 28.488 68.3007 28.768 68.3887 29.04H68.4367C68.5247 28.768 68.6087 28.492 68.6887 28.212C68.7767 27.924 68.8567 27.652 68.9287 27.396L69.9727 24.168H70.9327L68.7367 30.48C68.6007 30.864 68.4367 31.208 68.2447 31.512C68.0527 31.824 67.8207 32.068 67.5487 32.244C67.2767 32.42 66.9447 32.508 66.5527 32.508ZM76.0686 28.752V26.412H73.8846V25.668H76.0686V23.328H76.8486V25.668H79.0326V26.412H76.8486V28.752H76.0686ZM84.3518 30.144C83.9278 30.144 83.5238 30.072 83.1398 29.928C82.7638 29.776 82.4438 29.568 82.1798 29.304L82.6357 28.728C82.8918 28.936 83.1558 29.096 83.4277 29.208C83.7078 29.32 84.0278 29.376 84.3878 29.376C84.7718 29.376 85.0598 29.288 85.2518 29.112C85.4438 28.928 85.5398 28.712 85.5398 28.464C85.5398 28.264 85.4718 28.1 85.3358 27.972C85.2078 27.836 85.0438 27.724 84.8438 27.636C84.6518 27.54 84.4438 27.452 84.2198 27.372C83.9318 27.268 83.6558 27.148 83.3918 27.012C83.1278 26.868 82.9118 26.692 82.7438 26.484C82.5838 26.268 82.5038 26 82.5038 25.68C82.5038 25.208 82.6798 24.816 83.0318 24.504C83.3918 24.184 83.8878 24.024 84.5198 24.024C84.8798 24.024 85.2158 24.088 85.5278 24.216C85.8398 24.336 86.1078 24.492 86.3318 24.684L85.8758 25.248C85.6678 25.104 85.4558 24.992 85.2398 24.912C85.0238 24.832 84.7838 24.792 84.5198 24.792C84.1518 24.792 83.8798 24.876 83.7038 25.044C83.5358 25.212 83.4518 25.408 83.4518 25.632C83.4518 25.808 83.5038 25.956 83.6077 26.076C83.7118 26.188 83.8558 26.288 84.0398 26.376C84.2318 26.464 84.4478 26.548 84.6878 26.628C84.9918 26.74 85.2798 26.868 85.5518 27.012C85.8318 27.148 86.0558 27.328 86.2238 27.552C86.3998 27.768 86.4878 28.052 86.4878 28.404C86.4878 28.724 86.4038 29.016 86.2358 29.28C86.0758 29.536 85.8358 29.744 85.5158 29.904C85.2038 30.064 84.8158 30.144 84.3518 30.144ZM87.8551 30V24.168H88.8391V30H87.8551ZM88.3471 22.968C88.1551 22.968 87.9951 22.908 87.8671 22.788C87.7471 22.668 87.6871 22.512 87.6871 22.32C87.6871 22.128 87.7471 21.972 87.8671 21.852C87.9951 21.732 88.1551 21.672 88.3471 21.672C88.5391 21.672 88.6951 21.732 88.8151 21.852C88.9431 21.972 89.0071 22.128 89.0071 22.32C89.0071 22.512 88.9431 22.668 88.8151 22.788C88.6951 22.908 88.5391 22.968 88.3471 22.968ZM90.1962 30V29.472L93.2682 24.972H90.5322V24.168H94.5162V24.696L91.4442 29.196H94.6122V30H90.1962ZM98.1527 30.144C97.6327 30.144 97.1567 30.024 96.7247 29.784C96.3007 29.536 95.9647 29.188 95.7167 28.74C95.4687 28.284 95.3447 27.732 95.3447 27.084C95.3447 26.452 95.4727 25.908 95.7287 25.452C95.9847 24.996 96.3127 24.644 96.7127 24.396C97.1127 24.148 97.5367 24.024 97.9847 24.024C98.4807 24.024 98.9007 24.14 99.2447 24.372C99.5967 24.596 99.8607 24.912 100.037 25.32C100.213 25.728 100.301 26.208 100.301 26.76C100.301 26.864 100.297 26.964 100.289 27.06C100.289 27.156 100.277 27.252 100.253 27.348H96.0527V26.568H99.4127C99.4127 26.008 99.2887 25.58 99.0407 25.284C98.8007 24.98 98.4527 24.828 97.9967 24.828C97.7327 24.828 97.4727 24.904 97.2167 25.056C96.9607 25.2 96.7487 25.436 96.5807 25.764C96.4207 26.092 96.3407 26.528 96.3407 27.072C96.3407 27.568 96.4247 27.984 96.5927 28.32C96.7687 28.656 97.0047 28.912 97.3007 29.088C97.5967 29.256 97.9207 29.34 98.2727 29.34C98.5527 29.34 98.8127 29.3 99.0527 29.22C99.3007 29.14 99.5247 29.032 99.7247 28.896L100.085 29.544C99.8287 29.72 99.5407 29.864 99.2207 29.976C98.9087 30.088 98.5527 30.144 98.1527 30.144Z" fill="#2A5D57"/>
<path d="M106.52 30V29.472L109.592 24.972H106.856V24.168H110.84V24.696L107.768 29.196H110.936V30H106.52ZM116.24 28.752V26.412H114.056V25.668H116.24V23.328H117.02V25.668H119.204V26.412H117.02V28.752H116.24ZM124.524 30.144C124.1 30.144 123.696 30.072 123.312 29.928C122.936 29.776 122.616 29.568 122.352 29.304L122.808 28.728C123.064 28.936 123.328 29.096 123.6 29.208C123.88 29.32 124.2 29.376 124.56 29.376C124.944 29.376 125.232 29.288 125.424 29.112C125.616 28.928 125.712 28.712 125.712 28.464C125.712 28.264 125.644 28.1 125.508 27.972C125.38 27.836 125.216 27.724 125.016 27.636C124.824 27.54 124.616 27.452 124.392 27.372C124.104 27.268 123.828 27.148 123.564 27.012C123.3 26.868 123.084 26.692 122.916 26.484C122.756 26.268 122.676 26 122.676 25.68C122.676 25.208 122.852 24.816 123.204 24.504C123.564 24.184 124.06 24.024 124.692 24.024C125.052 24.024 125.388 24.088 125.7 24.216C126.012 24.336 126.28 24.492 126.504 24.684L126.048 25.248C125.84 25.104 125.628 24.992 125.412 24.912C125.196 24.832 124.956 24.792 124.692 24.792C124.324 24.792 124.052 24.876 123.876 25.044C123.708 25.212 123.624 25.408 123.624 25.632C123.624 25.808 123.676 25.956 123.78 26.076C123.884 26.188 124.028 26.288 124.212 26.376C124.404 26.464 124.62 26.548 124.86 26.628C125.164 26.74 125.452 26.868 125.724 27.012C126.004 27.148 126.228 27.328 126.396 27.552C126.572 27.768 126.66 28.052 126.66 28.404C126.66 28.724 126.576 29.016 126.408 29.28C126.248 29.536 126.008 29.744 125.688 29.904C125.376 30.064 124.988 30.144 124.524 30.144ZM128.027 30V24.168H129.011V30H128.027ZM128.519 22.968C128.327 22.968 128.167 22.908 128.039 22.788C127.919 22.668 127.859 22.512 127.859 22.32C127.859 22.128 127.919 21.972 128.039 21.852C128.167 21.732 128.327 21.672 128.519 21.672C128.711 21.672 128.867 21.732 128.987 21.852C129.115 21.972 129.179 22.128 129.179 22.32C129.179 22.512 129.115 22.668 128.987 22.788C128.867 22.908 128.711 22.968 128.519 22.968ZM130.368 30V29.472L133.44 24.972H130.704V24.168H134.688V24.696L131.616 29.196H134.784V30H130.368ZM138.325 30.144C137.805 30.144 137.329 30.024 136.897 29.784C136.473 29.536 136.137 29.188 135.889 28.74C135.641 28.284 135.517 27.732 135.517 27.084C135.517 26.452 135.645 25.908 135.901 25.452C136.157 24.996 136.485 24.644 136.885 24.396C137.285 24.148 137.709 24.024 138.157 24.024C138.653 24.024 139.073 24.14 139.417 24.372C139.769 24.596 140.033 24.912 140.209 25.32C140.385 25.728 140.473 26.208 140.473 26.76C140.473 26.864 140.469 26.964 140.461 27.06C140.461 27.156 140.449 27.252 140.425 27.348H136.225V26.568H139.585C139.585 26.008 139.461 25.58 139.213 25.284C138.973 24.98 138.625 24.828 138.169 24.828C137.905 24.828 137.645 24.904 137.389 25.056C137.133 25.2 136.921 25.436 136.753 25.764C136.593 26.092 136.513 26.528 136.513 27.072C136.513 27.568 136.597 27.984 136.765 28.32C136.941 28.656 137.177 28.912 137.473 29.088C137.769 29.256 138.093 29.34 138.445 29.34C138.725 29.34 138.985 29.3 139.225 29.22C139.473 29.14 139.697 29.032 139.897 28.896L140.257 29.544C140.001 29.72 139.713 29.864 139.393 29.976C139.081 30.088 138.725 30.144 138.325 30.144Z" fill="#5447E9"/>
<path d="M15.568 74.112C15.072 73.304 14.684 72.46 14.404 71.58C14.124 70.692 13.984 69.72 13.984 68.664C13.984 67.608 14.124 66.636 14.404 65.748C14.684 64.86 15.072 64.016 15.568 63.216L16.18 63.504C15.716 64.264 15.368 65.088 15.136 65.976C14.912 66.856 14.8 67.752 14.8 68.664C14.8 69.576 14.912 70.472 15.136 71.352C15.368 72.232 15.716 73.056 16.18 73.824L15.568 74.112ZM22.886 74.04L22.646 73.464C22.99 73.312 23.258 73.104 23.45 72.84C23.642 72.584 23.734 72.296 23.726 71.976L23.618 71.088L24.11 71.808C24.038 71.88 23.958 71.932 23.87 71.964C23.79 71.996 23.702 72.012 23.606 72.012C23.414 72.012 23.246 71.952 23.102 71.832C22.966 71.712 22.898 71.544 22.898 71.328C22.898 71.112 22.97 70.944 23.114 70.824C23.266 70.696 23.438 70.632 23.63 70.632C23.894 70.632 24.098 70.736 24.242 70.944C24.386 71.144 24.458 71.428 24.458 71.796C24.458 72.308 24.318 72.76 24.038 73.152C23.758 73.544 23.374 73.84 22.886 74.04ZM33.4681 74.04L33.2281 73.464C33.5721 73.312 33.8401 73.104 34.0321 72.84C34.2241 72.584 34.3161 72.296 34.3081 71.976L34.2001 71.088L34.6921 71.808C34.6201 71.88 34.5401 71.932 34.4521 71.964C34.3721 71.996 34.2841 72.012 34.1881 72.012C33.9961 72.012 33.8281 71.952 33.6841 71.832C33.5481 71.712 33.4801 71.544 33.4801 71.328C33.4801 71.112 33.5521 70.944 33.6961 70.824C33.8481 70.696 34.0201 70.632 34.2121 70.632C34.4761 70.632 34.6801 70.736 34.8241 70.944C34.9681 71.144 35.0401 71.428 35.0401 71.796C35.0401 72.308 34.9001 72.76 34.6201 73.152C34.3401 73.544 33.9561 73.84 33.4681 74.04ZM73.9039 74.112L73.2919 73.824C73.7559 73.056 74.0999 72.232 74.3239 71.352C74.5559 70.472 74.6719 69.576 74.6719 68.664C74.6719 67.752 74.5559 66.856 74.3239 65.976C74.0999 65.088 73.7559 64.264 73.2919 63.504L73.9039 63.216C74.4079 64.016 74.7959 64.86 75.0679 65.748C75.3479 66.636 75.4879 67.608 75.4879 68.664C75.4879 69.72 75.3479 70.692 75.0679 71.58C74.7959 72.46 74.4079 73.304 73.9039 74.112Z" fill="black"/>
<path d="M16.8008 72L18.7088 68.952L16.9448 66.168H18.0128L18.7928 67.452C18.8808 67.604 18.9728 67.764 19.0688 67.932C19.1728 68.092 19.2728 68.256 19.3688 68.424H19.4168C19.5048 68.256 19.5928 68.092 19.6808 67.932C19.7688 67.764 19.8568 67.604 19.9448 67.452L20.6528 66.168H21.6848L19.9208 69.06L21.8168 72H20.7488L19.8968 70.644C19.7928 70.468 19.6848 70.292 19.5728 70.116C19.4688 69.94 19.3648 69.768 19.2608 69.6H19.2128C19.1088 69.768 19.0088 69.94 18.9128 70.116C18.8168 70.284 18.7208 70.46 18.6248 70.644L17.8328 72H16.8008Z" fill="#FF00E6"/>
<path d="M28.5527 74.508C28.4247 74.508 28.3007 74.496 28.1807 74.472C28.0687 74.448 27.9647 74.42 27.8687 74.388L28.0847 73.62C28.1567 73.644 28.2287 73.66 28.3007 73.668C28.3727 73.684 28.4407 73.692 28.5047 73.692C28.8407 73.692 29.1127 73.572 29.3207 73.332C29.5367 73.1 29.7047 72.804 29.8247 72.444L29.9567 72.012L27.6167 66.168H28.6367L29.8247 69.396C29.9207 69.644 30.0167 69.912 30.1127 70.2C30.2087 70.488 30.3007 70.768 30.3887 71.04H30.4367C30.5247 70.768 30.6087 70.492 30.6887 70.212C30.7767 69.924 30.8567 69.652 30.9287 69.396L31.9727 66.168H32.9327L30.7367 72.48C30.6007 72.864 30.4367 73.208 30.2447 73.512C30.0527 73.824 29.8207 74.068 29.5487 74.244C29.2767 74.42 28.9447 74.508 28.5527 74.508Z" fill="#2A5D57"/>
<path d="M38.4267 72V71.472L41.4987 66.972H38.7627V66.168H42.7467V66.696L39.6747 71.196H42.8427V72H38.4267ZM48.1467 70.752V68.412H45.9627V67.668H48.1467V65.328H48.9267V67.668H51.1107V68.412H48.9267V70.752H48.1467ZM56.4299 72.144C56.0059 72.144 55.6019 72.072 55.2179 71.928C54.8419 71.776 54.5219 71.568 54.2579 71.304L54.7139 70.728C54.9699 70.936 55.2339 71.096 55.5059 71.208C55.7859 71.32 56.1059 71.376 56.4659 71.376C56.8499 71.376 57.1379 71.288 57.3299 71.112C57.5219 70.928 57.6179 70.712 57.6179 70.464C57.6179 70.264 57.5499 70.1 57.4139 69.972C57.2859 69.836 57.1219 69.724 56.9219 69.636C56.7299 69.54 56.5219 69.452 56.2979 69.372C56.0099 69.268 55.7339 69.148 55.4699 69.012C55.2059 68.868 54.9899 68.692 54.8219 68.484C54.6619 68.268 54.5819 68 54.5819 67.68C54.5819 67.208 54.7579 66.816 55.1099 66.504C55.4699 66.184 55.9659 66.024 56.5979 66.024C56.9579 66.024 57.2939 66.088 57.6059 66.216C57.9179 66.336 58.1859 66.492 58.4099 66.684L57.9539 67.248C57.7459 67.104 57.5339 66.992 57.3179 66.912C57.1019 66.832 56.8619 66.792 56.5979 66.792C56.2299 66.792 55.9579 66.876 55.7819 67.044C55.6139 67.212 55.5299 67.408 55.5299 67.632C55.5299 67.808 55.5819 67.956 55.6859 68.076C55.7899 68.188 55.9339 68.288 56.1179 68.376C56.3099 68.464 56.5259 68.548 56.7659 68.628C57.0699 68.74 57.3579 68.868 57.6299 69.012C57.9099 69.148 58.1339 69.328 58.3019 69.552C58.4779 69.768 58.5659 70.052 58.5659 70.404C58.5659 70.724 58.4819 71.016 58.3139 71.28C58.1539 71.536 57.9139 71.744 57.5939 71.904C57.2819 72.064 56.8939 72.144 56.4299 72.144ZM59.9332 72V66.168H60.9172V72H59.9332ZM60.4252 64.968C60.2332 64.968 60.0732 64.908 59.9452 64.788C59.8252 64.668 59.7652 64.512 59.7652 64.32C59.7652 64.128 59.8252 63.972 59.9452 63.852C60.0732 63.732 60.2332 63.672 60.4252 63.672C60.6172 63.672 60.7732 63.732 60.8932 63.852C61.0212 63.972 61.0852 64.128 61.0852 64.32C61.0852 64.512 61.0212 64.668 60.8932 64.788C60.7732 64.908 60.6172 64.968 60.4252 64.968ZM62.2743 72V71.472L65.3463 66.972H62.6103V66.168H66.5943V66.696L63.5223 71.196H66.6903V72H62.2743ZM70.2308 72.144C69.7108 72.144 69.2348 72.024 68.8028 71.784C68.3788 71.536 68.0428 71.188 67.7948 70.74C67.5468 70.284 67.4228 69.732 67.4228 69.084C67.4228 68.452 67.5508 67.908 67.8068 67.452C68.0628 66.996 68.3908 66.644 68.7908 66.396C69.1908 66.148 69.6148 66.024 70.0628 66.024C70.5588 66.024 70.9788 66.14 71.3228 66.372C71.6748 66.596 71.9388 66.912 72.1148 67.32C72.2908 67.728 72.3788 68.208 72.3788 68.76C72.3788 68.864 72.3748 68.964 72.3668 69.06C72.3668 69.156 72.3548 69.252 72.3308 69.348H68.1308V68.568H71.4908C71.4908 68.008 71.3668 67.58 71.1188 67.284C70.8788 66.98 70.5308 66.828 70.0748 66.828C69.8108 66.828 69.5508 66.904 69.2948 67.056C69.0388 67.2 68.8268 67.436 68.6588 67.764C68.4988 68.092 68.4188 68.528 68.4188 69.072C68.4188 69.568 68.5028 69.984 68.6708 70.32C68.8468 70.656 69.0828 70.912 69.3788 71.088C69.6748 71.256 69.9988 71.34 70.3508 71.34C70.6308 71.34 70.8908 71.3 71.1308 71.22C71.3788 71.14 71.6028 71.032 71.8028 70.896L72.1628 71.544C71.9068 71.72 71.6188 71.864 71.2988 71.976C70.9868 72.088 70.6308 72.144 70.2308 72.144Z" fill="#5447E9"/>
<path d="M53.568 152.112C53.072 151.304 52.684 150.46 52.404 149.58C52.124 148.692 51.984 147.72 51.984 146.664C51.984 145.608 52.124 144.636 52.404 143.748C52.684 142.86 53.072 142.016 53.568 141.216L54.18 141.504C53.716 142.264 53.368 143.088 53.136 143.976C52.912 144.856 52.8 145.752 52.8 146.664C52.8 147.576 52.912 148.472 53.136 149.352C53.368 150.232 53.716 151.056 54.18 151.824L53.568 152.112ZM60.886 152.04L60.646 151.464C60.99 151.312 61.258 151.104 61.45 150.84C61.642 150.584 61.734 150.296 61.726 149.976L61.618 149.088L62.11 149.808C62.038 149.88 61.958 149.932 61.87 149.964C61.79 149.996 61.702 150.012 61.606 150.012C61.414 150.012 61.246 149.952 61.102 149.832C60.966 149.712 60.898 149.544 60.898 149.328C60.898 149.112 60.97 148.944 61.114 148.824C61.266 148.696 61.438 148.632 61.63 148.632C61.894 148.632 62.098 148.736 62.242 148.944C62.386 149.144 62.458 149.428 62.458 149.796C62.458 150.308 62.318 150.76 62.038 151.152C61.758 151.544 61.374 151.84 60.886 152.04ZM101.562 152.04L101.322 151.464C101.666 151.312 101.934 151.104 102.126 150.84C102.318 150.584 102.41 150.296 102.402 149.976L102.294 149.088L102.786 149.808C102.714 149.88 102.634 149.932 102.546 149.964C102.466 149.996 102.378 150.012 102.282 150.012C102.09 150.012 101.922 149.952 101.778 149.832C101.642 149.712 101.574 149.544 101.574 149.328C101.574 149.112 101.646 148.944 101.79 148.824C101.942 148.696 102.114 148.632 102.306 148.632C102.57 148.632 102.774 148.736 102.918 148.944C103.062 149.144 103.134 149.428 103.134 149.796C103.134 150.308 102.994 150.76 102.714 151.152C102.434 151.544 102.05 151.84 101.562 152.04ZM112.314 152.112L111.702 151.824C112.166 151.056 112.51 150.232 112.734 149.352C112.966 148.472 113.082 147.576 113.082 146.664C113.082 145.752 112.966 144.856 112.734 143.976C112.51 143.088 112.166 142.264 111.702 141.504L112.314 141.216C112.818 142.016 113.206 142.86 113.478 143.748C113.758 144.636 113.898 145.608 113.898 146.664C113.898 147.72 113.758 148.692 113.478 149.58C113.206 150.46 112.818 151.304 112.314 152.112Z" fill="black"/>
<path d="M54.8008 150L56.7088 146.952L54.9448 144.168H56.0128L56.7928 145.452C56.8808 145.604 56.9728 145.764 57.0688 145.932C57.1728 146.092 57.2728 146.256 57.3688 146.424H57.4168C57.5048 146.256 57.5928 146.092 57.6808 145.932C57.7688 145.764 57.8568 145.604 57.9448 145.452L58.6528 144.168H59.6848L57.9208 147.06L59.8168 150H58.7488L57.8968 148.644C57.7928 148.468 57.6848 148.292 57.5728 148.116C57.4688 147.94 57.3648 147.768 57.2608 147.6H57.2128C57.1088 147.768 57.0088 147.94 56.9128 148.116C56.8168 148.284 56.7208 148.46 56.6248 148.644L55.8328 150H54.8008Z" fill="#FF00E6"/>
<path d="M66.5527 152.508C66.4247 152.508 66.3007 152.496 66.1807 152.472C66.0687 152.448 65.9647 152.42 65.8687 152.388L66.0847 151.62C66.1567 151.644 66.2287 151.66 66.3007 151.668C66.3727 151.684 66.4407 151.692 66.5047 151.692C66.8407 151.692 67.1127 151.572 67.3207 151.332C67.5367 151.1 67.7047 150.804 67.8247 150.444L67.9567 150.012L65.6167 144.168H66.6367L67.8247 147.396C67.9207 147.644 68.0167 147.912 68.1127 148.2C68.2087 148.488 68.3007 148.768 68.3887 149.04H68.4367C68.5247 148.768 68.6087 148.492 68.6887 148.212C68.7767 147.924 68.8567 147.652 68.9287 147.396L69.9727 144.168H70.9327L68.7367 150.48C68.6007 150.864 68.4367 151.208 68.2447 151.512C68.0527 151.824 67.8207 152.068 67.5487 152.244C67.2767 152.42 66.9447 152.508 66.5527 152.508ZM76.0686 148.752V146.412H73.8846V145.668H76.0686V143.328H76.8486V145.668H79.0326V146.412H76.8486V148.752H76.0686ZM84.3518 150.144C83.9278 150.144 83.5238 150.072 83.1398 149.928C82.7638 149.776 82.4438 149.568 82.1798 149.304L82.6357 148.728C82.8918 148.936 83.1558 149.096 83.4277 149.208C83.7078 149.32 84.0278 149.376 84.3878 149.376C84.7718 149.376 85.0598 149.288 85.2518 149.112C85.4438 148.928 85.5398 148.712 85.5398 148.464C85.5398 148.264 85.4718 148.1 85.3358 147.972C85.2078 147.836 85.0438 147.724 84.8438 147.636C84.6518 147.54 84.4438 147.452 84.2198 147.372C83.9318 147.268 83.6558 147.148 83.3918 147.012C83.1278 146.868 82.9118 146.692 82.7438 146.484C82.5838 146.268 82.5038 146 82.5038 145.68C82.5038 145.208 82.6798 144.816 83.0318 144.504C83.3918 144.184 83.8878 144.024 84.5198 144.024C84.8798 144.024 85.2158 144.088 85.5278 144.216C85.8398 144.336 86.1078 144.492 86.3318 144.684L85.8758 145.248C85.6678 145.104 85.4558 144.992 85.2398 144.912C85.0238 144.832 84.7838 144.792 84.5198 144.792C84.1518 144.792 83.8798 144.876 83.7038 145.044C83.5358 145.212 83.4518 145.408 83.4518 145.632C83.4518 145.808 83.5038 145.956 83.6077 146.076C83.7118 146.188 83.8558 146.288 84.0398 146.376C84.2318 146.464 84.4478 146.548 84.6878 146.628C84.9918 146.74 85.2798 146.868 85.5518 147.012C85.8318 147.148 86.0558 147.328 86.2238 147.552C86.3998 147.768 86.4878 148.052 86.4878 148.404C86.4878 148.724 86.4038 149.016 86.2358 149.28C86.0758 149.536 85.8358 149.744 85.5158 149.904C85.2038 150.064 84.8158 150.144 84.3518 150.144ZM87.8551 150V144.168H88.8391V150H87.8551ZM88.3471 142.968C88.1551 142.968 87.9951 142.908 87.8671 142.788C87.7471 142.668 87.6871 142.512 87.6871 142.32C87.6871 142.128 87.7471 141.972 87.8671 141.852C87.9951 141.732 88.1551 141.672 88.3471 141.672C88.5391 141.672 88.6951 141.732 88.8151 141.852C88.9431 141.972 89.0071 142.128 89.0071 142.32C89.0071 142.512 88.9431 142.668 88.8151 142.788C88.6951 142.908 88.5391 142.968 88.3471 142.968ZM90.1962 150V149.472L93.2682 144.972H90.5322V144.168H94.5162V144.696L91.4442 149.196H94.6122V150H90.1962ZM98.1527 150.144C97.6327 150.144 97.1567 150.024 96.7247 149.784C96.3007 149.536 95.9647 149.188 95.7167 148.74C95.4687 148.284 95.3447 147.732 95.3447 147.084C95.3447 146.452 95.4727 145.908 95.7287 145.452C95.9847 144.996 96.3127 144.644 96.7127 144.396C97.1127 144.148 97.5367 144.024 97.9847 144.024C98.4807 144.024 98.9007 144.14 99.2447 144.372C99.5967 144.596 99.8607 144.912 100.037 145.32C100.213 145.728 100.301 146.208 100.301 146.76C100.301 146.864 100.297 146.964 100.289 147.06C100.289 147.156 100.277 147.252 100.253 147.348H96.0527V146.568H99.4127C99.4127 146.008 99.2887 145.58 99.0407 145.284C98.8007 144.98 98.4527 144.828 97.9967 144.828C97.7327 144.828 97.4727 144.904 97.2167 145.056C96.9607 145.2 96.7487 145.436 96.5807 145.764C96.4207 146.092 96.3407 146.528 96.3407 147.072C96.3407 147.568 96.4247 147.984 96.5927 148.32C96.7687 148.656 97.0047 148.912 97.3007 149.088C97.5967 149.256 97.9207 149.34 98.2727 149.34C98.5527 149.34 98.8127 149.3 99.0527 149.22C99.3007 149.14 99.5247 149.032 99.7247 148.896L100.085 149.544C99.8287 149.72 99.5407 149.864 99.2207 149.976C98.9087 150.088 98.5527 150.144 98.1527 150.144Z" fill="#2A5D57"/>
<path d="M106.52 150V149.472L109.592 144.972H106.856V144.168H110.84V144.696L107.768 149.196H110.936V150H106.52Z" fill="#5447E9"/>
<path d="M11.568 196.112C11.072 195.304 10.684 194.46 10.404 193.58C10.124 192.692 9.984 191.72 9.984 190.664C9.984 189.608 10.124 188.636 10.404 187.748C10.684 186.86 11.072 186.016 11.568 185.216L12.18 185.504C11.716 186.264 11.368 187.088 11.136 187.976C10.912 188.856 10.8 189.752 10.8 190.664C10.8 191.576 10.912 192.472 11.136 193.352C11.368 194.232 11.716 195.056 12.18 195.824L11.568 196.112ZM18.886 196.04L18.646 195.464C18.99 195.312 19.258 195.104 19.45 194.84C19.642 194.584 19.734 194.296 19.726 193.976L19.618 193.088L20.11 193.808C20.038 193.88 19.958 193.932 19.87 193.964C19.79 193.996 19.702 194.012 19.606 194.012C19.414 194.012 19.246 193.952 19.102 193.832C18.966 193.712 18.898 193.544 18.898 193.328C18.898 193.112 18.97 192.944 19.114 192.824C19.266 192.696 19.438 192.632 19.63 192.632C19.894 192.632 20.098 192.736 20.242 192.944C20.386 193.144 20.458 193.428 20.458 193.796C20.458 194.308 20.318 194.76 20.038 195.152C19.758 195.544 19.374 195.84 18.886 196.04ZM29.4681 196.04L29.2281 195.464C29.5721 195.312 29.8401 195.104 30.0321 194.84C30.2241 194.584 30.3161 194.296 30.3081 193.976L30.2001 193.088L30.6921 193.808C30.6201 193.88 30.5401 193.932 30.4521 193.964C30.3721 193.996 30.2841 194.012 30.1881 194.012C29.9961 194.012 29.8281 193.952 29.6841 193.832C29.5481 193.712 29.4801 193.544 29.4801 193.328C29.4801 193.112 29.5521 192.944 29.6961 192.824C29.8481 192.696 30.0201 192.632 30.2121 192.632C30.4761 192.632 30.6801 192.736 30.8241 192.944C30.9681 193.144 31.0401 193.428 31.0401 193.796C31.0401 194.308 30.9001 194.76 30.6201 195.152C30.3401 195.544 29.9561 195.84 29.4681 196.04ZM40.2203 196.112L39.6083 195.824C40.0723 195.056 40.4163 194.232 40.6403 193.352C40.8723 192.472 40.9883 191.576 40.9883 190.664C40.9883 189.752 40.8723 188.856 40.6403 187.976C40.4163 187.088 40.0723 186.264 39.6083 185.504L40.2203 185.216C40.7243 186.016 41.1123 186.86 41.3843 187.748C41.6643 188.636 41.8043 189.608 41.8043 190.664C41.8043 191.72 41.6643 192.692 41.3843 193.58C41.1123 194.46 40.7243 195.304 40.2203 196.112Z" fill="black"/>
<path d="M12.8008 194L14.7088 190.952L12.9448 188.168H14.0128L14.7928 189.452C14.8808 189.604 14.9728 189.764 15.0688 189.932C15.1728 190.092 15.2728 190.256 15.3688 190.424H15.4168C15.5048 190.256 15.5928 190.092 15.6808 189.932C15.7688 189.764 15.8568 189.604 15.9448 189.452L16.6528 188.168H17.6848L15.9208 191.06L17.8168 194H16.7488L15.8968 192.644C15.7928 192.468 15.6848 192.292 15.5728 192.116C15.4688 191.94 15.3648 191.768 15.2608 191.6H15.2128C15.1088 191.768 15.0088 191.94 14.9128 192.116C14.8168 192.284 14.7208 192.46 14.6248 192.644L13.8328 194H12.8008Z" fill="#FF00E6"/>
<path d="M24.5527 196.508C24.4247 196.508 24.3007 196.496 24.1807 196.472C24.0687 196.448 23.9647 196.42 23.8687 196.388L24.0847 195.62C24.1567 195.644 24.2287 195.66 24.3007 195.668C24.3727 195.684 24.4407 195.692 24.5047 195.692C24.8407 195.692 25.1127 195.572 25.3207 195.332C25.5367 195.1 25.7047 194.804 25.8247 194.444L25.9567 194.012L23.6167 188.168H24.6367L25.8247 191.396C25.9207 191.644 26.0167 191.912 26.1127 192.2C26.2087 192.488 26.3007 192.768 26.3887 193.04H26.4367C26.5247 192.768 26.6087 192.492 26.6887 192.212C26.7767 191.924 26.8567 191.652 26.9287 191.396L27.9727 188.168H28.9327L26.7367 194.48C26.6007 194.864 26.4367 195.208 26.2447 195.512C26.0527 195.824 25.8207 196.068 25.5487 196.244C25.2767 196.42 24.9447 196.508 24.5527 196.508Z" fill="#2A5D57"/>
<path d="M34.4267 194V193.472L37.4987 188.972H34.7627V188.168H38.7467V188.696L35.6747 193.196H38.8427V194H34.4267Z" fill="#5447E9"/>
<path d="M132.568 193.112C132.072 192.304 131.684 191.46 131.404 190.58C131.124 189.692 130.984 188.72 130.984 187.664C130.984 186.608 131.124 185.636 131.404 184.748C131.684 183.86 132.072 183.016 132.568 182.216L133.18 182.504C132.716 183.264 132.368 184.088 132.136 184.976C131.912 185.856 131.8 186.752 131.8 187.664C131.8 188.576 131.912 189.472 132.136 190.352C132.368 191.232 132.716 192.056 133.18 192.824L132.568 193.112ZM169.476 193.04L169.236 192.464C169.58 192.312 169.848 192.104 170.04 191.84C170.232 191.584 170.324 191.296 170.316 190.976L170.208 190.088L170.7 190.808C170.628 190.88 170.548 190.932 170.46 190.964C170.38 190.996 170.292 191.012 170.196 191.012C170.004 191.012 169.836 190.952 169.692 190.832C169.556 190.712 169.488 190.544 169.488 190.328C169.488 190.112 169.56 189.944 169.704 189.824C169.856 189.696 170.028 189.632 170.22 189.632C170.484 189.632 170.688 189.736 170.832 189.944C170.976 190.144 171.048 190.428 171.048 190.796C171.048 191.308 170.908 191.76 170.628 192.152C170.348 192.544 169.964 192.84 169.476 193.04ZM180.058 193.04L179.818 192.464C180.162 192.312 180.43 192.104 180.622 191.84C180.814 191.584 180.906 191.296 180.898 190.976L180.79 190.088L181.282 190.808C181.21 190.88 181.13 190.932 181.042 190.964C180.962 190.996 180.874 191.012 180.778 191.012C180.586 191.012 180.418 190.952 180.274 190.832C180.138 190.712 180.07 190.544 180.07 190.328C180.07 190.112 180.142 189.944 180.286 189.824C180.438 189.696 180.61 189.632 180.802 189.632C181.066 189.632 181.27 189.736 181.414 189.944C181.558 190.144 181.63 190.428 181.63 190.796C181.63 191.308 181.49 191.76 181.21 192.152C180.93 192.544 180.546 192.84 180.058 193.04ZM190.81 193.112L190.198 192.824C190.662 192.056 191.006 191.232 191.23 190.352C191.462 189.472 191.578 188.576 191.578 187.664C191.578 186.752 191.462 185.856 191.23 184.976C191.006 184.088 190.662 183.264 190.198 182.504L190.81 182.216C191.314 183.016 191.702 183.86 191.974 184.748C192.254 185.636 192.394 186.608 192.394 187.664C192.394 188.72 192.254 189.692 191.974 190.58C191.702 191.46 191.314 192.304 190.81 193.112Z" fill="black"/>
<path d="M133.801 191L135.709 187.952L133.945 185.168H135.013L135.793 186.452C135.881 186.604 135.973 186.764 136.069 186.932C136.173 187.092 136.273 187.256 136.369 187.424H136.417C136.505 187.256 136.593 187.092 136.681 186.932C136.769 186.764 136.857 186.604 136.945 186.452L137.653 185.168H138.685L136.921 188.06L138.817 191H137.749L136.897 189.644C136.793 189.468 136.685 189.292 136.573 189.116C136.469 188.94 136.365 188.768 136.261 188.6H136.213C136.109 188.768 136.009 188.94 135.913 189.116C135.817 189.284 135.721 189.46 135.625 189.644L134.833 191H133.801ZM143.983 189.752V187.412H141.799V186.668H143.983V184.328H144.763V186.668H146.947V187.412H144.763V189.752H143.983ZM152.266 191.144C151.842 191.144 151.438 191.072 151.054 190.928C150.678 190.776 150.358 190.568 150.094 190.304L150.55 189.728C150.806 189.936 151.07 190.096 151.342 190.208C151.622 190.32 151.942 190.376 152.302 190.376C152.686 190.376 152.974 190.288 153.166 190.112C153.358 189.928 153.454 189.712 153.454 189.464C153.454 189.264 153.386 189.1 153.25 188.972C153.122 188.836 152.958 188.724 152.758 188.636C152.566 188.54 152.358 188.452 152.134 188.372C151.846 188.268 151.57 188.148 151.306 188.012C151.042 187.868 150.826 187.692 150.658 187.484C150.498 187.268 150.418 187 150.418 186.68C150.418 186.208 150.594 185.816 150.946 185.504C151.306 185.184 151.802 185.024 152.434 185.024C152.794 185.024 153.13 185.088 153.442 185.216C153.754 185.336 154.022 185.492 154.246 185.684L153.79 186.248C153.582 186.104 153.37 185.992 153.154 185.912C152.938 185.832 152.698 185.792 152.434 185.792C152.066 185.792 151.794 185.876 151.618 186.044C151.45 186.212 151.366 186.408 151.366 186.632C151.366 186.808 151.418 186.956 151.522 187.076C151.626 187.188 151.77 187.288 151.954 187.376C152.146 187.464 152.362 187.548 152.602 187.628C152.906 187.74 153.194 187.868 153.466 188.012C153.746 188.148 153.97 188.328 154.138 188.552C154.314 188.768 154.402 189.052 154.402 189.404C154.402 189.724 154.318 190.016 154.15 190.28C153.99 190.536 153.75 190.744 153.43 190.904C153.118 191.064 152.73 191.144 152.266 191.144ZM155.769 191V185.168H156.753V191H155.769ZM156.261 183.968C156.069 183.968 155.909 183.908 155.781 183.788C155.661 183.668 155.601 183.512 155.601 183.32C155.601 183.128 155.661 182.972 155.781 182.852C155.909 182.732 156.069 182.672 156.261 182.672C156.453 182.672 156.609 182.732 156.729 182.852C156.857 182.972 156.921 183.128 156.921 183.32C156.921 183.512 156.857 183.668 156.729 183.788C156.609 183.908 156.453 183.968 156.261 183.968ZM158.11 191V190.472L161.182 185.972H158.446V185.168H162.43V185.696L159.358 190.196H162.526V191H158.11ZM166.067 191.144C165.547 191.144 165.071 191.024 164.639 190.784C164.215 190.536 163.879 190.188 163.631 189.74C163.383 189.284 163.259 188.732 163.259 188.084C163.259 187.452 163.387 186.908 163.643 186.452C163.899 185.996 164.227 185.644 164.627 185.396C165.027 185.148 165.451 185.024 165.899 185.024C166.395 185.024 166.815 185.14 167.159 185.372C167.511 185.596 167.775 185.912 167.951 186.32C168.127 186.728 168.215 187.208 168.215 187.76C168.215 187.864 168.211 187.964 168.203 188.06C168.203 188.156 168.191 188.252 168.167 188.348H163.967V187.568H167.327C167.327 187.008 167.203 186.58 166.955 186.284C166.715 185.98 166.367 185.828 165.911 185.828C165.647 185.828 165.387 185.904 165.131 186.056C164.875 186.2 164.663 186.436 164.495 186.764C164.335 187.092 164.255 187.528 164.255 188.072C164.255 188.568 164.339 188.984 164.507 189.32C164.683 189.656 164.919 189.912 165.215 190.088C165.511 190.256 165.835 190.34 166.187 190.34C166.467 190.34 166.727 190.3 166.967 190.22C167.215 190.14 167.439 190.032 167.639 189.896L167.999 190.544C167.743 190.72 167.455 190.864 167.135 190.976C166.823 191.088 166.467 191.144 166.067 191.144Z" fill="#FF00E6"/>
<path d="M175.143 193.508C175.015 193.508 174.891 193.496 174.771 193.472C174.659 193.448 174.555 193.42 174.458 193.388L174.675 192.62C174.747 192.644 174.819 192.66 174.891 192.668C174.963 192.684 175.031 192.692 175.095 192.692C175.431 192.692 175.703 192.572 175.911 192.332C176.127 192.1 176.295 191.804 176.415 191.444L176.547 191.012L174.207 185.168H175.227L176.415 188.396C176.511 188.644 176.607 188.912 176.703 189.2C176.799 189.488 176.891 189.768 176.979 190.04H177.027C177.115 189.768 177.199 189.492 177.279 189.212C177.367 188.924 177.447 188.652 177.519 188.396L178.563 185.168H179.523L177.327 191.48C177.191 191.864 177.027 192.208 176.835 192.512C176.643 192.824 176.411 193.068 176.139 193.244C175.867 193.42 175.535 193.508 175.143 193.508Z" fill="#2A5D57"/>
<path d="M185.017 191V190.472L188.089 185.972H185.353V185.168H189.337V185.696L186.265 190.196H189.433V191H185.017Z" fill="#5447E9"/>
<path d="M175.568 144.112C175.072 143.304 174.684 142.46 174.404 141.58C174.124 140.692 173.984 139.72 173.984 138.664C173.984 137.608 174.124 136.636 174.404 135.748C174.684 134.86 175.072 134.016 175.568 133.216L176.18 133.504C175.716 134.264 175.368 135.088 175.136 135.976C174.912 136.856 174.8 137.752 174.8 138.664C174.8 139.576 174.912 140.472 175.136 141.352C175.368 142.232 175.716 143.056 176.18 143.824L175.568 144.112ZM212.476 144.04L212.236 143.464C212.58 143.312 212.848 143.104 213.04 142.84C213.232 142.584 213.324 142.296 213.316 141.976L213.208 141.088L213.7 141.808C213.628 141.88 213.548 141.932 213.46 141.964C213.38 141.996 213.292 142.012 213.196 142.012C213.004 142.012 212.836 141.952 212.692 141.832C212.556 141.712 212.488 141.544 212.488 141.328C212.488 141.112 212.56 140.944 212.704 140.824C212.856 140.696 213.028 140.632 213.22 140.632C213.484 140.632 213.688 140.736 213.832 140.944C213.976 141.144 214.048 141.428 214.048 141.796C214.048 142.308 213.908 142.76 213.628 143.152C213.348 143.544 212.964 143.84 212.476 144.04ZM253.152 144.04L252.912 143.464C253.256 143.312 253.524 143.104 253.716 142.84C253.908 142.584 254 142.296 253.992 141.976L253.884 141.088L254.376 141.808C254.304 141.88 254.224 141.932 254.136 141.964C254.056 141.996 253.968 142.012 253.872 142.012C253.68 142.012 253.512 141.952 253.368 141.832C253.232 141.712 253.164 141.544 253.164 141.328C253.164 141.112 253.236 140.944 253.38 140.824C253.532 140.696 253.704 140.632 253.896 140.632C254.16 140.632 254.364 140.736 254.508 140.944C254.652 141.144 254.724 141.428 254.724 141.796C254.724 142.308 254.584 142.76 254.304 143.152C254.024 143.544 253.64 143.84 253.152 144.04ZM263.904 144.112L263.292 143.824C263.756 143.056 264.1 142.232 264.324 141.352C264.556 140.472 264.672 139.576 264.672 138.664C264.672 137.752 264.556 136.856 264.324 135.976C264.1 135.088 263.756 134.264 263.292 133.504L263.904 133.216C264.408 134.016 264.796 134.86 265.068 135.748C265.348 136.636 265.488 137.608 265.488 138.664C265.488 139.72 265.348 140.692 265.068 141.58C264.796 142.46 264.408 143.304 263.904 144.112Z" fill="black"/>
<path d="M176.801 142L178.709 138.952L176.945 136.168H178.013L178.793 137.452C178.881 137.604 178.973 137.764 179.069 137.932C179.173 138.092 179.273 138.256 179.369 138.424H179.417C179.505 138.256 179.593 138.092 179.681 137.932C179.769 137.764 179.857 137.604 179.945 137.452L180.653 136.168H181.685L179.921 139.06L181.817 142H180.749L179.897 140.644C179.793 140.468 179.685 140.292 179.573 140.116C179.469 139.94 179.365 139.768 179.261 139.6H179.213C179.109 139.768 179.009 139.94 178.913 140.116C178.817 140.284 178.721 140.46 178.625 140.644L177.833 142H176.801ZM186.983 140.752V138.412H184.799V137.668H186.983V135.328H187.763V137.668H189.947V138.412H187.763V140.752H186.983ZM195.266 142.144C194.842 142.144 194.438 142.072 194.054 141.928C193.678 141.776 193.358 141.568 193.094 141.304L193.55 140.728C193.806 140.936 194.07 141.096 194.342 141.208C194.622 141.32 194.942 141.376 195.302 141.376C195.686 141.376 195.974 141.288 196.166 141.112C196.358 140.928 196.454 140.712 196.454 140.464C196.454 140.264 196.386 140.1 196.25 139.972C196.122 139.836 195.958 139.724 195.758 139.636C195.566 139.54 195.358 139.452 195.134 139.372C194.846 139.268 194.57 139.148 194.306 139.012C194.042 138.868 193.826 138.692 193.658 138.484C193.498 138.268 193.418 138 193.418 137.68C193.418 137.208 193.594 136.816 193.946 136.504C194.306 136.184 194.802 136.024 195.434 136.024C195.794 136.024 196.13 136.088 196.442 136.216C196.754 136.336 197.022 136.492 197.246 136.684L196.79 137.248C196.582 137.104 196.37 136.992 196.154 136.912C195.938 136.832 195.698 136.792 195.434 136.792C195.066 136.792 194.794 136.876 194.618 137.044C194.45 137.212 194.366 137.408 194.366 137.632C194.366 137.808 194.418 137.956 194.522 138.076C194.626 138.188 194.77 138.288 194.954 138.376C195.146 138.464 195.362 138.548 195.602 138.628C195.906 138.74 196.194 138.868 196.466 139.012C196.746 139.148 196.97 139.328 197.138 139.552C197.314 139.768 197.402 140.052 197.402 140.404C197.402 140.724 197.318 141.016 197.15 141.28C196.99 141.536 196.75 141.744 196.43 141.904C196.118 142.064 195.73 142.144 195.266 142.144ZM198.769 142V136.168H199.753V142H198.769ZM199.261 134.968C199.069 134.968 198.909 134.908 198.781 134.788C198.661 134.668 198.601 134.512 198.601 134.32C198.601 134.128 198.661 133.972 198.781 133.852C198.909 133.732 199.069 133.672 199.261 133.672C199.453 133.672 199.609 133.732 199.729 133.852C199.857 133.972 199.921 134.128 199.921 134.32C199.921 134.512 199.857 134.668 199.729 134.788C199.609 134.908 199.453 134.968 199.261 134.968ZM201.11 142V141.472L204.182 136.972H201.446V136.168H205.43V136.696L202.358 141.196H205.526V142H201.11ZM209.067 142.144C208.547 142.144 208.071 142.024 207.639 141.784C207.215 141.536 206.879 141.188 206.631 140.74C206.383 140.284 206.259 139.732 206.259 139.084C206.259 138.452 206.387 137.908 206.643 137.452C206.899 136.996 207.227 136.644 207.627 136.396C208.027 136.148 208.451 136.024 208.899 136.024C209.395 136.024 209.815 136.14 210.159 136.372C210.511 136.596 210.775 136.912 210.951 137.32C211.127 137.728 211.215 138.208 211.215 138.76C211.215 138.864 211.211 138.964 211.203 139.06C211.203 139.156 211.191 139.252 211.167 139.348H206.967V138.568H210.327C210.327 138.008 210.203 137.58 209.955 137.284C209.715 136.98 209.367 136.828 208.911 136.828C208.647 136.828 208.387 136.904 208.131 137.056C207.875 137.2 207.663 137.436 207.495 137.764C207.335 138.092 207.255 138.528 207.255 139.072C207.255 139.568 207.339 139.984 207.507 140.32C207.683 140.656 207.919 140.912 208.215 141.088C208.511 141.256 208.835 141.34 209.187 141.34C209.467 141.34 209.727 141.3 209.967 141.22C210.215 141.14 210.439 141.032 210.639 140.896L210.999 141.544C210.743 141.72 210.455 141.864 210.135 141.976C209.823 142.088 209.467 142.144 209.067 142.144Z" fill="#FF00E6"/>
<path d="M218.143 144.508C218.015 144.508 217.891 144.496 217.771 144.472C217.659 144.448 217.555 144.42 217.458 144.388L217.675 143.62C217.747 143.644 217.819 143.66 217.891 143.668C217.963 143.684 218.031 143.692 218.095 143.692C218.431 143.692 218.703 143.572 218.911 143.332C219.127 143.1 219.295 142.804 219.415 142.444L219.547 142.012L217.207 136.168H218.227L219.415 139.396C219.511 139.644 219.607 139.912 219.703 140.2C219.799 140.488 219.891 140.768 219.979 141.04H220.027C220.115 140.768 220.199 140.492 220.279 140.212C220.367 139.924 220.447 139.652 220.519 139.396L221.563 136.168H222.523L220.327 142.48C220.191 142.864 220.027 143.208 219.835 143.512C219.643 143.824 219.411 144.068 219.139 144.244C218.867 144.42 218.535 144.508 218.143 144.508ZM227.658 140.752V138.412H225.474V137.668H227.658V135.328H228.438V137.668H230.622V138.412H228.438V140.752H227.658ZM235.942 142.144C235.518 142.144 235.114 142.072 234.73 141.928C234.354 141.776 234.034 141.568 233.77 141.304L234.226 140.728C234.482 140.936 234.746 141.096 235.018 141.208C235.298 141.32 235.618 141.376 235.978 141.376C236.362 141.376 236.65 141.288 236.842 141.112C237.034 140.928 237.13 140.712 237.13 140.464C237.13 140.264 237.062 140.1 236.926 139.972C236.798 139.836 236.634 139.724 236.434 139.636C236.242 139.54 236.034 139.452 235.81 139.372C235.522 139.268 235.246 139.148 234.982 139.012C234.718 138.868 234.502 138.692 234.334 138.484C234.174 138.268 234.094 138 234.094 137.68C234.094 137.208 234.27 136.816 234.622 136.504C234.982 136.184 235.478 136.024 236.11 136.024C236.47 136.024 236.806 136.088 237.118 136.216C237.43 136.336 237.698 136.492 237.922 136.684L237.466 137.248C237.258 137.104 237.046 136.992 236.83 136.912C236.614 136.832 236.374 136.792 236.11 136.792C235.742 136.792 235.47 136.876 235.294 137.044C235.126 137.212 235.042 137.408 235.042 137.632C235.042 137.808 235.094 137.956 235.198 138.076C235.302 138.188 235.446 138.288 235.63 138.376C235.822 138.464 236.038 138.548 236.278 138.628C236.582 138.74 236.87 138.868 237.142 139.012C237.422 139.148 237.646 139.328 237.814 139.552C237.99 139.768 238.078 140.052 238.078 140.404C238.078 140.724 237.994 141.016 237.826 141.28C237.666 141.536 237.426 141.744 237.106 141.904C236.794 142.064 236.406 142.144 235.942 142.144ZM239.445 142V136.168H240.429V142H239.445ZM239.937 134.968C239.745 134.968 239.585 134.908 239.457 134.788C239.337 134.668 239.277 134.512 239.277 134.32C239.277 134.128 239.337 133.972 239.457 133.852C239.585 133.732 239.745 133.672 239.937 133.672C240.129 133.672 240.285 133.732 240.405 133.852C240.533 133.972 240.597 134.128 240.597 134.32C240.597 134.512 240.533 134.668 240.405 134.788C240.285 134.908 240.129 134.968 239.937 134.968ZM241.786 142V141.472L244.858 136.972H242.122V136.168H246.106V136.696L243.034 141.196H246.202V142H241.786ZM249.743 142.144C249.223 142.144 248.747 142.024 248.315 141.784C247.891 141.536 247.555 141.188 247.307 140.74C247.059 140.284 246.935 139.732 246.935 139.084C246.935 138.452 247.063 137.908 247.319 137.452C247.575 136.996 247.903 136.644 248.303 136.396C248.703 136.148 249.127 136.024 249.575 136.024C250.071 136.024 250.491 136.14 250.835 136.372C251.187 136.596 251.451 136.912 251.627 137.32C251.803 137.728 251.891 138.208 251.891 138.76C251.891 138.864 251.887 138.964 251.879 139.06C251.879 139.156 251.867 139.252 251.843 139.348H247.643V138.568H251.003C251.003 138.008 250.879 137.58 250.631 137.284C250.391 136.98 250.043 136.828 249.587 136.828C249.323 136.828 249.063 136.904 248.807 137.056C248.551 137.2 248.339 137.436 248.171 137.764C248.011 138.092 247.931 138.528 247.931 139.072C247.931 139.568 248.015 139.984 248.183 140.32C248.359 140.656 248.595 140.912 248.891 141.088C249.187 141.256 249.511 141.34 249.863 141.34C250.143 141.34 250.403 141.3 250.643 141.22C250.891 141.14 251.115 141.032 251.315 140.896L251.675 141.544C251.419 141.72 251.131 141.864 250.811 141.976C250.499 142.088 250.143 142.144 249.743 142.144Z" fill="#2A5D57"/>
<path d="M258.11 142V141.472L261.182 136.972H258.446V136.168H262.43V136.696L259.358 141.196H262.526V142H258.11Z" fill="#5447E9"/>
<path d="M174.568 28.112C174.072 27.304 173.684 26.46 173.404 25.58C173.124 24.692 172.984 23.72 172.984 22.664C172.984 21.608 173.124 20.636 173.404 19.748C173.684 18.86 174.072 18.016 174.568 17.216L175.18 17.504C174.716 18.264 174.368 19.088 174.136 19.976C173.912 20.856 173.8 21.752 173.8 22.664C173.8 23.576 173.912 24.472 174.136 25.352C174.368 26.232 174.716 27.056 175.18 27.824L174.568 28.112ZM211.476 28.04L211.236 27.464C211.58 27.312 211.848 27.104 212.04 26.84C212.232 26.584 212.324 26.296 212.316 25.976L212.208 25.088L212.7 25.808C212.628 25.88 212.548 25.932 212.46 25.964C212.38 25.996 212.292 26.012 212.196 26.012C212.004 26.012 211.836 25.952 211.692 25.832C211.556 25.712 211.488 25.544 211.488 25.328C211.488 25.112 211.56 24.944 211.704 24.824C211.856 24.696 212.028 24.632 212.22 24.632C212.484 24.632 212.688 24.736 212.832 24.944C212.976 25.144 213.048 25.428 213.048 25.796C213.048 26.308 212.908 26.76 212.628 27.152C212.348 27.544 211.964 27.84 211.476 28.04ZM252.152 28.04L251.912 27.464C252.256 27.312 252.524 27.104 252.716 26.84C252.908 26.584 253 26.296 252.992 25.976L252.884 25.088L253.376 25.808C253.304 25.88 253.224 25.932 253.136 25.964C253.056 25.996 252.968 26.012 252.872 26.012C252.68 26.012 252.512 25.952 252.368 25.832C252.232 25.712 252.164 25.544 252.164 25.328C252.164 25.112 252.236 24.944 252.38 24.824C252.532 24.696 252.704 24.632 252.896 24.632C253.16 24.632 253.364 24.736 253.508 24.944C253.652 25.144 253.724 25.428 253.724 25.796C253.724 26.308 253.584 26.76 253.304 27.152C253.024 27.544 252.64 27.84 252.152 28.04ZM292.588 28.112L291.976 27.824C292.44 27.056 292.784 26.232 293.008 25.352C293.24 24.472 293.356 23.576 293.356 22.664C293.356 21.752 293.24 20.856 293.008 19.976C292.784 19.088 292.44 18.264 291.976 17.504L292.588 17.216C293.092 18.016 293.48 18.86 293.752 19.748C294.032 20.636 294.172 21.608 294.172 22.664C294.172 23.72 294.032 24.692 293.752 25.58C293.48 26.46 293.092 27.304 292.588 28.112Z" fill="black"/>
<path d="M175.801 26L177.709 22.952L175.945 20.168H177.013L177.793 21.452C177.881 21.604 177.973 21.764 178.069 21.932C178.173 22.092 178.273 22.256 178.369 22.424H178.417C178.505 22.256 178.593 22.092 178.681 21.932C178.769 21.764 178.857 21.604 178.945 21.452L179.653 20.168H180.685L178.921 23.06L180.817 26H179.749L178.897 24.644C178.793 24.468 178.685 24.292 178.573 24.116C178.469 23.94 178.365 23.768 178.261 23.6H178.213C178.109 23.768 178.009 23.94 177.913 24.116C177.817 24.284 177.721 24.46 177.625 24.644L176.833 26H175.801ZM185.983 24.752V22.412H183.799V21.668H185.983V19.328H186.763V21.668H188.947V22.412H186.763V24.752H185.983ZM194.266 26.144C193.842 26.144 193.438 26.072 193.054 25.928C192.678 25.776 192.358 25.568 192.094 25.304L192.55 24.728C192.806 24.936 193.07 25.096 193.342 25.208C193.622 25.32 193.942 25.376 194.302 25.376C194.686 25.376 194.974 25.288 195.166 25.112C195.358 24.928 195.454 24.712 195.454 24.464C195.454 24.264 195.386 24.1 195.25 23.972C195.122 23.836 194.958 23.724 194.758 23.636C194.566 23.54 194.358 23.452 194.134 23.372C193.846 23.268 193.57 23.148 193.306 23.012C193.042 22.868 192.826 22.692 192.658 22.484C192.498 22.268 192.418 22 192.418 21.68C192.418 21.208 192.594 20.816 192.946 20.504C193.306 20.184 193.802 20.024 194.434 20.024C194.794 20.024 195.13 20.088 195.442 20.216C195.754 20.336 196.022 20.492 196.246 20.684L195.79 21.248C195.582 21.104 195.37 20.992 195.154 20.912C194.938 20.832 194.698 20.792 194.434 20.792C194.066 20.792 193.794 20.876 193.618 21.044C193.45 21.212 193.366 21.408 193.366 21.632C193.366 21.808 193.418 21.956 193.522 22.076C193.626 22.188 193.77 22.288 193.954 22.376C194.146 22.464 194.362 22.548 194.602 22.628C194.906 22.74 195.194 22.868 195.466 23.012C195.746 23.148 195.97 23.328 196.138 23.552C196.314 23.768 196.402 24.052 196.402 24.404C196.402 24.724 196.318 25.016 196.15 25.28C195.99 25.536 195.75 25.744 195.43 25.904C195.118 26.064 194.73 26.144 194.266 26.144ZM197.769 26V20.168H198.753V26H197.769ZM198.261 18.968C198.069 18.968 197.909 18.908 197.781 18.788C197.661 18.668 197.601 18.512 197.601 18.32C197.601 18.128 197.661 17.972 197.781 17.852C197.909 17.732 198.069 17.672 198.261 17.672C198.453 17.672 198.609 17.732 198.729 17.852C198.857 17.972 198.921 18.128 198.921 18.32C198.921 18.512 198.857 18.668 198.729 18.788C198.609 18.908 198.453 18.968 198.261 18.968ZM200.11 26V25.472L203.182 20.972H200.446V20.168H204.43V20.696L201.358 25.196H204.526V26H200.11ZM208.067 26.144C207.547 26.144 207.071 26.024 206.639 25.784C206.215 25.536 205.879 25.188 205.631 24.74C205.383 24.284 205.259 23.732 205.259 23.084C205.259 22.452 205.387 21.908 205.643 21.452C205.899 20.996 206.227 20.644 206.627 20.396C207.027 20.148 207.451 20.024 207.899 20.024C208.395 20.024 208.815 20.14 209.159 20.372C209.511 20.596 209.775 20.912 209.951 21.32C210.127 21.728 210.215 22.208 210.215 22.76C210.215 22.864 210.211 22.964 210.203 23.06C210.203 23.156 210.191 23.252 210.167 23.348H205.967V22.568H209.327C209.327 22.008 209.203 21.58 208.955 21.284C208.715 20.98 208.367 20.828 207.911 20.828C207.647 20.828 207.387 20.904 207.131 21.056C206.875 21.2 206.663 21.436 206.495 21.764C206.335 22.092 206.255 22.528 206.255 23.072C206.255 23.568 206.339 23.984 206.507 24.32C206.683 24.656 206.919 24.912 207.215 25.088C207.511 25.256 207.835 25.34 208.187 25.34C208.467 25.34 208.727 25.3 208.967 25.22C209.215 25.14 209.439 25.032 209.639 24.896L209.999 25.544C209.743 25.72 209.455 25.864 209.135 25.976C208.823 26.088 208.467 26.144 208.067 26.144Z" fill="#FF00E6"/>
<path d="M217.143 28.508C217.015 28.508 216.891 28.496 216.771 28.472C216.659 28.448 216.555 28.42 216.458 28.388L216.675 27.62C216.747 27.644 216.819 27.66 216.891 27.668C216.963 27.684 217.031 27.692 217.095 27.692C217.431 27.692 217.703 27.572 217.911 27.332C218.127 27.1 218.295 26.804 218.415 26.444L218.547 26.012L216.207 20.168H217.227L218.415 23.396C218.511 23.644 218.607 23.912 218.703 24.2C218.799 24.488 218.891 24.768 218.979 25.04H219.027C219.115 24.768 219.199 24.492 219.279 24.212C219.367 23.924 219.447 23.652 219.519 23.396L220.563 20.168H221.523L219.327 26.48C219.191 26.864 219.027 27.208 218.835 27.512C218.643 27.824 218.411 28.068 218.139 28.244C217.867 28.42 217.535 28.508 217.143 28.508ZM226.658 24.752V22.412H224.474V21.668H226.658V19.328H227.438V21.668H229.622V22.412H227.438V24.752H226.658ZM234.942 26.144C234.518 26.144 234.114 26.072 233.73 25.928C233.354 25.776 233.034 25.568 232.77 25.304L233.226 24.728C233.482 24.936 233.746 25.096 234.018 25.208C234.298 25.32 234.618 25.376 234.978 25.376C235.362 25.376 235.65 25.288 235.842 25.112C236.034 24.928 236.13 24.712 236.13 24.464C236.13 24.264 236.062 24.1 235.926 23.972C235.798 23.836 235.634 23.724 235.434 23.636C235.242 23.54 235.034 23.452 234.81 23.372C234.522 23.268 234.246 23.148 233.982 23.012C233.718 22.868 233.502 22.692 233.334 22.484C233.174 22.268 233.094 22 233.094 21.68C233.094 21.208 233.27 20.816 233.622 20.504C233.982 20.184 234.478 20.024 235.11 20.024C235.47 20.024 235.806 20.088 236.118 20.216C236.43 20.336 236.698 20.492 236.922 20.684L236.466 21.248C236.258 21.104 236.046 20.992 235.83 20.912C235.614 20.832 235.374 20.792 235.11 20.792C234.742 20.792 234.47 20.876 234.294 21.044C234.126 21.212 234.042 21.408 234.042 21.632C234.042 21.808 234.094 21.956 234.198 22.076C234.302 22.188 234.446 22.288 234.63 22.376C234.822 22.464 235.038 22.548 235.278 22.628C235.582 22.74 235.87 22.868 236.142 23.012C236.422 23.148 236.646 23.328 236.814 23.552C236.99 23.768 237.078 24.052 237.078 24.404C237.078 24.724 236.994 25.016 236.826 25.28C236.666 25.536 236.426 25.744 236.106 25.904C235.794 26.064 235.406 26.144 234.942 26.144ZM238.445 26V20.168H239.429V26H238.445ZM238.937 18.968C238.745 18.968 238.585 18.908 238.457 18.788C238.337 18.668 238.277 18.512 238.277 18.32C238.277 18.128 238.337 17.972 238.457 17.852C238.585 17.732 238.745 17.672 238.937 17.672C239.129 17.672 239.285 17.732 239.405 17.852C239.533 17.972 239.597 18.128 239.597 18.32C239.597 18.512 239.533 18.668 239.405 18.788C239.285 18.908 239.129 18.968 238.937 18.968ZM240.786 26V25.472L243.858 20.972H241.122V20.168H245.106V20.696L242.034 25.196H245.202V26H240.786ZM248.743 26.144C248.223 26.144 247.747 26.024 247.315 25.784C246.891 25.536 246.555 25.188 246.307 24.74C246.059 24.284 245.935 23.732 245.935 23.084C245.935 22.452 246.063 21.908 246.319 21.452C246.575 20.996 246.903 20.644 247.303 20.396C247.703 20.148 248.127 20.024 248.575 20.024C249.071 20.024 249.491 20.14 249.835 20.372C250.187 20.596 250.451 20.912 250.627 21.32C250.803 21.728 250.891 22.208 250.891 22.76C250.891 22.864 250.887 22.964 250.879 23.06C250.879 23.156 250.867 23.252 250.843 23.348H246.643V22.568H250.003C250.003 22.008 249.879 21.58 249.631 21.284C249.391 20.98 249.043 20.828 248.587 20.828C248.323 20.828 248.063 20.904 247.807 21.056C247.551 21.2 247.339 21.436 247.171 21.764C247.011 22.092 246.931 22.528 246.931 23.072C246.931 23.568 247.015 23.984 247.183 24.32C247.359 24.656 247.595 24.912 247.891 25.088C248.187 25.256 248.511 25.34 248.863 25.34C249.143 25.34 249.403 25.3 249.643 25.22C249.891 25.14 250.115 25.032 250.315 24.896L250.675 25.544C250.419 25.72 250.131 25.864 249.811 25.976C249.499 26.088 249.143 26.144 248.743 26.144Z" fill="#2A5D57"/>
<path d="M257.11 26V25.472L260.182 20.972H257.446V20.168H261.43V20.696L258.358 25.196H261.526V26H257.11ZM266.83 24.752V22.412H264.646V21.668H266.83V19.328H267.61V21.668H269.794V22.412H267.61V24.752H266.83ZM275.113 26.144C274.689 26.144 274.285 26.072 273.901 25.928C273.525 25.776 273.205 25.568 272.941 25.304L273.397 24.728C273.653 24.936 273.917 25.096 274.189 25.208C274.469 25.32 274.789 25.376 275.149 25.376C275.533 25.376 275.821 25.288 276.013 25.112C276.205 24.928 276.301 24.712 276.301 24.464C276.301 24.264 276.233 24.1 276.097 23.972C275.969 23.836 275.805 23.724 275.605 23.636C275.413 23.54 275.205 23.452 274.981 23.372C274.693 23.268 274.417 23.148 274.153 23.012C273.889 22.868 273.673 22.692 273.505 22.484C273.345 22.268 273.265 22 273.265 21.68C273.265 21.208 273.441 20.816 273.793 20.504C274.153 20.184 274.649 20.024 275.281 20.024C275.641 20.024 275.977 20.088 276.289 20.216C276.601 20.336 276.869 20.492 277.093 20.684L276.637 21.248C276.429 21.104 276.217 20.992 276.001 20.912C275.785 20.832 275.545 20.792 275.281 20.792C274.913 20.792 274.641 20.876 274.465 21.044C274.297 21.212 274.213 21.408 274.213 21.632C274.213 21.808 274.265 21.956 274.369 22.076C274.473 22.188 274.617 22.288 274.801 22.376C274.993 22.464 275.209 22.548 275.449 22.628C275.753 22.74 276.041 22.868 276.313 23.012C276.593 23.148 276.817 23.328 276.985 23.552C277.161 23.768 277.249 24.052 277.249 24.404C277.249 24.724 277.165 25.016 276.997 25.28C276.837 25.536 276.597 25.744 276.277 25.904C275.965 26.064 275.577 26.144 275.113 26.144ZM278.617 26V20.168H279.601V26H278.617ZM279.109 18.968C278.917 18.968 278.757 18.908 278.629 18.788C278.509 18.668 278.449 18.512 278.449 18.32C278.449 18.128 278.509 17.972 278.629 17.852C278.757 17.732 278.917 17.672 279.109 17.672C279.301 17.672 279.457 17.732 279.577 17.852C279.705 17.972 279.769 18.128 279.769 18.32C279.769 18.512 279.705 18.668 279.577 18.788C279.457 18.908 279.301 18.968 279.109 18.968ZM280.958 26V25.472L284.03 20.972H281.294V20.168H285.278V20.696L282.206 25.196H285.374V26H280.958ZM288.914 26.144C288.394 26.144 287.918 26.024 287.486 25.784C287.062 25.536 286.726 25.188 286.478 24.74C286.23 24.284 286.106 23.732 286.106 23.084C286.106 22.452 286.234 21.908 286.49 21.452C286.746 20.996 287.074 20.644 287.474 20.396C287.874 20.148 288.298 20.024 288.746 20.024C289.242 20.024 289.662 20.14 290.006 20.372C290.358 20.596 290.622 20.912 290.798 21.32C290.974 21.728 291.062 22.208 291.062 22.76C291.062 22.864 291.058 22.964 291.05 23.06C291.05 23.156 291.038 23.252 291.014 23.348H286.814V22.568H290.174C290.174 22.008 290.05 21.58 289.802 21.284C289.562 20.98 289.214 20.828 288.758 20.828C288.494 20.828 288.234 20.904 287.978 21.056C287.722 21.2 287.51 21.436 287.342 21.764C287.182 22.092 287.102 22.528 287.102 23.072C287.102 23.568 287.186 23.984 287.354 24.32C287.53 24.656 287.766 24.912 288.062 25.088C288.358 25.256 288.682 25.34 289.034 25.34C289.314 25.34 289.574 25.3 289.814 25.22C290.062 25.14 290.286 25.032 290.486 24.896L290.846 25.544C290.59 25.72 290.302 25.864 289.982 25.976C289.67 26.088 289.314 26.144 288.914 26.144Z" fill="#5447E9"/>
<path d="M134.568 69.112C134.072 68.304 133.684 67.46 133.404 66.58C133.124 65.692 132.984 64.72 132.984 63.664C132.984 62.608 133.124 61.636 133.404 60.748C133.684 59.86 134.072 59.016 134.568 58.216L135.18 58.504C134.716 59.264 134.368 60.088 134.136 60.976C133.912 61.856 133.8 62.752 133.8 63.664C133.8 64.576 133.912 65.472 134.136 66.352C134.368 67.232 134.716 68.056 135.18 68.824L134.568 69.112ZM171.476 69.04L171.236 68.464C171.58 68.312 171.848 68.104 172.04 67.84C172.232 67.584 172.324 67.296 172.316 66.976L172.208 66.088L172.7 66.808C172.628 66.88 172.548 66.932 172.46 66.964C172.38 66.996 172.292 67.012 172.196 67.012C172.004 67.012 171.836 66.952 171.692 66.832C171.556 66.712 171.488 66.544 171.488 66.328C171.488 66.112 171.56 65.944 171.704 65.824C171.856 65.696 172.028 65.632 172.22 65.632C172.484 65.632 172.688 65.736 172.832 65.944C172.976 66.144 173.048 66.428 173.048 66.796C173.048 67.308 172.908 67.76 172.628 68.152C172.348 68.544 171.964 68.84 171.476 69.04ZM182.058 69.04L181.818 68.464C182.162 68.312 182.43 68.104 182.622 67.84C182.814 67.584 182.906 67.296 182.898 66.976L182.79 66.088L183.282 66.808C183.21 66.88 183.13 66.932 183.042 66.964C182.962 66.996 182.874 67.012 182.778 67.012C182.586 67.012 182.418 66.952 182.274 66.832C182.138 66.712 182.07 66.544 182.07 66.328C182.07 66.112 182.142 65.944 182.286 65.824C182.438 65.696 182.61 65.632 182.802 65.632C183.066 65.632 183.27 65.736 183.414 65.944C183.558 66.144 183.63 66.428 183.63 66.796C183.63 67.308 183.49 67.76 183.21 68.152C182.93 68.544 182.546 68.84 182.058 69.04ZM222.494 69.112L221.882 68.824C222.346 68.056 222.69 67.232 222.914 66.352C223.146 65.472 223.262 64.576 223.262 63.664C223.262 62.752 223.146 61.856 222.914 60.976C222.69 60.088 222.346 59.264 221.882 58.504L222.494 58.216C222.998 59.016 223.386 59.86 223.658 60.748C223.938 61.636 224.078 62.608 224.078 63.664C224.078 64.72 223.938 65.692 223.658 66.58C223.386 67.46 222.998 68.304 222.494 69.112Z" fill="black"/>
<path d="M135.801 67L137.709 63.952L135.945 61.168H137.013L137.793 62.452C137.881 62.604 137.973 62.764 138.069 62.932C138.173 63.092 138.273 63.256 138.369 63.424H138.417C138.505 63.256 138.593 63.092 138.681 62.932C138.769 62.764 138.857 62.604 138.945 62.452L139.653 61.168H140.685L138.921 64.06L140.817 67H139.749L138.897 65.644C138.793 65.468 138.685 65.292 138.573 65.116C138.469 64.94 138.365 64.768 138.261 64.6H138.213C138.109 64.768 138.009 64.94 137.913 65.116C137.817 65.284 137.721 65.46 137.625 65.644L136.833 67H135.801ZM145.983 65.752V63.412H143.799V62.668H145.983V60.328H146.763V62.668H148.947V63.412H146.763V65.752H145.983ZM154.266 67.144C153.842 67.144 153.438 67.072 153.054 66.928C152.678 66.776 152.358 66.568 152.094 66.304L152.55 65.728C152.806 65.936 153.07 66.096 153.342 66.208C153.622 66.32 153.942 66.376 154.302 66.376C154.686 66.376 154.974 66.288 155.166 66.112C155.358 65.928 155.454 65.712 155.454 65.464C155.454 65.264 155.386 65.1 155.25 64.972C155.122 64.836 154.958 64.724 154.758 64.636C154.566 64.54 154.358 64.452 154.134 64.372C153.846 64.268 153.57 64.148 153.306 64.012C153.042 63.868 152.826 63.692 152.658 63.484C152.498 63.268 152.418 63 152.418 62.68C152.418 62.208 152.594 61.816 152.946 61.504C153.306 61.184 153.802 61.024 154.434 61.024C154.794 61.024 155.13 61.088 155.442 61.216C155.754 61.336 156.022 61.492 156.246 61.684L155.79 62.248C155.582 62.104 155.37 61.992 155.154 61.912C154.938 61.832 154.698 61.792 154.434 61.792C154.066 61.792 153.794 61.876 153.618 62.044C153.45 62.212 153.366 62.408 153.366 62.632C153.366 62.808 153.418 62.956 153.522 63.076C153.626 63.188 153.77 63.288 153.954 63.376C154.146 63.464 154.362 63.548 154.602 63.628C154.906 63.74 155.194 63.868 155.466 64.012C155.746 64.148 155.97 64.328 156.138 64.552C156.314 64.768 156.402 65.052 156.402 65.404C156.402 65.724 156.318 66.016 156.15 66.28C155.99 66.536 155.75 66.744 155.43 66.904C155.118 67.064 154.73 67.144 154.266 67.144ZM157.769 67V61.168H158.753V67H157.769ZM158.261 59.968C158.069 59.968 157.909 59.908 157.781 59.788C157.661 59.668 157.601 59.512 157.601 59.32C157.601 59.128 157.661 58.972 157.781 58.852C157.909 58.732 158.069 58.672 158.261 58.672C158.453 58.672 158.609 58.732 158.729 58.852C158.857 58.972 158.921 59.128 158.921 59.32C158.921 59.512 158.857 59.668 158.729 59.788C158.609 59.908 158.453 59.968 158.261 59.968ZM160.11 67V66.472L163.182 61.972H160.446V61.168H164.43V61.696L161.358 66.196H164.526V67H160.11ZM168.067 67.144C167.547 67.144 167.071 67.024 166.639 66.784C166.215 66.536 165.879 66.188 165.631 65.74C165.383 65.284 165.259 64.732 165.259 64.084C165.259 63.452 165.387 62.908 165.643 62.452C165.899 61.996 166.227 61.644 166.627 61.396C167.027 61.148 167.451 61.024 167.899 61.024C168.395 61.024 168.815 61.14 169.159 61.372C169.511 61.596 169.775 61.912 169.951 62.32C170.127 62.728 170.215 63.208 170.215 63.76C170.215 63.864 170.211 63.964 170.203 64.06C170.203 64.156 170.191 64.252 170.167 64.348H165.967V63.568H169.327C169.327 63.008 169.203 62.58 168.955 62.284C168.715 61.98 168.367 61.828 167.911 61.828C167.647 61.828 167.387 61.904 167.131 62.056C166.875 62.2 166.663 62.436 166.495 62.764C166.335 63.092 166.255 63.528 166.255 64.072C166.255 64.568 166.339 64.984 166.507 65.32C166.683 65.656 166.919 65.912 167.215 66.088C167.511 66.256 167.835 66.34 168.187 66.34C168.467 66.34 168.727 66.3 168.967 66.22C169.215 66.14 169.439 66.032 169.639 65.896L169.999 66.544C169.743 66.72 169.455 66.864 169.135 66.976C168.823 67.088 168.467 67.144 168.067 67.144Z" fill="#FF00E6"/>
<path d="M177.143 69.508C177.015 69.508 176.891 69.496 176.771 69.472C176.659 69.448 176.555 69.42 176.458 69.388L176.675 68.62C176.747 68.644 176.819 68.66 176.891 68.668C176.963 68.684 177.031 68.692 177.095 68.692C177.431 68.692 177.703 68.572 177.911 68.332C178.127 68.1 178.295 67.804 178.415 67.444L178.547 67.012L176.207 61.168H177.227L178.415 64.396C178.511 64.644 178.607 64.912 178.703 65.2C178.799 65.488 178.891 65.768 178.979 66.04H179.027C179.115 65.768 179.199 65.492 179.279 65.212C179.367 64.924 179.447 64.652 179.519 64.396L180.563 61.168H181.523L179.327 67.48C179.191 67.864 179.027 68.208 178.835 68.512C178.643 68.824 178.411 69.068 178.139 69.244C177.867 69.42 177.535 69.508 177.143 69.508Z" fill="#2A5D57"/>
<path d="M187.017 67V66.472L190.089 61.972H187.353V61.168H191.337V61.696L188.265 66.196H191.433V67H187.017ZM196.737 65.752V63.412H194.553V62.668H196.737V60.328H197.517V62.668H199.701V63.412H197.517V65.752H196.737ZM205.02 67.144C204.596 67.144 204.192 67.072 203.808 66.928C203.432 66.776 203.112 66.568 202.848 66.304L203.304 65.728C203.56 65.936 203.824 66.096 204.096 66.208C204.376 66.32 204.696 66.376 205.056 66.376C205.44 66.376 205.728 66.288 205.92 66.112C206.112 65.928 206.208 65.712 206.208 65.464C206.208 65.264 206.14 65.1 206.004 64.972C205.876 64.836 205.712 64.724 205.512 64.636C205.32 64.54 205.112 64.452 204.888 64.372C204.6 64.268 204.324 64.148 204.06 64.012C203.796 63.868 203.58 63.692 203.412 63.484C203.252 63.268 203.172 63 203.172 62.68C203.172 62.208 203.348 61.816 203.7 61.504C204.06 61.184 204.556 61.024 205.188 61.024C205.548 61.024 205.884 61.088 206.196 61.216C206.508 61.336 206.776 61.492 207 61.684L206.544 62.248C206.336 62.104 206.124 61.992 205.908 61.912C205.692 61.832 205.452 61.792 205.188 61.792C204.82 61.792 204.548 61.876 204.372 62.044C204.204 62.212 204.12 62.408 204.12 62.632C204.12 62.808 204.172 62.956 204.276 63.076C204.38 63.188 204.524 63.288 204.708 63.376C204.9 63.464 205.116 63.548 205.356 63.628C205.66 63.74 205.948 63.868 206.22 64.012C206.5 64.148 206.724 64.328 206.892 64.552C207.068 64.768 207.156 65.052 207.156 65.404C207.156 65.724 207.072 66.016 206.904 66.28C206.744 66.536 206.504 66.744 206.184 66.904C205.872 67.064 205.484 67.144 205.02 67.144ZM208.523 67V61.168H209.507V67H208.523ZM209.015 59.968C208.823 59.968 208.663 59.908 208.535 59.788C208.415 59.668 208.355 59.512 208.355 59.32C208.355 59.128 208.415 58.972 208.535 58.852C208.663 58.732 208.823 58.672 209.015 58.672C209.207 58.672 209.363 58.732 209.483 58.852C209.611 58.972 209.675 59.128 209.675 59.32C209.675 59.512 209.611 59.668 209.483 59.788C209.363 59.908 209.207 59.968 209.015 59.968ZM210.864 67V66.472L213.936 61.972H211.2V61.168H215.184V61.696L212.112 66.196H215.28V67H210.864ZM218.821 67.144C218.301 67.144 217.825 67.024 217.393 66.784C216.969 66.536 216.633 66.188 216.385 65.74C216.137 65.284 216.013 64.732 216.013 64.084C216.013 63.452 216.141 62.908 216.397 62.452C216.653 61.996 216.981 61.644 217.381 61.396C217.781 61.148 218.205 61.024 218.653 61.024C219.149 61.024 219.569 61.14 219.913 61.372C220.265 61.596 220.529 61.912 220.705 62.32C220.881 62.728 220.969 63.208 220.969 63.76C220.969 63.864 220.965 63.964 220.957 64.06C220.957 64.156 220.945 64.252 220.921 64.348H216.721V63.568H220.081C220.081 63.008 219.957 62.58 219.709 62.284C219.469 61.98 219.121 61.828 218.665 61.828C218.401 61.828 218.141 61.904 217.885 62.056C217.629 62.2 217.417 62.436 217.249 62.764C217.089 63.092 217.009 63.528 217.009 64.072C217.009 64.568 217.093 64.984 217.261 65.32C217.437 65.656 217.673 65.912 217.969 66.088C218.265 66.256 218.589 66.34 218.941 66.34C219.221 66.34 219.481 66.3 219.721 66.22C219.969 66.14 220.193 66.032 220.393 65.896L220.753 66.544C220.497 66.72 220.209 66.864 219.889 66.976C219.577 67.088 219.221 67.144 218.821 67.144Z" fill="#5447E9"/>
<path d="M51.5 139C51.5 138.724 51.2761 138.5 51 138.5L46.5 138.5C46.2239 138.5 46 138.724 46 139C46 139.276 46.2239 139.5 46.5 139.5H50.5V143.5C50.5 143.776 50.7239 144 51 144C51.2761 144 51.5 143.776 51.5 143.5L51.5 139ZM11.3536 179.354L51.3536 139.354L50.6464 138.646L10.6464 178.646L11.3536 179.354Z" fill="black"/>
<path d="M156.354 179.354C156.549 179.158 156.549 178.842 156.354 178.646L153.172 175.464C152.976 175.269 152.66 175.269 152.464 175.464C152.269 175.66 152.269 175.976 152.464 176.172L155.293 179L152.464 181.828C152.269 182.024 152.269 182.34 152.464 182.536C152.66 182.731 152.976 182.731 153.172 182.536L156.354 179.354ZM11 179.5L156 179.5V178.5L11 178.5V179.5Z" fill="black"/>
<path d="M11.3536 60.6464C11.1583 60.4512 10.8417 60.4512 10.6464 60.6464L7.46447 63.8284C7.2692 64.0237 7.2692 64.3403 7.46447 64.5355C7.65973 64.7308 7.97631 64.7308 8.17157 64.5355L11 61.7071L13.8284 64.5355C14.0237 64.7308 14.3403 64.7308 14.5355 64.5355C14.7308 64.3403 14.7308 64.0237 14.5355 63.8284L11.3536 60.6464ZM11.5 179L11.5 61H10.5L10.5 179H11.5Z" fill="black"/>
<path d="M158.168 182L160.076 178.952L158.312 176.168H159.38L160.16 177.452C160.248 177.604 160.34 177.764 160.436 177.932C160.54 178.092 160.64 178.256 160.736 178.424H160.784C160.872 178.256 160.96 178.092 161.048 177.932C161.136 177.764 161.224 177.604 161.312 177.452L162.02 176.168H163.052L161.288 179.06L163.184 182H162.116L161.264 180.644C161.16 180.468 161.052 180.292 160.94 180.116C160.836 179.94 160.732 179.768 160.628 179.6H160.58C160.476 179.768 160.376 179.94 160.28 180.116C160.184 180.284 160.088 180.46 159.992 180.644L159.2 182H158.168Z" fill="black"/>
<path d="M38.08 146.508C37.952 146.508 37.828 146.496 37.708 146.472C37.596 146.448 37.492 146.42 37.396 146.388L37.612 145.62C37.684 145.644 37.756 145.66 37.828 145.668C37.9 145.684 37.968 145.692 38.032 145.692C38.368 145.692 38.64 145.572 38.848 145.332C39.064 145.1 39.232 144.804 39.352 144.444L39.484 144.012L37.144 138.168H38.164L39.352 141.396C39.448 141.644 39.544 141.912 39.64 142.2C39.736 142.488 39.828 142.768 39.916 143.04H39.964C40.052 142.768 40.136 142.492 40.216 142.212C40.304 141.924 40.384 141.652 40.456 141.396L41.5 138.168H42.46L40.264 144.48C40.128 144.864 39.964 145.208 39.772 145.512C39.58 145.824 39.348 146.068 39.076 146.244C38.804 146.42 38.472 146.508 38.08 146.508Z" fill="black"/>
<path d="M0.372 67V66.472L3.444 61.972H0.708V61.168H4.692V61.696L1.62 66.196H4.788V67H0.372Z" fill="black"/>
<path d="M44.05 136V134.215H46.12V128.71H44.335V127.345C44.855 127.245 45.295 127.125 45.655 126.985C46.025 126.845 46.375 126.675 46.705 126.475H48.325V134.215H50.11V136H44.05Z" fill="#CD93F0"/>
<path d="M159.555 135V133.635C160.355 132.925 161.065 132.26 161.685 131.64C162.315 131.02 162.805 130.445 163.155 129.915C163.515 129.385 163.695 128.9 163.695 128.46C163.695 127.99 163.575 127.635 163.335 127.395C163.095 127.145 162.765 127.02 162.345 127.02C162.005 127.02 161.695 127.12 161.415 127.32C161.145 127.51 160.89 127.735 160.65 127.995L159.495 126.855C159.955 126.335 160.425 125.945 160.905 125.685C161.395 125.425 161.975 125.295 162.645 125.295C163.265 125.295 163.81 125.42 164.28 125.67C164.76 125.92 165.13 126.27 165.39 126.72C165.66 127.17 165.795 127.7 165.795 128.31C165.795 128.88 165.64 129.44 165.33 129.99C165.03 130.53 164.63 131.07 164.13 131.61C163.63 132.15 163.1 132.7 162.54 133.26C162.78 133.23 163.05 133.205 163.35 133.185C163.65 133.155 163.91 133.14 164.13 133.14H166.26V135H159.555Z" fill="#CD93F0"/>
<path d="M135.645 173.18C135.135 173.18 134.67 173.12 134.25 173C133.84 172.89 133.475 172.735 133.155 172.535C132.835 172.335 132.56 172.1 132.33 171.83L133.35 170.435C133.64 170.715 133.96 170.945 134.31 171.125C134.66 171.305 135.035 171.395 135.435 171.395C135.895 171.395 136.265 171.3 136.545 171.11C136.835 170.91 136.98 170.63 136.98 170.27C136.98 169.99 136.91 169.75 136.77 169.55C136.63 169.34 136.375 169.18 136.005 169.07C135.645 168.96 135.115 168.905 134.415 168.905V167.345C134.985 167.345 135.435 167.29 135.765 167.18C136.095 167.07 136.325 166.92 136.455 166.73C136.595 166.54 136.665 166.32 136.665 166.07C136.665 165.73 136.56 165.47 136.35 165.29C136.15 165.11 135.865 165.02 135.495 165.02C135.155 165.02 134.845 165.095 134.565 165.245C134.295 165.385 134.01 165.59 133.71 165.86L132.6 164.51C133.04 164.13 133.505 163.835 133.995 163.625C134.485 163.405 135.02 163.295 135.6 163.295C136.25 163.295 136.82 163.4 137.31 163.61C137.81 163.81 138.195 164.105 138.465 164.495C138.745 164.875 138.885 165.345 138.885 165.905C138.885 166.395 138.745 166.815 138.465 167.165C138.195 167.515 137.805 167.8 137.295 168.02V168.08C137.655 168.19 137.98 168.35 138.27 168.56C138.56 168.76 138.785 169.015 138.945 169.325C139.105 169.635 139.185 169.995 139.185 170.405C139.185 170.995 139.02 171.5 138.69 171.92C138.37 172.33 137.94 172.645 137.4 172.865C136.87 173.075 136.285 173.18 135.645 173.18Z" fill="#CD93F0"/>
<path d="M4.96 178.18C3.94 178.18 3.115 177.755 2.485 176.905C1.865 176.055 1.555 174.82 1.555 173.2C1.555 171.57 1.865 170.345 2.485 169.525C3.115 168.705 3.94 168.295 4.96 168.295C5.98 168.295 6.8 168.71 7.42 169.54C8.05 170.36 8.365 171.58 8.365 173.2C8.365 174.82 8.05 176.055 7.42 176.905C6.8 177.755 5.98 178.18 4.96 178.18ZM4.96 176.47C5.21 176.47 5.435 176.38 5.635 176.2C5.835 176.01 5.99 175.68 6.1 175.21C6.22 174.73 6.28 174.06 6.28 173.2C6.28 172.33 6.22 171.665 6.1 171.205C5.99 170.745 5.835 170.43 5.635 170.26C5.435 170.09 5.21 170.005 4.96 170.005C4.71 170.005 4.485 170.09 4.285 170.26C4.085 170.43 3.925 170.745 3.805 171.205C3.695 171.665 3.64 172.33 3.64 173.2C3.64 174.06 3.695 174.73 3.805 175.21C3.925 175.68 4.085 176.01 4.285 176.2C4.485 176.38 4.71 176.47 4.96 176.47Z" fill="#CD93F0"/>
<path d="M46.705 16.18C46.185 16.18 45.715 16.12 45.295 16C44.885 15.88 44.52 15.72 44.2 15.52C43.88 15.32 43.595 15.095 43.345 14.845L44.335 13.45C44.625 13.71 44.94 13.935 45.28 14.125C45.62 14.305 45.99 14.395 46.39 14.395C46.71 14.395 46.99 14.34 47.23 14.23C47.47 14.11 47.655 13.94 47.785 13.72C47.925 13.5 47.995 13.23 47.995 12.91C47.995 12.43 47.855 12.065 47.575 11.815C47.295 11.565 46.935 11.44 46.495 11.44C46.225 11.44 45.995 11.475 45.805 11.545C45.615 11.615 45.375 11.74 45.085 11.92L44.095 11.29L44.365 6.475H49.765V8.335H46.27L46.105 10.12C46.295 10.04 46.47 9.985 46.63 9.955C46.79 9.915 46.97 9.895 47.17 9.895C47.72 9.895 48.225 10 48.685 10.21C49.145 10.42 49.51 10.745 49.78 11.185C50.06 11.625 50.2 12.18 50.2 12.85C50.2 13.56 50.035 14.165 49.705 14.665C49.385 15.155 48.96 15.53 48.43 15.79C47.9 16.05 47.325 16.18 46.705 16.18Z" fill="#CD93F0"/>
<path d="M163.215 15.18C162.755 15.18 162.31 15.09 161.88 14.91C161.45 14.73 161.065 14.45 160.725 14.07C160.385 13.69 160.115 13.205 159.915 12.615C159.715 12.015 159.615 11.295 159.615 10.455C159.615 9.565 159.72 8.795 159.93 8.145C160.14 7.495 160.425 6.96 160.785 6.54C161.145 6.12 161.555 5.81 162.015 5.61C162.475 5.4 162.96 5.295 163.47 5.295C164.1 5.295 164.645 5.41 165.105 5.64C165.565 5.86 165.945 6.125 166.245 6.435L165.09 7.755C164.92 7.575 164.7 7.42 164.43 7.29C164.16 7.15 163.885 7.08 163.605 7.08C163.245 7.08 162.91 7.185 162.6 7.395C162.3 7.605 162.06 7.96 161.88 8.46C161.71 8.95 161.625 9.615 161.625 10.455C161.625 11.245 161.695 11.865 161.835 12.315C161.985 12.755 162.18 13.07 162.42 13.26C162.66 13.44 162.91 13.53 163.17 13.53C163.39 13.53 163.59 13.475 163.77 13.365C163.95 13.255 164.095 13.09 164.205 12.87C164.315 12.64 164.37 12.345 164.37 11.985C164.37 11.645 164.315 11.375 164.205 11.175C164.095 10.975 163.945 10.83 163.755 10.74C163.575 10.65 163.365 10.605 163.125 10.605C162.875 10.605 162.615 10.68 162.345 10.83C162.085 10.98 161.85 11.245 161.64 11.625L161.535 10.185C161.785 9.815 162.105 9.535 162.495 9.345C162.885 9.145 163.235 9.045 163.545 9.045C164.085 9.045 164.57 9.15 165 9.36C165.43 9.57 165.765 9.895 166.005 10.335C166.255 10.765 166.38 11.315 166.38 11.985C166.38 12.645 166.235 13.215 165.945 13.695C165.665 14.175 165.285 14.545 164.805 14.805C164.325 15.055 163.795 15.18 163.215 15.18Z" fill="#CD93F0"/>
<path d="M122.25 56C122.3 55.21 122.38 54.485 122.49 53.825C122.6 53.155 122.755 52.52 122.955 51.92C123.165 51.32 123.43 50.73 123.75 50.15C124.07 49.57 124.465 48.965 124.935 48.335H120.66V46.475H127.29V47.825C126.73 48.505 126.27 49.14 125.91 49.73C125.56 50.32 125.29 50.92 125.1 51.53C124.91 52.14 124.77 52.805 124.68 53.525C124.59 54.245 124.52 55.07 124.47 56H122.25Z" fill="#CD93F0"/>
<path d="M5.41 58V52.495C5.41 52.195 5.42 51.84 5.44 51.43C5.47 51.02 5.49 50.665 5.5 50.365H5.44C5.32 50.625 5.195 50.89 5.065 51.16C4.935 51.42 4.8 51.69 4.66 51.97L3.4 54.04H8.56V55.72H1.285V54.205L4.765 48.475H7.465V58H5.41Z" fill="#CD93F0"/>
<path d="M11.2929 178.293C10.9024 178.683 10.9024 179.317 11.2929 179.707L17.6569 186.071C18.0474 186.462 18.6805 186.462 19.0711 186.071C19.4616 185.681 19.4616 185.047 19.0711 184.657L13.4142 179L19.0711 173.343C19.4616 172.953 19.4616 172.319 19.0711 171.929C18.6805 171.538 18.0474 171.538 17.6569 171.929L11.2929 178.293ZM130.707 179.707C131.098 179.317 131.098 178.683 130.707 178.293L124.343 171.929C123.953 171.538 123.319 171.538 122.929 171.929C122.538 172.319 122.538 172.953 122.929 173.343L128.586 179L122.929 184.657C122.538 185.047 122.538 185.681 122.929 186.071C123.319 186.462 123.953 186.462 124.343 186.071L130.707 179.707ZM12 180H130V178H12V180Z" fill="#0686FD"/>
<path d="M63.52 176.144C63.096 176.144 62.692 176.072 62.308 175.928C61.924 175.776 61.592 175.564 61.312 175.292L61.84 174.608C62.104 174.816 62.372 174.972 62.644 175.076C62.916 175.18 63.22 175.232 63.556 175.232C63.908 175.232 64.168 175.156 64.336 175.004C64.512 174.844 64.6 174.652 64.6 174.428C64.6 174.252 64.536 174.104 64.408 173.984C64.288 173.856 64.132 173.752 63.94 173.672C63.748 173.584 63.544 173.5 63.328 173.42C63.04 173.316 62.764 173.192 62.5 173.048C62.244 172.896 62.036 172.712 61.876 172.496C61.716 172.28 61.636 172.016 61.636 171.704C61.636 171.208 61.82 170.8 62.188 170.48C62.564 170.152 63.076 169.988 63.724 169.988C64.1 169.988 64.448 170.052 64.768 170.18C65.096 170.308 65.376 170.472 65.608 170.672L65.08 171.356C64.872 171.212 64.66 171.1 64.444 171.02C64.228 170.94 63.992 170.9 63.736 170.9C63.408 170.9 63.164 170.976 63.004 171.128C62.844 171.272 62.764 171.444 62.764 171.644C62.764 171.804 62.812 171.94 62.908 172.052C63.012 172.156 63.152 172.248 63.328 172.328C63.512 172.408 63.728 172.492 63.976 172.58C64.28 172.684 64.564 172.808 64.828 172.952C65.1 173.096 65.316 173.28 65.476 173.504C65.644 173.728 65.728 174.012 65.728 174.356C65.728 174.684 65.644 174.984 65.476 175.256C65.308 175.528 65.06 175.744 64.732 175.904C64.404 176.064 64 176.144 63.52 176.144ZM67.0217 176V170.132H68.2097V176H67.0217ZM67.6217 169.016C67.4057 169.016 67.2257 168.952 67.0817 168.824C66.9457 168.688 66.8777 168.512 66.8777 168.296C66.8777 168.088 66.9457 167.92 67.0817 167.792C67.2257 167.656 67.4057 167.588 67.6217 167.588C67.8457 167.588 68.0257 167.656 68.1617 167.792C68.2977 167.92 68.3657 168.088 68.3657 168.296C68.3657 168.512 68.2977 168.688 68.1617 168.824C68.0257 168.952 67.8457 169.016 67.6217 169.016ZM69.5405 176V175.364L72.4565 171.092H69.8645V170.132H73.9565V170.768L71.0285 175.04H74.0525V176H69.5405ZM77.6145 176.144C77.0705 176.144 76.5825 176.024 76.1505 175.784C75.7185 175.536 75.3745 175.184 75.1185 174.728C74.8705 174.272 74.7465 173.72 74.7465 173.072C74.7465 172.432 74.8745 171.884 75.1305 171.428C75.3865 170.964 75.7185 170.608 76.1265 170.36C76.5345 170.112 76.9665 169.988 77.4225 169.988C77.9425 169.988 78.3785 170.108 78.7305 170.348C79.0825 170.58 79.3465 170.904 79.5225 171.32C79.7065 171.728 79.7985 172.208 79.7985 172.76C79.7985 172.872 79.7945 172.984 79.7865 173.096C79.7785 173.208 79.7625 173.316 79.7385 173.42H75.6105V172.496H78.7425C78.7425 172 78.6345 171.62 78.4185 171.356C78.2025 171.084 77.8785 170.948 77.4465 170.948C77.1985 170.948 76.9585 171.016 76.7265 171.152C76.4945 171.28 76.3025 171.5 76.1505 171.812C75.9985 172.116 75.9225 172.532 75.9225 173.06C75.9225 173.54 76.0065 173.936 76.1745 174.248C76.3425 174.56 76.5665 174.796 76.8465 174.956C77.1265 175.108 77.4265 175.184 77.7465 175.184C78.0185 175.184 78.2705 175.148 78.5025 175.076C78.7425 174.996 78.9625 174.892 79.1625 174.764L79.5825 175.532C79.3185 175.716 79.0185 175.864 78.6825 175.976C78.3545 176.088 77.9985 176.144 77.6145 176.144Z" fill="#0686FD"/>
</svg>
