<svg width="669" height="164" viewBox="0 0 669 164" fill="none" xmlns="http://www.w3.org/2000/svg">
<path d="M551 1V121" stroke="#757575"/>
<path d="M551.354 121.354L551.707 121L551 120.293L550.646 120.646L551.354 121.354ZM509.354 163.354L551.354 121.354L550.646 120.646L508.646 162.646L509.354 163.354Z" fill="#757575"/>
<path d="M551 121L668 121" stroke="#757575"/>
<path d="M550.603 1.01074C550.603 1.01074 509 42.0118 509 42.5059C509 43 628 43 628 43C628 43 667.491 1.00025 666.996 1C666.5 0.999759 550.603 1.01074 550.603 1.01074Z" fill="#D9D9D9" fill-opacity="0.4" stroke="#757575"/>
<path d="M509 43H628V163H509V43Z" fill="#D9D9D9" fill-opacity="0.4" stroke="#757575"/>
<path d="M667.766 1.00433C667.269 0.504356 628 43.5021 628 43.5021L628.048 162.996C628.048 163.496 667.816 121.498 667.816 121.498C667.816 121.498 668.262 1.5043 667.766 1.00433Z" fill="#D9D9D9" fill-opacity="0.4" stroke="#757575"/>
<path d="M550.766 1.00438C550.269 0.504407 509 43 509 43C509 43 509 162.5 509 163C509 163.5 551 121 551 121C551 121 551.262 1.50435 550.766 1.00438Z" fill="#CD93F0" fill-opacity="0.25"/>
<path d="M432 1V121" stroke="#757575"/>
<path d="M432.354 121.354L432.707 121L432 120.293L431.646 120.646L432.354 121.354ZM390.354 163.354L432.354 121.354L431.646 120.646L389.646 162.646L390.354 163.354Z" fill="#757575"/>
<path d="M432 121L549 121" stroke="#757575"/>
<path d="M431.603 1.01074C431.603 1.01074 390 42.0118 390 42.5059C390 43 509 43 509 43C509 43 548.491 1.00025 547.996 1C547.5 0.999759 431.603 1.01074 431.603 1.01074Z" fill="#D9D9D9" fill-opacity="0.4" stroke="#757575"/>
<path d="M390 43H509V163H390V43Z" fill="#D9D9D9" fill-opacity="0.4" stroke="#757575"/>
<path d="M548.766 1.00433C548.269 0.504356 509 43.5021 509 43.5021L509.048 162.996C509.048 163.496 548.816 121.498 548.816 121.498C548.816 121.498 549.262 1.5043 548.766 1.00433Z" fill="#CD93F0" fill-opacity="0.25" stroke="#757575"/>
<path d="M213 1V121" stroke="#757575"/>
<path d="M213.354 121.354L213.707 121L213 120.293L212.646 120.646L213.354 121.354ZM171.354 163.354L213.354 121.354L212.646 120.646L170.646 162.646L171.354 163.354Z" fill="#757575"/>
<path d="M213 121L330 121" stroke="#757575"/>
<path d="M212.603 1.01074C212.603 1.01074 171 42.0118 171 42.5059C171 43 290 43 290 43C290 43 329.491 1.00025 328.996 1C328.5 0.999759 212.603 1.01074 212.603 1.01074Z" fill="#D9D9D9" fill-opacity="0.4" stroke="#757575"/>
<path d="M171 43H290V163H171V43Z" fill="#D9D9D9" fill-opacity="0.4" stroke="#757575"/>
<path d="M329.766 1.00433C329.269 0.504356 290 43.5021 290 43.5021L290.048 162.996C290.048 163.496 329.816 121.498 329.816 121.498C329.816 121.498 330.262 1.5043 329.766 1.00433Z" fill="#D9D9D9" fill-opacity="0.4" stroke="#757575"/>
<path d="M212.766 1.00438C212.269 0.504407 171 43 171 43C171 43 171 162.5 171 163C171 163.5 213 121 213 121C213 121 213.262 1.50435 212.766 1.00438Z" fill="#CD93F0" fill-opacity="0.25"/>
<path d="M43 1V121" stroke="#757575"/>
<path d="M43.3536 121.354L43.7071 121L43 120.293L42.6464 120.646L43.3536 121.354ZM1.35355 163.354L43.3536 121.354L42.6464 120.646L0.646447 162.646L1.35355 163.354Z" fill="#757575"/>
<path d="M43 121L160 121" stroke="#757575"/>
<path d="M42.6028 1.01074C42.6028 1.01074 1 42.0118 1 42.5059C1 43 120 43 120 43C120 43 159.491 1.00025 158.996 1C158.5 0.999759 42.6028 1.01074 42.6028 1.01074Z" fill="#D9D9D9" fill-opacity="0.4" stroke="#757575"/>
<path d="M1 43H120V163H1V43Z" fill="#D9D9D9" fill-opacity="0.4" stroke="#757575"/>
<path d="M159.766 1.00433C159.269 0.504356 120 43.5021 120 43.5021L120.048 162.996C120.048 163.496 159.816 121.498 159.816 121.498C159.816 121.498 160.262 1.5043 159.766 1.00433Z" fill="#CD93F0" fill-opacity="0.25" stroke="#757575"/>
</svg>
