<svg width="590" height="218" viewBox="0 0 590 218" fill="none" xmlns="http://www.w3.org/2000/svg">
<rect x="0.5" y="0.5" width="395" height="33" stroke="#2A5D57"/>
<path d="M171.963 22V11.504H173.291V15.904H178.187V11.504H179.515V22H178.187V17.056H173.291V22H171.963ZM182.401 22V11.504H188.449V12.624H183.729V15.92H187.713V17.056H183.729V20.864H188.609V22H182.401ZM189.446 22L192.998 11.504H194.502L198.054 22H196.646L194.806 16.128C194.614 15.5413 194.433 14.96 194.262 14.384C194.092 13.7973 193.921 13.2 193.75 12.592H193.686C193.526 13.2 193.361 13.7973 193.19 14.384C193.02 14.96 192.838 15.5413 192.646 16.128L190.79 22H189.446ZM191.302 18.8V17.744H196.15V18.8H191.302ZM199.526 22V11.504H202.15C203.227 11.504 204.134 11.7067 204.87 12.112C205.606 12.5173 206.161 13.1093 206.534 13.888C206.918 14.656 207.11 15.5947 207.11 16.704C207.11 17.8133 206.918 18.768 206.534 19.568C206.161 20.3573 205.611 20.96 204.886 21.376C204.161 21.792 203.27 22 202.214 22H199.526ZM200.854 20.912H202.054C202.875 20.912 203.558 20.7467 204.102 20.416C204.646 20.0747 205.051 19.5947 205.318 18.976C205.585 18.3573 205.718 17.6 205.718 16.704C205.718 15.8293 205.585 15.0827 205.318 14.464C205.051 13.8453 204.646 13.3813 204.102 13.072C203.558 12.752 202.875 12.592 202.054 12.592H200.854V20.912ZM209.37 22V11.504H215.418V12.624H210.698V15.92H214.682V17.056H210.698V20.864H215.578V22H209.37ZM217.807 22V11.504H221.087C221.802 11.504 222.437 11.6 222.991 11.792C223.546 11.9733 223.978 12.2827 224.287 12.72C224.607 13.1467 224.767 13.7227 224.767 14.448C224.767 15.152 224.607 15.7333 224.287 16.192C223.978 16.6507 223.546 16.9973 222.991 17.232C222.437 17.456 221.802 17.568 221.087 17.568H219.135V22H217.807ZM219.135 16.48H220.895C221.717 16.48 222.346 16.3147 222.783 15.984C223.221 15.6427 223.439 15.1307 223.439 14.448C223.439 13.7653 223.221 13.2853 222.783 13.008C222.346 12.72 221.717 12.576 220.895 12.576H219.135V16.48ZM223.567 22L220.831 17.2L221.871 16.496L225.071 22H223.567Z" fill="#2A5D57"/>
<rect x="0.5" y="33.5" width="395" height="151" stroke="#2A5D57"/>
<path d="M170.497 114L168.321 103.504H169.745L170.817 109.216C170.924 109.781 171.025 110.347 171.121 110.912C171.217 111.477 171.308 112.059 171.393 112.656H171.457C171.564 112.059 171.676 111.477 171.793 110.912C171.921 110.347 172.049 109.781 172.177 109.216L173.601 103.504H174.945L176.321 109.216C176.449 109.771 176.577 110.336 176.705 110.912C176.833 111.477 176.956 112.059 177.073 112.656H177.137C177.222 112.059 177.313 111.477 177.409 110.912C177.505 110.347 177.601 109.781 177.697 109.216L178.801 103.504H180.161L177.969 114H176.257L174.753 107.696C174.668 107.301 174.582 106.907 174.497 106.512C174.422 106.107 174.348 105.68 174.273 105.232H174.209C174.145 105.68 174.07 106.107 173.985 106.512C173.91 106.907 173.83 107.301 173.745 107.696L172.209 114H170.497ZM181.971 114V103.504H183.299V114H181.971ZM186.174 114V103.504H187.63L191.358 110.032C191.561 110.384 191.753 110.752 191.934 111.136C192.116 111.509 192.297 111.893 192.478 112.288H192.542C192.51 111.744 192.473 111.189 192.43 110.624C192.388 110.048 192.366 109.493 192.366 108.96V103.504H193.646V114H192.19L188.462 107.472C188.27 107.12 188.073 106.752 187.87 106.368C187.678 105.984 187.497 105.6 187.326 105.216H187.262C187.305 105.739 187.342 106.277 187.374 106.832C187.417 107.387 187.438 107.947 187.438 108.512V114H186.174ZM196.534 114V103.504H199.158C200.235 103.504 201.142 103.707 201.878 104.112C202.614 104.517 203.168 105.109 203.542 105.888C203.926 106.656 204.118 107.595 204.118 108.704C204.118 109.813 203.926 110.768 203.542 111.568C203.168 112.357 202.619 112.96 201.894 113.376C201.168 113.792 200.278 114 199.222 114H196.534ZM197.862 112.912H199.062C199.883 112.912 200.566 112.747 201.11 112.416C201.654 112.075 202.059 111.595 202.326 110.976C202.592 110.357 202.726 109.6 202.726 108.704C202.726 107.829 202.592 107.083 202.326 106.464C202.059 105.845 201.654 105.381 201.11 105.072C200.566 104.752 199.883 104.592 199.062 104.592H197.862V112.912ZM210.25 114.192C209.375 114.192 208.596 113.968 207.914 113.52C207.242 113.072 206.714 112.437 206.33 111.616C205.956 110.795 205.77 109.824 205.77 108.704C205.77 107.584 205.956 106.624 206.33 105.824C206.714 105.013 207.242 104.395 207.914 103.968C208.596 103.531 209.375 103.312 210.25 103.312C211.135 103.312 211.914 103.531 212.586 103.968C213.258 104.395 213.786 105.013 214.17 105.824C214.554 106.624 214.746 107.584 214.746 108.704C214.746 109.824 214.554 110.795 214.17 111.616C213.786 112.437 213.258 113.072 212.586 113.52C211.914 113.968 211.135 114.192 210.25 114.192ZM210.25 113.008C210.879 113.008 211.423 112.832 211.882 112.48C212.351 112.128 212.714 111.632 212.97 110.992C213.226 110.341 213.354 109.579 213.354 108.704C213.354 107.84 213.226 107.093 212.97 106.464C212.714 105.835 212.351 105.349 211.882 105.008C211.423 104.656 210.879 104.48 210.25 104.48C209.631 104.48 209.087 104.656 208.618 105.008C208.148 105.349 207.786 105.835 207.53 106.464C207.274 107.093 207.146 107.84 207.146 108.704C207.146 109.579 207.274 110.341 207.53 110.992C207.786 111.632 208.148 112.128 208.618 112.48C209.087 112.832 209.631 113.008 210.25 113.008ZM218.013 114L215.837 103.504H217.261L218.333 109.216C218.439 109.781 218.541 110.347 218.637 110.912C218.733 111.477 218.823 112.059 218.909 112.656H218.973C219.079 112.059 219.191 111.477 219.309 110.912C219.437 110.347 219.565 109.781 219.693 109.216L221.117 103.504H222.461L223.837 109.216C223.965 109.771 224.093 110.336 224.221 110.912C224.349 111.477 224.471 112.059 224.589 112.656H224.653C224.738 112.059 224.829 111.477 224.925 110.912C225.021 110.347 225.117 109.781 225.213 109.216L226.317 103.504H227.677L225.485 114H223.773L222.269 107.696C222.183 107.301 222.098 106.907 222.013 106.512C221.938 106.107 221.863 105.68 221.789 105.232H221.725C221.661 105.68 221.586 106.107 221.501 106.512C221.426 106.907 221.346 107.301 221.261 107.696L219.725 114H218.013Z" fill="#2A5D57"/>
<rect x="396.5" y="0.5" width="193" height="217" stroke="#2A5D57"/>
<path d="M490.41 114.192C489.866 114.192 489.365 114.117 488.906 113.968C488.458 113.808 488.064 113.557 487.722 113.216C487.381 112.864 487.114 112.4 486.922 111.824C486.73 111.248 486.634 110.549 486.634 109.728V103.504H487.962V109.76C487.962 110.581 488.069 111.232 488.282 111.712C488.506 112.181 488.8 112.517 489.162 112.72C489.536 112.912 489.952 113.008 490.41 113.008C490.869 113.008 491.285 112.912 491.658 112.72C492.042 112.517 492.346 112.181 492.57 111.712C492.794 111.232 492.906 110.581 492.906 109.76V103.504H494.17V109.728C494.17 110.549 494.074 111.248 493.882 111.824C493.701 112.4 493.44 112.864 493.098 113.216C492.757 113.557 492.357 113.808 491.898 113.968C491.44 114.117 490.944 114.192 490.41 114.192ZM496.995 114V103.504H498.323V114H496.995Z" fill="#2A5D57"/>
<rect x="0.5" y="184.5" width="395" height="33" stroke="#2A5D57"/>
<path d="M172.065 206V195.504H178.113V196.624H173.393V200.176H177.393V201.296H173.393V206H172.065ZM183.687 206.192C182.812 206.192 182.034 205.968 181.351 205.52C180.679 205.072 180.151 204.437 179.767 203.616C179.394 202.795 179.207 201.824 179.207 200.704C179.207 199.584 179.394 198.624 179.767 197.824C180.151 197.013 180.679 196.395 181.351 195.968C182.034 195.531 182.812 195.312 183.687 195.312C184.572 195.312 185.351 195.531 186.023 195.968C186.695 196.395 187.223 197.013 187.607 197.824C187.991 198.624 188.183 199.584 188.183 200.704C188.183 201.824 187.991 202.795 187.607 203.616C187.223 204.437 186.695 205.072 186.023 205.52C185.351 205.968 184.572 206.192 183.687 206.192ZM183.687 205.008C184.316 205.008 184.86 204.832 185.319 204.48C185.788 204.128 186.151 203.632 186.407 202.992C186.663 202.341 186.791 201.579 186.791 200.704C186.791 199.84 186.663 199.093 186.407 198.464C186.151 197.835 185.788 197.349 185.319 197.008C184.86 196.656 184.316 196.48 183.687 196.48C183.068 196.48 182.524 196.656 182.055 197.008C181.586 197.349 181.223 197.835 180.967 198.464C180.711 199.093 180.583 199.84 180.583 200.704C180.583 201.579 180.711 202.341 180.967 202.992C181.223 203.632 181.586 204.128 182.055 204.48C182.524 204.832 183.068 205.008 183.687 205.008ZM194.312 206.192C193.437 206.192 192.659 205.968 191.976 205.52C191.304 205.072 190.776 204.437 190.392 203.616C190.019 202.795 189.832 201.824 189.832 200.704C189.832 199.584 190.019 198.624 190.392 197.824C190.776 197.013 191.304 196.395 191.976 195.968C192.659 195.531 193.437 195.312 194.312 195.312C195.197 195.312 195.976 195.531 196.648 195.968C197.32 196.395 197.848 197.013 198.232 197.824C198.616 198.624 198.808 199.584 198.808 200.704C198.808 201.824 198.616 202.795 198.232 203.616C197.848 204.437 197.32 205.072 196.648 205.52C195.976 205.968 195.197 206.192 194.312 206.192ZM194.312 205.008C194.941 205.008 195.485 204.832 195.944 204.48C196.413 204.128 196.776 203.632 197.032 202.992C197.288 202.341 197.416 201.579 197.416 200.704C197.416 199.84 197.288 199.093 197.032 198.464C196.776 197.835 196.413 197.349 195.944 197.008C195.485 196.656 194.941 196.48 194.312 196.48C193.693 196.48 193.149 196.656 192.68 197.008C192.211 197.349 191.848 197.835 191.592 198.464C191.336 199.093 191.208 199.84 191.208 200.704C191.208 201.579 191.336 202.341 191.592 202.992C191.848 203.632 192.211 204.128 192.68 204.48C193.149 204.832 193.693 205.008 194.312 205.008ZM202.866 206V196.64H199.698V195.504H207.378V196.64H204.21V206H202.866ZM209.268 206V195.504H215.316V196.624H210.596V199.92H214.58V201.056H210.596V204.864H215.476V206H209.268ZM217.706 206V195.504H220.986C221.7 195.504 222.335 195.6 222.89 195.792C223.444 195.973 223.876 196.283 224.186 196.72C224.506 197.147 224.666 197.723 224.666 198.448C224.666 199.152 224.506 199.733 224.186 200.192C223.876 200.651 223.444 200.997 222.89 201.232C222.335 201.456 221.7 201.568 220.986 201.568H219.034V206H217.706ZM219.034 200.48H220.794C221.615 200.48 222.244 200.315 222.682 199.984C223.119 199.643 223.338 199.131 223.338 198.448C223.338 197.765 223.119 197.285 222.682 197.008C222.244 196.72 221.615 196.576 220.794 196.576H219.034V200.48ZM223.466 206L220.73 201.2L221.77 200.496L224.97 206H223.466Z" fill="#2A5D57"/>
</svg>
