<svg width="686" height="345" viewBox="0 0 686 345" fill="none" xmlns="http://www.w3.org/2000/svg">
<path d="M683.706 157.709C684.098 157.32 684.1 156.687 683.711 156.295L677.368 149.911C676.978 149.519 676.345 149.517 675.953 149.906C675.562 150.295 675.56 150.929 675.949 151.32L681.587 156.995L675.912 162.634C675.521 163.023 675.519 163.656 675.908 164.048C676.297 164.44 676.93 164.442 677.322 164.053L683.706 157.709ZM372.997 157L682.998 158L683.005 156L373.003 155L372.997 157Z" fill="black"/>
<path d="M530.293 310.709C530.683 311.099 531.317 311.099 531.707 310.709L538.071 304.345C538.462 303.954 538.462 303.321 538.071 302.931C537.681 302.54 537.047 302.54 536.657 302.931L531 308.587L525.343 302.931C524.953 302.54 524.319 302.54 523.929 302.931C523.538 303.321 523.538 303.954 523.929 304.345L530.293 310.709ZM530 2V310.002H532V2H530Z" fill="black"/>
<rect x="0.5" y="0.5" width="39" height="39" stroke="#E6E6E6"/>
<rect x="0.5" y="39.5" width="39" height="39" stroke="#E6E6E6"/>
<rect x="0.5" y="78.5" width="39" height="39" stroke="#E6E6E6"/>
<rect x="0.5" y="117.5" width="39" height="39" stroke="#E6E6E6"/>
<rect x="0.5" y="156.5" width="39" height="39" stroke="#E6E6E6"/>
<rect x="0.5" y="195.5" width="39" height="39" stroke="#E6E6E6"/>
<rect x="0.5" y="234.5" width="39" height="39" stroke="#E6E6E6"/>
<rect x="0.5" y="273.5" width="39" height="39" stroke="#E6E6E6"/>
<rect x="39.5" y="0.5" width="39" height="39" stroke="#E6E6E6"/>
<rect x="39.5" y="39.5" width="39" height="39" stroke="#E6E6E6"/>
<rect x="39.5" y="78.5" width="39" height="39" stroke="#E6E6E6"/>
<rect x="39.5" y="117.5" width="39" height="39" stroke="#E6E6E6"/>
<rect x="39.5" y="156.5" width="39" height="39" stroke="#E6E6E6"/>
<rect x="39.5" y="195.5" width="39" height="39" stroke="#E6E6E6"/>
<rect x="39.5" y="234.5" width="39" height="39" stroke="#E6E6E6"/>
<rect x="39.5" y="273.5" width="39" height="39" stroke="#E6E6E6"/>
<rect x="78.5" y="0.5" width="39" height="39" stroke="#E6E6E6"/>
<rect x="78.5" y="39.5" width="39" height="39" stroke="#E6E6E6"/>
<rect x="78.5" y="78.5" width="39" height="39" stroke="#E6E6E6"/>
<rect x="78.5" y="117.5" width="39" height="39" stroke="#E6E6E6"/>
<rect x="78.5" y="156.5" width="39" height="39" stroke="#E6E6E6"/>
<rect x="78.5" y="195.5" width="39" height="39" stroke="#E6E6E6"/>
<rect x="78.5" y="234.5" width="39" height="39" stroke="#E6E6E6"/>
<rect x="78.5" y="273.5" width="39" height="39" stroke="#E6E6E6"/>
<rect x="117.5" y="0.5" width="39" height="39" stroke="#E6E6E6"/>
<rect x="117.5" y="39.5" width="39" height="39" stroke="#E6E6E6"/>
<rect x="117.5" y="78.5" width="39" height="39" stroke="#E6E6E6"/>
<rect x="117.5" y="117.5" width="39" height="39" stroke="#E6E6E6"/>
<rect x="117.5" y="156.5" width="39" height="39" stroke="#E6E6E6"/>
<rect x="117.5" y="195.5" width="39" height="39" stroke="#E6E6E6"/>
<rect x="117.5" y="234.5" width="39" height="39" stroke="#E6E6E6"/>
<rect x="117.5" y="273.5" width="39" height="39" stroke="#E6E6E6"/>
<rect x="156.5" y="0.5" width="39" height="39" stroke="#E6E6E6"/>
<rect x="156.5" y="39.5" width="39" height="39" stroke="#E6E6E6"/>
<rect x="156.5" y="78.5" width="39" height="39" stroke="#E6E6E6"/>
<rect x="156.5" y="117.5" width="39" height="39" stroke="#E6E6E6"/>
<rect x="156.5" y="156.5" width="39" height="39" stroke="#E6E6E6"/>
<rect x="156.5" y="195.5" width="39" height="39" stroke="#E6E6E6"/>
<rect x="156.5" y="234.5" width="39" height="39" stroke="#E6E6E6"/>
<rect x="156.5" y="273.5" width="39" height="39" stroke="#E6E6E6"/>
<rect x="195.5" y="0.5" width="39" height="39" stroke="#E6E6E6"/>
<rect x="195.5" y="39.5" width="39" height="39" stroke="#E6E6E6"/>
<rect x="195.5" y="78.5" width="39" height="39" stroke="#E6E6E6"/>
<rect x="195.5" y="117.5" width="39" height="39" stroke="#E6E6E6"/>
<rect x="195.5" y="156.5" width="39" height="39" stroke="#E6E6E6"/>
<rect x="195.5" y="195.5" width="39" height="39" stroke="#E6E6E6"/>
<rect x="195.5" y="234.5" width="39" height="39" stroke="#E6E6E6"/>
<rect x="195.5" y="273.5" width="39" height="39" stroke="#E6E6E6"/>
<rect x="234.5" y="0.5" width="39" height="39" stroke="#E6E6E6"/>
<rect x="234.5" y="39.5" width="39" height="39" stroke="#E6E6E6"/>
<rect x="234.5" y="78.5" width="39" height="39" stroke="#E6E6E6"/>
<rect x="234.5" y="117.5" width="39" height="39" stroke="#E6E6E6"/>
<rect x="234.5" y="156.5" width="39" height="39" stroke="#E6E6E6"/>
<rect x="234.5" y="195.5" width="39" height="39" stroke="#E6E6E6"/>
<rect x="234.5" y="234.5" width="39" height="39" stroke="#E6E6E6"/>
<rect x="234.5" y="273.5" width="39" height="39" stroke="#E6E6E6"/>
<rect x="273.5" y="0.5" width="39" height="39" stroke="#E6E6E6"/>
<rect x="273.5" y="39.5" width="39" height="39" stroke="#E6E6E6"/>
<rect x="273.5" y="78.5" width="39" height="39" stroke="#E6E6E6"/>
<rect x="273.5" y="117.5" width="39" height="39" stroke="#E6E6E6"/>
<rect x="273.5" y="156.5" width="39" height="39" stroke="#E6E6E6"/>
<rect x="273.5" y="195.5" width="39" height="39" stroke="#E6E6E6"/>
<rect x="273.5" y="234.5" width="39" height="39" stroke="#E6E6E6"/>
<rect x="273.5" y="273.5" width="39" height="39" stroke="#E6E6E6"/>
<path d="M156.293 310.709C156.683 311.099 157.317 311.099 157.707 310.709L164.071 304.345C164.462 303.954 164.462 303.321 164.071 302.931C163.681 302.54 163.047 302.54 162.657 302.931L157 308.587L151.343 302.931C150.953 302.54 150.319 302.54 149.929 302.931C149.538 303.321 149.538 303.954 149.929 304.345L156.293 310.709ZM156 2L156 310.002H158L158 2H156Z" fill="black"/>
<path d="M308.709 156.707C309.099 156.317 309.099 155.683 308.709 155.293L302.345 148.929C301.954 148.538 301.321 148.538 300.931 148.929C300.54 149.319 300.54 149.953 300.931 150.343L306.587 156L300.931 161.657C300.54 162.047 300.54 162.681 300.931 163.071C301.321 163.462 301.954 163.462 302.345 163.071L308.709 156.707ZM0 157H308.002V155H0L0 157Z" fill="black"/>
<path d="M321.67 153.455L323.239 156.131L324.807 153.455H325.966L323.852 156.727L325.966 160H324.807L323.239 157.46L321.67 160H320.511L322.591 156.727L320.511 153.455H321.67Z" fill="black"/>
<path d="M154.568 327.455C154.398 327.455 154.246 327.44 154.112 327.412C153.979 327.386 153.886 327.361 153.835 327.335L154.091 326.449C154.335 326.511 154.551 326.534 154.739 326.517C154.926 326.5 155.092 326.416 155.237 326.266C155.385 326.118 155.52 325.878 155.642 325.545L155.83 325.034L153.409 318.455H154.5L156.307 323.67H156.375L158.182 318.455H159.273L156.494 325.955C156.369 326.293 156.214 326.572 156.03 326.794C155.845 327.018 155.631 327.185 155.386 327.293C155.145 327.401 154.872 327.455 154.568 327.455Z" fill="black"/>
<path d="M1.078 339V329.872H3.136V339H1.078ZM7.79494 339.154C6.93627 339.154 6.32027 338.907 5.94694 338.412C5.5736 337.908 5.38694 337.259 5.38694 336.466V333.666H4.44894V332.14L5.51294 332.056L5.75094 329.928H7.45894V332.056H9.12494V333.666H7.45894V336.438C7.45894 336.83 7.53827 337.115 7.69694 337.292C7.86494 337.46 8.08427 337.544 8.35494 337.544C8.46694 337.544 8.57894 337.535 8.69094 337.516C8.80294 337.497 8.91027 337.469 9.01294 337.432L9.34894 338.874C9.1716 338.949 8.9476 339.014 8.67694 339.07C8.4156 339.126 8.1216 339.154 7.79494 339.154ZM13.3422 339.168C12.6796 339.168 12.0822 339.023 11.5502 338.734C11.0182 338.445 10.5982 338.029 10.2902 337.488C9.98222 336.947 9.82822 336.293 9.82822 335.528C9.82822 334.772 9.98222 334.123 10.2902 333.582C10.6076 333.041 11.0182 332.625 11.5222 332.336C12.0262 332.037 12.5536 331.888 13.1042 331.888C13.7669 331.888 14.3176 332.037 14.7562 332.336C15.1949 332.625 15.5216 333.022 15.7362 333.526C15.9509 334.03 16.0582 334.595 16.0582 335.22C16.0582 335.397 16.0489 335.575 16.0302 335.752C16.0116 335.92 15.9929 336.055 15.9742 336.158H11.4242L11.3962 334.73H14.2942C14.2942 334.366 14.2056 334.067 14.0282 333.834C13.8509 333.591 13.5569 333.47 13.1462 333.47C12.9222 333.47 12.7029 333.531 12.4882 333.652C12.2736 333.773 12.0962 333.983 11.9562 334.282C11.8162 334.581 11.7509 334.996 11.7602 335.528C11.7696 336.051 11.8629 336.461 12.0402 336.76C12.2269 337.059 12.4602 337.273 12.7402 337.404C13.0202 337.525 13.3142 337.586 13.6222 337.586C13.8929 337.586 14.1496 337.549 14.3922 337.474C14.6442 337.39 14.8916 337.278 15.1342 337.138L15.8062 338.398C15.4609 338.641 15.0689 338.832 14.6302 338.972C14.1916 339.103 13.7622 339.168 13.3422 339.168ZM17.4803 339V332.056H19.1603L19.3003 333.274H19.3563C19.6083 332.807 19.907 332.462 20.2523 332.238C20.607 332.005 20.9663 331.888 21.3303 331.888C21.5263 331.888 21.6896 331.902 21.8203 331.93C21.951 331.949 22.063 331.981 22.1563 332.028L21.7643 333.778C21.6523 333.75 21.545 333.731 21.4423 333.722C21.3396 333.703 21.2136 333.694 21.0643 333.694C20.803 333.694 20.5276 333.787 20.2383 333.974C19.9583 334.161 19.725 334.492 19.5383 334.968V339H17.4803ZM24.4256 339.168C24.0056 339.168 23.637 339.075 23.3196 338.888C23.0116 338.701 22.7736 338.449 22.6056 338.132C22.4376 337.815 22.3536 337.46 22.3536 337.068C22.3536 336.321 22.6616 335.747 23.2776 335.346C23.8936 334.935 24.8876 334.66 26.2596 334.52C26.2503 334.315 26.2036 334.142 26.1196 334.002C26.045 333.853 25.9283 333.741 25.7696 333.666C25.611 333.582 25.4103 333.54 25.1676 333.54C24.8783 333.54 24.5843 333.591 24.2856 333.694C23.987 333.797 23.665 333.946 23.3196 334.142L22.5916 332.798C22.8903 332.611 23.1983 332.453 23.5156 332.322C23.833 332.182 24.1596 332.075 24.4956 332C24.841 331.925 25.1956 331.888 25.5596 331.888C26.157 331.888 26.6563 332.005 27.0576 332.238C27.4683 332.462 27.781 332.807 27.9956 333.274C28.2103 333.731 28.3176 334.319 28.3176 335.038V339H26.6376L26.4976 338.286H26.4416C26.143 338.547 25.8303 338.762 25.5036 338.93C25.177 339.089 24.8176 339.168 24.4256 339.168ZM25.1116 337.558C25.345 337.558 25.5503 337.507 25.7276 337.404C25.905 337.301 26.0823 337.161 26.2596 336.984V335.808C25.7743 335.873 25.387 335.957 25.0976 336.06C24.8176 336.163 24.617 336.289 24.4956 336.438C24.3836 336.578 24.3276 336.737 24.3276 336.914C24.3276 337.129 24.3976 337.292 24.5376 337.404C24.687 337.507 24.8783 337.558 25.1116 337.558ZM32.4863 339.154C31.6277 339.154 31.0117 338.907 30.6383 338.412C30.265 337.908 30.0783 337.259 30.0783 336.466V333.666H29.1403V332.14L30.2043 332.056L30.4423 329.928H32.1503V332.056H33.8163V333.666H32.1503V336.438C32.1503 336.83 32.2297 337.115 32.3883 337.292C32.5563 337.46 32.7757 337.544 33.0463 337.544C33.1583 337.544 33.2703 337.535 33.3823 337.516C33.4943 337.497 33.6017 337.469 33.7043 337.432L34.0403 338.874C33.863 338.949 33.639 339.014 33.3683 339.07C33.107 339.126 32.813 339.154 32.4863 339.154ZM35.1717 339V332.056H37.2297V339H35.1717ZM36.1937 331.034C35.8484 331.034 35.5684 330.936 35.3537 330.74C35.1391 330.544 35.0317 330.283 35.0317 329.956C35.0317 329.629 35.1391 329.368 35.3537 329.172C35.5684 328.976 35.8484 328.878 36.1937 328.878C36.5391 328.878 36.8191 328.976 37.0337 329.172C37.2484 329.368 37.3557 329.629 37.3557 329.956C37.3557 330.283 37.2484 330.544 37.0337 330.74C36.8191 330.936 36.5391 331.034 36.1937 331.034ZM42.0229 339.168C41.4349 339.168 40.8842 339.028 40.3709 338.748C39.8575 338.459 39.4375 338.043 39.1109 337.502C38.7935 336.951 38.6349 336.293 38.6349 335.528C38.6349 334.763 38.7935 334.109 39.1109 333.568C39.4375 333.017 39.8575 332.602 40.3709 332.322C40.8842 332.033 41.4349 331.888 42.0229 331.888C42.6015 331.888 43.1475 332.033 43.6609 332.322C44.1742 332.602 44.5895 333.017 44.9069 333.568C45.2335 334.109 45.3969 334.763 45.3969 335.528C45.3969 336.293 45.2335 336.951 44.9069 337.502C44.5895 338.043 44.1742 338.459 43.6609 338.748C43.1475 339.028 42.6015 339.168 42.0229 339.168ZM42.0229 337.502C42.3029 337.502 42.5362 337.423 42.7229 337.264C42.9189 337.105 43.0635 336.877 43.1569 336.578C43.2502 336.279 43.2969 335.929 43.2969 335.528C43.2969 335.127 43.2502 334.777 43.1569 334.478C43.0635 334.179 42.9189 333.951 42.7229 333.792C42.5362 333.633 42.3029 333.554 42.0229 333.554C41.7335 333.554 41.4955 333.633 41.3089 333.792C41.1222 333.951 40.9822 334.179 40.8889 334.478C40.7955 334.777 40.7489 335.127 40.7489 335.528C40.7489 335.929 40.7955 336.279 40.8889 336.578C40.9822 336.877 41.1222 337.105 41.3089 337.264C41.4955 337.423 41.7335 337.502 42.0229 337.502ZM46.8065 339V332.056H48.4865L48.6265 332.938H48.6825C48.9718 332.649 49.2985 332.401 49.6625 332.196C50.0265 331.991 50.4418 331.888 50.9085 331.888C51.6738 331.888 52.2245 332.14 52.5605 332.644C52.8965 333.139 53.0645 333.82 53.0645 334.688V339H51.0065V334.954C51.0065 334.45 50.9365 334.105 50.7965 333.918C50.6658 333.731 50.4512 333.638 50.1525 333.638C49.8912 333.638 49.6672 333.699 49.4805 333.82C49.2938 333.932 49.0885 334.095 48.8645 334.31V339H46.8065ZM56.0082 334.632C55.6535 334.632 55.3549 334.506 55.1122 334.254C54.8789 334.002 54.7622 333.699 54.7622 333.344C54.7622 332.971 54.8789 332.663 55.1122 332.42C55.3549 332.168 55.6535 332.042 56.0082 332.042C56.3722 332.042 56.6709 332.168 56.9042 332.42C57.1375 332.663 57.2542 332.971 57.2542 333.344C57.2542 333.699 57.1375 334.002 56.9042 334.254C56.6709 334.506 56.3722 334.632 56.0082 334.632ZM56.0082 339.168C55.6535 339.168 55.3549 339.042 55.1122 338.79C54.8789 338.538 54.7622 338.235 54.7622 337.88C54.7622 337.507 54.8789 337.199 55.1122 336.956C55.3549 336.704 55.6535 336.578 56.0082 336.578C56.3722 336.578 56.6709 336.704 56.9042 336.956C57.1375 337.199 57.2542 337.507 57.2542 337.88C57.2542 338.235 57.1375 338.538 56.9042 338.79C56.6709 339.042 56.3722 339.168 56.0082 339.168ZM61.8882 339V337.334H63.8202V332.196H62.1542V330.922C62.6395 330.829 63.0502 330.717 63.3862 330.586C63.7315 330.455 64.0582 330.297 64.3662 330.11H65.8782V337.334H67.5442V339H61.8882Z" fill="black"/>
<path d="M374.078 339V329.872H376.136V339H374.078ZM380.795 339.154C379.936 339.154 379.32 338.907 378.947 338.412C378.574 337.908 378.387 337.259 378.387 336.466V333.666H377.449V332.14L378.513 332.056L378.751 329.928H380.459V332.056H382.125V333.666H380.459V336.438C380.459 336.83 380.538 337.115 380.697 337.292C380.865 337.46 381.084 337.544 381.355 337.544C381.467 337.544 381.579 337.535 381.691 337.516C381.803 337.497 381.91 337.469 382.013 337.432L382.349 338.874C382.172 338.949 381.948 339.014 381.677 339.07C381.416 339.126 381.122 339.154 380.795 339.154ZM386.342 339.168C385.68 339.168 385.082 339.023 384.55 338.734C384.018 338.445 383.598 338.029 383.29 337.488C382.982 336.947 382.828 336.293 382.828 335.528C382.828 334.772 382.982 334.123 383.29 333.582C383.608 333.041 384.018 332.625 384.522 332.336C385.026 332.037 385.554 331.888 386.104 331.888C386.767 331.888 387.318 332.037 387.756 332.336C388.195 332.625 388.522 333.022 388.736 333.526C388.951 334.03 389.058 334.595 389.058 335.22C389.058 335.397 389.049 335.575 389.03 335.752C389.012 335.92 388.993 336.055 388.974 336.158H384.424L384.396 334.73H387.294C387.294 334.366 387.206 334.067 387.028 333.834C386.851 333.591 386.557 333.47 386.146 333.47C385.922 333.47 385.703 333.531 385.488 333.652C385.274 333.773 385.096 333.983 384.956 334.282C384.816 334.581 384.751 334.996 384.76 335.528C384.77 336.051 384.863 336.461 385.04 336.76C385.227 337.059 385.46 337.273 385.74 337.404C386.02 337.525 386.314 337.586 386.622 337.586C386.893 337.586 387.15 337.549 387.392 337.474C387.644 337.39 387.892 337.278 388.134 337.138L388.806 338.398C388.461 338.641 388.069 338.832 387.63 338.972C387.192 339.103 386.762 339.168 386.342 339.168ZM390.48 339V332.056H392.16L392.3 333.274H392.356C392.608 332.807 392.907 332.462 393.252 332.238C393.607 332.005 393.966 331.888 394.33 331.888C394.526 331.888 394.69 331.902 394.82 331.93C394.951 331.949 395.063 331.981 395.156 332.028L394.764 333.778C394.652 333.75 394.545 333.731 394.442 333.722C394.34 333.703 394.214 333.694 394.064 333.694C393.803 333.694 393.528 333.787 393.238 333.974C392.958 334.161 392.725 334.492 392.538 334.968V339H390.48ZM397.426 339.168C397.006 339.168 396.637 339.075 396.32 338.888C396.012 338.701 395.774 338.449 395.606 338.132C395.438 337.815 395.354 337.46 395.354 337.068C395.354 336.321 395.662 335.747 396.278 335.346C396.894 334.935 397.888 334.66 399.26 334.52C399.25 334.315 399.204 334.142 399.12 334.002C399.045 333.853 398.928 333.741 398.77 333.666C398.611 333.582 398.41 333.54 398.168 333.54C397.878 333.54 397.584 333.591 397.286 333.694C396.987 333.797 396.665 333.946 396.32 334.142L395.592 332.798C395.89 332.611 396.198 332.453 396.516 332.322C396.833 332.182 397.16 332.075 397.496 332C397.841 331.925 398.196 331.888 398.56 331.888C399.157 331.888 399.656 332.005 400.058 332.238C400.468 332.462 400.781 332.807 400.996 333.274C401.21 333.731 401.318 334.319 401.318 335.038V339H399.638L399.498 338.286H399.442C399.143 338.547 398.83 338.762 398.504 338.93C398.177 339.089 397.818 339.168 397.426 339.168ZM398.112 337.558C398.345 337.558 398.55 337.507 398.728 337.404C398.905 337.301 399.082 337.161 399.26 336.984V335.808C398.774 335.873 398.387 335.957 398.098 336.06C397.818 336.163 397.617 336.289 397.496 336.438C397.384 336.578 397.328 336.737 397.328 336.914C397.328 337.129 397.398 337.292 397.538 337.404C397.687 337.507 397.878 337.558 398.112 337.558ZM405.486 339.154C404.628 339.154 404.012 338.907 403.638 338.412C403.265 337.908 403.078 337.259 403.078 336.466V333.666H402.14V332.14L403.204 332.056L403.442 329.928H405.15V332.056H406.816V333.666H405.15V336.438C405.15 336.83 405.23 337.115 405.388 337.292C405.556 337.46 405.776 337.544 406.046 337.544C406.158 337.544 406.27 337.535 406.382 337.516C406.494 337.497 406.602 337.469 406.704 337.432L407.04 338.874C406.863 338.949 406.639 339.014 406.368 339.07C406.107 339.126 405.813 339.154 405.486 339.154ZM408.172 339V332.056H410.23V339H408.172ZM409.194 331.034C408.848 331.034 408.568 330.936 408.354 330.74C408.139 330.544 408.032 330.283 408.032 329.956C408.032 329.629 408.139 329.368 408.354 329.172C408.568 328.976 408.848 328.878 409.194 328.878C409.539 328.878 409.819 328.976 410.034 329.172C410.248 329.368 410.356 329.629 410.356 329.956C410.356 330.283 410.248 330.544 410.034 330.74C409.819 330.936 409.539 331.034 409.194 331.034ZM415.023 339.168C414.435 339.168 413.884 339.028 413.371 338.748C412.858 338.459 412.438 338.043 412.111 337.502C411.794 336.951 411.635 336.293 411.635 335.528C411.635 334.763 411.794 334.109 412.111 333.568C412.438 333.017 412.858 332.602 413.371 332.322C413.884 332.033 414.435 331.888 415.023 331.888C415.602 331.888 416.148 332.033 416.661 332.322C417.174 332.602 417.59 333.017 417.907 333.568C418.234 334.109 418.397 334.763 418.397 335.528C418.397 336.293 418.234 336.951 417.907 337.502C417.59 338.043 417.174 338.459 416.661 338.748C416.148 339.028 415.602 339.168 415.023 339.168ZM415.023 337.502C415.303 337.502 415.536 337.423 415.723 337.264C415.919 337.105 416.064 336.877 416.157 336.578C416.25 336.279 416.297 335.929 416.297 335.528C416.297 335.127 416.25 334.777 416.157 334.478C416.064 334.179 415.919 333.951 415.723 333.792C415.536 333.633 415.303 333.554 415.023 333.554C414.734 333.554 414.496 333.633 414.309 333.792C414.122 333.951 413.982 334.179 413.889 334.478C413.796 334.777 413.749 335.127 413.749 335.528C413.749 335.929 413.796 336.279 413.889 336.578C413.982 336.877 414.122 337.105 414.309 337.264C414.496 337.423 414.734 337.502 415.023 337.502ZM419.806 339V332.056H421.486L421.626 332.938H421.682C421.972 332.649 422.298 332.401 422.662 332.196C423.026 331.991 423.442 331.888 423.908 331.888C424.674 331.888 425.224 332.14 425.56 332.644C425.896 333.139 426.064 333.82 426.064 334.688V339H424.006V334.954C424.006 334.45 423.936 334.105 423.796 333.918C423.666 333.731 423.451 333.638 423.152 333.638C422.891 333.638 422.667 333.699 422.48 333.82C422.294 333.932 422.088 334.095 421.864 334.31V339H419.806ZM429.008 334.632C428.654 334.632 428.355 334.506 428.112 334.254C427.879 334.002 427.762 333.699 427.762 333.344C427.762 332.971 427.879 332.663 428.112 332.42C428.355 332.168 428.654 332.042 429.008 332.042C429.372 332.042 429.671 332.168 429.904 332.42C430.138 332.663 430.254 332.971 430.254 333.344C430.254 333.699 430.138 334.002 429.904 334.254C429.671 334.506 429.372 334.632 429.008 334.632ZM429.008 339.168C428.654 339.168 428.355 339.042 428.112 338.79C427.879 338.538 427.762 338.235 427.762 337.88C427.762 337.507 427.879 337.199 428.112 336.956C428.355 336.704 428.654 336.578 429.008 336.578C429.372 336.578 429.671 336.704 429.904 336.956C430.138 337.199 430.254 337.507 430.254 337.88C430.254 338.235 430.138 338.538 429.904 338.79C429.671 339.042 429.372 339.168 429.008 339.168ZM434.426 339V337.726C435.173 337.063 435.836 336.443 436.414 335.864C437.002 335.285 437.46 334.749 437.786 334.254C438.122 333.759 438.29 333.307 438.29 332.896C438.29 332.457 438.178 332.126 437.954 331.902C437.73 331.669 437.422 331.552 437.03 331.552C436.713 331.552 436.424 331.645 436.162 331.832C435.91 332.009 435.672 332.219 435.448 332.462L434.37 331.398C434.8 330.913 435.238 330.549 435.686 330.306C436.144 330.063 436.685 329.942 437.31 329.942C437.889 329.942 438.398 330.059 438.836 330.292C439.284 330.525 439.63 330.852 439.872 331.272C440.124 331.692 440.25 332.187 440.25 332.756C440.25 333.288 440.106 333.811 439.816 334.324C439.536 334.828 439.163 335.332 438.696 335.836C438.23 336.34 437.735 336.853 437.212 337.376C437.436 337.348 437.688 337.325 437.968 337.306C438.248 337.278 438.491 337.264 438.696 337.264H440.684V339H434.426Z" fill="black"/>
<path d="M264 156L157 12L50 156.5L157 299.5L264 156Z" fill="#FF00E6" fill-opacity="0.28" stroke="black"/>
<rect x="373.5" y="0.5" width="39" height="39" stroke="#E6E6E6"/>
<rect x="373.5" y="39.5" width="39" height="39" stroke="#E6E6E6"/>
<rect x="373.5" y="78.5" width="39" height="39" stroke="#E6E6E6"/>
<rect x="373.5" y="117.5" width="39" height="39" stroke="#E6E6E6"/>
<rect x="373.5" y="156.5" width="39" height="39" stroke="#E6E6E6"/>
<rect x="373.5" y="195.5" width="39" height="39" stroke="#E6E6E6"/>
<rect x="373.5" y="234.5" width="39" height="39" stroke="#E6E6E6"/>
<rect x="373.5" y="273.5" width="39" height="39" stroke="#E6E6E6"/>
<rect x="412.5" y="0.5" width="39" height="39" stroke="#E6E6E6"/>
<rect x="412.5" y="39.5" width="39" height="39" stroke="#E6E6E6"/>
<rect x="412.5" y="78.5" width="39" height="39" stroke="#E6E6E6"/>
<rect x="412.5" y="117.5" width="39" height="39" stroke="#E6E6E6"/>
<rect x="412.5" y="156.5" width="39" height="39" stroke="#E6E6E6"/>
<rect x="412.5" y="195.5" width="39" height="39" stroke="#E6E6E6"/>
<rect x="412.5" y="234.5" width="39" height="39" stroke="#E6E6E6"/>
<rect x="412.5" y="273.5" width="39" height="39" stroke="#E6E6E6"/>
<rect x="451.5" y="0.5" width="39" height="39" stroke="#E6E6E6"/>
<rect x="451.5" y="39.5" width="39" height="39" stroke="#E6E6E6"/>
<rect x="451.5" y="78.5" width="39" height="39" stroke="#E6E6E6"/>
<rect x="451.5" y="117.5" width="39" height="39" stroke="#E6E6E6"/>
<rect x="451.5" y="156.5" width="39" height="39" stroke="#E6E6E6"/>
<rect x="451.5" y="195.5" width="39" height="39" stroke="#E6E6E6"/>
<rect x="451.5" y="234.5" width="39" height="39" stroke="#E6E6E6"/>
<rect x="451.5" y="273.5" width="39" height="39" stroke="#E6E6E6"/>
<rect x="490.5" y="0.5" width="39" height="39" stroke="#E6E6E6"/>
<rect x="490.5" y="39.5" width="39" height="39" stroke="#E6E6E6"/>
<rect x="490.5" y="78.5" width="39" height="39" stroke="#E6E6E6"/>
<rect x="490.5" y="117.5" width="39" height="39" stroke="#E6E6E6"/>
<rect x="490.5" y="156.5" width="39" height="39" stroke="#E6E6E6"/>
<rect x="490.5" y="195.5" width="39" height="39" stroke="#E6E6E6"/>
<rect x="490.5" y="234.5" width="39" height="39" stroke="#E6E6E6"/>
<rect x="490.5" y="273.5" width="39" height="39" stroke="#E6E6E6"/>
<rect x="529.5" y="0.5" width="39" height="39" stroke="#E6E6E6"/>
<rect x="529.5" y="39.5" width="39" height="39" stroke="#E6E6E6"/>
<rect x="529.5" y="78.5" width="39" height="39" stroke="#E6E6E6"/>
<rect x="529.5" y="117.5" width="39" height="39" stroke="#E6E6E6"/>
<rect x="529.5" y="156.5" width="39" height="39" stroke="#E6E6E6"/>
<rect x="529.5" y="195.5" width="39" height="39" stroke="#E6E6E6"/>
<rect x="529.5" y="234.5" width="39" height="39" stroke="#E6E6E6"/>
<rect x="529.5" y="273.5" width="39" height="39" stroke="#E6E6E6"/>
<rect x="568.5" y="0.5" width="39" height="39" stroke="#E6E6E6"/>
<rect x="568.5" y="39.5" width="39" height="39" stroke="#E6E6E6"/>
<rect x="568.5" y="78.5" width="39" height="39" stroke="#E6E6E6"/>
<rect x="568.5" y="117.5" width="39" height="39" stroke="#E6E6E6"/>
<rect x="568.5" y="156.5" width="39" height="39" stroke="#E6E6E6"/>
<rect x="568.5" y="195.5" width="39" height="39" stroke="#E6E6E6"/>
<rect x="568.5" y="234.5" width="39" height="39" stroke="#E6E6E6"/>
<rect x="568.5" y="273.5" width="39" height="39" stroke="#E6E6E6"/>
<rect x="607.5" y="0.5" width="39" height="39" stroke="#E6E6E6"/>
<rect x="607.5" y="39.5" width="39" height="39" stroke="#E6E6E6"/>
<rect x="607.5" y="78.5" width="39" height="39" stroke="#E6E6E6"/>
<rect x="607.5" y="117.5" width="39" height="39" stroke="#E6E6E6"/>
<rect x="607.5" y="156.5" width="39" height="39" stroke="#E6E6E6"/>
<rect x="607.5" y="195.5" width="39" height="39" stroke="#E6E6E6"/>
<rect x="607.5" y="234.5" width="39" height="39" stroke="#E6E6E6"/>
<rect x="607.5" y="273.5" width="39" height="39" stroke="#E6E6E6"/>
<rect x="646.5" y="0.5" width="39" height="39" stroke="#E6E6E6"/>
<rect x="646.5" y="39.5" width="39" height="39" stroke="#E6E6E6"/>
<rect x="646.5" y="78.5" width="39" height="39" stroke="#E6E6E6"/>
<rect x="646.5" y="117.5" width="39" height="39" stroke="#E6E6E6"/>
<rect x="646.5" y="156.5" width="39" height="39" stroke="#E6E6E6"/>
<rect x="646.5" y="195.5" width="39" height="39" stroke="#E6E6E6"/>
<rect x="646.5" y="234.5" width="39" height="39" stroke="#E6E6E6"/>
<rect x="646.5" y="273.5" width="39" height="39" stroke="#E6E6E6"/>
<line y1="-0.5" x2="60.3672" y2="-0.5" transform="matrix(-0.599124 0.800656 -0.803312 -0.595559 530.167 13)" stroke="black"/>
<line y1="-0.5" x2="59.8997" y2="-0.5" transform="matrix(-0.59821 0.80134 -0.80399 -0.594643 566 61)" stroke="black"/>
<line y1="-0.5" x2="59.8347" y2="-0.5" transform="matrix(0.604456 0.796639 -0.799329 0.600894 494 61.333)" stroke="black"/>
<line y1="-0.5" x2="59.8997" y2="-0.5" transform="matrix(0.598209 0.80134 -0.80399 0.594643 530.167 13.333)" stroke="black"/>
<path d="M494.5 62L530.5 13L566.5 62L530.5 108.5L494.5 62Z" fill="#FF00E6" fill-opacity="0.28" stroke="black"/>
<line y1="-0.5" x2="60.3672" y2="-0.5" transform="matrix(-0.599124 0.800656 -0.803312 -0.595559 566.167 61)" stroke="black"/>
<line y1="-0.5" x2="59.8997" y2="-0.5" transform="matrix(-0.59821 0.80134 -0.80399 -0.594643 602 109)" stroke="black"/>
<line y1="-0.5" x2="59.8347" y2="-0.5" transform="matrix(0.604456 0.796639 -0.799329 0.600894 530 109.333)" stroke="black"/>
<line y1="-0.5" x2="59.8997" y2="-0.5" transform="matrix(0.598209 0.80134 -0.80399 0.594643 566.167 61.333)" stroke="black"/>
<path d="M530.5 110L566.5 61L602.5 110L566.5 156.5L530.5 110Z" fill="#FF00E6" fill-opacity="0.28" stroke="black"/>
<line y1="-0.5" x2="60.3672" y2="-0.5" transform="matrix(-0.599124 0.800656 -0.803312 -0.595559 602.167 109)" stroke="black"/>
<line y1="-0.5" x2="59.8997" y2="-0.5" transform="matrix(-0.59821 0.80134 -0.80399 -0.594643 638 157)" stroke="black"/>
<line y1="-0.5" x2="59.8347" y2="-0.5" transform="matrix(0.604456 0.796639 -0.799329 0.600894 566 157.333)" stroke="black"/>
<line y1="-0.5" x2="59.8997" y2="-0.5" transform="matrix(0.598209 0.80134 -0.80399 0.594643 602.167 109.333)" stroke="black"/>
<path d="M566.5 158L602.5 109L638.5 158L602.5 204.5L566.5 158Z" fill="#FF00E6" fill-opacity="0.28" stroke="black"/>
<line y1="-0.5" x2="60.3672" y2="-0.5" transform="matrix(-0.599124 0.800656 -0.803312 -0.595559 494.167 61)" stroke="black"/>
<line y1="-0.5" x2="59.8997" y2="-0.5" transform="matrix(-0.59821 0.80134 -0.80399 -0.594643 530 109)" stroke="black"/>
<line y1="-0.5" x2="59.8347" y2="-0.5" transform="matrix(0.604456 0.796639 -0.799329 0.600894 458 109.333)" stroke="black"/>
<line y1="-0.5" x2="59.8997" y2="-0.5" transform="matrix(0.598209 0.80134 -0.80399 0.594643 494.167 61.333)" stroke="black"/>
<path d="M458.5 110L494.5 61L530.5 110L494.5 156.5L458.5 110Z" fill="#FF00E6" fill-opacity="0.28" stroke="black"/>
<line y1="-0.5" x2="60.3672" y2="-0.5" transform="matrix(-0.599124 0.800656 -0.803312 -0.595559 566.167 157)" stroke="black"/>
<line y1="-0.5" x2="59.8997" y2="-0.5" transform="matrix(-0.59821 0.80134 -0.80399 -0.594643 602 205)" stroke="black"/>
<line y1="-0.5" x2="59.8347" y2="-0.5" transform="matrix(0.604456 0.796639 -0.799329 0.600894 530 205.333)" stroke="black"/>
<line y1="-0.5" x2="59.8997" y2="-0.5" transform="matrix(0.598209 0.80134 -0.80399 0.594643 566.167 157.333)" stroke="black"/>
<path d="M530.5 206L566.5 157L602.5 206L566.5 252.5L530.5 206Z" fill="#FF00E6" fill-opacity="0.28" stroke="black"/>
<line y1="-0.5" x2="60.3672" y2="-0.5" transform="matrix(-0.599124 0.800656 -0.803312 -0.595559 458.167 109)" stroke="black"/>
<line y1="-0.5" x2="59.8997" y2="-0.5" transform="matrix(-0.59821 0.80134 -0.80399 -0.594643 494 157)" stroke="black"/>
<line y1="-0.5" x2="59.8347" y2="-0.5" transform="matrix(0.604456 0.796639 -0.799329 0.600894 422 157.333)" stroke="black"/>
<line y1="-0.5" x2="59.8997" y2="-0.5" transform="matrix(0.598209 0.80134 -0.80399 0.594643 458.167 109.333)" stroke="black"/>
<path d="M422.5 158L458.5 109L494.5 158L458.5 204.5L422.5 158Z" fill="#FF00E6" fill-opacity="0.28" stroke="black"/>
<line y1="-0.5" x2="60.3672" y2="-0.5" transform="matrix(-0.599124 0.800656 -0.803312 -0.595559 494.167 157)" stroke="black"/>
<line y1="-0.5" x2="59.8997" y2="-0.5" transform="matrix(-0.59821 0.80134 -0.80399 -0.594643 530 205)" stroke="black"/>
<line y1="-0.5" x2="59.8347" y2="-0.5" transform="matrix(0.604456 0.796639 -0.799329 0.600894 458 205.333)" stroke="black"/>
<line y1="-0.5" x2="59.8997" y2="-0.5" transform="matrix(0.598209 0.80134 -0.80399 0.594643 494.167 157.333)" stroke="black"/>
<path d="M458.5 206L494.5 157L530.5 206L494.5 252.5L458.5 206Z" fill="#FF00E6" fill-opacity="0.28" stroke="black"/>
<line y1="-0.5" x2="60.3672" y2="-0.5" transform="matrix(-0.599124 0.800656 -0.803312 -0.595559 530.167 205)" stroke="black"/>
<line y1="-0.5" x2="59.8997" y2="-0.5" transform="matrix(-0.59821 0.80134 -0.80399 -0.594643 566 253)" stroke="black"/>
<line y1="-0.5" x2="59.8347" y2="-0.5" transform="matrix(0.604456 0.796639 -0.799329 0.600894 494 253.333)" stroke="black"/>
<line y1="-0.5" x2="59.8997" y2="-0.5" transform="matrix(0.598209 0.80134 -0.80399 0.594643 530.167 205.333)" stroke="black"/>
<path d="M494.5 254L530.5 205L566.5 254L530.5 300.5L494.5 254Z" fill="#FF00E6" fill-opacity="0.28" stroke="black"/>
<line y1="-0.5" x2="60.3672" y2="-0.5" transform="matrix(-0.599124 0.800656 -0.803312 -0.595559 530.167 109)" stroke="black"/>
<line y1="-0.5" x2="59.8997" y2="-0.5" transform="matrix(-0.59821 0.80134 -0.80399 -0.594643 566 157)" stroke="black"/>
<line y1="-0.5" x2="59.8347" y2="-0.5" transform="matrix(0.604456 0.796639 -0.799329 0.600894 494 157.333)" stroke="black"/>
<line y1="-0.5" x2="59.8997" y2="-0.5" transform="matrix(0.598209 0.80134 -0.80399 0.594643 530.167 109.333)" stroke="black"/>
<path d="M528.568 327.455C528.398 327.455 528.246 327.44 528.112 327.412C527.979 327.386 527.886 327.361 527.835 327.335L528.091 326.449C528.335 326.511 528.551 326.534 528.739 326.517C528.926 326.5 529.092 326.416 529.237 326.266C529.385 326.118 529.52 325.878 529.642 325.545L529.83 325.034L527.409 318.455H528.5L530.307 323.67H530.375L532.182 318.455H533.273L530.494 325.955C530.369 326.293 530.214 326.572 530.03 326.794C529.845 327.018 529.631 327.185 529.386 327.293C529.145 327.401 528.872 327.455 528.568 327.455Z" fill="black"/>
</svg>
