<svg width="700" height="392" viewBox="0 0 700 392" fill="none" xmlns="http://www.w3.org/2000/svg">
<line y1="-0.5" x2="71.2964" y2="-0.5" transform="matrix(-0.528352 0.849025 -0.74645 -0.665441 537.695 16.2812)" stroke="black"/>
<line y1="-0.5" x2="70.7577" y2="-0.5" transform="matrix(-0.527445 0.849589 -0.747237 -0.664558 575.016 76.3965)" stroke="black"/>
<line y1="-0.5" x2="70.5889" y2="-0.5" transform="matrix(0.533647 0.845707 -0.741838 0.670579 500.025 76.8135)" stroke="black"/>
<line y1="-0.5" x2="70.7577" y2="-0.5" transform="matrix(0.527445 0.849589 -0.747237 0.664558 537.695 16.6987)" stroke="black"/>
<path d="M500.546 77.6487L538.041 16.2812L575.536 77.6487L538.041 135.885L500.546 77.6487Z" fill="#7BBAA9" stroke="black"/>
<line y1="-0.5" x2="71.2964" y2="-0.5" transform="matrix(-0.528352 0.849025 -0.74645 -0.665441 575.19 76.3965)" stroke="black"/>
<line y1="-0.5" x2="70.7577" y2="-0.5" transform="matrix(-0.527445 0.849589 -0.747237 -0.664558 612.511 136.512)" stroke="black"/>
<line y1="-0.5" x2="70.5889" y2="-0.5" transform="matrix(0.533647 0.845707 -0.741838 0.670579 537.521 136.929)" stroke="black"/>
<line y1="-0.5" x2="70.7577" y2="-0.5" transform="matrix(0.527445 0.849589 -0.747237 0.664558 575.19 76.814)" stroke="black"/>
<path d="M538.041 137.764L575.536 76.3965L613.031 137.764L575.536 196L538.041 137.764Z" fill="#7BBAA9" stroke="black"/>
<line y1="-0.5" x2="71.2964" y2="-0.5" transform="matrix(-0.528352 0.849025 -0.74645 -0.665441 612.686 136.511)" stroke="black"/>
<line y1="-0.5" x2="70.7577" y2="-0.5" transform="matrix(-0.527445 0.849589 -0.747237 -0.664558 650.007 196.626)" stroke="black"/>
<line y1="-0.5" x2="70.5889" y2="-0.5" transform="matrix(0.533647 0.845707 -0.741838 0.670579 575.016 197.043)" stroke="black"/>
<line y1="-0.5" x2="70.7577" y2="-0.5" transform="matrix(0.527445 0.849589 -0.747237 0.664558 612.686 136.929)" stroke="black"/>
<path d="M575.537 197.879L613.032 136.511L650.527 197.879L613.032 256.115L575.537 197.879Z" fill="#7BBAA9" stroke="black"/>
<line y1="-0.5" x2="71.2964" y2="-0.5" transform="matrix(-0.528352 0.849025 -0.74645 -0.665441 500.2 76.3965)" stroke="black"/>
<line y1="-0.5" x2="70.7577" y2="-0.5" transform="matrix(-0.527445 0.849589 -0.747237 -0.664558 537.521 136.512)" stroke="black"/>
<line y1="-0.5" x2="70.5889" y2="-0.5" transform="matrix(0.533647 0.845707 -0.741838 0.670579 462.53 136.929)" stroke="black"/>
<line y1="-0.5" x2="70.7577" y2="-0.5" transform="matrix(0.527445 0.849589 -0.747237 0.664558 500.2 76.814)" stroke="black"/>
<path d="M463.051 137.764L500.546 76.3965L538.041 137.764L500.546 196L463.051 137.764Z" fill="#7BBAA9" stroke="black"/>
<line y1="-0.5" x2="71.2964" y2="-0.5" transform="matrix(-0.528352 0.849025 -0.74645 -0.665441 575.19 196.626)" stroke="black"/>
<line y1="-0.5" x2="70.7577" y2="-0.5" transform="matrix(-0.527445 0.849589 -0.747237 -0.664558 612.511 256.741)" stroke="black"/>
<line y1="-0.5" x2="70.5889" y2="-0.5" transform="matrix(0.533647 0.845707 -0.741838 0.670579 537.521 257.158)" stroke="black"/>
<line y1="-0.5" x2="70.7577" y2="-0.5" transform="matrix(0.527445 0.849589 -0.747237 0.664558 575.19 197.043)" stroke="black"/>
<path d="M538.041 257.993L575.536 196.626L613.031 257.993L575.536 316.23L538.041 257.993Z" fill="#7BBAA9" stroke="black"/>
<line y1="-0.5" x2="71.2964" y2="-0.5" transform="matrix(-0.528352 0.849025 -0.74645 -0.665441 462.705 136.511)" stroke="black"/>
<line y1="-0.5" x2="70.7577" y2="-0.5" transform="matrix(-0.527445 0.849589 -0.747237 -0.664558 500.026 196.626)" stroke="black"/>
<line y1="-0.5" x2="70.5889" y2="-0.5" transform="matrix(0.533647 0.845707 -0.741838 0.670579 425.035 197.043)" stroke="black"/>
<line y1="-0.5" x2="70.7577" y2="-0.5" transform="matrix(0.527445 0.849589 -0.747237 0.664558 462.705 136.929)" stroke="black"/>
<path d="M425.556 197.879L463.051 136.511L500.546 197.879L463.051 256.115L425.556 197.879Z" fill="#7BBAA9" stroke="black"/>
<line y1="-0.5" x2="71.2964" y2="-0.5" transform="matrix(-0.528352 0.849025 -0.74645 -0.665441 500.2 196.626)" stroke="black"/>
<line y1="-0.5" x2="70.7577" y2="-0.5" transform="matrix(-0.527445 0.849589 -0.747237 -0.664558 537.521 256.741)" stroke="black"/>
<line y1="-0.5" x2="70.5889" y2="-0.5" transform="matrix(0.533647 0.845707 -0.741838 0.670579 462.53 257.158)" stroke="black"/>
<line y1="-0.5" x2="70.7577" y2="-0.5" transform="matrix(0.527445 0.849589 -0.747237 0.664558 500.2 197.043)" stroke="black"/>
<path d="M463.051 257.993L500.546 196.626L538.041 257.993L500.546 316.23L463.051 257.993Z" fill="#7BBAA9" stroke="black"/>
<line y1="-0.5" x2="71.2964" y2="-0.5" transform="matrix(-0.528352 0.849025 -0.74645 -0.665441 537.695 256.741)" stroke="black"/>
<line y1="-0.5" x2="70.7577" y2="-0.5" transform="matrix(-0.527445 0.849589 -0.747237 -0.664558 575.016 316.856)" stroke="black"/>
<line y1="-0.5" x2="70.5889" y2="-0.5" transform="matrix(0.533647 0.845707 -0.741838 0.670579 500.025 317.273)" stroke="black"/>
<line y1="-0.5" x2="70.7577" y2="-0.5" transform="matrix(0.527445 0.849589 -0.747237 0.664558 537.695 257.159)" stroke="black"/>
<path d="M500.546 318.109L538.041 256.741L575.536 318.109L538.041 376.345L500.546 318.109Z" fill="#7BBAA9" stroke="black"/>
<line y1="-0.5" x2="71.2964" y2="-0.5" transform="matrix(-0.528352 0.849025 -0.74645 -0.665441 537.695 136.511)" stroke="black"/>
<line y1="-0.5" x2="70.7577" y2="-0.5" transform="matrix(-0.527445 0.849589 -0.747237 -0.664558 575.016 196.626)" stroke="black"/>
<line y1="-0.5" x2="70.5889" y2="-0.5" transform="matrix(0.533647 0.845707 -0.741838 0.670579 500.025 197.043)" stroke="black"/>
<line y1="-0.5" x2="70.7577" y2="-0.5" transform="matrix(0.527445 0.849589 -0.747237 0.664558 537.695 136.929)" stroke="black"/>
<path d="M64.5744 100L120 4L175.426 100H64.5744Z" fill="#7BBAA9" stroke="black"/>
<path d="M120.574 196L176 100L231.426 196H120.574Z" fill="#7BBAA9" stroke="black"/>
<path d="M9.57437 196L65 100L120.426 196H9.57437Z" fill="#7BBAA9" stroke="black"/>
<path d="M64.5744 293L120 389L175.426 293H64.5744Z" fill="#7BBAA9" stroke="black"/>
<path d="M120.574 197L176 293L231.426 197H120.574Z" fill="#7BBAA9" stroke="black"/>
<path d="M9.57437 197L65 293L120.426 197H9.57437Z" fill="#7BBAA9" stroke="black"/>
</svg>
