<svg width="699" height="313" viewBox="0 0 699 313" fill="none" xmlns="http://www.w3.org/2000/svg">
<line y1="-0.5" x2="60.3672" y2="-0.5" transform="matrix(-0.599124 0.800656 -0.803312 -0.595559 350.167 13)" stroke="#D9D9D9"/>
<line y1="-0.5" x2="59.8997" y2="-0.5" transform="matrix(-0.59821 0.80134 -0.80399 -0.594643 386 61)" stroke="#D9D9D9"/>
<line y1="-0.5" x2="59.8347" y2="-0.5" transform="matrix(0.604456 0.796639 -0.799329 0.600894 314 61.333)" stroke="#D9D9D9"/>
<line y1="-0.5" x2="59.8997" y2="-0.5" transform="matrix(0.598209 0.80134 -0.80399 0.594643 350.167 13.333)" stroke="#D9D9D9"/>
<path d="M314.5 62L350.5 13L386.5 62L350.5 108.5L314.5 62Z" stroke="#D9D9D9"/>
<line y1="-0.5" x2="60.3672" y2="-0.5" transform="matrix(-0.599124 0.800656 -0.803312 -0.595559 386.167 61)" stroke="#D9D9D9"/>
<line y1="-0.5" x2="59.8997" y2="-0.5" transform="matrix(-0.59821 0.80134 -0.80399 -0.594643 422 109)" stroke="#D9D9D9"/>
<line y1="-0.5" x2="59.8347" y2="-0.5" transform="matrix(0.604456 0.796639 -0.799329 0.600894 350 109.333)" stroke="#D9D9D9"/>
<line y1="-0.5" x2="59.8997" y2="-0.5" transform="matrix(0.598209 0.80134 -0.80399 0.594643 386.167 61.333)" stroke="#D9D9D9"/>
<path d="M350.5 110L386.5 61L422.5 110L386.5 156.5L350.5 110Z" stroke="#D9D9D9"/>
<line y1="-0.5" x2="60.3672" y2="-0.5" transform="matrix(-0.599124 0.800656 -0.803312 -0.595559 422.167 109)" stroke="#D9D9D9"/>
<line y1="-0.5" x2="59.8997" y2="-0.5" transform="matrix(-0.59821 0.80134 -0.80399 -0.594643 458 157)" stroke="#D9D9D9"/>
<line y1="-0.5" x2="59.8347" y2="-0.5" transform="matrix(0.604456 0.796639 -0.799329 0.600894 386 157.333)" stroke="#D9D9D9"/>
<line y1="-0.5" x2="59.8997" y2="-0.5" transform="matrix(0.598209 0.80134 -0.80399 0.594643 422.167 109.333)" stroke="#D9D9D9"/>
<path d="M386.5 158L422.5 109L458.5 158L422.5 204.5L386.5 158Z" stroke="#D9D9D9"/>
<line y1="-0.5" x2="60.3672" y2="-0.5" transform="matrix(-0.599124 0.800656 -0.803312 -0.595559 314.167 61)" stroke="#D9D9D9"/>
<line y1="-0.5" x2="59.8997" y2="-0.5" transform="matrix(-0.59821 0.80134 -0.80399 -0.594643 350 109)" stroke="#D9D9D9"/>
<line y1="-0.5" x2="59.8347" y2="-0.5" transform="matrix(0.604456 0.796639 -0.799329 0.600894 278 109.333)" stroke="#D9D9D9"/>
<line y1="-0.5" x2="59.8997" y2="-0.5" transform="matrix(0.598209 0.80134 -0.80399 0.594643 314.167 61.333)" stroke="#D9D9D9"/>
<path d="M278.5 110L314.5 61L350.5 110L314.5 156.5L278.5 110Z" stroke="#D9D9D9"/>
<line y1="-0.5" x2="60.3672" y2="-0.5" transform="matrix(-0.599124 0.800656 -0.803312 -0.595559 386.167 157)" stroke="#D9D9D9"/>
<line y1="-0.5" x2="59.8997" y2="-0.5" transform="matrix(-0.59821 0.80134 -0.80399 -0.594643 422 205)" stroke="#D9D9D9"/>
<line y1="-0.5" x2="59.8347" y2="-0.5" transform="matrix(0.604456 0.796639 -0.799329 0.600894 350 205.333)" stroke="#D9D9D9"/>
<line y1="-0.5" x2="59.8997" y2="-0.5" transform="matrix(0.598209 0.80134 -0.80399 0.594643 386.167 157.333)" stroke="#D9D9D9"/>
<path d="M350.5 206L386.5 157L422.5 206L386.5 252.5L350.5 206Z" stroke="#D9D9D9"/>
<line y1="-0.5" x2="60.3672" y2="-0.5" transform="matrix(-0.599124 0.800656 -0.803312 -0.595559 278.167 109)" stroke="#D9D9D9"/>
<line y1="-0.5" x2="59.8997" y2="-0.5" transform="matrix(-0.59821 0.80134 -0.80399 -0.594643 314 157)" stroke="#D9D9D9"/>
<line y1="-0.5" x2="59.8347" y2="-0.5" transform="matrix(0.604456 0.796639 -0.799329 0.600894 242 157.333)" stroke="#D9D9D9"/>
<line y1="-0.5" x2="59.8997" y2="-0.5" transform="matrix(0.598209 0.80134 -0.80399 0.594643 278.167 109.333)" stroke="#D9D9D9"/>
<path d="M242.5 158L278.5 109L314.5 158L278.5 204.5L242.5 158Z" fill="#FF00E6" fill-opacity="0.28" stroke="#D9D9D9"/>
<line y1="-0.5" x2="60.3672" y2="-0.5" transform="matrix(-0.599124 0.800656 -0.803312 -0.595559 314.167 157)" stroke="#D9D9D9"/>
<line y1="-0.5" x2="59.8997" y2="-0.5" transform="matrix(-0.59821 0.80134 -0.80399 -0.594643 350 205)" stroke="#D9D9D9"/>
<line y1="-0.5" x2="59.8347" y2="-0.5" transform="matrix(0.604456 0.796639 -0.799329 0.600894 278 205.333)" stroke="#D9D9D9"/>
<line y1="-0.5" x2="59.8997" y2="-0.5" transform="matrix(0.598209 0.80134 -0.80399 0.594643 314.167 157.333)" stroke="#D9D9D9"/>
<path d="M278.5 206L314.5 157L350.5 206L314.5 252.5L278.5 206Z" stroke="#D9D9D9"/>
<line y1="-0.5" x2="60.3672" y2="-0.5" transform="matrix(-0.599124 0.800656 -0.803312 -0.595559 350.167 205)" stroke="#D9D9D9"/>
<line y1="-0.5" x2="59.8997" y2="-0.5" transform="matrix(-0.59821 0.80134 -0.80399 -0.594643 386 253)" stroke="#D9D9D9"/>
<line y1="-0.5" x2="59.8347" y2="-0.5" transform="matrix(0.604456 0.796639 -0.799329 0.600894 314 253.333)" stroke="#D9D9D9"/>
<line y1="-0.5" x2="59.8997" y2="-0.5" transform="matrix(0.598209 0.80134 -0.80399 0.594643 350.167 205.333)" stroke="#D9D9D9"/>
<path d="M314.5 254L350.5 205L386.5 254L350.5 300.5L314.5 254Z" stroke="#D9D9D9"/>
<line y1="-0.5" x2="60.3672" y2="-0.5" transform="matrix(-0.599124 0.800656 -0.803312 -0.595559 350.167 109)" stroke="#D9D9D9"/>
<line y1="-0.5" x2="59.8997" y2="-0.5" transform="matrix(-0.59821 0.80134 -0.80399 -0.594643 386 157)" stroke="#D9D9D9"/>
<line y1="-0.5" x2="59.8347" y2="-0.5" transform="matrix(0.604456 0.796639 -0.799329 0.600894 314 157.333)" stroke="#D9D9D9"/>
<line y1="-0.5" x2="59.8997" y2="-0.5" transform="matrix(0.598209 0.80134 -0.80399 0.594643 350.167 109.333)" stroke="#D9D9D9"/>
<path d="M241.293 168.293C240.902 168.683 240.902 169.317 241.293 169.707L247.657 176.071C248.047 176.462 248.681 176.462 249.071 176.071C249.462 175.681 249.462 175.047 249.071 174.657L243.414 169L249.071 163.343C249.462 162.953 249.462 162.319 249.071 161.929C248.681 161.538 248.047 161.538 247.657 161.929L241.293 168.293ZM314.707 169.707C315.098 169.317 315.098 168.683 314.707 168.293L308.343 161.929C307.953 161.538 307.319 161.538 306.929 161.929C306.538 162.319 306.538 162.953 306.929 163.343L312.586 169L306.929 174.657C306.538 175.047 306.538 175.681 306.929 176.071C307.319 176.462 307.953 176.462 308.343 176.071L314.707 169.707ZM242 170H314V168H242V170Z" fill="black"/>
<path d="M312.293 168.293C311.902 168.683 311.902 169.317 312.293 169.707L318.657 176.071C319.047 176.462 319.681 176.462 320.071 176.071C320.462 175.681 320.462 175.047 320.071 174.657L314.414 169L320.071 163.343C320.462 162.953 320.462 162.319 320.071 161.929C319.681 161.538 319.047 161.538 318.657 161.929L312.293 168.293ZM385.707 169.707C386.098 169.317 386.098 168.683 385.707 168.293L379.343 161.929C378.953 161.538 378.319 161.538 377.929 161.929C377.538 162.319 377.538 162.953 377.929 163.343L383.586 169L377.929 174.657C377.538 175.047 377.538 175.681 377.929 176.071C378.319 176.462 378.953 176.462 379.343 176.071L385.707 169.707ZM313 170H385V168H313V170Z" fill="black"/>
<path d="M385.293 168.293C384.902 168.683 384.902 169.317 385.293 169.707L391.657 176.071C392.047 176.462 392.681 176.462 393.071 176.071C393.462 175.681 393.462 175.047 393.071 174.657L387.414 169L393.071 163.343C393.462 162.953 393.462 162.319 393.071 161.929C392.681 161.538 392.047 161.538 391.657 161.929L385.293 168.293ZM458.707 169.707C459.098 169.317 459.098 168.683 458.707 168.293L452.343 161.929C451.953 161.538 451.319 161.538 450.929 161.929C450.538 162.319 450.538 162.953 450.929 163.343L456.586 169L450.929 174.657C450.538 175.047 450.538 175.681 450.929 176.071C451.319 176.462 451.953 176.462 452.343 176.071L458.707 169.707ZM386 170H458V168H386V170Z" fill="black"/>
<path d="M242.292 156.781C241.901 157.172 241.901 157.805 242.292 158.195L248.656 164.559C249.046 164.95 249.68 164.95 250.07 164.559C250.461 164.169 250.461 163.536 250.07 163.145L244.413 157.488L250.07 151.831C250.461 151.441 250.461 150.808 250.07 150.417C249.68 150.027 249.046 150.027 248.656 150.417L242.292 156.781ZM458.708 158.195C459.099 157.805 459.099 157.172 458.708 156.781L452.344 150.417C451.954 150.027 451.321 150.027 450.93 150.417C450.54 150.808 450.54 151.441 450.93 151.831L456.587 157.488L450.93 163.145C450.54 163.536 450.54 164.169 450.93 164.559C451.321 164.95 451.954 164.95 452.344 164.559L458.708 158.195ZM242.999 158.488H458.001V156.488H242.999V158.488Z" fill="#81DB7A"/>
<path d="M267.12 188V186.096H269.328V180.224H267.424V178.768C267.979 178.661 268.448 178.533 268.832 178.384C269.227 178.235 269.6 178.053 269.952 177.84H271.68V186.096H273.584V188H267.12ZM274.661 190.56L277.877 176.64H279.413L276.197 190.56H274.661ZM283.763 188.192C283.219 188.192 282.723 188.128 282.275 188C281.838 187.883 281.448 187.717 281.107 187.504C280.766 187.291 280.472 187.04 280.227 186.752L281.315 185.264C281.624 185.563 281.966 185.808 282.339 186C282.712 186.192 283.112 186.288 283.539 186.288C284.03 186.288 284.424 186.187 284.723 185.984C285.032 185.771 285.187 185.472 285.187 185.088C285.187 184.789 285.112 184.533 284.963 184.32C284.814 184.096 284.542 183.925 284.147 183.808C283.763 183.691 283.198 183.632 282.451 183.632V181.968C283.059 181.968 283.539 181.909 283.891 181.792C284.243 181.675 284.488 181.515 284.627 181.312C284.776 181.109 284.851 180.875 284.851 180.608C284.851 180.245 284.739 179.968 284.515 179.776C284.302 179.584 283.998 179.488 283.603 179.488C283.24 179.488 282.91 179.568 282.611 179.728C282.323 179.877 282.019 180.096 281.699 180.384L280.515 178.944C280.984 178.539 281.48 178.224 282.003 178C282.526 177.765 283.096 177.648 283.715 177.648C284.408 177.648 285.016 177.76 285.539 177.984C286.072 178.197 286.483 178.512 286.771 178.928C287.07 179.333 287.219 179.835 287.219 180.432C287.219 180.955 287.07 181.403 286.771 181.776C286.483 182.149 286.067 182.453 285.523 182.688V182.752C285.907 182.869 286.254 183.04 286.563 183.264C286.872 183.477 287.112 183.749 287.283 184.08C287.454 184.411 287.539 184.795 287.539 185.232C287.539 185.861 287.363 186.4 287.011 186.848C286.67 187.285 286.211 187.621 285.635 187.856C285.07 188.08 284.446 188.192 283.763 188.192Z" fill="black"/>
<path d="M340.12 189V187.096H342.328V181.224H340.424V179.768C340.979 179.661 341.448 179.533 341.832 179.384C342.227 179.235 342.6 179.053 342.952 178.84H344.68V187.096H346.584V189H340.12ZM347.661 191.56L350.877 177.64H352.413L349.197 191.56H347.661ZM356.763 189.192C356.219 189.192 355.723 189.128 355.275 189C354.838 188.883 354.448 188.717 354.107 188.504C353.766 188.291 353.472 188.04 353.227 187.752L354.315 186.264C354.624 186.563 354.966 186.808 355.339 187C355.712 187.192 356.112 187.288 356.539 187.288C357.03 187.288 357.424 187.187 357.723 186.984C358.032 186.771 358.187 186.472 358.187 186.088C358.187 185.789 358.112 185.533 357.963 185.32C357.814 185.096 357.542 184.925 357.147 184.808C356.763 184.691 356.198 184.632 355.451 184.632V182.968C356.059 182.968 356.539 182.909 356.891 182.792C357.243 182.675 357.488 182.515 357.627 182.312C357.776 182.109 357.851 181.875 357.851 181.608C357.851 181.245 357.739 180.968 357.515 180.776C357.302 180.584 356.998 180.488 356.603 180.488C356.24 180.488 355.91 180.568 355.611 180.728C355.323 180.877 355.019 181.096 354.699 181.384L353.515 179.944C353.984 179.539 354.48 179.224 355.003 179C355.526 178.765 356.096 178.648 356.715 178.648C357.408 178.648 358.016 178.76 358.539 178.984C359.072 179.197 359.483 179.512 359.771 179.928C360.07 180.333 360.219 180.835 360.219 181.432C360.219 181.955 360.07 182.403 359.771 182.776C359.483 183.149 359.067 183.453 358.523 183.688V183.752C358.907 183.869 359.254 184.04 359.563 184.264C359.872 184.477 360.112 184.749 360.283 185.08C360.454 185.411 360.539 185.795 360.539 186.232C360.539 186.861 360.363 187.4 360.011 187.848C359.67 188.285 359.211 188.621 358.635 188.856C358.07 189.08 357.446 189.192 356.763 189.192Z" fill="black"/>
<path d="M418.12 189V187.096H420.328V181.224H418.424V179.768C418.979 179.661 419.448 179.533 419.832 179.384C420.227 179.235 420.6 179.053 420.952 178.84H422.68V187.096H424.584V189H418.12ZM425.661 191.56L428.877 177.64H430.413L427.197 191.56H425.661ZM434.763 189.192C434.219 189.192 433.723 189.128 433.275 189C432.838 188.883 432.448 188.717 432.107 188.504C431.766 188.291 431.472 188.04 431.227 187.752L432.315 186.264C432.624 186.563 432.966 186.808 433.339 187C433.712 187.192 434.112 187.288 434.539 187.288C435.03 187.288 435.424 187.187 435.723 186.984C436.032 186.771 436.187 186.472 436.187 186.088C436.187 185.789 436.112 185.533 435.963 185.32C435.814 185.096 435.542 184.925 435.147 184.808C434.763 184.691 434.198 184.632 433.451 184.632V182.968C434.059 182.968 434.539 182.909 434.891 182.792C435.243 182.675 435.488 182.515 435.627 182.312C435.776 182.109 435.851 181.875 435.851 181.608C435.851 181.245 435.739 180.968 435.515 180.776C435.302 180.584 434.998 180.488 434.603 180.488C434.24 180.488 433.91 180.568 433.611 180.728C433.323 180.877 433.019 181.096 432.699 181.384L431.515 179.944C431.984 179.539 432.48 179.224 433.003 179C433.526 178.765 434.096 178.648 434.715 178.648C435.408 178.648 436.016 178.76 436.539 178.984C437.072 179.197 437.483 179.512 437.771 179.928C438.07 180.333 438.219 180.835 438.219 181.432C438.219 181.955 438.07 182.403 437.771 182.776C437.483 183.149 437.067 183.453 436.523 183.688V183.752C436.907 183.869 437.254 184.04 437.563 184.264C437.872 184.477 438.112 184.749 438.283 185.08C438.454 185.411 438.539 185.795 438.539 186.232C438.539 186.861 438.363 187.4 438.011 187.848C437.67 188.285 437.211 188.621 436.635 188.856C436.07 189.08 435.446 189.192 434.763 189.192Z" fill="black"/>
</svg>
