<svg width="730" height="349" viewBox="0 0 730 349" fill="none" xmlns="http://www.w3.org/2000/svg">
<rect x="20.5" y="21.5" width="39" height="39" stroke="#B4B4B4"/>
<rect x="20.5" y="60.5" width="39" height="39" stroke="#B4B4B4"/>
<rect x="20.5" y="99.5" width="39" height="39" stroke="#B4B4B4"/>
<rect x="20.5" y="138.5" width="39" height="39" stroke="#B4B4B4"/>
<rect x="20.5" y="177.5" width="39" height="39" stroke="#B4B4B4"/>
<rect x="20.5" y="216.5" width="39" height="39" stroke="#B4B4B4"/>
<rect x="20.5" y="255.5" width="39" height="39" stroke="#B4B4B4"/>
<rect x="20.5" y="294.5" width="39" height="39" stroke="#B4B4B4"/>
<rect x="59.5" y="21.5" width="39" height="39" stroke="#B4B4B4"/>
<rect x="59.5" y="60.5" width="39" height="39" stroke="#B4B4B4"/>
<rect x="59.5" y="99.5" width="39" height="39" stroke="#B4B4B4"/>
<rect x="59.5" y="138.5" width="39" height="39" stroke="#B4B4B4"/>
<rect x="59.5" y="177.5" width="39" height="39" stroke="#B4B4B4"/>
<rect x="59.5" y="216.5" width="39" height="39" stroke="#B4B4B4"/>
<rect x="59.5" y="255.5" width="39" height="39" stroke="#B4B4B4"/>
<rect x="59.5" y="294.5" width="39" height="39" stroke="#B4B4B4"/>
<rect x="98.5" y="21.5" width="39" height="39" stroke="#B4B4B4"/>
<rect x="98.5" y="60.5" width="39" height="39" stroke="#B4B4B4"/>
<rect x="98.5" y="99.5" width="39" height="39" stroke="#B4B4B4"/>
<rect x="98.5" y="138.5" width="39" height="39" stroke="#B4B4B4"/>
<rect x="98.5" y="177.5" width="39" height="39" stroke="#B4B4B4"/>
<rect x="98.5" y="216.5" width="39" height="39" stroke="#B4B4B4"/>
<rect x="98.5" y="255.5" width="39" height="39" stroke="#B4B4B4"/>
<rect x="98.5" y="294.5" width="39" height="39" stroke="#B4B4B4"/>
<rect x="137.5" y="21.5" width="39" height="39" stroke="#B4B4B4"/>
<rect x="137.5" y="60.5" width="39" height="39" stroke="#B4B4B4"/>
<rect x="137.5" y="99.5" width="39" height="39" stroke="#B4B4B4"/>
<rect x="137.5" y="138.5" width="39" height="39" stroke="#B4B4B4"/>
<rect x="137.5" y="177.5" width="39" height="39" stroke="#B4B4B4"/>
<rect x="137.5" y="216.5" width="39" height="39" stroke="#B4B4B4"/>
<rect x="137.5" y="255.5" width="39" height="39" stroke="#B4B4B4"/>
<rect x="137.5" y="294.5" width="39" height="39" stroke="#B4B4B4"/>
<rect x="176.5" y="21.5" width="39" height="39" stroke="#B4B4B4"/>
<rect x="176.5" y="60.5" width="39" height="39" stroke="#B4B4B4"/>
<rect x="176.5" y="99.5" width="39" height="39" stroke="#B4B4B4"/>
<rect x="176.5" y="138.5" width="39" height="39" stroke="#B4B4B4"/>
<rect x="176.5" y="177.5" width="39" height="39" stroke="#B4B4B4"/>
<rect x="176.5" y="216.5" width="39" height="39" stroke="#B4B4B4"/>
<rect x="176.5" y="255.5" width="39" height="39" stroke="#B4B4B4"/>
<rect x="176.5" y="294.5" width="39" height="39" stroke="#B4B4B4"/>
<rect x="215.5" y="21.5" width="39" height="39" stroke="#B4B4B4"/>
<rect x="215.5" y="60.5" width="39" height="39" stroke="#B4B4B4"/>
<rect x="215.5" y="99.5" width="39" height="39" stroke="#B4B4B4"/>
<rect x="215.5" y="138.5" width="39" height="39" stroke="#B4B4B4"/>
<rect x="215.5" y="177.5" width="39" height="39" stroke="#B4B4B4"/>
<rect x="215.5" y="216.5" width="39" height="39" stroke="#B4B4B4"/>
<rect x="215.5" y="255.5" width="39" height="39" stroke="#B4B4B4"/>
<rect x="215.5" y="294.5" width="39" height="39" stroke="#B4B4B4"/>
<rect x="254.5" y="21.5" width="39" height="39" stroke="#B4B4B4"/>
<rect x="254.5" y="60.5" width="39" height="39" stroke="#B4B4B4"/>
<rect x="254.5" y="99.5" width="39" height="39" stroke="#B4B4B4"/>
<rect x="254.5" y="138.5" width="39" height="39" stroke="#B4B4B4"/>
<rect x="254.5" y="177.5" width="39" height="39" stroke="#B4B4B4"/>
<rect x="254.5" y="216.5" width="39" height="39" stroke="#B4B4B4"/>
<rect x="254.5" y="255.5" width="39" height="39" stroke="#B4B4B4"/>
<rect x="254.5" y="294.5" width="39" height="39" stroke="#B4B4B4"/>
<rect x="293.5" y="21.5" width="39" height="39" stroke="#B4B4B4"/>
<rect x="293.5" y="60.5" width="39" height="39" stroke="#B4B4B4"/>
<rect x="293.5" y="99.5" width="39" height="39" stroke="#B4B4B4"/>
<rect x="293.5" y="138.5" width="39" height="39" stroke="#B4B4B4"/>
<rect x="293.5" y="177.5" width="39" height="39" stroke="#B4B4B4"/>
<rect x="293.5" y="216.5" width="39" height="39" stroke="#B4B4B4"/>
<rect x="293.5" y="255.5" width="39" height="39" stroke="#B4B4B4"/>
<rect x="293.5" y="294.5" width="39" height="39" stroke="#B4B4B4"/>
<path d="M3.27841 7.63636C3.27841 6.5625 3.41761 5.57528 3.69602 4.67472C3.97727 3.77131 4.37784 2.94034 4.89773 2.18182H5.78409C5.57955 2.46307 5.38778 2.80966 5.20881 3.22159C5.03267 3.63068 4.87784 4.08097 4.74432 4.57244C4.6108 5.06108 4.50568 5.56676 4.42898 6.08949C4.35511 6.61222 4.31818 7.12784 4.31818 7.63636C4.31818 8.3125 4.38352 8.99858 4.5142 9.6946C4.64489 10.3906 4.82102 11.0369 5.04261 11.6335C5.2642 12.2301 5.51136 12.7159 5.78409 13.0909H4.89773C4.37784 12.3324 3.97727 11.5028 3.69602 10.6023C3.41761 9.69886 3.27841 8.71023 3.27841 7.63636ZM10.0977 12.1193C9.45561 12.1193 8.90874 11.9446 8.45703 11.5952C8.00533 11.2429 7.66016 10.733 7.42152 10.0653C7.18288 9.39489 7.06357 8.58523 7.06357 7.63636C7.06357 6.69318 7.18288 5.88778 7.42152 5.22017C7.663 4.54972 8.00959 4.03835 8.46129 3.68608C8.91584 3.33097 9.46129 3.15341 10.0977 3.15341C10.734 3.15341 11.2781 3.33097 11.7298 3.68608C12.1843 4.03835 12.5309 4.54972 12.7695 5.22017C13.011 5.88778 13.1317 6.69318 13.1317 7.63636C13.1317 8.58523 13.0124 9.39489 12.7738 10.0653C12.5352 10.733 12.19 11.2429 11.7383 11.5952C11.2866 11.9446 10.7397 12.1193 10.0977 12.1193ZM10.0977 11.1818C10.734 11.1818 11.2283 10.875 11.5806 10.2614C11.9329 9.64773 12.109 8.77273 12.109 7.63636C12.109 6.88068 12.0281 6.23722 11.8661 5.70597C11.707 5.17472 11.4769 4.76989 11.1758 4.49148C10.8775 4.21307 10.5181 4.07386 10.0977 4.07386C9.46697 4.07386 8.97408 4.38494 8.61896 5.0071C8.26385 5.62642 8.08629 6.50284 8.08629 7.63636C8.08629 8.39205 8.16584 9.03409 8.32493 9.5625C8.48402 10.0909 8.71271 10.4929 9.01101 10.7685C9.31214 11.044 9.67436 11.1818 10.0977 11.1818ZM15.9634 10.8068L15.8952 11.267C15.8469 11.5909 15.7731 11.9375 15.6737 12.3068C15.5771 12.6761 15.4762 13.0241 15.3711 13.3509C15.266 13.6776 15.1793 13.9375 15.1112 14.1307H14.3441C14.381 13.9489 14.4293 13.7088 14.489 13.4105C14.5487 13.1122 14.6083 12.7784 14.668 12.4091C14.7305 12.0426 14.7816 11.6676 14.8214 11.2841L14.8725 10.8068H15.9634ZM20.3516 12.1193C19.7095 12.1193 19.1626 11.9446 18.7109 11.5952C18.2592 11.2429 17.9141 10.733 17.6754 10.0653C17.4368 9.39489 17.3175 8.58523 17.3175 7.63636C17.3175 6.69318 17.4368 5.88778 17.6754 5.22017C17.9169 4.54972 18.2635 4.03835 18.7152 3.68608C19.1697 3.33097 19.7152 3.15341 20.3516 3.15341C20.9879 3.15341 21.532 3.33097 21.9837 3.68608C22.4382 4.03835 22.7848 4.54972 23.0234 5.22017C23.2649 5.88778 23.3857 6.69318 23.3857 7.63636C23.3857 8.58523 23.2663 9.39489 23.0277 10.0653C22.7891 10.733 22.4439 11.2429 21.9922 11.5952C21.5405 11.9446 20.9936 12.1193 20.3516 12.1193ZM20.3516 11.1818C20.9879 11.1818 21.4822 10.875 21.8345 10.2614C22.1868 9.64773 22.3629 8.77273 22.3629 7.63636C22.3629 6.88068 22.282 6.23722 22.12 5.70597C21.9609 5.17472 21.7308 4.76989 21.4297 4.49148C21.1314 4.21307 20.772 4.07386 20.3516 4.07386C19.7209 4.07386 19.228 4.38494 18.8729 5.0071C18.5178 5.62642 18.3402 6.50284 18.3402 7.63636C18.3402 8.39205 18.4197 9.03409 18.5788 9.5625C18.7379 10.0909 18.9666 10.4929 19.2649 10.7685C19.5661 11.044 19.9283 11.1818 20.3516 11.1818ZM27.1697 7.63636C27.1697 8.71023 27.0291 9.69886 26.7479 10.6023C26.4695 11.5028 26.0703 12.3324 25.5504 13.0909H24.6641C24.8686 12.8097 25.0589 12.4631 25.2351 12.0511C25.4141 11.642 25.5703 11.1932 25.7038 10.7045C25.8374 10.2131 25.9411 9.70597 26.0149 9.18324C26.0916 8.65767 26.13 8.14205 26.13 7.63636C26.13 6.96023 26.0646 6.27415 25.9339 5.57812C25.8033 4.8821 25.6271 4.2358 25.4055 3.6392C25.1839 3.04261 24.9368 2.55682 24.6641 2.18182H25.5504C26.0703 2.94034 26.4695 3.77131 26.7479 4.67472C27.0291 5.57528 27.1697 6.5625 27.1697 7.63636Z" fill="black"/>
<circle cx="21" cy="22" r="5" fill="black"/>
<path d="M19.8134 334.708C20.2039 335.098 20.8371 335.098 21.2276 334.708L27.5916 328.344C27.9821 327.953 27.9821 327.32 27.5916 326.93C27.2011 326.539 26.5679 326.539 26.1774 326.93L20.5205 332.586L14.8637 326.93C14.4731 326.539 13.84 326.539 13.4494 326.93C13.0589 327.32 13.0589 327.953 13.4494 328.344L19.8134 334.708ZM19.5205 25.999L19.5205 334.001H21.5205L21.5205 25.999H19.5205Z" fill="black"/>
<path d="M333.709 22.7071C334.099 22.3166 334.099 21.6834 333.709 21.2929L327.345 14.9289C326.954 14.5384 326.321 14.5384 325.931 14.9289C325.54 15.3195 325.54 15.9526 325.931 16.3431L331.587 22L325.931 27.6569C325.54 28.0474 325.54 28.6805 325.931 29.0711C326.321 29.4616 326.954 29.4616 327.345 29.0711L333.709 22.7071ZM25 23L333.002 23V21L25 21V23Z" fill="black"/>
<path d="M336.67 10.4545L338.239 13.1307L339.807 10.4545H340.966L338.852 13.7273L340.966 17H339.807L338.239 14.4602L336.67 17H335.511L337.591 13.7273L335.511 10.4545H336.67Z" fill="black"/>
<path d="M1.56818 333.455C1.39773 333.455 1.24574 333.44 1.11222 333.412C0.978693 333.386 0.886364 333.361 0.835227 333.335L1.09091 332.449C1.33523 332.511 1.55114 332.534 1.73864 332.517C1.92614 332.5 2.09233 332.416 2.23722 332.266C2.38494 332.118 2.51989 331.878 2.64205 331.545L2.82955 331.034L0.409091 324.455H1.5L3.30682 329.67H3.375L5.18182 324.455H6.27273L3.49432 331.955C3.36932 332.293 3.21449 332.572 3.02983 332.794C2.84517 333.018 2.63068 333.185 2.38636 333.293C2.14489 333.401 1.87216 333.455 1.56818 333.455Z" fill="black"/>
<rect x="403.5" y="21.5" width="39" height="39" stroke="#B4B4B4"/>
<rect x="403.5" y="60.5" width="39" height="39" stroke="#B4B4B4"/>
<rect x="403.5" y="99.5" width="39" height="39" stroke="#B4B4B4"/>
<rect x="403.5" y="138.5" width="39" height="39" stroke="#B4B4B4"/>
<rect x="403.5" y="177.5" width="39" height="39" stroke="#B4B4B4"/>
<rect x="403.5" y="216.5" width="39" height="39" stroke="#B4B4B4"/>
<rect x="403.5" y="255.5" width="39" height="39" stroke="#B4B4B4"/>
<rect x="403.5" y="294.5" width="39" height="39" stroke="#B4B4B4"/>
<rect x="442.5" y="21.5" width="39" height="39" stroke="#B4B4B4"/>
<rect x="442.5" y="60.5" width="39" height="39" stroke="#B4B4B4"/>
<rect x="442.5" y="99.5" width="39" height="39" stroke="#B4B4B4"/>
<rect x="442.5" y="138.5" width="39" height="39" stroke="#B4B4B4"/>
<rect x="442.5" y="177.5" width="39" height="39" stroke="#B4B4B4"/>
<rect x="442.5" y="216.5" width="39" height="39" stroke="#B4B4B4"/>
<rect x="442.5" y="255.5" width="39" height="39" stroke="#B4B4B4"/>
<rect x="442.5" y="294.5" width="39" height="39" stroke="#B4B4B4"/>
<rect x="481.5" y="21.5" width="39" height="39" stroke="#B4B4B4"/>
<rect x="481.5" y="60.5" width="39" height="39" stroke="#B4B4B4"/>
<rect x="481.5" y="99.5" width="39" height="39" stroke="#B4B4B4"/>
<rect x="481.5" y="138.5" width="39" height="39" stroke="#B4B4B4"/>
<rect x="481.5" y="177.5" width="39" height="39" stroke="#B4B4B4"/>
<rect x="481.5" y="216.5" width="39" height="39" stroke="#B4B4B4"/>
<rect x="481.5" y="255.5" width="39" height="39" stroke="#B4B4B4"/>
<rect x="481.5" y="294.5" width="39" height="39" stroke="#B4B4B4"/>
<rect x="520.5" y="21.5" width="39" height="39" stroke="#B4B4B4"/>
<rect x="520.5" y="60.5" width="39" height="39" stroke="#B4B4B4"/>
<rect x="520.5" y="99.5" width="39" height="39" stroke="#B4B4B4"/>
<rect x="520.5" y="138.5" width="39" height="39" stroke="#B4B4B4"/>
<rect x="520.5" y="177.5" width="39" height="39" stroke="#B4B4B4"/>
<rect x="520.5" y="216.5" width="39" height="39" stroke="#B4B4B4"/>
<rect x="520.5" y="255.5" width="39" height="39" stroke="#B4B4B4"/>
<rect x="520.5" y="294.5" width="39" height="39" stroke="#B4B4B4"/>
<rect x="559.5" y="21.5" width="39" height="39" stroke="#B4B4B4"/>
<rect x="559.5" y="60.5" width="39" height="39" stroke="#B4B4B4"/>
<rect x="559.5" y="99.5" width="39" height="39" stroke="#B4B4B4"/>
<rect x="559.5" y="138.5" width="39" height="39" stroke="#B4B4B4"/>
<rect x="559.5" y="177.5" width="39" height="39" stroke="#B4B4B4"/>
<rect x="559.5" y="216.5" width="39" height="39" stroke="#B4B4B4"/>
<rect x="559.5" y="255.5" width="39" height="39" stroke="#B4B4B4"/>
<rect x="559.5" y="294.5" width="39" height="39" stroke="#B4B4B4"/>
<rect x="598.5" y="21.5" width="39" height="39" stroke="#B4B4B4"/>
<rect x="598.5" y="60.5" width="39" height="39" stroke="#B4B4B4"/>
<rect x="598.5" y="99.5" width="39" height="39" stroke="#B4B4B4"/>
<rect x="598.5" y="138.5" width="39" height="39" stroke="#B4B4B4"/>
<rect x="598.5" y="177.5" width="39" height="39" stroke="#B4B4B4"/>
<rect x="598.5" y="216.5" width="39" height="39" stroke="#B4B4B4"/>
<rect x="598.5" y="255.5" width="39" height="39" stroke="#B4B4B4"/>
<rect x="598.5" y="294.5" width="39" height="39" stroke="#B4B4B4"/>
<rect x="637.5" y="21.5" width="39" height="39" stroke="#B4B4B4"/>
<rect x="637.5" y="60.5" width="39" height="39" stroke="#B4B4B4"/>
<rect x="637.5" y="99.5" width="39" height="39" stroke="#B4B4B4"/>
<rect x="637.5" y="138.5" width="39" height="39" stroke="#B4B4B4"/>
<rect x="637.5" y="177.5" width="39" height="39" stroke="#B4B4B4"/>
<rect x="637.5" y="216.5" width="39" height="39" stroke="#B4B4B4"/>
<rect x="637.5" y="255.5" width="39" height="39" stroke="#B4B4B4"/>
<rect x="637.5" y="294.5" width="39" height="39" stroke="#B4B4B4"/>
<rect x="676.5" y="21.5" width="39" height="39" stroke="#B4B4B4"/>
<rect x="676.5" y="60.5" width="39" height="39" stroke="#B4B4B4"/>
<rect x="676.5" y="99.5" width="39" height="39" stroke="#B4B4B4"/>
<rect x="676.5" y="138.5" width="39" height="39" stroke="#B4B4B4"/>
<rect x="676.5" y="177.5" width="39" height="39" stroke="#B4B4B4"/>
<rect x="676.5" y="216.5" width="39" height="39" stroke="#B4B4B4"/>
<rect x="676.5" y="255.5" width="39" height="39" stroke="#B4B4B4"/>
<rect x="676.5" y="294.5" width="39" height="39" stroke="#B4B4B4"/>
<path d="M530.278 164.636C530.278 163.562 530.418 162.575 530.696 161.675C530.977 160.771 531.378 159.94 531.898 159.182H532.784C532.58 159.463 532.388 159.81 532.209 160.222C532.033 160.631 531.878 161.081 531.744 161.572C531.611 162.061 531.506 162.567 531.429 163.089C531.355 163.612 531.318 164.128 531.318 164.636C531.318 165.312 531.384 165.999 531.514 166.695C531.645 167.391 531.821 168.037 532.043 168.634C532.264 169.23 532.511 169.716 532.784 170.091H531.898C531.378 169.332 530.977 168.503 530.696 167.602C530.418 166.699 530.278 165.71 530.278 164.636ZM537.098 169.119C536.456 169.119 535.909 168.945 535.457 168.595C535.005 168.243 534.66 167.733 534.422 167.065C534.183 166.395 534.064 165.585 534.064 164.636C534.064 163.693 534.183 162.888 534.422 162.22C534.663 161.55 535.01 161.038 535.461 160.686C535.916 160.331 536.461 160.153 537.098 160.153C537.734 160.153 538.278 160.331 538.73 160.686C539.184 161.038 539.531 161.55 539.77 162.22C540.011 162.888 540.132 163.693 540.132 164.636C540.132 165.585 540.012 166.395 539.774 167.065C539.535 167.733 539.19 168.243 538.738 168.595C538.287 168.945 537.74 169.119 537.098 169.119ZM537.098 168.182C537.734 168.182 538.228 167.875 538.581 167.261C538.933 166.648 539.109 165.773 539.109 164.636C539.109 163.881 539.028 163.237 538.866 162.706C538.707 162.175 538.477 161.77 538.176 161.491C537.877 161.213 537.518 161.074 537.098 161.074C536.467 161.074 535.974 161.385 535.619 162.007C535.264 162.626 535.086 163.503 535.086 164.636C535.086 165.392 535.166 166.034 535.325 166.562C535.484 167.091 535.713 167.493 536.011 167.768C536.312 168.044 536.674 168.182 537.098 168.182ZM542.963 167.807L542.895 168.267C542.847 168.591 542.773 168.938 542.674 169.307C542.577 169.676 542.476 170.024 542.371 170.351C542.266 170.678 542.179 170.938 542.111 171.131H541.344C541.381 170.949 541.429 170.709 541.489 170.411C541.549 170.112 541.608 169.778 541.668 169.409C541.73 169.043 541.782 168.668 541.821 168.284L541.873 167.807H542.963ZM547.352 169.119C546.71 169.119 546.163 168.945 545.711 168.595C545.259 168.243 544.914 167.733 544.675 167.065C544.437 166.395 544.317 165.585 544.317 164.636C544.317 163.693 544.437 162.888 544.675 162.22C544.917 161.55 545.263 161.038 545.715 160.686C546.17 160.331 546.715 160.153 547.352 160.153C547.988 160.153 548.532 160.331 548.984 160.686C549.438 161.038 549.785 161.55 550.023 162.22C550.265 162.888 550.386 163.693 550.386 164.636C550.386 165.585 550.266 166.395 550.028 167.065C549.789 167.733 549.444 168.243 548.992 168.595C548.54 168.945 547.994 169.119 547.352 169.119ZM547.352 168.182C547.988 168.182 548.482 167.875 548.835 167.261C549.187 166.648 549.363 165.773 549.363 164.636C549.363 163.881 549.282 163.237 549.12 162.706C548.961 162.175 548.731 161.77 548.43 161.491C548.131 161.213 547.772 161.074 547.352 161.074C546.721 161.074 546.228 161.385 545.873 162.007C545.518 162.626 545.34 163.503 545.34 164.636C545.34 165.392 545.42 166.034 545.579 166.562C545.738 167.091 545.967 167.493 546.265 167.768C546.566 168.044 546.928 168.182 547.352 168.182ZM554.17 164.636C554.17 165.71 554.029 166.699 553.748 167.602C553.469 168.503 553.07 169.332 552.55 170.091H551.664C551.869 169.81 552.059 169.463 552.235 169.051C552.414 168.642 552.57 168.193 552.704 167.705C552.837 167.213 552.941 166.706 553.015 166.183C553.092 165.658 553.13 165.142 553.13 164.636C553.13 163.96 553.065 163.274 552.934 162.578C552.803 161.882 552.627 161.236 552.406 160.639C552.184 160.043 551.937 159.557 551.664 159.182H552.55C553.07 159.94 553.469 160.771 553.748 161.675C554.029 162.575 554.17 163.562 554.17 164.636Z" fill="black"/>
<circle cx="560" cy="178" r="5" fill="black"/>
<path d="M559.293 331.709C559.683 332.099 560.317 332.099 560.707 331.709L567.071 325.345C567.462 324.954 567.462 324.321 567.071 323.931C566.681 323.54 566.047 323.54 565.657 323.931L560 329.587L554.343 323.931C553.953 323.54 553.319 323.54 552.929 323.931C552.538 324.321 552.538 324.954 552.929 325.345L559.293 331.709ZM559 23V331.002H561V23H559Z" fill="black"/>
<path d="M713.706 178.709C714.098 178.32 714.1 177.687 713.711 177.295L707.368 170.911C706.978 170.519 706.345 170.517 705.953 170.906C705.562 171.295 705.56 171.929 705.949 172.32L711.587 177.995L705.912 183.634C705.521 184.023 705.519 184.656 705.908 185.048C706.297 185.44 706.93 185.442 707.322 185.053L713.706 178.709ZM402.997 178L712.998 179L713.005 177L403.003 176L402.997 178Z" fill="black"/>
<path d="M724.67 174.455L726.239 177.131L727.807 174.455H728.966L726.852 177.727L728.966 181H727.807L726.239 178.46L724.67 181H723.511L725.591 177.727L723.511 174.455H724.67Z" fill="black"/>
<path d="M557.568 348.455C557.398 348.455 557.246 348.44 557.112 348.412C556.979 348.386 556.886 348.361 556.835 348.335L557.091 347.449C557.335 347.511 557.551 347.534 557.739 347.517C557.926 347.5 558.092 347.416 558.237 347.266C558.385 347.118 558.52 346.878 558.642 346.545L558.83 346.034L556.409 339.455H557.5L559.307 344.67H559.375L561.182 339.455H562.273L559.494 346.955C559.369 347.293 559.214 347.572 559.03 347.794C558.845 348.018 558.631 348.185 558.386 348.293C558.145 348.401 557.872 348.455 557.568 348.455Z" fill="black"/>
</svg>
