<svg width="731" height="348" viewBox="0 0 731 348" fill="none" xmlns="http://www.w3.org/2000/svg">
<path d="M421.396 12.8111V11.1611H425.299V12.8111H421.396ZM429.821 16.1904C428.848 16.1904 428.065 15.8255 427.473 15.0957C426.891 14.3553 426.6 13.3452 426.6 12.0654C426.6 11.2087 426.753 10.4736 427.06 9.86017C427.377 9.24671 427.785 8.77605 428.282 8.44817C428.789 8.10971 429.318 7.94048 429.868 7.94048C430.302 7.94048 430.667 8.01452 430.963 8.16259C431.259 8.31067 431.539 8.51163 431.804 8.76547L431.709 7.55972V4.8785H434.041V16H432.137L431.978 15.2226H431.915C431.64 15.4976 431.317 15.7303 430.947 15.9207C430.577 16.1005 430.201 16.1904 429.821 16.1904ZM430.423 14.2866C430.677 14.2866 430.91 14.2337 431.122 14.1279C431.333 14.0221 431.529 13.837 431.709 13.5726V10.352C431.508 10.1616 431.296 10.0294 431.074 9.95536C430.852 9.88132 430.63 9.8443 430.408 9.8443C430.154 9.8443 429.921 9.92363 429.71 10.0823C429.498 10.2409 429.324 10.4842 429.186 10.8121C429.059 11.1294 428.996 11.5366 428.996 12.0337C428.996 12.8058 429.123 13.377 429.376 13.7471C429.63 14.1068 429.979 14.2866 430.423 14.2866ZM435.282 18.5384L438.471 4.73571H439.994L436.805 18.5384H435.282ZM441.039 16V14.5563C441.885 13.8053 442.636 13.102 443.292 12.4462C443.958 11.7904 444.477 11.1823 444.847 10.6217C445.227 10.0611 445.418 9.54815 445.418 9.08277C445.418 8.58566 445.291 8.21019 445.037 7.95634C444.783 7.69192 444.434 7.55972 443.99 7.55972C443.63 7.55972 443.302 7.66548 443.006 7.87702C442.721 8.07798 442.451 8.31596 442.197 8.59095L440.976 7.3852C441.462 6.8352 441.959 6.42271 442.467 6.14771C442.985 5.87272 443.599 5.73522 444.307 5.73522C444.963 5.73522 445.539 5.86743 446.037 6.13185C446.544 6.39627 446.936 6.76645 447.211 7.24241C447.496 7.71837 447.639 8.27894 447.639 8.92412C447.639 9.527 447.475 10.1193 447.147 10.701C446.83 11.2722 446.407 11.8433 445.878 12.4145C445.349 12.9856 444.789 13.5673 444.196 14.1596C444.45 14.1279 444.736 14.1015 445.053 14.0803C445.37 14.0486 445.645 14.0327 445.878 14.0327H448.131V16H441.039Z" fill="#81DB7A"/>
<path d="M457.092 12.8111V11.1611H460.995V12.8111H457.092ZM465.517 16.1904C464.544 16.1904 463.762 15.8255 463.169 15.0957C462.588 14.3553 462.297 13.3452 462.297 12.0654C462.297 11.2087 462.45 10.4736 462.757 9.86017C463.074 9.24671 463.481 8.77605 463.978 8.44817C464.486 8.10971 465.015 7.94048 465.565 7.94048C465.999 7.94048 466.363 8.01452 466.66 8.16259C466.956 8.31067 467.236 8.51163 467.5 8.76547L467.405 7.55972V4.8785H469.737V16H467.834L467.675 15.2226H467.612C467.337 15.4976 467.014 15.7303 466.644 15.9207C466.274 16.1005 465.898 16.1904 465.517 16.1904ZM466.12 14.2866C466.374 14.2866 466.607 14.2337 466.818 14.1279C467.03 14.0221 467.225 13.837 467.405 13.5726V10.352C467.204 10.1616 466.993 10.0294 466.771 9.95536C466.549 9.88132 466.326 9.8443 466.104 9.8443C465.851 9.8443 465.618 9.92363 465.406 10.0823C465.195 10.2409 465.02 10.4842 464.883 10.8121C464.756 11.1294 464.692 11.5366 464.692 12.0337C464.692 12.8058 464.819 13.377 465.073 13.7471C465.327 14.1068 465.676 14.2866 466.12 14.2866ZM470.979 18.5384L474.168 4.73571H475.691L472.502 18.5384H470.979ZM480.004 16.1904C479.465 16.1904 478.973 16.1269 478.529 16C478.095 15.8837 477.709 15.7197 477.37 15.5082C477.032 15.2966 476.741 15.0481 476.498 14.7625L477.577 13.2871C477.883 13.5832 478.222 13.8265 478.592 14.0169C478.962 14.2072 479.359 14.3024 479.782 14.3024C480.268 14.3024 480.66 14.2019 480.956 14.001C481.263 13.7894 481.416 13.4933 481.416 13.1125C481.416 12.8164 481.342 12.5625 481.194 12.351C481.046 12.1289 480.776 11.9597 480.385 11.8433C480.004 11.727 479.443 11.6688 478.703 11.6688V10.0188C479.306 10.0188 479.782 9.96065 480.131 9.8443C480.48 9.72796 480.723 9.56931 480.861 9.36835C481.009 9.16739 481.083 8.9347 481.083 8.67028C481.083 8.31067 480.972 8.03567 480.75 7.84529C480.538 7.65491 480.237 7.55972 479.845 7.55972C479.486 7.55972 479.158 7.63904 478.862 7.79769C478.576 7.94577 478.275 8.16259 477.957 8.44817L476.783 7.0203C477.249 6.61838 477.741 6.30636 478.259 6.08425C478.777 5.85156 479.343 5.73522 479.956 5.73522C480.644 5.73522 481.247 5.84627 481.765 6.06839C482.294 6.27992 482.701 6.59194 482.987 7.00443C483.283 7.40635 483.431 7.90346 483.431 8.49576C483.431 9.01402 483.283 9.45825 482.987 9.82844C482.701 10.1986 482.289 10.5001 481.749 10.7328V10.7962C482.13 10.9126 482.474 11.0818 482.78 11.3039C483.087 11.5154 483.325 11.7851 483.494 12.113C483.664 12.4409 483.748 12.8217 483.748 13.2553C483.748 13.8794 483.574 14.4135 483.225 14.8577C482.886 15.2914 482.431 15.6245 481.86 15.8572C481.3 16.0793 480.681 16.1904 480.004 16.1904Z" fill="#81DB7A"/>
<path d="M492.789 12.8111V11.1611H496.692V12.8111H492.789ZM501.214 16.1904C500.241 16.1904 499.458 15.8255 498.866 15.0957C498.284 14.3553 497.993 13.3452 497.993 12.0654C497.993 11.2087 498.147 10.4736 498.454 9.86017C498.771 9.24671 499.178 8.77605 499.675 8.44817C500.183 8.10971 500.712 7.94048 501.262 7.94048C501.695 7.94048 502.06 8.01452 502.356 8.16259C502.652 8.31067 502.933 8.51163 503.197 8.76547L503.102 7.55972V4.8785H505.434V16H503.53L503.372 15.2226H503.308C503.033 15.4976 502.711 15.7303 502.34 15.9207C501.97 16.1005 501.595 16.1904 501.214 16.1904ZM501.817 14.2866C502.071 14.2866 502.303 14.2337 502.515 14.1279C502.727 14.0221 502.922 13.837 503.102 13.5726V10.352C502.901 10.1616 502.69 10.0294 502.467 9.95536C502.245 9.88132 502.023 9.8443 501.801 9.8443C501.547 9.8443 501.315 9.92363 501.103 10.0823C500.891 10.2409 500.717 10.4842 500.579 10.8121C500.453 11.1294 500.389 11.5366 500.389 12.0337C500.389 12.8058 500.516 13.377 500.77 13.7471C501.024 14.1068 501.373 14.2866 501.817 14.2866ZM506.676 18.5384L509.864 4.73571H511.387L508.199 18.5384H506.676ZM516.304 16.1904C515.817 16.1904 515.346 16.0952 514.892 15.9048C514.437 15.7144 514.03 15.4183 513.67 15.0164C513.31 14.6144 513.025 14.1015 512.813 13.4774C512.602 12.8428 512.496 12.0813 512.496 11.1928C512.496 10.2515 512.607 9.4371 512.829 8.7496C513.051 8.06211 513.353 7.49625 513.733 7.05203C514.114 6.6078 514.548 6.27992 515.034 6.06839C515.521 5.84627 516.034 5.73522 516.573 5.73522C517.24 5.73522 517.816 5.85685 518.303 6.10012C518.789 6.33281 519.191 6.61309 519.508 6.94097L518.287 8.33711C518.107 8.14673 517.874 7.98279 517.589 7.84529C517.303 7.69721 517.012 7.62318 516.716 7.62318C516.335 7.62318 515.981 7.73423 515.653 7.95634C515.336 8.17846 515.082 8.55393 514.892 9.08277C514.712 9.60104 514.622 10.3044 514.622 11.1928C514.622 12.0284 514.696 12.6842 514.844 13.1601C515.003 13.6255 515.209 13.9587 515.463 14.1596C515.717 14.35 515.981 14.4452 516.256 14.4452C516.489 14.4452 516.7 14.387 516.891 14.2707C517.081 14.1543 517.234 13.9798 517.351 13.7471C517.467 13.5039 517.525 13.1919 517.525 12.8111C517.525 12.4515 517.467 12.1659 517.351 11.9544C517.234 11.7428 517.076 11.5895 516.875 11.4943C516.684 11.3991 516.462 11.3515 516.208 11.3515C515.944 11.3515 515.669 11.4308 515.383 11.5895C515.108 11.7481 514.86 12.0284 514.638 12.4303L514.527 10.9073C514.791 10.5159 515.13 10.2198 515.542 10.0188C515.955 9.80728 516.325 9.70152 516.653 9.70152C517.224 9.70152 517.737 9.81257 518.192 10.0347C518.646 10.2568 519.001 10.6005 519.255 11.0659C519.519 11.5207 519.651 12.1024 519.651 12.8111C519.651 13.5092 519.498 14.112 519.191 14.6197C518.895 15.1274 518.493 15.5188 517.985 15.7938C517.478 16.0582 516.917 16.1904 516.304 16.1904Z" fill="#81DB7A"/>
<path d="M570.314 16.1904C569.341 16.1904 568.559 15.8255 567.966 15.0957C567.385 14.3553 567.094 13.3452 567.094 12.0654C567.094 11.2087 567.247 10.4736 567.554 9.86017C567.871 9.24671 568.278 8.77605 568.775 8.44817C569.283 8.10971 569.812 7.94048 570.362 7.94048C570.796 7.94048 571.161 8.01452 571.457 8.16259C571.753 8.31067 572.033 8.51163 572.298 8.76547L572.202 7.55972V4.8785H574.535V16H572.631L572.472 15.2226H572.409C572.134 15.4976 571.811 15.7303 571.441 15.9207C571.071 16.1005 570.695 16.1904 570.314 16.1904ZM570.917 14.2866C571.171 14.2866 571.404 14.2337 571.615 14.1279C571.827 14.0221 572.023 13.837 572.202 13.5726V10.352C572.001 10.1616 571.79 10.0294 571.568 9.95536C571.346 9.88132 571.124 9.8443 570.901 9.8443C570.648 9.8443 570.415 9.92363 570.203 10.0823C569.992 10.2409 569.817 10.4842 569.68 10.8121C569.553 11.1294 569.489 11.5366 569.489 12.0337C569.489 12.8058 569.616 13.377 569.87 13.7471C570.124 14.1068 570.473 14.2866 570.917 14.2866ZM575.776 18.5384L578.965 4.73571H580.488L577.299 18.5384H575.776ZM585.404 16.1904C584.917 16.1904 584.447 16.0952 583.992 15.9048C583.537 15.7144 583.13 15.4183 582.77 15.0164C582.411 14.6144 582.125 14.1015 581.914 13.4774C581.702 12.8428 581.596 12.0813 581.596 11.1928C581.596 10.2515 581.707 9.4371 581.929 8.7496C582.152 8.06211 582.453 7.49625 582.834 7.05203C583.215 6.6078 583.648 6.27992 584.135 6.06839C584.621 5.84627 585.134 5.73522 585.674 5.73522C586.34 5.73522 586.916 5.85685 587.403 6.10012C587.89 6.33281 588.291 6.61309 588.609 6.94097L587.387 8.33711C587.207 8.14673 586.975 7.98279 586.689 7.84529C586.403 7.69721 586.113 7.62318 585.816 7.62318C585.436 7.62318 585.081 7.73423 584.753 7.95634C584.436 8.17846 584.182 8.55393 583.992 9.08277C583.812 9.60104 583.722 10.3044 583.722 11.1928C583.722 12.0284 583.796 12.6842 583.944 13.1601C584.103 13.6255 584.309 13.9587 584.563 14.1596C584.817 14.35 585.081 14.4452 585.356 14.4452C585.589 14.4452 585.801 14.387 585.991 14.2707C586.181 14.1543 586.335 13.9798 586.451 13.7471C586.567 13.5039 586.626 13.1919 586.626 12.8111C586.626 12.4515 586.567 12.1659 586.451 11.9544C586.335 11.7428 586.176 11.5895 585.975 11.4943C585.785 11.3991 585.563 11.3515 585.309 11.3515C585.044 11.3515 584.769 11.4308 584.484 11.5895C584.209 11.7481 583.96 12.0284 583.738 12.4303L583.627 10.9073C583.891 10.5159 584.23 10.2198 584.642 10.0188C585.055 9.80728 585.425 9.70152 585.753 9.70152C586.324 9.70152 586.837 9.81257 587.292 10.0347C587.747 10.2568 588.101 10.6005 588.355 11.0659C588.619 11.5207 588.752 12.1024 588.752 12.8111C588.752 13.5092 588.598 14.112 588.291 14.6197C587.995 15.1274 587.593 15.5188 587.086 15.7938C586.578 16.0582 586.017 16.1904 585.404 16.1904Z" fill="#81DB7A"/>
<path d="M606.011 16.1904C605.038 16.1904 604.255 15.8255 603.663 15.0957C603.081 14.3553 602.79 13.3452 602.79 12.0654C602.79 11.2087 602.944 10.4736 603.251 9.86017C603.568 9.24671 603.975 8.77605 604.472 8.44817C604.98 8.10971 605.509 7.94048 606.059 7.94048C606.492 7.94048 606.857 8.01452 607.153 8.16259C607.45 8.31067 607.73 8.51163 607.994 8.76547L607.899 7.55972V4.8785H610.231V16H608.327L608.169 15.2226H608.105C607.83 15.4976 607.508 15.7303 607.138 15.9207C606.767 16.1005 606.392 16.1904 606.011 16.1904ZM606.614 14.2866C606.868 14.2866 607.101 14.2337 607.312 14.1279C607.524 14.0221 607.719 13.837 607.899 13.5726V10.352C607.698 10.1616 607.487 10.0294 607.264 9.95536C607.042 9.88132 606.82 9.8443 606.598 9.8443C606.344 9.8443 606.112 9.92363 605.9 10.0823C605.689 10.2409 605.514 10.4842 605.377 10.8121C605.25 11.1294 605.186 11.5366 605.186 12.0337C605.186 12.8058 605.313 13.377 605.567 13.7471C605.821 14.1068 606.17 14.2866 606.614 14.2866ZM611.473 18.5384L614.662 4.73571H616.185L612.996 18.5384H611.473ZM620.498 16.1904C619.958 16.1904 619.467 16.1269 619.022 16C618.589 15.8837 618.203 15.7197 617.864 15.5082C617.526 15.2966 617.235 15.0481 616.992 14.7625L618.07 13.2871C618.377 13.5832 618.716 13.8265 619.086 14.0169C619.456 14.2072 619.853 14.3024 620.276 14.3024C620.762 14.3024 621.154 14.2019 621.45 14.001C621.756 13.7894 621.91 13.4933 621.91 13.1125C621.91 12.8164 621.836 12.5625 621.688 12.351C621.54 12.1289 621.27 11.9597 620.879 11.8433C620.498 11.727 619.937 11.6688 619.197 11.6688V10.0188C619.8 10.0188 620.276 9.96065 620.625 9.8443C620.974 9.72796 621.217 9.56931 621.355 9.36835C621.503 9.16739 621.577 8.9347 621.577 8.67028C621.577 8.31067 621.466 8.03567 621.243 7.84529C621.032 7.65491 620.73 7.55972 620.339 7.55972C619.98 7.55972 619.652 7.63904 619.355 7.79769C619.07 7.94577 618.768 8.16259 618.451 8.44817L617.277 7.0203C617.743 6.61838 618.234 6.30636 618.753 6.08425C619.271 5.85156 619.837 5.73522 620.45 5.73522C621.138 5.73522 621.741 5.84627 622.259 6.06839C622.788 6.27992 623.195 6.59194 623.48 7.00443C623.777 7.40635 623.925 7.90346 623.925 8.49576C623.925 9.01402 623.777 9.45825 623.48 9.82844C623.195 10.1986 622.782 10.5001 622.243 10.7328V10.7962C622.624 10.9126 622.967 11.0818 623.274 11.3039C623.581 11.5154 623.819 11.7851 623.988 12.113C624.157 12.4409 624.242 12.8217 624.242 13.2553C624.242 13.8794 624.067 14.4135 623.718 14.8577C623.38 15.2914 622.925 15.6245 622.354 15.8572C621.793 16.0793 621.175 16.1904 620.498 16.1904Z" fill="#81DB7A"/>
<path d="M640.716 16.1904C639.743 16.1904 638.96 15.8255 638.368 15.0957C637.786 14.3553 637.496 13.3452 637.496 12.0654C637.496 11.2087 637.649 10.4736 637.956 9.86017C638.273 9.24671 638.68 8.77605 639.177 8.44817C639.685 8.10971 640.214 7.94048 640.764 7.94048C641.197 7.94048 641.562 8.01452 641.859 8.16259C642.155 8.31067 642.435 8.51163 642.699 8.76547L642.604 7.55972V4.8785H644.936V16H643.033L642.874 15.2226H642.81C642.535 15.4976 642.213 15.7303 641.843 15.9207C641.472 16.1005 641.097 16.1904 640.716 16.1904ZM641.319 14.2866C641.573 14.2866 641.806 14.2337 642.017 14.1279C642.229 14.0221 642.424 13.837 642.604 13.5726V10.352C642.403 10.1616 642.192 10.0294 641.97 9.95536C641.747 9.88132 641.525 9.8443 641.303 9.8443C641.049 9.8443 640.817 9.92363 640.605 10.0823C640.394 10.2409 640.219 10.4842 640.082 10.8121C639.955 11.1294 639.891 11.5366 639.891 12.0337C639.891 12.8058 640.018 13.377 640.272 13.7471C640.526 14.1068 640.875 14.2866 641.319 14.2866ZM646.178 18.5384L649.367 4.73571H650.89L647.701 18.5384H646.178ZM651.935 16V14.5563C652.781 13.8053 653.532 13.102 654.187 12.4462C654.854 11.7904 655.372 11.1823 655.742 10.6217C656.123 10.0611 656.313 9.54815 656.313 9.08277C656.313 8.58566 656.187 8.21019 655.933 7.95634C655.679 7.69192 655.33 7.55972 654.886 7.55972C654.526 7.55972 654.198 7.66548 653.902 7.87702C653.616 8.07798 653.347 8.31596 653.093 8.59095L651.871 7.3852C652.358 6.8352 652.855 6.42271 653.363 6.14771C653.881 5.87272 654.494 5.73522 655.203 5.73522C655.859 5.73522 656.435 5.86743 656.932 6.13185C657.44 6.39627 657.831 6.76645 658.106 7.24241C658.392 7.71837 658.535 8.27894 658.535 8.92412C658.535 9.527 658.371 10.1193 658.043 10.701C657.725 11.2722 657.302 11.8433 656.774 12.4145C656.245 12.9856 655.684 13.5673 655.092 14.1596C655.346 14.1279 655.631 14.1015 655.949 14.0803C656.266 14.0486 656.541 14.0327 656.774 14.0327H659.026V16H651.935Z" fill="#81DB7A"/>
<line x1="649.272" y1="332.177" x2="649.272" y2="23.7975" stroke="#81DB7A" stroke-width="0.991575" stroke-dasharray="1.98 1.98"/>
<path d="M541.976 330.897C542.363 331.285 542.991 331.285 543.378 330.897L549.689 324.587C550.076 324.2 550.076 323.572 549.689 323.185C549.302 322.797 548.674 322.797 548.286 323.185L542.677 328.794L537.068 323.185C536.681 322.797 536.053 322.797 535.666 323.185C535.279 323.572 535.279 324.2 535.666 324.587L541.976 330.897ZM541.686 24.7896V330.196H543.669V24.7896H541.686Z" fill="black"/>
<path d="M702.011 38.5919V36.9419H705.914V38.5919H702.011ZM707.819 41.7808V31.4367H710.738C711.795 31.4367 712.71 31.6165 713.482 31.9761C714.265 32.3357 714.868 32.8963 715.291 33.6578C715.714 34.4087 715.926 35.3765 715.926 36.5611C715.926 37.7457 715.714 38.7241 715.291 39.4962C714.868 40.2683 714.276 40.8447 713.514 41.2255C712.763 41.5957 711.885 41.7808 710.881 41.7808H707.819ZM710.151 39.8928H710.595C711.187 39.8928 711.7 39.787 712.134 39.5755C712.578 39.364 712.922 39.0149 713.165 38.5284C713.408 38.0419 713.53 37.3861 713.53 36.5611C713.53 35.7361 713.408 35.0909 713.165 34.6256C712.922 34.1496 712.578 33.8164 712.134 33.6261C711.7 33.4251 711.187 33.3246 710.595 33.3246H710.151V39.8928ZM716.672 44.3192L719.861 30.5165H721.384L718.196 44.3192H716.672ZM722.429 41.7808V40.337C723.276 39.5861 724.027 38.8827 724.682 38.227C725.349 37.5712 725.867 36.963 726.237 36.4025C726.618 35.8419 726.808 35.3289 726.808 34.8635C726.808 34.3664 726.681 33.9909 726.427 33.7371C726.174 33.4727 725.825 33.3405 725.38 33.3405C725.021 33.3405 724.693 33.4462 724.397 33.6578C724.111 33.8587 723.841 34.0967 723.588 34.3717L722.366 33.166C722.853 32.616 723.35 32.2035 723.857 31.9285C724.376 31.6535 724.989 31.516 725.698 31.516C726.353 31.516 726.93 31.6482 727.427 31.9126C727.935 32.177 728.326 32.5472 728.601 33.0232C728.887 33.4991 729.029 34.0597 729.029 34.7049C729.029 35.3078 728.865 35.9001 728.538 36.4818C728.22 37.0529 727.797 37.6241 727.268 38.1952C726.739 38.7664 726.179 39.3481 725.587 39.9404C725.84 39.9087 726.126 39.8822 726.443 39.8611C726.761 39.8293 727.036 39.8135 727.268 39.8135H729.521V41.7808H722.429Z" fill="#0686FD"/>
<line x1="542.677" y1="34.7056" x2="542.677" y2="320.279" stroke="#0686FD" stroke-opacity="0.8" stroke-width="3.9663"/>
<line y1="-0.495787" x2="59.8586" y2="-0.495787" transform="matrix(-0.599124 0.800656 -0.803312 -0.595559 542.843 35.6963)" stroke="black" stroke-width="0.991575"/>
<line y1="-0.495787" x2="59.395" y2="-0.495787" transform="matrix(-0.59821 0.80134 -0.80399 -0.594643 578.374 83.2925)" stroke="black" stroke-width="0.991575"/>
<line y1="-0.495787" x2="59.3306" y2="-0.495787" transform="matrix(0.604456 0.796639 -0.799329 0.600894 506.981 83.6226)" stroke="black" stroke-width="0.991575"/>
<line y1="-0.495787" x2="59.395" y2="-0.495787" transform="matrix(0.598209 0.80134 -0.80399 0.594643 542.843 36.0269)" stroke="black" stroke-width="0.991575"/>
<path d="M507.476 84.2835L543.173 35.6963L578.87 84.2835L543.173 130.392L507.476 84.2835Z" stroke="black" stroke-width="0.991575"/>
<line x1="696.371" y1="36.1921" x2="387.992" y2="36.1921" stroke="#0686FD" stroke-width="0.991575" stroke-dasharray="1.98 1.98"/>
<path d="M702.011 84.2046V82.5547H705.914V84.2046H702.011ZM707.819 87.3936V77.0494H710.738C711.795 77.0494 712.71 77.2293 713.482 77.5889C714.265 77.9485 714.868 78.509 715.291 79.2706C715.714 80.0215 715.926 80.9893 715.926 82.1739C715.926 83.3585 715.714 84.3369 715.291 85.109C714.868 85.8811 714.276 86.4575 713.514 86.8383C712.763 87.2085 711.885 87.3936 710.881 87.3936H707.819ZM710.151 85.5056H710.595C711.187 85.5056 711.7 85.3998 712.134 85.1883C712.578 84.9768 712.922 84.6277 713.165 84.1412C713.408 83.6547 713.53 82.9989 713.53 82.1739C713.53 81.3489 713.408 80.7037 713.165 80.2384C712.922 79.7624 712.578 79.4292 712.134 79.2388C711.7 79.0379 711.187 78.9374 710.595 78.9374H710.151V85.5056ZM716.672 89.932L719.861 76.1293H721.384L718.196 89.932H716.672ZM725.698 87.5839C725.158 87.5839 724.666 87.5205 724.222 87.3936C723.789 87.2772 723.403 87.1133 723.064 86.9017C722.726 86.6902 722.435 86.4416 722.191 86.1561L723.27 84.6806C723.577 84.9768 723.915 85.22 724.286 85.4104C724.656 85.6008 725.052 85.696 725.476 85.696C725.962 85.696 726.353 85.5955 726.65 85.3945C726.956 85.183 727.11 84.8869 727.11 84.5061C727.11 84.2099 727.036 83.9561 726.888 83.7446C726.739 83.5224 726.47 83.3532 726.078 83.2369C725.698 83.1205 725.137 83.0624 724.397 83.0624V81.4124C725 81.4124 725.476 81.3542 725.825 81.2379C726.174 81.1215 726.417 80.9629 726.554 80.7619C726.702 80.5609 726.777 80.3283 726.777 80.0638C726.777 79.7042 726.665 79.4292 726.443 79.2388C726.232 79.0485 725.93 78.9533 725.539 78.9533C725.179 78.9533 724.852 79.0326 724.555 79.1912C724.27 79.3393 723.968 79.5561 723.651 79.8417L722.477 78.4139C722.942 78.0119 723.434 77.6999 723.952 77.4778C724.471 77.2451 725.037 77.1288 725.65 77.1288C726.338 77.1288 726.94 77.2398 727.459 77.4619C727.988 77.6735 728.395 77.9855 728.68 78.398C728.976 78.7999 729.125 79.297 729.125 79.8893C729.125 80.4076 728.976 80.8518 728.68 81.222C728.395 81.5922 727.982 81.8936 727.443 82.1263V82.1898C727.824 82.3061 728.167 82.4753 728.474 82.6975C728.781 82.909 729.019 83.1787 729.188 83.5066C729.357 83.8345 729.442 84.2152 729.442 84.6489C729.442 85.2729 729.267 85.807 728.918 86.2513C728.58 86.6849 728.125 87.0181 727.554 87.2508C726.993 87.4729 726.375 87.5839 725.698 87.5839Z" fill="#0686FD"/>
<line x1="696.371" y1="83.7883" x2="387.992" y2="83.7883" stroke="#0686FD" stroke-width="0.991575" stroke-dasharray="1.98 1.98"/>
<line y1="-0.495787" x2="59.8586" y2="-0.495787" transform="matrix(-0.599124 0.800656 -0.803312 -0.595559 507.146 83.2925)" stroke="black" stroke-width="0.991575"/>
<line y1="-0.495787" x2="59.395" y2="-0.495787" transform="matrix(-0.59821 0.80134 -0.80399 -0.594643 542.677 130.888)" stroke="black" stroke-width="0.991575"/>
<line y1="-0.495787" x2="59.3306" y2="-0.495787" transform="matrix(0.604456 0.796639 -0.799329 0.600894 471.284 131.218)" stroke="black" stroke-width="0.991575"/>
<line y1="-0.495787" x2="59.395" y2="-0.495787" transform="matrix(0.598209 0.80134 -0.80399 0.594643 507.146 83.6226)" stroke="black" stroke-width="0.991575"/>
<line y1="-0.495787" x2="59.8586" y2="-0.495787" transform="matrix(-0.599124 0.800656 -0.803312 -0.595559 578.54 83.2925)" stroke="black" stroke-width="0.991575"/>
<line y1="-0.495787" x2="59.395" y2="-0.495787" transform="matrix(-0.59821 0.80134 -0.80399 -0.594643 614.071 130.888)" stroke="black" stroke-width="0.991575"/>
<line y1="-0.495787" x2="59.3306" y2="-0.495787" transform="matrix(0.604456 0.796639 -0.799329 0.600894 542.677 131.218)" stroke="black" stroke-width="0.991575"/>
<line y1="-0.495787" x2="59.395" y2="-0.495787" transform="matrix(0.598209 0.80134 -0.80399 0.594643 578.54 83.6226)" stroke="black" stroke-width="0.991575"/>
<path d="M702.011 132.792V131.142H705.914V132.792H702.011ZM707.819 135.98V125.636H710.738C711.795 125.636 712.71 125.816 713.482 126.176C714.265 126.535 714.868 127.096 715.291 127.857C715.714 128.608 715.926 129.576 715.926 130.761C715.926 131.945 715.714 132.924 715.291 133.696C714.868 134.468 714.276 135.044 713.514 135.425C712.763 135.795 711.885 135.98 710.881 135.98H707.819ZM710.151 134.093H710.595C711.187 134.093 711.7 133.987 712.134 133.775C712.578 133.564 712.922 133.215 713.165 132.728C713.408 132.242 713.53 131.586 713.53 130.761C713.53 129.936 713.408 129.291 713.165 128.825C712.922 128.349 712.578 128.016 712.134 127.826C711.7 127.625 711.187 127.524 710.595 127.524H710.151V134.093ZM716.672 138.519L719.861 124.716H721.384L718.196 138.519H716.672ZM726.301 136.171C725.814 136.171 725.343 136.076 724.889 135.885C724.434 135.695 724.027 135.399 723.667 134.997C723.307 134.595 723.022 134.082 722.81 133.458C722.599 132.823 722.493 132.062 722.493 131.173C722.493 130.232 722.604 129.418 722.826 128.73C723.048 128.043 723.35 127.477 723.73 127.032C724.111 126.588 724.545 126.26 725.031 126.049C725.518 125.827 726.031 125.716 726.57 125.716C727.237 125.716 727.813 125.837 728.3 126.081C728.786 126.313 729.188 126.594 729.505 126.921L728.284 128.318C728.104 128.127 727.871 127.963 727.586 127.826C727.3 127.678 727.009 127.604 726.713 127.604C726.332 127.604 725.978 127.715 725.65 127.937C725.333 128.159 725.079 128.534 724.889 129.063C724.709 129.582 724.619 130.285 724.619 131.173C724.619 132.009 724.693 132.665 724.841 133.141C725 133.606 725.206 133.939 725.46 134.14C725.714 134.33 725.978 134.426 726.253 134.426C726.486 134.426 726.697 134.368 726.888 134.251C727.078 134.135 727.231 133.96 727.348 133.728C727.464 133.484 727.522 133.172 727.522 132.792C727.522 132.432 727.464 132.146 727.348 131.935C727.231 131.723 727.073 131.57 726.872 131.475C726.681 131.38 726.459 131.332 726.205 131.332C725.941 131.332 725.666 131.411 725.38 131.57C725.105 131.729 724.857 132.009 724.635 132.411L724.524 130.888C724.788 130.496 725.127 130.2 725.539 129.999C725.952 129.788 726.322 129.682 726.65 129.682C727.221 129.682 727.734 129.793 728.189 130.015C728.643 130.237 728.998 130.581 729.251 131.046C729.516 131.501 729.648 132.083 729.648 132.792C729.648 133.49 729.495 134.093 729.188 134.6C728.892 135.108 728.49 135.499 727.982 135.774C727.475 136.039 726.914 136.171 726.301 136.171Z" fill="#0686FD"/>
<line x1="696.371" y1="131.383" x2="387.992" y2="131.383" stroke="#0686FD" stroke-width="0.991575" stroke-dasharray="1.98 1.98"/>
<line y1="-0.495787" x2="59.8586" y2="-0.495787" transform="matrix(-0.599124 0.800656 -0.803312 -0.595559 471.45 130.888)" stroke="black" stroke-width="0.991575"/>
<line y1="-0.495787" x2="59.395" y2="-0.495787" transform="matrix(-0.59821 0.80134 -0.80399 -0.594643 506.981 178.483)" stroke="black" stroke-width="0.991575"/>
<line y1="-0.495787" x2="59.3306" y2="-0.495787" transform="matrix(0.604456 0.796639 -0.799329 0.600894 435.587 178.813)" stroke="black" stroke-width="0.991575"/>
<line y1="-0.495787" x2="59.395" y2="-0.495787" transform="matrix(0.598209 0.80134 -0.80399 0.594643 471.45 131.218)" stroke="black" stroke-width="0.991575"/>
<line y1="-0.495787" x2="59.8586" y2="-0.495787" transform="matrix(-0.599124 0.800656 -0.803312 -0.595559 542.843 130.888)" stroke="black" stroke-width="0.991575"/>
<line y1="-0.495787" x2="59.395" y2="-0.495787" transform="matrix(-0.59821 0.80134 -0.80399 -0.594643 578.374 178.483)" stroke="black" stroke-width="0.991575"/>
<line y1="-0.495787" x2="59.3306" y2="-0.495787" transform="matrix(0.604456 0.796639 -0.799329 0.600894 506.981 178.813)" stroke="black" stroke-width="0.991575"/>
<line y1="-0.495787" x2="59.395" y2="-0.495787" transform="matrix(0.598209 0.80134 -0.80399 0.594643 542.843 131.218)" stroke="black" stroke-width="0.991575"/>
<line y1="-0.495787" x2="59.8586" y2="-0.495787" transform="matrix(-0.599124 0.800656 -0.803312 -0.595559 614.237 130.888)" stroke="black" stroke-width="0.991575"/>
<line y1="-0.495787" x2="59.395" y2="-0.495787" transform="matrix(-0.59821 0.80134 -0.80399 -0.594643 649.767 178.483)" stroke="black" stroke-width="0.991575"/>
<line y1="-0.495787" x2="59.3306" y2="-0.495787" transform="matrix(0.604456 0.796639 -0.799329 0.600894 578.374 178.813)" stroke="black" stroke-width="0.991575"/>
<line y1="-0.495787" x2="59.395" y2="-0.495787" transform="matrix(0.598209 0.80134 -0.80399 0.594643 614.237 131.218)" stroke="black" stroke-width="0.991575"/>
<path d="M515.189 168.3C515.189 167.235 515.327 166.256 515.603 165.363C515.882 164.467 516.279 163.643 516.795 162.891H517.674C517.471 163.17 517.281 163.514 517.103 163.922C516.929 164.328 516.775 164.774 516.643 165.261C516.51 165.746 516.406 166.247 516.33 166.766C516.257 167.284 516.22 167.795 516.22 168.3C516.22 168.97 516.285 169.65 516.415 170.34C516.544 171.031 516.719 171.672 516.939 172.263C517.158 172.855 517.403 173.336 517.674 173.708H516.795C516.279 172.956 515.882 172.133 515.603 171.241C515.327 170.345 515.189 169.364 515.189 168.3ZM521.951 172.745C521.314 172.745 520.772 172.572 520.324 172.225C519.876 171.876 519.534 171.37 519.297 170.708C519.061 170.043 518.942 169.24 518.942 168.3C518.942 167.364 519.061 166.566 519.297 165.904C519.537 165.239 519.881 164.732 520.328 164.383C520.779 164.03 521.32 163.854 521.951 163.854C522.582 163.854 523.121 164.03 523.569 164.383C524.02 164.732 524.364 165.239 524.6 165.904C524.84 166.566 524.96 167.364 524.96 168.3C524.96 169.24 524.841 170.043 524.605 170.708C524.368 171.37 524.026 171.876 523.578 172.225C523.13 172.572 522.588 172.745 521.951 172.745ZM521.951 171.815C522.582 171.815 523.072 171.511 523.421 170.902C523.771 170.294 523.945 169.426 523.945 168.3C523.945 167.55 523.865 166.912 523.705 166.385C523.547 165.859 523.319 165.457 523.02 165.181C522.724 164.905 522.368 164.767 521.951 164.767C521.326 164.767 520.837 165.076 520.485 165.692C520.133 166.307 519.957 167.176 519.957 168.3C519.957 169.049 520.035 169.686 520.193 170.21C520.351 170.733 520.578 171.132 520.874 171.405C521.172 171.679 521.531 171.815 521.951 171.815ZM527.767 171.443L527.7 171.9C527.652 172.221 527.579 172.564 527.48 172.931C527.384 173.297 527.284 173.642 527.18 173.966C527.076 174.29 526.99 174.548 526.922 174.739H526.162C526.198 174.559 526.246 174.321 526.305 174.025C526.364 173.729 526.424 173.398 526.483 173.032C526.545 172.669 526.595 172.297 526.635 171.917L526.686 171.443H527.767ZM532.119 172.745C531.482 172.745 530.94 172.572 530.492 172.225C530.044 171.876 529.702 171.37 529.465 170.708C529.228 170.043 529.11 169.24 529.11 168.3C529.11 167.364 529.228 166.566 529.465 165.904C529.704 165.239 530.048 164.732 530.496 164.383C530.947 164.03 531.488 163.854 532.119 163.854C532.75 163.854 533.289 164.03 533.737 164.383C534.188 164.732 534.531 165.239 534.768 165.904C535.007 166.566 535.127 167.364 535.127 168.3C535.127 169.24 535.009 170.043 534.772 170.708C534.535 171.37 534.193 171.876 533.745 172.225C533.297 172.572 532.755 172.745 532.119 172.745ZM532.119 171.815C532.75 171.815 533.24 171.511 533.589 170.902C533.938 170.294 534.113 169.426 534.113 168.3C534.113 167.55 534.033 166.912 533.872 166.385C533.714 165.859 533.486 165.457 533.188 165.181C532.892 164.905 532.535 164.767 532.119 164.767C531.493 164.767 531.004 165.076 530.652 165.692C530.3 166.307 530.124 167.176 530.124 168.3C530.124 169.049 530.203 169.686 530.361 170.21C530.518 170.733 530.745 171.132 531.041 171.405C531.34 171.679 531.699 171.815 532.119 171.815ZM538.879 168.3C538.879 169.364 538.74 170.345 538.461 171.241C538.185 172.133 537.789 172.956 537.274 173.708H536.395C536.598 173.429 536.786 173.086 536.961 172.677C537.138 172.272 537.293 171.826 537.426 171.342C537.558 170.855 537.661 170.352 537.734 169.833C537.81 169.312 537.848 168.801 537.848 168.3C537.848 167.629 537.783 166.949 537.654 166.259C537.524 165.569 537.35 164.928 537.13 164.336C536.91 163.745 536.665 163.263 536.395 162.891H537.274C537.789 163.643 538.185 164.467 538.461 165.363C538.74 166.256 538.879 167.235 538.879 168.3Z" fill="black"/>
<path d="M705.96 174.069L707.515 176.722L709.07 174.069H710.219L708.124 177.314L710.219 180.559H709.07L707.515 178.041L705.96 180.559H704.811L706.873 177.314L704.811 174.069H705.96Z" fill="black"/>
<path d="M695.089 179.187C695.477 178.801 695.479 178.173 695.093 177.784L688.803 171.454C688.417 171.065 687.789 171.063 687.401 171.449C687.012 171.835 687.01 172.463 687.396 172.851L692.988 178.479L687.36 184.07C686.972 184.456 686.97 185.084 687.356 185.472C687.742 185.861 688.37 185.863 688.758 185.477L695.089 179.187ZM386.997 178.483L694.387 179.475L694.393 177.492L387.003 176.5L386.997 178.483Z" fill="black"/>
<line y1="-0.495787" x2="59.8586" y2="-0.495787" transform="matrix(-0.599124 0.800656 -0.803312 -0.595559 507.146 178.483)" stroke="black" stroke-width="0.991575"/>
<line y1="-0.495787" x2="59.395" y2="-0.495787" transform="matrix(-0.59821 0.80134 -0.80399 -0.594643 542.677 226.079)" stroke="black" stroke-width="0.991575"/>
<line y1="-0.495787" x2="59.3306" y2="-0.495787" transform="matrix(0.604456 0.796639 -0.799329 0.600894 471.284 226.41)" stroke="black" stroke-width="0.991575"/>
<line y1="-0.495787" x2="59.395" y2="-0.495787" transform="matrix(0.598209 0.80134 -0.80399 0.594643 507.146 178.813)" stroke="black" stroke-width="0.991575"/>
<line y1="-0.495787" x2="59.8586" y2="-0.495787" transform="matrix(-0.599124 0.800656 -0.803312 -0.595559 578.54 178.483)" stroke="black" stroke-width="0.991575"/>
<line y1="-0.495787" x2="59.395" y2="-0.495787" transform="matrix(-0.59821 0.80134 -0.80399 -0.594643 614.071 226.079)" stroke="black" stroke-width="0.991575"/>
<line y1="-0.495787" x2="59.3306" y2="-0.495787" transform="matrix(0.604456 0.796639 -0.799329 0.600894 542.677 226.41)" stroke="black" stroke-width="0.991575"/>
<line y1="-0.495787" x2="59.395" y2="-0.495787" transform="matrix(0.598209 0.80134 -0.80399 0.594643 578.54 178.813)" stroke="black" stroke-width="0.991575"/>
<line x1="435.587" y1="178.483" x2="649.767" y2="178.483" stroke="#81DB7A" stroke-opacity="0.8" stroke-width="3.9663"/>
<path d="M702.551 232.164V221.819H705.47C706.528 221.819 707.443 221.999 708.215 222.359C708.997 222.718 709.6 223.279 710.023 224.041C710.446 224.792 710.658 225.759 710.658 226.944C710.658 228.129 710.446 229.107 710.023 229.879C709.6 230.651 709.008 231.228 708.246 231.608C707.495 231.978 706.618 232.164 705.613 232.164H702.551ZM704.883 230.276H705.327C705.92 230.276 706.433 230.17 706.866 229.958C707.31 229.747 707.654 229.398 707.897 228.911C708.141 228.425 708.262 227.769 708.262 226.944C708.262 226.119 708.141 225.474 707.897 225.008C707.654 224.532 707.31 224.199 706.866 224.009C706.433 223.808 705.92 223.707 705.327 223.707H704.883V230.276ZM711.405 234.702L714.594 220.899H716.117L712.928 234.702H711.405ZM721.033 232.354C720.546 232.354 720.076 232.259 719.621 232.068C719.166 231.878 718.759 231.582 718.399 231.18C718.04 230.778 717.754 230.265 717.542 229.641C717.331 229.006 717.225 228.245 717.225 227.356C717.225 226.415 717.336 225.601 717.558 224.913C717.78 224.226 718.082 223.66 718.463 223.216C718.843 222.771 719.277 222.443 719.764 222.232C720.25 222.01 720.763 221.899 721.303 221.899C721.969 221.899 722.545 222.02 723.032 222.264C723.518 222.496 723.92 222.777 724.238 223.105L723.016 224.501C722.836 224.31 722.603 224.146 722.318 224.009C722.032 223.861 721.741 223.787 721.445 223.787C721.065 223.787 720.71 223.898 720.382 224.12C720.065 224.342 719.811 224.718 719.621 225.246C719.441 225.765 719.351 226.468 719.351 227.356C719.351 228.192 719.425 228.848 719.573 229.324C719.732 229.789 719.938 230.122 720.192 230.323C720.446 230.514 720.71 230.609 720.985 230.609C721.218 230.609 721.429 230.551 721.62 230.434C721.81 230.318 721.964 230.143 722.08 229.911C722.196 229.667 722.254 229.355 722.254 228.975C722.254 228.615 722.196 228.329 722.08 228.118C721.964 227.906 721.805 227.753 721.604 227.658C721.414 227.563 721.191 227.515 720.938 227.515C720.673 227.515 720.398 227.594 720.113 227.753C719.838 227.912 719.589 228.192 719.367 228.594L719.256 227.071C719.52 226.68 719.859 226.383 720.271 226.182C720.684 225.971 721.054 225.865 721.382 225.865C721.953 225.865 722.466 225.976 722.921 226.198C723.376 226.42 723.73 226.764 723.984 227.229C724.248 227.684 724.38 228.266 724.38 228.975C724.38 229.673 724.227 230.276 723.92 230.783C723.624 231.291 723.222 231.682 722.715 231.957C722.207 232.222 721.646 232.354 721.033 232.354Z" fill="#0686FD"/>
<line x1="696.371" y1="226.575" x2="387.992" y2="226.575" stroke="#0686FD" stroke-width="0.991575" stroke-dasharray="1.98 1.98"/>
<line y1="-0.495787" x2="59.8586" y2="-0.495787" transform="matrix(-0.599124 0.800656 -0.803312 -0.595559 542.843 226.079)" stroke="black" stroke-width="0.991575"/>
<line y1="-0.495787" x2="59.395" y2="-0.495787" transform="matrix(-0.59821 0.80134 -0.80399 -0.594643 578.374 273.675)" stroke="black" stroke-width="0.991575"/>
<line y1="-0.495787" x2="59.3306" y2="-0.495787" transform="matrix(0.604456 0.796639 -0.799329 0.600894 506.981 274.005)" stroke="black" stroke-width="0.991575"/>
<line y1="-0.495787" x2="59.395" y2="-0.495787" transform="matrix(0.598209 0.80134 -0.80399 0.594643 542.843 226.41)" stroke="black" stroke-width="0.991575"/>
<path d="M702.551 278.767V268.423H705.47C706.528 268.423 707.443 268.603 708.215 268.962C708.997 269.322 709.6 269.883 710.023 270.644C710.446 271.395 710.658 272.363 710.658 273.547C710.658 274.732 710.446 275.71 710.023 276.483C709.6 277.255 709.008 277.831 708.246 278.212C707.495 278.582 706.618 278.767 705.613 278.767H702.551ZM704.883 276.879H705.327C705.92 276.879 706.433 276.773 706.866 276.562C707.31 276.35 707.654 276.001 707.897 275.515C708.141 275.028 708.262 274.372 708.262 273.547C708.262 272.722 708.141 272.077 707.897 271.612C707.654 271.136 707.31 270.803 706.866 270.612C706.433 270.411 705.92 270.311 705.327 270.311H704.883V276.879ZM711.405 281.306L714.594 267.503H716.117L712.928 281.306H711.405ZM720.43 278.957C719.891 278.957 719.399 278.894 718.954 278.767C718.521 278.651 718.135 278.487 717.796 278.275C717.458 278.064 717.167 277.815 716.924 277.53L718.003 276.054C718.309 276.35 718.648 276.594 719.018 276.784C719.388 276.974 719.785 277.07 720.208 277.07C720.694 277.07 721.086 276.969 721.382 276.768C721.689 276.557 721.842 276.26 721.842 275.88C721.842 275.583 721.768 275.33 721.62 275.118C721.472 274.896 721.202 274.727 720.811 274.61C720.43 274.494 719.869 274.436 719.129 274.436V272.786C719.732 272.786 720.208 272.728 720.557 272.611C720.906 272.495 721.149 272.336 721.287 272.135C721.435 271.934 721.509 271.702 721.509 271.437C721.509 271.078 721.398 270.803 721.176 270.612C720.964 270.422 720.663 270.327 720.271 270.327C719.912 270.327 719.584 270.406 719.288 270.565C719.002 270.713 718.701 270.93 718.383 271.215L717.209 269.787C717.675 269.385 718.166 269.073 718.685 268.851C719.203 268.619 719.769 268.502 720.382 268.502C721.07 268.502 721.673 268.613 722.191 268.835C722.72 269.047 723.127 269.359 723.413 269.772C723.709 270.173 723.857 270.671 723.857 271.263C723.857 271.781 723.709 272.225 723.413 272.596C723.127 272.966 722.715 273.267 722.175 273.5V273.563C722.556 273.68 722.9 273.849 723.206 274.071C723.513 274.283 723.751 274.552 723.92 274.88C724.09 275.208 724.174 275.589 724.174 276.022C724.174 276.646 724 277.181 723.651 277.625C723.312 278.058 722.857 278.392 722.286 278.624C721.726 278.846 721.107 278.957 720.43 278.957Z" fill="#0686FD"/>
<line x1="696.371" y1="274.171" x2="387.992" y2="274.171" stroke="#0686FD" stroke-width="0.991575" stroke-dasharray="1.98 1.98"/>
<path d="M702.551 324.38V314.036H705.47C706.528 314.036 707.443 314.216 708.215 314.575C708.997 314.935 709.6 315.495 710.023 316.257C710.446 317.008 710.658 317.976 710.658 319.16C710.658 320.345 710.446 321.323 710.023 322.095C709.6 322.867 709.008 323.444 708.246 323.825C707.495 324.195 706.618 324.38 705.613 324.38H702.551ZM704.883 322.492H705.327C705.92 322.492 706.433 322.386 706.866 322.175C707.31 321.963 707.654 321.614 707.897 321.128C708.141 320.641 708.262 319.985 708.262 319.16C708.262 318.335 708.141 317.69 707.897 317.225C707.654 316.749 707.31 316.416 706.866 316.225C706.433 316.024 705.92 315.924 705.327 315.924H704.883V322.492ZM711.405 326.918L714.594 313.116H716.117L712.928 326.918H711.405ZM717.162 324.38V322.936C718.008 322.185 718.759 321.482 719.415 320.826C720.081 320.17 720.599 319.562 720.969 319.002C721.35 318.441 721.54 317.928 721.54 317.463C721.54 316.966 721.414 316.59 721.16 316.336C720.906 316.072 720.557 315.94 720.113 315.94C719.753 315.94 719.425 316.045 719.129 316.257C718.843 316.458 718.574 316.696 718.32 316.971L717.098 315.765C717.585 315.215 718.082 314.803 718.59 314.528C719.108 314.253 719.721 314.115 720.43 314.115C721.086 314.115 721.662 314.247 722.159 314.512C722.667 314.776 723.058 315.146 723.333 315.622C723.619 316.098 723.762 316.659 723.762 317.304C723.762 317.907 723.598 318.499 723.27 319.081C722.952 319.652 722.529 320.223 722.001 320.794C721.472 321.365 720.911 321.947 720.319 322.54C720.573 322.508 720.858 322.481 721.176 322.46C721.493 322.428 721.768 322.413 722.001 322.413H724.253V324.38H717.162Z" fill="#0686FD"/>
<line x1="696.371" y1="319.783" x2="387.992" y2="319.783" stroke="#0686FD" stroke-width="0.991575" stroke-dasharray="1.98 1.98"/>
<path d="M540.266 346.603C540.097 346.603 539.946 346.589 539.814 346.561C539.681 346.535 539.59 346.51 539.539 346.484L539.793 345.606C540.035 345.668 540.249 345.69 540.435 345.673C540.621 345.656 540.786 345.573 540.929 345.424C541.076 345.277 541.21 345.039 541.331 344.71L541.517 344.203L539.117 337.679H540.198L541.99 342.851H542.058L543.849 337.679H544.931L542.176 345.115C542.052 345.451 541.898 345.728 541.715 345.948C541.532 346.17 541.319 346.335 541.077 346.442C540.838 346.549 540.567 346.603 540.266 346.603Z" fill="black"/>
<path d="M436.083 332.177V23.7975" stroke="#81DB7A" stroke-width="0.991575" stroke-dasharray="1.98 1.98"/>
<line x1="471.78" y1="332.177" x2="471.78" y2="23.7975" stroke="#81DB7A" stroke-width="0.991575" stroke-dasharray="1.98 1.98"/>
<line x1="507.476" y1="332.177" x2="507.476" y2="23.7975" stroke="#81DB7A" stroke-width="0.991575" stroke-dasharray="1.98 1.98"/>
<line x1="578.87" y1="332.177" x2="578.87" y2="23.7975" stroke="#81DB7A" stroke-width="0.991575" stroke-dasharray="1.98 1.98"/>
<line x1="614.566" y1="332.177" x2="614.566" y2="23.7975" stroke="#81DB7A" stroke-width="0.991575" stroke-dasharray="1.98 1.98"/>
<circle cx="542.677" cy="178.484" r="4.95787" fill="black"/>
<path d="M195.293 332.709C195.683 333.099 196.317 333.099 196.707 332.709L203.071 326.345C203.462 325.954 203.462 325.321 203.071 324.931C202.681 324.54 202.047 324.54 201.657 324.931L196 330.587L190.343 324.931C189.953 324.54 189.319 324.54 188.929 324.931C188.538 325.321 188.538 325.954 188.929 326.345L195.293 332.709ZM195 24L195 332.002H197L197 24H195Z" fill="#FF00E6"/>
<line x1="196" y1="34" x2="196" y2="322" stroke="#0686FD" stroke-opacity="0.8" stroke-width="4"/>
<line y1="-0.5" x2="60.3672" y2="-0.5" transform="matrix(-0.599124 0.800656 -0.803312 -0.595559 196.167 35)" stroke="black"/>
<line y1="-0.5" x2="59.8997" y2="-0.5" transform="matrix(-0.59821 0.80134 -0.80399 -0.594643 232 83)" stroke="black"/>
<line y1="-0.5" x2="59.8347" y2="-0.5" transform="matrix(0.604456 0.796639 -0.799329 0.600894 160 83.333)" stroke="black"/>
<line y1="-0.5" x2="59.8997" y2="-0.5" transform="matrix(0.598209 0.80134 -0.80399 0.594643 196.167 35.333)" stroke="black"/>
<path d="M160.5 84L196.5 35L232.5 84L196.5 130.5L160.5 84Z" stroke="black"/>
<line x1="351" y1="36.5" x2="40" y2="36.5" stroke="#0686FD" stroke-dasharray="2 2"/>
<line x1="351" y1="83.5" x2="40" y2="83.5" stroke="#0686FD" stroke-dasharray="2 2"/>
<line y1="-0.5" x2="60.3672" y2="-0.5" transform="matrix(-0.599124 0.800656 -0.803312 -0.595559 160.167 83)" stroke="black"/>
<line y1="-0.5" x2="59.8997" y2="-0.5" transform="matrix(-0.59821 0.80134 -0.80399 -0.594643 196 131)" stroke="black"/>
<line y1="-0.5" x2="59.8347" y2="-0.5" transform="matrix(0.604456 0.796639 -0.799329 0.600894 124 131.333)" stroke="black"/>
<line y1="-0.5" x2="59.8997" y2="-0.5" transform="matrix(0.598209 0.80134 -0.80399 0.594643 160.167 83.333)" stroke="black"/>
<line y1="-0.5" x2="60.3672" y2="-0.5" transform="matrix(-0.599124 0.800656 -0.803312 -0.595559 232.167 83)" stroke="black"/>
<line y1="-0.5" x2="59.8997" y2="-0.5" transform="matrix(-0.59821 0.80134 -0.80399 -0.594643 268 131)" stroke="black"/>
<line y1="-0.5" x2="59.8347" y2="-0.5" transform="matrix(0.604456 0.796639 -0.799329 0.600894 196 131.333)" stroke="black"/>
<line y1="-0.5" x2="59.8997" y2="-0.5" transform="matrix(0.598209 0.80134 -0.80399 0.594643 232.167 83.333)" stroke="black"/>
<line x1="351" y1="131.5" x2="40" y2="131.5" stroke="#0686FD" stroke-dasharray="2 2"/>
<line y1="-0.5" x2="60.3672" y2="-0.5" transform="matrix(-0.599124 0.800656 -0.803312 -0.595559 124.167 131)" stroke="black"/>
<line y1="-0.5" x2="59.8997" y2="-0.5" transform="matrix(-0.59821 0.80134 -0.80399 -0.594643 160 179)" stroke="black"/>
<line y1="-0.5" x2="59.8347" y2="-0.5" transform="matrix(0.604456 0.796639 -0.799329 0.600894 88 179.333)" stroke="black"/>
<line y1="-0.5" x2="59.8997" y2="-0.5" transform="matrix(0.598209 0.80134 -0.80399 0.594643 124.167 131.333)" stroke="black"/>
<line y1="-0.5" x2="60.3672" y2="-0.5" transform="matrix(-0.599124 0.800656 -0.803312 -0.595559 196.167 131)" stroke="black"/>
<line y1="-0.5" x2="59.8997" y2="-0.5" transform="matrix(-0.59821 0.80134 -0.80399 -0.594643 232 179)" stroke="black"/>
<line y1="-0.5" x2="59.8347" y2="-0.5" transform="matrix(0.604456 0.796639 -0.799329 0.600894 160 179.333)" stroke="black"/>
<line y1="-0.5" x2="59.8997" y2="-0.5" transform="matrix(0.598209 0.80134 -0.80399 0.594643 196.167 131.333)" stroke="black"/>
<line y1="-0.5" x2="60.3672" y2="-0.5" transform="matrix(-0.599124 0.800656 -0.803312 -0.595559 268.167 131)" stroke="black"/>
<line y1="-0.5" x2="59.8997" y2="-0.5" transform="matrix(-0.59821 0.80134 -0.80399 -0.594643 304 179)" stroke="black"/>
<line y1="-0.5" x2="59.8347" y2="-0.5" transform="matrix(0.604456 0.796639 -0.799329 0.600894 232 179.333)" stroke="black"/>
<line y1="-0.5" x2="59.8997" y2="-0.5" transform="matrix(0.598209 0.80134 -0.80399 0.594643 268.167 131.333)" stroke="black"/>
<path d="M360.67 175.455L362.239 178.131L363.807 175.455H364.966L362.852 178.727L364.966 182H363.807L362.239 179.46L360.67 182H359.511L361.591 178.727L359.511 175.455H360.67Z" fill="black"/>
<path d="M349.706 179.709C350.098 179.32 350.1 178.687 349.711 178.295L343.368 171.911C342.978 171.519 342.345 171.517 341.953 171.906C341.562 172.295 341.56 172.929 341.949 173.32L347.587 178.995L341.912 184.634C341.521 185.023 341.519 185.656 341.908 186.048C342.297 186.44 342.93 186.442 343.322 186.053L349.706 179.709ZM38.9968 179L348.998 180L349.005 178L39.0032 177L38.9968 179Z" fill="black"/>
<line y1="-0.5" x2="60.3672" y2="-0.5" transform="matrix(-0.599124 0.800656 -0.803312 -0.595559 160.167 179)" stroke="black"/>
<line y1="-0.5" x2="59.8997" y2="-0.5" transform="matrix(-0.59821 0.80134 -0.80399 -0.594643 196 227)" stroke="black"/>
<line y1="-0.5" x2="59.8347" y2="-0.5" transform="matrix(0.604456 0.796639 -0.799329 0.600894 124 227.333)" stroke="black"/>
<line y1="-0.5" x2="59.8997" y2="-0.5" transform="matrix(0.598209 0.80134 -0.80399 0.594643 160.167 179.333)" stroke="black"/>
<line y1="-0.5" x2="60.3672" y2="-0.5" transform="matrix(-0.599124 0.800656 -0.803312 -0.595559 232.167 179)" stroke="black"/>
<line y1="-0.5" x2="59.8997" y2="-0.5" transform="matrix(-0.59821 0.80134 -0.80399 -0.594643 268 227)" stroke="black"/>
<line y1="-0.5" x2="59.8347" y2="-0.5" transform="matrix(0.604456 0.796639 -0.799329 0.600894 196 227.333)" stroke="black"/>
<line y1="-0.5" x2="59.8997" y2="-0.5" transform="matrix(0.598209 0.80134 -0.80399 0.594643 232.167 179.333)" stroke="black"/>
<line x1="351" y1="227.5" x2="40" y2="227.5" stroke="#0686FD" stroke-dasharray="2 2"/>
<line y1="-0.5" x2="60.3672" y2="-0.5" transform="matrix(-0.599124 0.800656 -0.803312 -0.595559 196.167 227)" stroke="black"/>
<line y1="-0.5" x2="59.8997" y2="-0.5" transform="matrix(-0.59821 0.80134 -0.80399 -0.594643 232 275)" stroke="black"/>
<line y1="-0.5" x2="59.8347" y2="-0.5" transform="matrix(0.604456 0.796639 -0.799329 0.600894 160 275.333)" stroke="black"/>
<line y1="-0.5" x2="59.8997" y2="-0.5" transform="matrix(0.598209 0.80134 -0.80399 0.594643 196.167 227.333)" stroke="black"/>
<line x1="351" y1="275.5" x2="40" y2="275.5" stroke="#0686FD" stroke-dasharray="2 2"/>
<line x1="351" y1="321.5" x2="40" y2="321.5" stroke="#0686FD" stroke-dasharray="2 2"/>
<circle cx="196" cy="179" r="5" fill="black"/>
<path d="M201.232 67V56.568H204.176C205.243 56.568 206.165 56.7493 206.944 57.112C207.733 57.4747 208.341 58.04 208.768 58.808C209.195 59.5653 209.408 60.5413 209.408 61.736C209.408 62.9307 209.195 63.9173 208.768 64.696C208.341 65.4747 207.744 66.056 206.976 66.44C206.219 66.8133 205.333 67 204.32 67H201.232ZM203.584 65.096H204.032C204.629 65.096 205.147 64.9893 205.584 64.776C206.032 64.5627 206.379 64.2107 206.624 63.72C206.869 63.2293 206.992 62.568 206.992 61.736C206.992 60.904 206.869 60.2533 206.624 59.784C206.379 59.304 206.032 58.968 205.584 58.776C205.147 58.5733 204.629 58.472 204.032 58.472H203.584V65.096Z" fill="#0686FD"/>
<path d="M193.568 346.455C193.398 346.455 193.246 346.44 193.112 346.412C192.979 346.386 192.886 346.361 192.835 346.335L193.091 345.449C193.335 345.511 193.551 345.534 193.739 345.517C193.926 345.5 194.092 345.416 194.237 345.266C194.385 345.118 194.52 344.878 194.642 344.545L194.83 344.034L192.409 337.455H193.5L195.307 342.67H195.375L197.182 337.455H198.273L195.494 344.955C195.369 345.293 195.214 345.572 195.03 345.794C194.845 346.018 194.631 346.185 194.386 346.293C194.145 346.401 193.872 346.455 193.568 346.455Z" fill="#FF00E6"/>
<line x1="202.317" y1="200.387" x2="191.317" y2="209.387" stroke="#0686FD"/>
<line x1="200.317" y1="249.387" x2="189.317" y2="258.387" stroke="#0686FD"/>
<line x1="201.317" y1="291.387" x2="190.317" y2="300.387" stroke="#0686FD"/>
<line x1="201.317" y1="94.387" x2="190.317" y2="103.387" stroke="#0686FD"/>
<line x1="201.317" y1="61.387" x2="190.317" y2="70.387" stroke="#0686FD"/>
<line x1="201.317" y1="148.387" x2="190.317" y2="157.387" stroke="#0686FD"/>
<path d="M168.278 167.636C168.278 166.562 168.418 165.575 168.696 164.675C168.977 163.771 169.378 162.94 169.898 162.182H170.784C170.58 162.463 170.388 162.81 170.209 163.222C170.033 163.631 169.878 164.081 169.744 164.572C169.611 165.061 169.506 165.567 169.429 166.089C169.355 166.612 169.318 167.128 169.318 167.636C169.318 168.312 169.384 168.999 169.514 169.695C169.645 170.391 169.821 171.037 170.043 171.634C170.264 172.23 170.511 172.716 170.784 173.091H169.898C169.378 172.332 168.977 171.503 168.696 170.602C168.418 169.699 168.278 168.71 168.278 167.636ZM175.098 172.119C174.456 172.119 173.909 171.945 173.457 171.595C173.005 171.243 172.66 170.733 172.422 170.065C172.183 169.395 172.064 168.585 172.064 167.636C172.064 166.693 172.183 165.888 172.422 165.22C172.663 164.55 173.01 164.038 173.461 163.686C173.916 163.331 174.461 163.153 175.098 163.153C175.734 163.153 176.278 163.331 176.73 163.686C177.184 164.038 177.531 164.55 177.77 165.22C178.011 165.888 178.132 166.693 178.132 167.636C178.132 168.585 178.012 169.395 177.774 170.065C177.535 170.733 177.19 171.243 176.738 171.595C176.287 171.945 175.74 172.119 175.098 172.119ZM175.098 171.182C175.734 171.182 176.228 170.875 176.581 170.261C176.933 169.648 177.109 168.773 177.109 167.636C177.109 166.881 177.028 166.237 176.866 165.706C176.707 165.175 176.477 164.77 176.176 164.491C175.877 164.213 175.518 164.074 175.098 164.074C174.467 164.074 173.974 164.385 173.619 165.007C173.264 165.626 173.086 166.503 173.086 167.636C173.086 168.392 173.166 169.034 173.325 169.562C173.484 170.091 173.713 170.493 174.011 170.768C174.312 171.044 174.674 171.182 175.098 171.182ZM180.963 170.807L180.895 171.267C180.847 171.591 180.773 171.938 180.674 172.307C180.577 172.676 180.476 173.024 180.371 173.351C180.266 173.678 180.179 173.938 180.111 174.131H179.344C179.381 173.949 179.429 173.709 179.489 173.411C179.549 173.112 179.608 172.778 179.668 172.409C179.73 172.043 179.782 171.668 179.821 171.284L179.873 170.807H180.963ZM185.352 172.119C184.71 172.119 184.163 171.945 183.711 171.595C183.259 171.243 182.914 170.733 182.675 170.065C182.437 169.395 182.317 168.585 182.317 167.636C182.317 166.693 182.437 165.888 182.675 165.22C182.917 164.55 183.263 164.038 183.715 163.686C184.17 163.331 184.715 163.153 185.352 163.153C185.988 163.153 186.532 163.331 186.984 163.686C187.438 164.038 187.785 164.55 188.023 165.22C188.265 165.888 188.386 166.693 188.386 167.636C188.386 168.585 188.266 169.395 188.028 170.065C187.789 170.733 187.444 171.243 186.992 171.595C186.54 171.945 185.994 172.119 185.352 172.119ZM185.352 171.182C185.988 171.182 186.482 170.875 186.835 170.261C187.187 169.648 187.363 168.773 187.363 167.636C187.363 166.881 187.282 166.237 187.12 165.706C186.961 165.175 186.731 164.77 186.43 164.491C186.131 164.213 185.772 164.074 185.352 164.074C184.721 164.074 184.228 164.385 183.873 165.007C183.518 165.626 183.34 166.503 183.34 167.636C183.34 168.392 183.42 169.034 183.579 169.562C183.738 170.091 183.967 170.493 184.265 170.768C184.566 171.044 184.928 171.182 185.352 171.182ZM192.17 167.636C192.17 168.71 192.029 169.699 191.748 170.602C191.469 171.503 191.07 172.332 190.55 173.091H189.664C189.869 172.81 190.059 172.463 190.235 172.051C190.414 171.642 190.57 171.193 190.704 170.705C190.837 170.213 190.941 169.706 191.015 169.183C191.092 168.658 191.13 168.142 191.13 167.636C191.13 166.96 191.065 166.274 190.934 165.578C190.803 164.882 190.627 164.236 190.406 163.639C190.184 163.043 189.937 162.557 189.664 162.182H190.55C191.07 162.94 191.469 163.771 191.748 164.675C192.029 165.575 192.17 166.562 192.17 167.636Z" fill="black"/>
<path d="M311.006 133.111C310.945 132.562 311.34 132.067 311.889 132.006L320.834 131.011C321.383 130.95 321.878 131.346 321.939 131.895C322 132.444 321.604 132.938 321.055 132.999L313.104 133.883L313.988 141.834C314.049 142.383 313.654 142.878 313.105 142.939C312.556 143 312.062 142.604 312.001 142.055L311.006 133.111ZM311.4 178.2C321.252 170.812 325.36 163.091 325.065 155.665C324.769 148.201 320.017 140.693 311.375 133.781L312.624 132.219C321.486 139.307 326.735 147.299 327.064 155.585C327.394 163.909 322.75 172.188 312.6 179.8L311.4 178.2Z" fill="#FFB2F7"/>
<path d="M311.006 85.1105C310.945 84.5616 311.34 84.0672 311.889 84.0061L320.834 83.0115C321.383 82.9504 321.878 83.3459 321.939 83.8948C322 84.4437 321.604 84.9382 321.055 84.9992L313.104 85.8834L313.988 93.8343C314.049 94.3833 313.654 94.8777 313.105 94.9387C312.556 94.9998 312.062 94.6043 312.001 94.0554L311.006 85.1105ZM311.4 130.2C321.252 122.812 325.36 115.091 325.065 107.665C324.769 100.201 320.017 92.6931 311.375 85.7809L312.624 84.2191C321.486 91.3069 326.735 99.2989 327.064 107.585C327.394 115.909 322.75 124.188 312.6 131.8L311.4 130.2Z" fill="#FFB2F7"/>
<path d="M311.006 38.1105C310.945 37.5616 311.34 37.0672 311.889 37.0061L320.834 36.0115C321.383 35.9504 321.878 36.3459 321.939 36.8948C322 37.4437 321.604 37.9382 321.055 37.9992L313.104 38.8834L313.988 46.8343C314.049 47.3833 313.654 47.8777 313.105 47.9387C312.556 47.9998 312.062 47.6043 312.001 47.0554L311.006 38.1105ZM311.4 83.2C321.252 75.8117 325.36 68.0906 325.065 60.6646C324.769 53.2011 320.017 45.6931 311.375 38.7809L312.624 37.2191C321.486 44.3069 326.735 52.2989 327.064 60.5854C327.394 68.9094 322.75 77.1883 312.6 84.8L311.4 83.2Z" fill="#FFB2F7"/>
<path d="M311.006 226.889C310.945 227.438 311.34 227.933 311.889 227.994L320.834 228.989C321.383 229.05 321.878 228.654 321.939 228.105C322 227.556 321.604 227.062 321.055 227.001L313.104 226.117L313.988 218.166C314.049 217.617 313.654 217.122 313.105 217.061C312.556 217 312.062 217.396 312.001 217.945L311.006 226.889ZM311.4 181.8C321.252 189.188 325.36 196.909 325.065 204.335C324.769 211.799 320.017 219.307 311.375 226.219L312.624 227.781C321.486 220.693 326.735 212.701 327.064 204.415C327.394 196.091 322.75 187.812 312.6 180.2L311.4 181.8Z" fill="#FF00E6"/>
<path d="M311.006 273.889C310.945 274.438 311.34 274.933 311.889 274.994L320.834 275.989C321.383 276.05 321.878 275.654 321.939 275.105C322 274.556 321.604 274.062 321.055 274.001L313.104 273.117L313.988 265.166C314.049 264.617 313.654 264.122 313.105 264.061C312.556 264 312.062 264.396 312.001 264.945L311.006 273.889ZM311.4 228.8C321.252 236.188 325.36 243.909 325.065 251.335C324.769 258.799 320.017 266.307 311.375 273.219L312.624 274.781C321.486 267.693 326.735 259.701 327.064 251.415C327.394 243.091 322.75 234.812 312.6 227.2L311.4 228.8Z" fill="#FF00E6"/>
<path d="M311.006 320.889C310.945 321.438 311.34 321.933 311.889 321.994L320.834 322.989C321.383 323.05 321.878 322.654 321.939 322.105C322 321.556 321.604 321.062 321.055 321.001L313.104 320.117L313.988 312.166C314.049 311.617 313.654 311.122 313.105 311.061C312.556 311 312.062 311.396 312.001 311.945L311.006 320.889ZM311.4 275.8C321.252 283.188 325.36 290.909 325.065 298.335C324.769 305.799 320.017 313.307 311.375 320.219L312.624 321.781C321.486 314.693 326.735 306.701 327.064 298.415C327.394 290.091 322.75 281.812 312.6 274.2L311.4 275.8Z" fill="#FF00E6"/>
<path d="M332.688 155.784V154.12H336.624V155.784H332.688Z" fill="#FFB2F7"/>
<path d="M332.688 109.784V108.12H336.624V109.784H332.688Z" fill="#FFB2F7"/>
<path d="M335.36 204.496V201.552H332.544V199.888H335.36V196.944H337.088V199.888H339.904V201.552H337.088V204.496H335.36Z" fill="#FF00E6"/>
<path d="M335.36 256.496V253.552H332.544V251.888H335.36V248.944H337.088V251.888H339.904V253.552H337.088V256.496H335.36Z" fill="#FF00E6"/>
<path d="M335.36 302.496V299.552H332.544V297.888H335.36V294.944H337.088V297.888H339.904V299.552H337.088V302.496H335.36Z" fill="#FF00E6"/>
<path d="M332.688 58.784V57.12H336.624V58.784H332.688Z" fill="#FFB2F7"/>
<path d="M38.0331 81C36.6375 81 34.6298 81.1488 33.8574 82.6077C32.8475 84.5153 32.8079 86.9204 32.8079 89.0834C32.8079 92.7231 32.8079 96.3629 32.8079 100.003C32.8079 102.213 32.607 104.41 32.607 106.612C32.607 107.464 32.2661 108.326 32.205 109.18C32.1688 109.687 31.1852 109.693 30.7536 109.783C29.623 110.02 28.4472 109.939 27.2925 109.939C26.5592 109.939 27.1427 109.939 27.5381 109.939C28.6413 109.939 29.9037 110.16 30.9546 110.498C32.2049 110.899 32.406 112.402 32.406 113.479C32.406 116.308 32.205 119.119 32.205 121.953C32.205 123.717 32.205 125.481 32.205 127.245C32.205 129.303 31.9737 131.622 32.5623 133.609C33.0722 135.33 33.6433 135.539 35.3312 135.674C36.777 135.79 38.1811 135.864 39.6408 135.864" stroke="#0686FD" stroke-width="3" stroke-linecap="round"/>
<path d="M1.12 115.602V113.698H3.328V107.826H1.424V106.37C1.97867 106.263 2.448 106.135 2.832 105.986C3.22667 105.836 3.6 105.655 3.952 105.442H5.68V113.698H7.584V115.602H1.12ZM8.66113 118.162L11.8771 104.242H13.4131L10.1971 118.162H8.66113ZM18.371 115.794C17.8803 115.794 17.4057 115.698 16.947 115.506C16.4883 115.314 16.0777 115.015 15.715 114.61C15.3523 114.204 15.0643 113.687 14.851 113.058C14.6377 112.418 14.531 111.65 14.531 110.754C14.531 109.804 14.643 108.983 14.867 108.29C15.091 107.596 15.395 107.026 15.779 106.578C16.163 106.13 16.6003 105.799 17.091 105.586C17.5817 105.362 18.099 105.25 18.643 105.25C19.315 105.25 19.8963 105.372 20.387 105.618C20.8777 105.852 21.283 106.135 21.603 106.466L20.371 107.874C20.1897 107.682 19.955 107.516 19.667 107.378C19.379 107.228 19.0857 107.154 18.787 107.154C18.403 107.154 18.0457 107.266 17.715 107.49C17.395 107.714 17.139 108.092 16.947 108.626C16.7657 109.148 16.675 109.858 16.675 110.754C16.675 111.596 16.7497 112.258 16.899 112.738C17.059 113.207 17.267 113.543 17.523 113.746C17.779 113.938 18.0457 114.034 18.323 114.034C18.5577 114.034 18.771 113.975 18.963 113.858C19.155 113.74 19.3097 113.564 19.427 113.33C19.5443 113.084 19.603 112.77 19.603 112.386C19.603 112.023 19.5443 111.735 19.427 111.522C19.3097 111.308 19.1497 111.154 18.947 111.058C18.755 110.962 18.531 110.914 18.275 110.914C18.0083 110.914 17.731 110.994 17.443 111.154C17.1657 111.314 16.915 111.596 16.691 112.002L16.579 110.466C16.8457 110.071 17.187 109.772 17.603 109.57C18.019 109.356 18.3923 109.25 18.723 109.25C19.299 109.25 19.8163 109.362 20.275 109.586C20.7337 109.81 21.091 110.156 21.347 110.626C21.6137 111.084 21.747 111.671 21.747 112.386C21.747 113.09 21.5923 113.698 21.283 114.21C20.9843 114.722 20.579 115.116 20.067 115.394C19.555 115.66 18.9897 115.794 18.371 115.794Z" fill="#0686FD"/>
</svg>
