<svg width="709" height="328" viewBox="0 0 709 328" fill="none" xmlns="http://www.w3.org/2000/svg">
<rect x="191.5" y="0.5" width="39" height="39" stroke="#E6E6E6"/>
<rect x="191.5" y="39.5" width="39" height="39" stroke="#E6E6E6"/>
<rect x="191.5" y="78.5" width="39" height="39" stroke="#E6E6E6"/>
<rect x="191.5" y="117.5" width="39" height="39" stroke="#E6E6E6"/>
<rect x="191.5" y="156.5" width="39" height="39" stroke="#E6E6E6"/>
<rect x="191.5" y="195.5" width="39" height="39" stroke="#E6E6E6"/>
<rect x="191.5" y="234.5" width="39" height="39" stroke="#E6E6E6"/>
<rect x="191.5" y="273.5" width="39" height="39" stroke="#E6E6E6"/>
<rect x="230.5" y="0.5" width="39" height="39" stroke="#E6E6E6"/>
<rect x="230.5" y="39.5" width="39" height="39" stroke="#E6E6E6"/>
<rect x="230.5" y="78.5" width="39" height="39" stroke="#E6E6E6"/>
<rect x="230.5" y="117.5" width="39" height="39" stroke="#E6E6E6"/>
<rect x="230.5" y="156.5" width="39" height="39" stroke="#E6E6E6"/>
<rect x="230.5" y="195.5" width="39" height="39" stroke="#E6E6E6"/>
<rect x="230.5" y="234.5" width="39" height="39" stroke="#E6E6E6"/>
<rect x="230.5" y="273.5" width="39" height="39" stroke="#E6E6E6"/>
<rect x="269.5" y="0.5" width="39" height="39" stroke="#E6E6E6"/>
<rect x="269.5" y="39.5" width="39" height="39" stroke="#E6E6E6"/>
<rect x="269.5" y="78.5" width="39" height="39" stroke="#E6E6E6"/>
<rect x="269.5" y="117.5" width="39" height="39" stroke="#E6E6E6"/>
<rect x="269.5" y="156.5" width="39" height="39" stroke="#E6E6E6"/>
<rect x="269.5" y="195.5" width="39" height="39" stroke="#E6E6E6"/>
<rect x="269.5" y="234.5" width="39" height="39" stroke="#E6E6E6"/>
<rect x="269.5" y="273.5" width="39" height="39" stroke="#E6E6E6"/>
<rect x="308.5" y="0.5" width="39" height="39" stroke="#E6E6E6"/>
<rect x="308.5" y="39.5" width="39" height="39" stroke="#E6E6E6"/>
<rect x="308.5" y="78.5" width="39" height="39" stroke="#E6E6E6"/>
<rect x="308.5" y="117.5" width="39" height="39" stroke="#E6E6E6"/>
<rect x="308.5" y="156.5" width="39" height="39" stroke="#E6E6E6"/>
<rect x="308.5" y="195.5" width="39" height="39" stroke="#E6E6E6"/>
<rect x="308.5" y="234.5" width="39" height="39" stroke="#E6E6E6"/>
<rect x="308.5" y="273.5" width="39" height="39" stroke="#E6E6E6"/>
<rect x="347.5" y="0.5" width="39" height="39" stroke="#E6E6E6"/>
<rect x="347.5" y="39.5" width="39" height="39" stroke="#E6E6E6"/>
<rect x="347.5" y="78.5" width="39" height="39" stroke="#E6E6E6"/>
<rect x="347.5" y="117.5" width="39" height="39" stroke="#E6E6E6"/>
<rect x="347.5" y="156.5" width="39" height="39" stroke="#E6E6E6"/>
<rect x="347.5" y="195.5" width="39" height="39" stroke="#E6E6E6"/>
<rect x="347.5" y="234.5" width="39" height="39" stroke="#E6E6E6"/>
<rect x="347.5" y="273.5" width="39" height="39" stroke="#E6E6E6"/>
<rect x="386.5" y="0.5" width="39" height="39" stroke="#E6E6E6"/>
<rect x="386.5" y="39.5" width="39" height="39" stroke="#E6E6E6"/>
<rect x="386.5" y="78.5" width="39" height="39" stroke="#E6E6E6"/>
<rect x="386.5" y="117.5" width="39" height="39" stroke="#E6E6E6"/>
<rect x="386.5" y="156.5" width="39" height="39" stroke="#E6E6E6"/>
<rect x="386.5" y="195.5" width="39" height="39" stroke="#E6E6E6"/>
<rect x="386.5" y="234.5" width="39" height="39" stroke="#E6E6E6"/>
<rect x="386.5" y="273.5" width="39" height="39" stroke="#E6E6E6"/>
<rect x="425.5" y="0.5" width="39" height="39" stroke="#E6E6E6"/>
<rect x="425.5" y="39.5" width="39" height="39" stroke="#E6E6E6"/>
<rect x="425.5" y="78.5" width="39" height="39" stroke="#E6E6E6"/>
<rect x="425.5" y="117.5" width="39" height="39" stroke="#E6E6E6"/>
<rect x="425.5" y="156.5" width="39" height="39" stroke="#E6E6E6"/>
<rect x="425.5" y="195.5" width="39" height="39" stroke="#E6E6E6"/>
<rect x="425.5" y="234.5" width="39" height="39" stroke="#E6E6E6"/>
<rect x="425.5" y="273.5" width="39" height="39" stroke="#E6E6E6"/>
<rect x="464.5" y="0.5" width="39" height="39" stroke="#E6E6E6"/>
<rect x="464.5" y="39.5" width="39" height="39" stroke="#E6E6E6"/>
<rect x="464.5" y="78.5" width="39" height="39" stroke="#E6E6E6"/>
<rect x="464.5" y="117.5" width="39" height="39" stroke="#E6E6E6"/>
<rect x="464.5" y="156.5" width="39" height="39" stroke="#E6E6E6"/>
<rect x="464.5" y="195.5" width="39" height="39" stroke="#E6E6E6"/>
<rect x="464.5" y="234.5" width="39" height="39" stroke="#E6E6E6"/>
<rect x="464.5" y="273.5" width="39" height="39" stroke="#E6E6E6"/>
<path d="M318.278 143.636C318.278 142.562 318.418 141.575 318.696 140.675C318.977 139.771 319.378 138.94 319.898 138.182H320.784C320.58 138.463 320.388 138.81 320.209 139.222C320.033 139.631 319.878 140.081 319.744 140.572C319.611 141.061 319.506 141.567 319.429 142.089C319.355 142.612 319.318 143.128 319.318 143.636C319.318 144.312 319.384 144.999 319.514 145.695C319.645 146.391 319.821 147.037 320.043 147.634C320.264 148.23 320.511 148.716 320.784 149.091H319.898C319.378 148.332 318.977 147.503 318.696 146.602C318.418 145.699 318.278 144.71 318.278 143.636ZM325.098 148.119C324.456 148.119 323.909 147.945 323.457 147.595C323.005 147.243 322.66 146.733 322.422 146.065C322.183 145.395 322.064 144.585 322.064 143.636C322.064 142.693 322.183 141.888 322.422 141.22C322.663 140.55 323.01 140.038 323.461 139.686C323.916 139.331 324.461 139.153 325.098 139.153C325.734 139.153 326.278 139.331 326.73 139.686C327.184 140.038 327.531 140.55 327.77 141.22C328.011 141.888 328.132 142.693 328.132 143.636C328.132 144.585 328.012 145.395 327.774 146.065C327.535 146.733 327.19 147.243 326.738 147.595C326.287 147.945 325.74 148.119 325.098 148.119ZM325.098 147.182C325.734 147.182 326.228 146.875 326.581 146.261C326.933 145.648 327.109 144.773 327.109 143.636C327.109 142.881 327.028 142.237 326.866 141.706C326.707 141.175 326.477 140.77 326.176 140.491C325.877 140.213 325.518 140.074 325.098 140.074C324.467 140.074 323.974 140.385 323.619 141.007C323.264 141.626 323.086 142.503 323.086 143.636C323.086 144.392 323.166 145.034 323.325 145.562C323.484 146.091 323.713 146.493 324.011 146.768C324.312 147.044 324.674 147.182 325.098 147.182ZM330.963 146.807L330.895 147.267C330.847 147.591 330.773 147.938 330.674 148.307C330.577 148.676 330.476 149.024 330.371 149.351C330.266 149.678 330.179 149.938 330.111 150.131H329.344C329.381 149.949 329.429 149.709 329.489 149.411C329.549 149.112 329.608 148.778 329.668 148.409C329.73 148.043 329.782 147.668 329.821 147.284L329.873 146.807H330.963ZM335.352 148.119C334.71 148.119 334.163 147.945 333.711 147.595C333.259 147.243 332.914 146.733 332.675 146.065C332.437 145.395 332.317 144.585 332.317 143.636C332.317 142.693 332.437 141.888 332.675 141.22C332.917 140.55 333.263 140.038 333.715 139.686C334.17 139.331 334.715 139.153 335.352 139.153C335.988 139.153 336.532 139.331 336.984 139.686C337.438 140.038 337.785 140.55 338.023 141.22C338.265 141.888 338.386 142.693 338.386 143.636C338.386 144.585 338.266 145.395 338.028 146.065C337.789 146.733 337.444 147.243 336.992 147.595C336.54 147.945 335.994 148.119 335.352 148.119ZM335.352 147.182C335.988 147.182 336.482 146.875 336.835 146.261C337.187 145.648 337.363 144.773 337.363 143.636C337.363 142.881 337.282 142.237 337.12 141.706C336.961 141.175 336.731 140.77 336.43 140.491C336.131 140.213 335.772 140.074 335.352 140.074C334.721 140.074 334.228 140.385 333.873 141.007C333.518 141.626 333.34 142.503 333.34 143.636C333.34 144.392 333.42 145.034 333.579 145.562C333.738 146.091 333.967 146.493 334.265 146.768C334.566 147.044 334.928 147.182 335.352 147.182ZM342.17 143.636C342.17 144.71 342.029 145.699 341.748 146.602C341.469 147.503 341.07 148.332 340.55 149.091H339.664C339.869 148.81 340.059 148.463 340.235 148.051C340.414 147.642 340.57 147.193 340.704 146.705C340.837 146.213 340.941 145.706 341.015 145.183C341.092 144.658 341.13 144.142 341.13 143.636C341.13 142.96 341.065 142.274 340.934 141.578C340.803 140.882 340.627 140.236 340.406 139.639C340.184 139.043 339.937 138.557 339.664 138.182H340.55C341.07 138.94 341.469 139.771 341.748 140.675C342.029 141.575 342.17 142.562 342.17 143.636Z" fill="black"/>
<circle cx="348" cy="157" r="5" fill="black"/>
<path d="M347.293 310.709C347.683 311.099 348.317 311.099 348.707 310.709L355.071 304.345C355.462 303.954 355.462 303.321 355.071 302.931C354.681 302.54 354.047 302.54 353.657 302.931L348 308.587L342.343 302.931C341.953 302.54 341.319 302.54 340.929 302.931C340.538 303.321 340.538 303.954 340.929 304.345L347.293 310.709ZM347 2V310.002H349V2H347Z" fill="black"/>
<path d="M501.706 157.709C502.098 157.32 502.1 156.687 501.711 156.295L495.368 149.911C494.978 149.519 494.345 149.517 493.953 149.906C493.562 150.295 493.56 150.929 493.949 151.32L499.587 156.995L493.912 162.634C493.521 163.023 493.519 163.656 493.908 164.048C494.297 164.44 494.93 164.442 495.322 164.053L501.706 157.709ZM190.997 157L500.998 158L501.005 156L191.003 155L190.997 157Z" fill="black"/>
<path d="M512.67 153.455L514.239 156.131L515.807 153.455H516.966L514.852 156.727L516.966 160H515.807L514.239 157.46L512.67 160H511.511L513.591 156.727L511.511 153.455H512.67Z" fill="black"/>
<path d="M345.568 327.455C345.398 327.455 345.246 327.44 345.112 327.412C344.979 327.386 344.886 327.361 344.835 327.335L345.091 326.449C345.335 326.511 345.551 326.534 345.739 326.517C345.926 326.5 346.092 326.416 346.237 326.266C346.385 326.118 346.52 325.878 346.642 325.545L346.83 325.034L344.409 318.455H345.5L347.307 323.67H347.375L349.182 318.455H350.273L347.494 325.955C347.369 326.293 347.214 326.572 347.03 326.794C346.845 327.018 346.631 327.185 346.386 327.293C346.145 327.401 345.872 327.455 345.568 327.455Z" fill="black"/>
<line x1="348" y1="12" x2="348" y2="300" stroke="#5447E9" stroke-width="4"/>
<line x1="240" y1="157" x2="456" y2="157" stroke="#8F85FF" stroke-width="4"/>
<path d="M354.232 55V44.568H357.176C358.243 44.568 359.165 44.7493 359.944 45.112C360.733 45.4747 361.341 46.04 361.768 46.808C362.195 47.5653 362.408 48.5413 362.408 49.736C362.408 50.9307 362.195 51.9173 361.768 52.696C361.341 53.4747 360.744 54.056 359.976 54.44C359.219 54.8133 358.333 55 357.32 55H354.232ZM356.584 53.096H357.032C357.629 53.096 358.147 52.9893 358.584 52.776C359.032 52.5627 359.379 52.2107 359.624 51.72C359.869 51.2293 359.992 50.568 359.992 49.736C359.992 48.904 359.869 48.2533 359.624 47.784C359.379 47.304 359.032 46.968 358.584 46.776C358.147 46.5733 357.629 46.472 357.032 46.472H356.584V53.096Z" fill="#5447E9"/>
<path d="M275.872 151.192C274.891 151.192 274.101 150.824 273.504 150.088C272.917 149.341 272.624 148.323 272.624 147.032C272.624 146.168 272.779 145.427 273.088 144.808C273.408 144.189 273.819 143.715 274.32 143.384C274.832 143.043 275.365 142.872 275.92 142.872C276.357 142.872 276.725 142.947 277.024 143.096C277.323 143.245 277.605 143.448 277.872 143.704L277.776 142.488V139.784H280.128V151H278.208L278.048 150.216H277.984C277.707 150.493 277.381 150.728 277.008 150.92C276.635 151.101 276.256 151.192 275.872 151.192ZM276.48 149.272C276.736 149.272 276.971 149.219 277.184 149.112C277.397 149.005 277.595 148.819 277.776 148.552V145.304C277.573 145.112 277.36 144.979 277.136 144.904C276.912 144.829 276.688 144.792 276.464 144.792C276.208 144.792 275.973 144.872 275.76 145.032C275.547 145.192 275.371 145.437 275.232 145.768C275.104 146.088 275.04 146.499 275.04 147C275.04 147.779 275.168 148.355 275.424 148.728C275.68 149.091 276.032 149.272 276.48 149.272Z" fill="#8F85FF"/>
<line x1="348.401" y1="12.2987" x2="240.401" y2="157.299" stroke="#FF00E6"/>
<line x1="455.401" y1="156.298" x2="348.401" y2="300.298" stroke="#FF00E6"/>
<line x1="240.399" y1="156.699" x2="348.399" y2="299.699" stroke="#FF00E6"/>
<line x1="348.401" y1="12.7018" x2="455.401" y2="156.702" stroke="#FF00E6"/>
<path d="M357.856 19.506C357.268 18.5447 356.811 17.546 356.484 16.51C356.167 15.474 356.008 14.34 356.008 13.108C356.008 11.876 356.167 10.742 356.484 9.706C356.811 8.66067 357.268 7.662 357.856 6.71L359.144 7.242C358.631 8.14733 358.257 9.104 358.024 10.112C357.791 11.1107 357.674 12.1093 357.674 13.108C357.674 14.0973 357.791 15.096 358.024 16.104C358.257 17.1027 358.631 18.0593 359.144 18.974L357.856 19.506ZM363.508 17.168C362.556 17.168 361.787 16.7713 361.199 15.978C360.62 15.1847 360.331 14.032 360.331 12.52C360.331 10.9987 360.62 9.85533 361.199 9.09C361.787 8.32467 362.556 7.942 363.508 7.942C364.461 7.942 365.226 8.32933 365.805 9.104C366.393 9.86933 366.687 11.008 366.687 12.52C366.687 14.032 366.393 15.1847 365.805 15.978C365.226 16.7713 364.461 17.168 363.508 17.168ZM363.508 15.572C363.742 15.572 363.952 15.488 364.139 15.32C364.325 15.1427 364.47 14.8347 364.573 14.396C364.685 13.948 364.741 13.3227 364.741 12.52C364.741 11.708 364.685 11.0873 364.573 10.658C364.47 10.2287 364.325 9.93467 364.139 9.776C363.952 9.61733 363.742 9.538 363.508 9.538C363.275 9.538 363.065 9.61733 362.879 9.776C362.692 9.93467 362.543 10.2287 362.431 10.658C362.328 11.0873 362.277 11.708 362.277 12.52C362.277 13.3227 362.328 13.948 362.431 14.396C362.543 14.8347 362.692 15.1427 362.879 15.32C363.065 15.488 363.275 15.572 363.508 15.572ZM368.273 19.716L367.853 18.624C368.376 18.4373 368.772 18.19 369.043 17.882C369.314 17.574 369.444 17.2427 369.435 16.888L369.393 15.516L370.065 16.664C369.962 16.748 369.846 16.8133 369.715 16.86C369.594 16.8973 369.463 16.916 369.323 16.916C368.996 16.916 368.707 16.818 368.455 16.622C368.203 16.4167 368.077 16.1273 368.077 15.754C368.077 15.3993 368.203 15.1147 368.455 14.9C368.707 14.6853 369.01 14.578 369.365 14.578C369.832 14.578 370.186 14.7507 370.429 15.096C370.672 15.432 370.793 15.908 370.793 16.524C370.793 17.2893 370.578 17.952 370.149 18.512C369.72 19.072 369.094 19.4733 368.273 19.716ZM374.811 14.186V12.73H378.255V14.186H374.811ZM379.935 17V7.872H382.511C383.445 7.872 384.252 8.03067 384.933 8.348C385.624 8.66533 386.156 9.16 386.529 9.832C386.903 10.4947 387.089 11.3487 387.089 12.394C387.089 13.4393 386.903 14.3027 386.529 14.984C386.156 15.6653 385.633 16.174 384.961 16.51C384.299 16.8367 383.524 17 382.637 17H379.935ZM381.993 15.334H382.385C382.908 15.334 383.361 15.2407 383.743 15.054C384.135 14.8673 384.439 14.5593 384.653 14.13C384.868 13.7007 384.975 13.122 384.975 12.394C384.975 11.666 384.868 11.0967 384.653 10.686C384.439 10.266 384.135 9.972 383.743 9.804C383.361 9.62667 382.908 9.538 382.385 9.538H381.993V15.334ZM387.748 19.24L390.562 7.06H391.906L389.092 19.24H387.748ZM392.829 17V15.726C393.575 15.0633 394.238 14.4427 394.817 13.864C395.405 13.2853 395.862 12.7487 396.189 12.254C396.525 11.7593 396.693 11.3067 396.693 10.896C396.693 10.4573 396.581 10.126 396.357 9.902C396.133 9.66867 395.825 9.552 395.433 9.552C395.115 9.552 394.826 9.64533 394.565 9.832C394.313 10.0093 394.075 10.2193 393.851 10.462L392.773 9.398C393.202 8.91267 393.641 8.54867 394.089 8.306C394.546 8.06333 395.087 7.942 395.713 7.942C396.291 7.942 396.8 8.05867 397.239 8.292C397.687 8.52533 398.032 8.852 398.275 9.272C398.527 9.692 398.653 10.1867 398.653 10.756C398.653 11.288 398.508 11.8107 398.219 12.324C397.939 12.828 397.565 13.332 397.099 13.836C396.632 14.34 396.137 14.8533 395.615 15.376C395.839 15.348 396.091 15.3247 396.371 15.306C396.651 15.278 396.893 15.264 397.099 15.264H399.087V17H392.829ZM401.667 19.506L400.379 18.974C400.892 18.0593 401.266 17.1027 401.499 16.104C401.742 15.096 401.863 14.0973 401.863 13.108C401.863 12.1093 401.742 11.1107 401.499 10.112C401.266 9.104 400.892 8.14733 400.379 7.242L401.667 6.71C402.255 7.662 402.708 8.66067 403.025 9.706C403.352 10.742 403.515 11.876 403.515 13.108C403.515 14.34 403.352 15.474 403.025 16.51C402.708 17.546 402.255 18.5447 401.667 19.506Z" fill="#FF00E6"/>
<circle cx="348" cy="13" r="2" fill="#FF00E6"/>
<path d="M453.856 182.506C453.268 181.545 452.811 180.546 452.484 179.51C452.167 178.474 452.008 177.34 452.008 176.108C452.008 174.876 452.167 173.742 452.484 172.706C452.811 171.661 453.268 170.662 453.856 169.71L455.144 170.242C454.631 171.147 454.257 172.104 454.024 173.112C453.791 174.111 453.674 175.109 453.674 176.108C453.674 177.097 453.791 178.096 454.024 179.104C454.257 180.103 454.631 181.059 455.144 181.974L453.856 182.506ZM459.201 180.168C458.342 180.168 457.651 179.846 457.129 179.202C456.615 178.549 456.359 177.657 456.359 176.528C456.359 175.772 456.494 175.123 456.765 174.582C457.045 174.041 457.404 173.625 457.843 173.336C458.291 173.037 458.757 172.888 459.243 172.888C459.625 172.888 459.947 172.953 460.209 173.084C460.47 173.215 460.717 173.392 460.951 173.616L460.867 172.552V170.186H462.925V180H461.245L461.105 179.314H461.049C460.806 179.557 460.521 179.762 460.195 179.93C459.868 180.089 459.537 180.168 459.201 180.168ZM459.733 178.488C459.957 178.488 460.162 178.441 460.349 178.348C460.535 178.255 460.708 178.091 460.867 177.858V175.016C460.689 174.848 460.503 174.731 460.307 174.666C460.111 174.601 459.915 174.568 459.719 174.568C459.495 174.568 459.289 174.638 459.103 174.778C458.916 174.918 458.762 175.133 458.641 175.422C458.529 175.702 458.473 176.061 458.473 176.5C458.473 177.181 458.585 177.685 458.809 178.012C459.033 178.329 459.341 178.488 459.733 178.488ZM464.02 182.24L466.834 170.06H468.178L465.364 182.24H464.02ZM469.1 180V178.726C469.847 178.063 470.509 177.443 471.088 176.864C471.676 176.285 472.133 175.749 472.46 175.254C472.796 174.759 472.964 174.307 472.964 173.896C472.964 173.457 472.852 173.126 472.628 172.902C472.404 172.669 472.096 172.552 471.704 172.552C471.387 172.552 471.097 172.645 470.836 172.832C470.584 173.009 470.346 173.219 470.122 173.462L469.044 172.398C469.473 171.913 469.912 171.549 470.36 171.306C470.817 171.063 471.359 170.942 471.984 170.942C472.563 170.942 473.071 171.059 473.51 171.292C473.958 171.525 474.303 171.852 474.546 172.272C474.798 172.692 474.924 173.187 474.924 173.756C474.924 174.288 474.779 174.811 474.49 175.324C474.21 175.828 473.837 176.332 473.37 176.836C472.903 177.34 472.409 177.853 471.886 178.376C472.11 178.348 472.362 178.325 472.642 178.306C472.922 178.278 473.165 178.264 473.37 178.264H475.358V180H469.1ZM477.043 182.716L476.623 181.624C477.145 181.437 477.542 181.19 477.813 180.882C478.083 180.574 478.214 180.243 478.205 179.888L478.163 178.516L478.835 179.664C478.732 179.748 478.615 179.813 478.485 179.86C478.363 179.897 478.233 179.916 478.093 179.916C477.766 179.916 477.477 179.818 477.225 179.622C476.973 179.417 476.847 179.127 476.847 178.754C476.847 178.399 476.973 178.115 477.225 177.9C477.477 177.685 477.78 177.578 478.135 177.578C478.601 177.578 478.956 177.751 479.199 178.096C479.441 178.432 479.563 178.908 479.563 179.524C479.563 180.289 479.348 180.952 478.919 181.512C478.489 182.072 477.864 182.473 477.043 182.716ZM486.675 180.168C485.723 180.168 484.953 179.771 484.365 178.978C483.786 178.185 483.497 177.032 483.497 175.52C483.497 173.999 483.786 172.855 484.365 172.09C484.953 171.325 485.723 170.942 486.675 170.942C487.627 170.942 488.392 171.329 488.971 172.104C489.559 172.869 489.853 174.008 489.853 175.52C489.853 177.032 489.559 178.185 488.971 178.978C488.392 179.771 487.627 180.168 486.675 180.168ZM486.675 178.572C486.908 178.572 487.118 178.488 487.305 178.32C487.491 178.143 487.636 177.835 487.739 177.396C487.851 176.948 487.907 176.323 487.907 175.52C487.907 174.708 487.851 174.087 487.739 173.658C487.636 173.229 487.491 172.935 487.305 172.776C487.118 172.617 486.908 172.538 486.675 172.538C486.441 172.538 486.231 172.617 486.045 172.776C485.858 172.935 485.709 173.229 485.597 173.658C485.494 174.087 485.443 174.708 485.443 175.52C485.443 176.323 485.494 176.948 485.597 177.396C485.709 177.835 485.858 178.143 486.045 178.32C486.231 178.488 486.441 178.572 486.675 178.572ZM492.335 182.506L491.047 181.974C491.56 181.059 491.934 180.103 492.167 179.104C492.41 178.096 492.531 177.097 492.531 176.108C492.531 175.109 492.41 174.111 492.167 173.112C491.934 172.104 491.56 171.147 491.047 170.242L492.335 169.71C492.923 170.662 493.376 171.661 493.693 172.706C494.02 173.742 494.183 174.876 494.183 176.108C494.183 177.34 494.02 178.474 493.693 179.51C493.376 180.546 492.923 181.545 492.335 182.506Z" fill="#FF00E6"/>
<circle cx="454" cy="157" r="2" fill="#FF00E6"/>
<path d="M197.856 182.506C197.268 181.545 196.811 180.546 196.484 179.51C196.167 178.474 196.008 177.34 196.008 176.108C196.008 174.876 196.167 173.742 196.484 172.706C196.811 171.661 197.268 170.662 197.856 169.71L199.144 170.242C198.631 171.147 198.257 172.104 198.024 173.112C197.791 174.111 197.674 175.109 197.674 176.108C197.674 177.097 197.791 178.096 198.024 179.104C198.257 180.103 198.631 181.059 199.144 181.974L197.856 182.506ZM200.415 177.186V175.73H203.859V177.186H200.415ZM207.849 180.168C206.99 180.168 206.3 179.846 205.777 179.202C205.264 178.549 205.007 177.657 205.007 176.528C205.007 175.772 205.142 175.123 205.413 174.582C205.693 174.041 206.052 173.625 206.491 173.336C206.939 173.037 207.406 172.888 207.891 172.888C208.274 172.888 208.596 172.953 208.857 173.084C209.118 173.215 209.366 173.392 209.599 173.616L209.515 172.552V170.186H211.573V180H209.893L209.753 179.314H209.697C209.454 179.557 209.17 179.762 208.843 179.93C208.516 180.089 208.185 180.168 207.849 180.168ZM208.381 178.488C208.605 178.488 208.81 178.441 208.997 178.348C209.184 178.255 209.356 178.091 209.515 177.858V175.016C209.338 174.848 209.151 174.731 208.955 174.666C208.759 174.601 208.563 174.568 208.367 174.568C208.143 174.568 207.938 174.638 207.751 174.778C207.564 174.918 207.41 175.133 207.289 175.422C207.177 175.702 207.121 176.061 207.121 176.5C207.121 177.181 207.233 177.685 207.457 178.012C207.681 178.329 207.989 178.488 208.381 178.488ZM212.668 182.24L215.482 170.06H216.826L214.012 182.24H212.668ZM217.748 180V178.726C218.495 178.063 219.158 177.443 219.736 176.864C220.324 176.285 220.782 175.749 221.108 175.254C221.444 174.759 221.612 174.307 221.612 173.896C221.612 173.457 221.5 173.126 221.276 172.902C221.052 172.669 220.744 172.552 220.352 172.552C220.035 172.552 219.746 172.645 219.484 172.832C219.232 173.009 218.994 173.219 218.77 173.462L217.692 172.398C218.122 171.913 218.56 171.549 219.008 171.306C219.466 171.063 220.007 170.942 220.632 170.942C221.211 170.942 221.72 171.059 222.158 171.292C222.606 171.525 222.952 171.852 223.194 172.272C223.446 172.692 223.572 173.187 223.572 173.756C223.572 174.288 223.428 174.811 223.138 175.324C222.858 175.828 222.485 176.332 222.018 176.836C221.552 177.34 221.057 177.853 220.534 178.376C220.758 178.348 221.01 178.325 221.29 178.306C221.57 178.278 221.813 178.264 222.018 178.264H224.006V180H217.748ZM225.691 182.716L225.271 181.624C225.794 181.437 226.19 181.19 226.461 180.882C226.732 180.574 226.862 180.243 226.853 179.888L226.811 178.516L227.483 179.664C227.38 179.748 227.264 179.813 227.133 179.86C227.012 179.897 226.881 179.916 226.741 179.916C226.414 179.916 226.125 179.818 225.873 179.622C225.621 179.417 225.495 179.127 225.495 178.754C225.495 178.399 225.621 178.115 225.873 177.9C226.125 177.685 226.428 177.578 226.783 177.578C227.25 177.578 227.604 177.751 227.847 178.096C228.09 178.432 228.211 178.908 228.211 179.524C228.211 180.289 227.996 180.952 227.567 181.512C227.138 182.072 226.512 182.473 225.691 182.716ZM235.323 180.168C234.371 180.168 233.601 179.771 233.013 178.978C232.434 178.185 232.145 177.032 232.145 175.52C232.145 173.999 232.434 172.855 233.013 172.09C233.601 171.325 234.371 170.942 235.323 170.942C236.275 170.942 237.04 171.329 237.619 172.104C238.207 172.869 238.501 174.008 238.501 175.52C238.501 177.032 238.207 178.185 237.619 178.978C237.04 179.771 236.275 180.168 235.323 180.168ZM235.323 178.572C235.556 178.572 235.766 178.488 235.953 178.32C236.14 178.143 236.284 177.835 236.387 177.396C236.499 176.948 236.555 176.323 236.555 175.52C236.555 174.708 236.499 174.087 236.387 173.658C236.284 173.229 236.14 172.935 235.953 172.776C235.766 172.617 235.556 172.538 235.323 172.538C235.09 172.538 234.88 172.617 234.693 172.776C234.506 172.935 234.357 173.229 234.245 173.658C234.142 174.087 234.091 174.708 234.091 175.52C234.091 176.323 234.142 176.948 234.245 177.396C234.357 177.835 234.506 178.143 234.693 178.32C234.88 178.488 235.09 178.572 235.323 178.572ZM240.983 182.506L239.695 181.974C240.209 181.059 240.582 180.103 240.815 179.104C241.058 178.096 241.179 177.097 241.179 176.108C241.179 175.109 241.058 174.111 240.815 173.112C240.582 172.104 240.209 171.147 239.695 170.242L240.983 169.71C241.571 170.662 242.024 171.661 242.341 172.706C242.668 173.742 242.831 174.876 242.831 176.108C242.831 177.34 242.668 178.474 242.341 179.51C242.024 180.546 241.571 181.545 240.983 182.506Z" fill="#FF00E6"/>
<circle cx="242" cy="157" r="2" fill="#FF00E6"/>
<path d="M357.856 305.506C357.268 304.545 356.811 303.546 356.484 302.51C356.167 301.474 356.008 300.34 356.008 299.108C356.008 297.876 356.167 296.742 356.484 295.706C356.811 294.661 357.268 293.662 357.856 292.71L359.144 293.242C358.631 294.147 358.257 295.104 358.024 296.112C357.791 297.111 357.674 298.109 357.674 299.108C357.674 300.097 357.791 301.096 358.024 302.104C358.257 303.103 358.631 304.059 359.144 304.974L357.856 305.506ZM363.508 303.168C362.556 303.168 361.787 302.771 361.199 301.978C360.62 301.185 360.331 300.032 360.331 298.52C360.331 296.999 360.62 295.855 361.199 295.09C361.787 294.325 362.556 293.942 363.508 293.942C364.461 293.942 365.226 294.329 365.805 295.104C366.393 295.869 366.687 297.008 366.687 298.52C366.687 300.032 366.393 301.185 365.805 301.978C365.226 302.771 364.461 303.168 363.508 303.168ZM363.508 301.572C363.742 301.572 363.952 301.488 364.139 301.32C364.325 301.143 364.47 300.835 364.573 300.396C364.685 299.948 364.741 299.323 364.741 298.52C364.741 297.708 364.685 297.087 364.573 296.658C364.47 296.229 364.325 295.935 364.139 295.776C363.952 295.617 363.742 295.538 363.508 295.538C363.275 295.538 363.065 295.617 362.879 295.776C362.692 295.935 362.543 296.229 362.431 296.658C362.328 297.087 362.277 297.708 362.277 298.52C362.277 299.323 362.328 299.948 362.431 300.396C362.543 300.835 362.692 301.143 362.879 301.32C363.065 301.488 363.275 301.572 363.508 301.572ZM368.273 305.716L367.853 304.624C368.376 304.437 368.772 304.19 369.043 303.882C369.314 303.574 369.444 303.243 369.435 302.888L369.393 301.516L370.065 302.664C369.962 302.748 369.846 302.813 369.715 302.86C369.594 302.897 369.463 302.916 369.323 302.916C368.996 302.916 368.707 302.818 368.455 302.622C368.203 302.417 368.077 302.127 368.077 301.754C368.077 301.399 368.203 301.115 368.455 300.9C368.707 300.685 369.01 300.578 369.365 300.578C369.832 300.578 370.186 300.751 370.429 301.096C370.672 301.432 370.793 301.908 370.793 302.524C370.793 303.289 370.578 303.952 370.149 304.512C369.72 305.072 369.094 305.473 368.273 305.716ZM375.287 303V293.872H377.863C378.796 293.872 379.604 294.031 380.285 294.348C380.976 294.665 381.508 295.16 381.881 295.832C382.254 296.495 382.441 297.349 382.441 298.394C382.441 299.439 382.254 300.303 381.881 300.984C381.508 301.665 380.985 302.174 380.313 302.51C379.65 302.837 378.876 303 377.989 303H375.287ZM377.345 301.334H377.737C378.26 301.334 378.712 301.241 379.095 301.054C379.487 300.867 379.79 300.559 380.005 300.13C380.22 299.701 380.327 299.122 380.327 298.394C380.327 297.666 380.22 297.097 380.005 296.686C379.79 296.266 379.487 295.972 379.095 295.804C378.712 295.627 378.26 295.538 377.737 295.538H377.345V301.334ZM383.1 305.24L385.914 293.06H387.258L384.444 305.24H383.1ZM388.18 303V301.726C388.927 301.063 389.589 300.443 390.168 299.864C390.756 299.285 391.213 298.749 391.54 298.254C391.876 297.759 392.044 297.307 392.044 296.896C392.044 296.457 391.932 296.126 391.708 295.902C391.484 295.669 391.176 295.552 390.784 295.552C390.467 295.552 390.177 295.645 389.916 295.832C389.664 296.009 389.426 296.219 389.202 296.462L388.124 295.398C388.553 294.913 388.992 294.549 389.44 294.306C389.897 294.063 390.439 293.942 391.064 293.942C391.643 293.942 392.151 294.059 392.59 294.292C393.038 294.525 393.383 294.852 393.626 295.272C393.878 295.692 394.004 296.187 394.004 296.756C394.004 297.288 393.859 297.811 393.57 298.324C393.29 298.828 392.917 299.332 392.45 299.836C391.983 300.34 391.489 300.853 390.966 301.376C391.19 301.348 391.442 301.325 391.722 301.306C392.002 301.278 392.245 301.264 392.45 301.264H394.438V303H388.18ZM397.019 305.506L395.731 304.974C396.244 304.059 396.617 303.103 396.851 302.104C397.093 301.096 397.215 300.097 397.215 299.108C397.215 298.109 397.093 297.111 396.851 296.112C396.617 295.104 396.244 294.147 395.731 293.242L397.019 292.71C397.607 293.662 398.059 294.661 398.377 295.706C398.703 296.742 398.867 297.876 398.867 299.108C398.867 300.34 398.703 301.474 398.377 302.51C398.059 303.546 397.607 304.545 397.019 305.506Z" fill="#FF00E6"/>
<circle cx="348" cy="299" r="2" fill="#FF00E6"/>
</svg>
