<svg width="1066" height="205" viewBox="0 0 1066 205" fill="none" xmlns="http://www.w3.org/2000/svg">
<path d="M52 17V137" stroke="#757575"/>
<path d="M52.3536 137.354L52.7071 137L52 136.293L51.6464 136.646L52.3536 137.354ZM10.3536 179.354L52.3536 137.354L51.6464 136.646L9.64645 178.646L10.3536 179.354Z" fill="#757575"/>
<path d="M52 137L169 137" stroke="#757575"/>
<path d="M51.6028 17.0107C51.6028 17.0107 10 58.0118 10 58.5059C10 59 129 59 129 59C129 59 168.491 17.0002 167.996 17C167.5 16.9998 51.6028 17.0107 51.6028 17.0107Z" fill="#D9D9D9" fill-opacity="0.4" stroke="#757575"/>
<path d="M10 59H129V179H10V59Z" fill="#D9D9D9" fill-opacity="0.4" stroke="#757575"/>
<path d="M168.766 17.0043C168.269 16.5044 129 59.5021 129 59.5021L129.048 178.996C129.048 179.496 168.816 137.498 168.816 137.498C168.816 137.498 169.262 17.5043 168.766 17.0043Z" fill="#D9D9D9" fill-opacity="0.4" stroke="#757575"/>
<circle cx="10" cy="59" r="2" fill="#CD93F0"/>
<circle cx="129" cy="59" r="2" fill="#CD93F0"/>
<circle cx="168" cy="17" r="2" fill="#CD93F0"/>
<circle cx="52" cy="17" r="2" fill="#CD93F0"/>
<circle cx="52" cy="137" r="2" fill="#CD93F0"/>
<circle cx="10" cy="179" r="2" fill="#CD93F0"/>
<circle cx="129" cy="179" r="2" fill="#CD93F0"/>
<circle cx="169" cy="137" r="2" fill="#CD93F0"/>
<path d="M45.96 136.18C44.94 136.18 44.115 135.755 43.485 134.905C42.865 134.055 42.555 132.82 42.555 131.2C42.555 129.57 42.865 128.345 43.485 127.525C44.115 126.705 44.94 126.295 45.96 126.295C46.98 126.295 47.8 126.71 48.42 127.54C49.05 128.36 49.365 129.58 49.365 131.2C49.365 132.82 49.05 134.055 48.42 134.905C47.8 135.755 46.98 136.18 45.96 136.18ZM45.96 134.47C46.21 134.47 46.435 134.38 46.635 134.2C46.835 134.01 46.99 133.68 47.1 133.21C47.22 132.73 47.28 132.06 47.28 131.2C47.28 130.33 47.22 129.665 47.1 129.205C46.99 128.745 46.835 128.43 46.635 128.26C46.435 128.09 46.21 128.005 45.96 128.005C45.71 128.005 45.485 128.09 45.285 128.26C45.085 128.43 44.925 128.745 44.805 129.205C44.695 129.665 44.64 130.33 44.64 131.2C44.64 132.06 44.695 132.73 44.805 133.21C44.925 133.68 45.085 134.01 45.285 134.2C45.485 134.38 45.71 134.47 45.96 134.47Z" fill="#CD93F0"/>
<path d="M159.05 135V133.215H161.12V127.71H159.335V126.345C159.855 126.245 160.295 126.125 160.655 125.985C161.025 125.845 161.375 125.675 161.705 125.475H163.325V133.215H165.11V135H159.05Z" fill="#CD93F0"/>
<path d="M119.555 176V174.635C120.355 173.925 121.065 173.26 121.685 172.64C122.315 172.02 122.805 171.445 123.155 170.915C123.515 170.385 123.695 169.9 123.695 169.46C123.695 168.99 123.575 168.635 123.335 168.395C123.095 168.145 122.765 168.02 122.345 168.02C122.005 168.02 121.695 168.12 121.415 168.32C121.145 168.51 120.89 168.735 120.65 168.995L119.495 167.855C119.955 167.335 120.425 166.945 120.905 166.685C121.395 166.425 121.975 166.295 122.645 166.295C123.265 166.295 123.81 166.42 124.28 166.67C124.76 166.92 125.13 167.27 125.39 167.72C125.66 168.17 125.795 168.7 125.795 169.31C125.795 169.88 125.64 170.44 125.33 170.99C125.03 171.53 124.63 172.07 124.13 172.61C123.63 173.15 123.1 173.7 122.54 174.26C122.78 174.23 123.05 174.205 123.35 174.185C123.65 174.155 123.91 174.14 124.13 174.14H126.26V176H119.555Z" fill="#CD93F0"/>
<path d="M3.645 178.18C3.135 178.18 2.67 178.12 2.25 178C1.84 177.89 1.475 177.735 1.155 177.535C0.835 177.335 0.56 177.1 0.33 176.83L1.35 175.435C1.64 175.715 1.96 175.945 2.31 176.125C2.66 176.305 3.035 176.395 3.435 176.395C3.895 176.395 4.265 176.3 4.545 176.11C4.835 175.91 4.98 175.63 4.98 175.27C4.98 174.99 4.91 174.75 4.77 174.55C4.63 174.34 4.375 174.18 4.005 174.07C3.645 173.96 3.115 173.905 2.415 173.905V172.345C2.985 172.345 3.435 172.29 3.765 172.18C4.095 172.07 4.325 171.92 4.455 171.73C4.595 171.54 4.665 171.32 4.665 171.07C4.665 170.73 4.56 170.47 4.35 170.29C4.15 170.11 3.865 170.02 3.495 170.02C3.155 170.02 2.845 170.095 2.565 170.245C2.295 170.385 2.01 170.59 1.71 170.86L0.6 169.51C1.04 169.13 1.505 168.835 1.995 168.625C2.485 168.405 3.02 168.295 3.6 168.295C4.25 168.295 4.82 168.4 5.31 168.61C5.81 168.81 6.195 169.105 6.465 169.495C6.745 169.875 6.885 170.345 6.885 170.905C6.885 171.395 6.745 171.815 6.465 172.165C6.195 172.515 5.805 172.8 5.295 173.02V173.08C5.655 173.19 5.98 173.35 6.27 173.56C6.56 173.76 6.785 174.015 6.945 174.325C7.105 174.635 7.185 174.995 7.185 175.405C7.185 175.995 7.02 176.5 6.69 176.92C6.37 177.33 5.94 177.645 5.4 177.865C4.87 178.075 4.285 178.18 3.645 178.18Z" fill="#CD93F0"/>
<path d="M46.41 16V10.495C46.41 10.195 46.42 9.84 46.44 9.43C46.47 9.02 46.49 8.665 46.5 8.365H46.44C46.32 8.625 46.195 8.89 46.065 9.16C45.935 9.42 45.8 9.69 45.66 9.97L44.4 12.04H49.56V13.72H42.285V12.205L45.765 6.475H48.465V16H46.41Z" fill="#CD93F0"/>
<path d="M161.705 15.18C161.185 15.18 160.715 15.12 160.295 15C159.885 14.88 159.52 14.72 159.2 14.52C158.88 14.32 158.595 14.095 158.345 13.845L159.335 12.45C159.625 12.71 159.94 12.935 160.28 13.125C160.62 13.305 160.99 13.395 161.39 13.395C161.71 13.395 161.99 13.34 162.23 13.23C162.47 13.11 162.655 12.94 162.785 12.72C162.925 12.5 162.995 12.23 162.995 11.91C162.995 11.43 162.855 11.065 162.575 10.815C162.295 10.565 161.935 10.44 161.495 10.44C161.225 10.44 160.995 10.475 160.805 10.545C160.615 10.615 160.375 10.74 160.085 10.92L159.095 10.29L159.365 5.475H164.765V7.335H161.27L161.105 9.12C161.295 9.04 161.47 8.985 161.63 8.955C161.79 8.915 161.97 8.895 162.17 8.895C162.72 8.895 163.225 9 163.685 9.21C164.145 9.42 164.51 9.745 164.78 10.185C165.06 10.625 165.2 11.18 165.2 11.85C165.2 12.56 165.035 13.165 164.705 13.665C164.385 14.155 163.96 14.53 163.43 14.79C162.9 15.05 162.325 15.18 161.705 15.18Z" fill="#CD93F0"/>
<path d="M123.215 56.18C122.755 56.18 122.31 56.09 121.88 55.91C121.45 55.73 121.065 55.45 120.725 55.07C120.385 54.69 120.115 54.205 119.915 53.615C119.715 53.015 119.615 52.295 119.615 51.455C119.615 50.565 119.72 49.795 119.93 49.145C120.14 48.495 120.425 47.96 120.785 47.54C121.145 47.12 121.555 46.81 122.015 46.61C122.475 46.4 122.96 46.295 123.47 46.295C124.1 46.295 124.645 46.41 125.105 46.64C125.565 46.86 125.945 47.125 126.245 47.435L125.09 48.755C124.92 48.575 124.7 48.42 124.43 48.29C124.16 48.15 123.885 48.08 123.605 48.08C123.245 48.08 122.91 48.185 122.6 48.395C122.3 48.605 122.06 48.96 121.88 49.46C121.71 49.95 121.625 50.615 121.625 51.455C121.625 52.245 121.695 52.865 121.835 53.315C121.985 53.755 122.18 54.07 122.42 54.26C122.66 54.44 122.91 54.53 123.17 54.53C123.39 54.53 123.59 54.475 123.77 54.365C123.95 54.255 124.095 54.09 124.205 53.87C124.315 53.64 124.37 53.345 124.37 52.985C124.37 52.645 124.315 52.375 124.205 52.175C124.095 51.975 123.945 51.83 123.755 51.74C123.575 51.65 123.365 51.605 123.125 51.605C122.875 51.605 122.615 51.68 122.345 51.83C122.085 51.98 121.85 52.245 121.64 52.625L121.535 51.185C121.785 50.815 122.105 50.535 122.495 50.345C122.885 50.145 123.235 50.045 123.545 50.045C124.085 50.045 124.57 50.15 125 50.36C125.43 50.57 125.765 50.895 126.005 51.335C126.255 51.765 126.38 52.315 126.38 52.985C126.38 53.645 126.235 54.215 125.945 54.695C125.665 55.175 125.285 55.545 124.805 55.805C124.325 56.055 123.795 56.18 123.215 56.18Z" fill="#CD93F0"/>
<path d="M2.25 58C2.3 57.21 2.38 56.485 2.49 55.825C2.6 55.155 2.755 54.52 2.955 53.92C3.165 53.32 3.43 52.73 3.75 52.15C4.07 51.57 4.465 50.965 4.935 50.335H0.66V48.475H7.29V49.825C6.73 50.505 6.27 51.14 5.91 51.73C5.56 52.32 5.29 52.92 5.1 53.53C4.91 54.14 4.77 54.805 4.68 55.525C4.59 56.245 4.52 57.07 4.47 58H2.25Z" fill="#CD93F0"/>
<path d="M10 179L52 137H169L129.5 179H10Z" fill="#CD93F0" fill-opacity="0.25"/>
<path d="M49.975 199V191.56H52.18V199H49.975ZM51.07 190.465C50.7 190.465 50.4 190.36 50.17 190.15C49.94 189.94 49.825 189.66 49.825 189.31C49.825 188.96 49.94 188.68 50.17 188.47C50.4 188.26 50.7 188.155 51.07 188.155C51.44 188.155 51.74 188.26 51.97 188.47C52.2 188.68 52.315 188.96 52.315 189.31C52.315 189.66 52.2 189.94 51.97 190.15C51.74 190.36 51.44 190.465 51.07 190.465ZM54.1205 199V191.56H55.9205L56.0705 192.505H56.1305C56.4405 192.195 56.7905 191.93 57.1805 191.71C57.5705 191.49 58.0155 191.38 58.5155 191.38C59.3355 191.38 59.9255 191.65 60.2855 192.19C60.6455 192.72 60.8255 193.45 60.8255 194.38V199H58.6205V194.665C58.6205 194.125 58.5455 193.755 58.3955 193.555C58.2555 193.355 58.0255 193.255 57.7055 193.255C57.4255 193.255 57.1855 193.32 56.9855 193.45C56.7855 193.57 56.5655 193.745 56.3255 193.975V199H54.1205ZM65.3595 199.18C64.4395 199.18 63.6995 198.835 63.1395 198.145C62.5895 197.445 62.3145 196.49 62.3145 195.28C62.3145 194.47 62.4595 193.775 62.7495 193.195C63.0495 192.615 63.4345 192.17 63.9045 191.86C64.3845 191.54 64.8845 191.38 65.4045 191.38C65.8145 191.38 66.1595 191.45 66.4395 191.59C66.7195 191.73 66.9845 191.92 67.2345 192.16L67.1445 191.02V188.485H69.3495V199H67.5495L67.3995 198.265H67.3395C67.0795 198.525 66.7745 198.745 66.4245 198.925C66.0745 199.095 65.7195 199.18 65.3595 199.18ZM65.9295 197.38C66.1695 197.38 66.3895 197.33 66.5895 197.23C66.7895 197.13 66.9745 196.955 67.1445 196.705V193.66C66.9545 193.48 66.7545 193.355 66.5445 193.285C66.3345 193.215 66.1245 193.18 65.9145 193.18C65.6745 193.18 65.4545 193.255 65.2545 193.405C65.0545 193.555 64.8895 193.785 64.7595 194.095C64.6395 194.395 64.5795 194.78 64.5795 195.25C64.5795 195.98 64.6995 196.52 64.9395 196.87C65.1795 197.21 65.5095 197.38 65.9295 197.38ZM74.6331 199.18C73.9231 199.18 73.2831 199.025 72.7131 198.715C72.1431 198.405 71.6931 197.96 71.3631 197.38C71.0331 196.8 70.8681 196.1 70.8681 195.28C70.8681 194.47 71.0331 193.775 71.3631 193.195C71.7031 192.615 72.1431 192.17 72.6831 191.86C73.2231 191.54 73.7881 191.38 74.3781 191.38C75.0881 191.38 75.6781 191.54 76.1481 191.86C76.6181 192.17 76.9681 192.595 77.1981 193.135C77.4281 193.675 77.5431 194.28 77.5431 194.95C77.5431 195.14 77.5331 195.33 77.5131 195.52C77.4931 195.7 77.4731 195.845 77.4531 195.955H72.5781L72.5481 194.425H75.6531C75.6531 194.035 75.5581 193.715 75.3681 193.465C75.1781 193.205 74.8631 193.075 74.4231 193.075C74.1831 193.075 73.9481 193.14 73.7181 193.27C73.4881 193.4 73.2981 193.625 73.1481 193.945C72.9981 194.265 72.9281 194.71 72.9381 195.28C72.9481 195.84 73.0481 196.28 73.2381 196.6C73.4381 196.92 73.6881 197.15 73.9881 197.29C74.2881 197.42 74.6031 197.485 74.9331 197.485C75.2231 197.485 75.4981 197.445 75.7581 197.365C76.0281 197.275 76.2931 197.155 76.5531 197.005L77.2731 198.355C76.9031 198.615 76.4831 198.82 76.0131 198.97C75.5431 199.11 75.0831 199.18 74.6331 199.18ZM78.0528 199L80.3328 195.13L78.1878 191.56H80.5578L81.2178 192.76C81.3178 192.97 81.4178 193.185 81.5178 193.405C81.6278 193.615 81.7378 193.825 81.8478 194.035H81.9078C81.9878 193.825 82.0728 193.615 82.1628 193.405C82.2528 193.185 82.3378 192.97 82.4178 192.76L82.9278 191.56H85.2078L83.0478 195.385L85.3428 199H82.9728L82.2528 197.77C82.1328 197.56 82.0128 197.345 81.8928 197.125C81.7828 196.905 81.6678 196.69 81.5478 196.48H81.4878C81.3978 196.69 81.3028 196.905 81.2028 197.125C81.1028 197.335 81.0078 197.55 80.9178 197.77L80.3328 199H78.0528ZM87.7979 194.32C87.4179 194.32 87.0979 194.185 86.8379 193.915C86.5879 193.645 86.4629 193.32 86.4629 192.94C86.4629 192.54 86.5879 192.21 86.8379 191.95C87.0979 191.68 87.4179 191.545 87.7979 191.545C88.1879 191.545 88.5079 191.68 88.7579 191.95C89.0079 192.21 89.1329 192.54 89.1329 192.94C89.1329 193.32 89.0079 193.645 88.7579 193.915C88.5079 194.185 88.1879 194.32 87.7979 194.32ZM87.7979 199.18C87.4179 199.18 87.0979 199.045 86.8379 198.775C86.5879 198.505 86.4629 198.18 86.4629 197.8C86.4629 197.4 86.5879 197.07 86.8379 196.81C87.0979 196.54 87.4179 196.405 87.7979 196.405C88.1879 196.405 88.5079 196.54 88.7579 196.81C89.0079 197.07 89.1329 197.4 89.1329 197.8C89.1329 198.18 89.0079 198.505 88.7579 198.775C88.5079 199.045 88.1879 199.18 87.7979 199.18ZM97.0079 199.18C95.9879 199.18 95.1629 198.755 94.5329 197.905C93.9129 197.055 93.6029 195.82 93.6029 194.2C93.6029 192.57 93.9129 191.345 94.5329 190.525C95.1629 189.705 95.9879 189.295 97.0079 189.295C98.0279 189.295 98.8479 189.71 99.4679 190.54C100.098 191.36 100.413 192.58 100.413 194.2C100.413 195.82 100.098 197.055 99.4679 197.905C98.8479 198.755 98.0279 199.18 97.0079 199.18ZM97.0079 197.47C97.2579 197.47 97.4829 197.38 97.6829 197.2C97.8829 197.01 98.0379 196.68 98.1479 196.21C98.2679 195.73 98.3279 195.06 98.3279 194.2C98.3279 193.33 98.2679 192.665 98.1479 192.205C98.0379 191.745 97.8829 191.43 97.6829 191.26C97.4829 191.09 97.2579 191.005 97.0079 191.005C96.7579 191.005 96.5329 191.09 96.3329 191.26C96.1329 191.43 95.9729 191.745 95.8529 192.205C95.7429 192.665 95.6879 193.33 95.6879 194.2C95.6879 195.06 95.7429 195.73 95.8529 196.21C95.9729 196.68 96.1329 197.01 96.3329 197.2C96.5329 197.38 96.7579 197.47 97.0079 197.47Z" fill="black"/>
<path d="M231 17V137" stroke="#757575"/>
<path d="M231.354 137.354L231.707 137L231 136.293L230.646 136.646L231.354 137.354ZM189.354 179.354L231.354 137.354L230.646 136.646L188.646 178.646L189.354 179.354Z" fill="#757575"/>
<path d="M231 137L348 137" stroke="#757575"/>
<path d="M230.603 17.0107C230.603 17.0107 189 58.0118 189 58.5059C189 59 308 59 308 59C308 59 347.491 17.0002 346.996 17C346.5 16.9998 230.603 17.0107 230.603 17.0107Z" fill="#D9D9D9" fill-opacity="0.4" stroke="#757575"/>
<path d="M189 59H308V179H189V59Z" fill="#D9D9D9" fill-opacity="0.4" stroke="#757575"/>
<path d="M347.766 17.0043C347.269 16.5044 308 59.5021 308 59.5021L308.048 178.996C308.048 179.496 347.816 137.498 347.816 137.498C347.816 137.498 348.262 17.5043 347.766 17.0043Z" fill="#D9D9D9" fill-opacity="0.4" stroke="#757575"/>
<path d="M230.766 17.0044C230.269 16.5044 189 59 189 59C189 59 189 178.5 189 179C189 179.5 231 137 231 137C231 137 231.262 17.5043 230.766 17.0044Z" fill="#CD93F0" fill-opacity="0.25"/>
<circle cx="189" cy="59" r="2" fill="#CD93F0"/>
<circle cx="308" cy="59" r="2" fill="#CD93F0"/>
<circle cx="347" cy="17" r="2" fill="#CD93F0"/>
<circle cx="231" cy="17" r="2" fill="#CD93F0"/>
<circle cx="231" cy="137" r="2" fill="#CD93F0"/>
<circle cx="189" cy="179" r="2" fill="#CD93F0"/>
<circle cx="308" cy="179" r="2" fill="#CD93F0"/>
<circle cx="348" cy="137" r="2" fill="#CD93F0"/>
<path d="M224.96 136.18C223.94 136.18 223.115 135.755 222.485 134.905C221.865 134.055 221.555 132.82 221.555 131.2C221.555 129.57 221.865 128.345 222.485 127.525C223.115 126.705 223.94 126.295 224.96 126.295C225.98 126.295 226.8 126.71 227.42 127.54C228.05 128.36 228.365 129.58 228.365 131.2C228.365 132.82 228.05 134.055 227.42 134.905C226.8 135.755 225.98 136.18 224.96 136.18ZM224.96 134.47C225.21 134.47 225.435 134.38 225.635 134.2C225.835 134.01 225.99 133.68 226.1 133.21C226.22 132.73 226.28 132.06 226.28 131.2C226.28 130.33 226.22 129.665 226.1 129.205C225.99 128.745 225.835 128.43 225.635 128.26C225.435 128.09 225.21 128.005 224.96 128.005C224.71 128.005 224.485 128.09 224.285 128.26C224.085 128.43 223.925 128.745 223.805 129.205C223.695 129.665 223.64 130.33 223.64 131.2C223.64 132.06 223.695 132.73 223.805 133.21C223.925 133.68 224.085 134.01 224.285 134.2C224.485 134.38 224.71 134.47 224.96 134.47Z" fill="#CD93F0"/>
<path d="M338.05 135V133.215H340.12V127.71H338.335V126.345C338.855 126.245 339.295 126.125 339.655 125.985C340.025 125.845 340.375 125.675 340.705 125.475H342.325V133.215H344.11V135H338.05Z" fill="#CD93F0"/>
<path d="M298.555 176V174.635C299.355 173.925 300.065 173.26 300.685 172.64C301.315 172.02 301.805 171.445 302.155 170.915C302.515 170.385 302.695 169.9 302.695 169.46C302.695 168.99 302.575 168.635 302.335 168.395C302.095 168.145 301.765 168.02 301.345 168.02C301.005 168.02 300.695 168.12 300.415 168.32C300.145 168.51 299.89 168.735 299.65 168.995L298.495 167.855C298.955 167.335 299.425 166.945 299.905 166.685C300.395 166.425 300.975 166.295 301.645 166.295C302.265 166.295 302.81 166.42 303.28 166.67C303.76 166.92 304.13 167.27 304.39 167.72C304.66 168.17 304.795 168.7 304.795 169.31C304.795 169.88 304.64 170.44 304.33 170.99C304.03 171.53 303.63 172.07 303.13 172.61C302.63 173.15 302.1 173.7 301.54 174.26C301.78 174.23 302.05 174.205 302.35 174.185C302.65 174.155 302.91 174.14 303.13 174.14H305.26V176H298.555Z" fill="#CD93F0"/>
<path d="M182.645 178.18C182.135 178.18 181.67 178.12 181.25 178C180.84 177.89 180.475 177.735 180.155 177.535C179.835 177.335 179.56 177.1 179.33 176.83L180.35 175.435C180.64 175.715 180.96 175.945 181.31 176.125C181.66 176.305 182.035 176.395 182.435 176.395C182.895 176.395 183.265 176.3 183.545 176.11C183.835 175.91 183.98 175.63 183.98 175.27C183.98 174.99 183.91 174.75 183.77 174.55C183.63 174.34 183.375 174.18 183.005 174.07C182.645 173.96 182.115 173.905 181.415 173.905V172.345C181.985 172.345 182.435 172.29 182.765 172.18C183.095 172.07 183.325 171.92 183.455 171.73C183.595 171.54 183.665 171.32 183.665 171.07C183.665 170.73 183.56 170.47 183.35 170.29C183.15 170.11 182.865 170.02 182.495 170.02C182.155 170.02 181.845 170.095 181.565 170.245C181.295 170.385 181.01 170.59 180.71 170.86L179.6 169.51C180.04 169.13 180.505 168.835 180.995 168.625C181.485 168.405 182.02 168.295 182.6 168.295C183.25 168.295 183.82 168.4 184.31 168.61C184.81 168.81 185.195 169.105 185.465 169.495C185.745 169.875 185.885 170.345 185.885 170.905C185.885 171.395 185.745 171.815 185.465 172.165C185.195 172.515 184.805 172.8 184.295 173.02V173.08C184.655 173.19 184.98 173.35 185.27 173.56C185.56 173.76 185.785 174.015 185.945 174.325C186.105 174.635 186.185 174.995 186.185 175.405C186.185 175.995 186.02 176.5 185.69 176.92C185.37 177.33 184.94 177.645 184.4 177.865C183.87 178.075 183.285 178.18 182.645 178.18Z" fill="#CD93F0"/>
<path d="M225.41 16V10.495C225.41 10.195 225.42 9.84 225.44 9.43C225.47 9.02 225.49 8.665 225.5 8.365H225.44C225.32 8.625 225.195 8.89 225.065 9.16C224.935 9.42 224.8 9.69 224.66 9.97L223.4 12.04H228.56V13.72H221.285V12.205L224.765 6.475H227.465V16H225.41Z" fill="#CD93F0"/>
<path d="M340.705 15.18C340.185 15.18 339.715 15.12 339.295 15C338.885 14.88 338.52 14.72 338.2 14.52C337.88 14.32 337.595 14.095 337.345 13.845L338.335 12.45C338.625 12.71 338.94 12.935 339.28 13.125C339.62 13.305 339.99 13.395 340.39 13.395C340.71 13.395 340.99 13.34 341.23 13.23C341.47 13.11 341.655 12.94 341.785 12.72C341.925 12.5 341.995 12.23 341.995 11.91C341.995 11.43 341.855 11.065 341.575 10.815C341.295 10.565 340.935 10.44 340.495 10.44C340.225 10.44 339.995 10.475 339.805 10.545C339.615 10.615 339.375 10.74 339.085 10.92L338.095 10.29L338.365 5.475H343.765V7.335H340.27L340.105 9.12C340.295 9.04 340.47 8.985 340.63 8.955C340.79 8.915 340.97 8.895 341.17 8.895C341.72 8.895 342.225 9 342.685 9.21C343.145 9.42 343.51 9.745 343.78 10.185C344.06 10.625 344.2 11.18 344.2 11.85C344.2 12.56 344.035 13.165 343.705 13.665C343.385 14.155 342.96 14.53 342.43 14.79C341.9 15.05 341.325 15.18 340.705 15.18Z" fill="#CD93F0"/>
<path d="M302.215 56.18C301.755 56.18 301.31 56.09 300.88 55.91C300.45 55.73 300.065 55.45 299.725 55.07C299.385 54.69 299.115 54.205 298.915 53.615C298.715 53.015 298.615 52.295 298.615 51.455C298.615 50.565 298.72 49.795 298.93 49.145C299.14 48.495 299.425 47.96 299.785 47.54C300.145 47.12 300.555 46.81 301.015 46.61C301.475 46.4 301.96 46.295 302.47 46.295C303.1 46.295 303.645 46.41 304.105 46.64C304.565 46.86 304.945 47.125 305.245 47.435L304.09 48.755C303.92 48.575 303.7 48.42 303.43 48.29C303.16 48.15 302.885 48.08 302.605 48.08C302.245 48.08 301.91 48.185 301.6 48.395C301.3 48.605 301.06 48.96 300.88 49.46C300.71 49.95 300.625 50.615 300.625 51.455C300.625 52.245 300.695 52.865 300.835 53.315C300.985 53.755 301.18 54.07 301.42 54.26C301.66 54.44 301.91 54.53 302.17 54.53C302.39 54.53 302.59 54.475 302.77 54.365C302.95 54.255 303.095 54.09 303.205 53.87C303.315 53.64 303.37 53.345 303.37 52.985C303.37 52.645 303.315 52.375 303.205 52.175C303.095 51.975 302.945 51.83 302.755 51.74C302.575 51.65 302.365 51.605 302.125 51.605C301.875 51.605 301.615 51.68 301.345 51.83C301.085 51.98 300.85 52.245 300.64 52.625L300.535 51.185C300.785 50.815 301.105 50.535 301.495 50.345C301.885 50.145 302.235 50.045 302.545 50.045C303.085 50.045 303.57 50.15 304 50.36C304.43 50.57 304.765 50.895 305.005 51.335C305.255 51.765 305.38 52.315 305.38 52.985C305.38 53.645 305.235 54.215 304.945 54.695C304.665 55.175 304.285 55.545 303.805 55.805C303.325 56.055 302.795 56.18 302.215 56.18Z" fill="#CD93F0"/>
<path d="M181.25 58C181.3 57.21 181.38 56.485 181.49 55.825C181.6 55.155 181.755 54.52 181.955 53.92C182.165 53.32 182.43 52.73 182.75 52.15C183.07 51.57 183.465 50.965 183.935 50.335H179.66V48.475H186.29V49.825C185.73 50.505 185.27 51.14 184.91 51.73C184.56 52.32 184.29 52.92 184.1 53.53C183.91 54.14 183.77 54.805 183.68 55.525C183.59 56.245 183.52 57.07 183.47 58H181.25Z" fill="#CD93F0"/>
<path d="M228.975 199V191.56H231.18V199H228.975ZM230.07 190.465C229.7 190.465 229.4 190.36 229.17 190.15C228.94 189.94 228.825 189.66 228.825 189.31C228.825 188.96 228.94 188.68 229.17 188.47C229.4 188.26 229.7 188.155 230.07 188.155C230.44 188.155 230.74 188.26 230.97 188.47C231.2 188.68 231.315 188.96 231.315 189.31C231.315 189.66 231.2 189.94 230.97 190.15C230.74 190.36 230.44 190.465 230.07 190.465ZM233.121 199V191.56H234.921L235.071 192.505H235.131C235.441 192.195 235.791 191.93 236.181 191.71C236.571 191.49 237.016 191.38 237.516 191.38C238.336 191.38 238.926 191.65 239.286 192.19C239.646 192.72 239.826 193.45 239.826 194.38V199H237.621V194.665C237.621 194.125 237.546 193.755 237.396 193.555C237.256 193.355 237.026 193.255 236.706 193.255C236.426 193.255 236.186 193.32 235.986 193.45C235.786 193.57 235.566 193.745 235.326 193.975V199H233.121ZM244.359 199.18C243.439 199.18 242.699 198.835 242.139 198.145C241.589 197.445 241.314 196.49 241.314 195.28C241.314 194.47 241.459 193.775 241.749 193.195C242.049 192.615 242.434 192.17 242.904 191.86C243.384 191.54 243.884 191.38 244.404 191.38C244.814 191.38 245.159 191.45 245.439 191.59C245.719 191.73 245.984 191.92 246.234 192.16L246.144 191.02V188.485H248.349V199H246.549L246.399 198.265H246.339C246.079 198.525 245.774 198.745 245.424 198.925C245.074 199.095 244.719 199.18 244.359 199.18ZM244.929 197.38C245.169 197.38 245.389 197.33 245.589 197.23C245.789 197.13 245.974 196.955 246.144 196.705V193.66C245.954 193.48 245.754 193.355 245.544 193.285C245.334 193.215 245.124 193.18 244.914 193.18C244.674 193.18 244.454 193.255 244.254 193.405C244.054 193.555 243.889 193.785 243.759 194.095C243.639 194.395 243.579 194.78 243.579 195.25C243.579 195.98 243.699 196.52 243.939 196.87C244.179 197.21 244.509 197.38 244.929 197.38ZM253.633 199.18C252.923 199.18 252.283 199.025 251.713 198.715C251.143 198.405 250.693 197.96 250.363 197.38C250.033 196.8 249.868 196.1 249.868 195.28C249.868 194.47 250.033 193.775 250.363 193.195C250.703 192.615 251.143 192.17 251.683 191.86C252.223 191.54 252.788 191.38 253.378 191.38C254.088 191.38 254.678 191.54 255.148 191.86C255.618 192.17 255.968 192.595 256.198 193.135C256.428 193.675 256.543 194.28 256.543 194.95C256.543 195.14 256.533 195.33 256.513 195.52C256.493 195.7 256.473 195.845 256.453 195.955H251.578L251.548 194.425H254.653C254.653 194.035 254.558 193.715 254.368 193.465C254.178 193.205 253.863 193.075 253.423 193.075C253.183 193.075 252.948 193.14 252.718 193.27C252.488 193.4 252.298 193.625 252.148 193.945C251.998 194.265 251.928 194.71 251.938 195.28C251.948 195.84 252.048 196.28 252.238 196.6C252.438 196.92 252.688 197.15 252.988 197.29C253.288 197.42 253.603 197.485 253.933 197.485C254.223 197.485 254.498 197.445 254.758 197.365C255.028 197.275 255.293 197.155 255.553 197.005L256.273 198.355C255.903 198.615 255.483 198.82 255.013 198.97C254.543 199.11 254.083 199.18 253.633 199.18ZM257.053 199L259.333 195.13L257.188 191.56H259.558L260.218 192.76C260.318 192.97 260.418 193.185 260.518 193.405C260.628 193.615 260.738 193.825 260.848 194.035H260.908C260.988 193.825 261.073 193.615 261.163 193.405C261.253 193.185 261.338 192.97 261.418 192.76L261.928 191.56H264.208L262.048 195.385L264.343 199H261.973L261.253 197.77C261.133 197.56 261.013 197.345 260.893 197.125C260.783 196.905 260.668 196.69 260.548 196.48H260.488C260.398 196.69 260.303 196.905 260.203 197.125C260.103 197.335 260.008 197.55 259.918 197.77L259.333 199H257.053ZM266.798 194.32C266.418 194.32 266.098 194.185 265.838 193.915C265.588 193.645 265.463 193.32 265.463 192.94C265.463 192.54 265.588 192.21 265.838 191.95C266.098 191.68 266.418 191.545 266.798 191.545C267.188 191.545 267.508 191.68 267.758 191.95C268.008 192.21 268.133 192.54 268.133 192.94C268.133 193.32 268.008 193.645 267.758 193.915C267.508 194.185 267.188 194.32 266.798 194.32ZM266.798 199.18C266.418 199.18 266.098 199.045 265.838 198.775C265.588 198.505 265.463 198.18 265.463 197.8C265.463 197.4 265.588 197.07 265.838 196.81C266.098 196.54 266.418 196.405 266.798 196.405C267.188 196.405 267.508 196.54 267.758 196.81C268.008 197.07 268.133 197.4 268.133 197.8C268.133 198.18 268.008 198.505 267.758 198.775C267.508 199.045 267.188 199.18 266.798 199.18ZM273.098 199V197.215H275.168V191.71H273.383V190.345C273.903 190.245 274.343 190.125 274.703 189.985C275.073 189.845 275.423 189.675 275.753 189.475H277.373V197.215H279.158V199H273.098Z" fill="black"/>
<path d="M410 17V137" stroke="#757575"/>
<path d="M410.354 137.354L410.707 137L410 136.293L409.646 136.646L410.354 137.354ZM368.354 179.354L410.354 137.354L409.646 136.646L367.646 178.646L368.354 179.354Z" fill="#757575"/>
<path d="M410 137L527 137" stroke="#757575"/>
<path d="M409.603 17.0107C409.603 17.0107 368 58.0118 368 58.5059C368 59 487 59 487 59C487 59 526.491 17.0002 525.996 17C525.5 16.9998 409.603 17.0107 409.603 17.0107Z" fill="#CD93F0" fill-opacity="0.25" stroke="#757575"/>
<path d="M368 59H487V179H368V59Z" fill="#D9D9D9" fill-opacity="0.4" stroke="#757575"/>
<path d="M526.766 17.0043C526.269 16.5044 487 59.5021 487 59.5021L487.048 178.996C487.048 179.496 526.816 137.498 526.816 137.498C526.816 137.498 527.262 17.5043 526.766 17.0043Z" fill="#D9D9D9" fill-opacity="0.4" stroke="#757575"/>
<circle cx="368" cy="59" r="2" fill="#CD93F0"/>
<circle cx="487" cy="59" r="2" fill="#CD93F0"/>
<circle cx="526" cy="17" r="2" fill="#CD93F0"/>
<circle cx="410" cy="17" r="2" fill="#CD93F0"/>
<circle cx="410" cy="137" r="2" fill="#CD93F0"/>
<circle cx="368" cy="179" r="2" fill="#CD93F0"/>
<circle cx="487" cy="179" r="2" fill="#CD93F0"/>
<circle cx="527" cy="137" r="2" fill="#CD93F0"/>
<path d="M403.96 136.18C402.94 136.18 402.115 135.755 401.485 134.905C400.865 134.055 400.555 132.82 400.555 131.2C400.555 129.57 400.865 128.345 401.485 127.525C402.115 126.705 402.94 126.295 403.96 126.295C404.98 126.295 405.8 126.71 406.42 127.54C407.05 128.36 407.365 129.58 407.365 131.2C407.365 132.82 407.05 134.055 406.42 134.905C405.8 135.755 404.98 136.18 403.96 136.18ZM403.96 134.47C404.21 134.47 404.435 134.38 404.635 134.2C404.835 134.01 404.99 133.68 405.1 133.21C405.22 132.73 405.28 132.06 405.28 131.2C405.28 130.33 405.22 129.665 405.1 129.205C404.99 128.745 404.835 128.43 404.635 128.26C404.435 128.09 404.21 128.005 403.96 128.005C403.71 128.005 403.485 128.09 403.285 128.26C403.085 128.43 402.925 128.745 402.805 129.205C402.695 129.665 402.64 130.33 402.64 131.2C402.64 132.06 402.695 132.73 402.805 133.21C402.925 133.68 403.085 134.01 403.285 134.2C403.485 134.38 403.71 134.47 403.96 134.47Z" fill="#CD93F0"/>
<path d="M517.05 135V133.215H519.12V127.71H517.335V126.345C517.855 126.245 518.295 126.125 518.655 125.985C519.025 125.845 519.375 125.675 519.705 125.475H521.325V133.215H523.11V135H517.05Z" fill="#CD93F0"/>
<path d="M477.555 176V174.635C478.355 173.925 479.065 173.26 479.685 172.64C480.315 172.02 480.805 171.445 481.155 170.915C481.515 170.385 481.695 169.9 481.695 169.46C481.695 168.99 481.575 168.635 481.335 168.395C481.095 168.145 480.765 168.02 480.345 168.02C480.005 168.02 479.695 168.12 479.415 168.32C479.145 168.51 478.89 168.735 478.65 168.995L477.495 167.855C477.955 167.335 478.425 166.945 478.905 166.685C479.395 166.425 479.975 166.295 480.645 166.295C481.265 166.295 481.81 166.42 482.28 166.67C482.76 166.92 483.13 167.27 483.39 167.72C483.66 168.17 483.795 168.7 483.795 169.31C483.795 169.88 483.64 170.44 483.33 170.99C483.03 171.53 482.63 172.07 482.13 172.61C481.63 173.15 481.1 173.7 480.54 174.26C480.78 174.23 481.05 174.205 481.35 174.185C481.65 174.155 481.91 174.14 482.13 174.14H484.26V176H477.555Z" fill="#CD93F0"/>
<path d="M361.645 178.18C361.135 178.18 360.67 178.12 360.25 178C359.84 177.89 359.475 177.735 359.155 177.535C358.835 177.335 358.56 177.1 358.33 176.83L359.35 175.435C359.64 175.715 359.96 175.945 360.31 176.125C360.66 176.305 361.035 176.395 361.435 176.395C361.895 176.395 362.265 176.3 362.545 176.11C362.835 175.91 362.98 175.63 362.98 175.27C362.98 174.99 362.91 174.75 362.77 174.55C362.63 174.34 362.375 174.18 362.005 174.07C361.645 173.96 361.115 173.905 360.415 173.905V172.345C360.985 172.345 361.435 172.29 361.765 172.18C362.095 172.07 362.325 171.92 362.455 171.73C362.595 171.54 362.665 171.32 362.665 171.07C362.665 170.73 362.56 170.47 362.35 170.29C362.15 170.11 361.865 170.02 361.495 170.02C361.155 170.02 360.845 170.095 360.565 170.245C360.295 170.385 360.01 170.59 359.71 170.86L358.6 169.51C359.04 169.13 359.505 168.835 359.995 168.625C360.485 168.405 361.02 168.295 361.6 168.295C362.25 168.295 362.82 168.4 363.31 168.61C363.81 168.81 364.195 169.105 364.465 169.495C364.745 169.875 364.885 170.345 364.885 170.905C364.885 171.395 364.745 171.815 364.465 172.165C364.195 172.515 363.805 172.8 363.295 173.02V173.08C363.655 173.19 363.98 173.35 364.27 173.56C364.56 173.76 364.785 174.015 364.945 174.325C365.105 174.635 365.185 174.995 365.185 175.405C365.185 175.995 365.02 176.5 364.69 176.92C364.37 177.33 363.94 177.645 363.4 177.865C362.87 178.075 362.285 178.18 361.645 178.18Z" fill="#CD93F0"/>
<path d="M404.41 16V10.495C404.41 10.195 404.42 9.84 404.44 9.43C404.47 9.02 404.49 8.665 404.5 8.365H404.44C404.32 8.625 404.195 8.89 404.065 9.16C403.935 9.42 403.8 9.69 403.66 9.97L402.4 12.04H407.56V13.72H400.285V12.205L403.765 6.475H406.465V16H404.41Z" fill="#CD93F0"/>
<path d="M519.705 15.18C519.185 15.18 518.715 15.12 518.295 15C517.885 14.88 517.52 14.72 517.2 14.52C516.88 14.32 516.595 14.095 516.345 13.845L517.335 12.45C517.625 12.71 517.94 12.935 518.28 13.125C518.62 13.305 518.99 13.395 519.39 13.395C519.71 13.395 519.99 13.34 520.23 13.23C520.47 13.11 520.655 12.94 520.785 12.72C520.925 12.5 520.995 12.23 520.995 11.91C520.995 11.43 520.855 11.065 520.575 10.815C520.295 10.565 519.935 10.44 519.495 10.44C519.225 10.44 518.995 10.475 518.805 10.545C518.615 10.615 518.375 10.74 518.085 10.92L517.095 10.29L517.365 5.475H522.765V7.335H519.27L519.105 9.12C519.295 9.04 519.47 8.985 519.63 8.955C519.79 8.915 519.97 8.895 520.17 8.895C520.72 8.895 521.225 9 521.685 9.21C522.145 9.42 522.51 9.745 522.78 10.185C523.06 10.625 523.2 11.18 523.2 11.85C523.2 12.56 523.035 13.165 522.705 13.665C522.385 14.155 521.96 14.53 521.43 14.79C520.9 15.05 520.325 15.18 519.705 15.18Z" fill="#CD93F0"/>
<path d="M481.215 56.18C480.755 56.18 480.31 56.09 479.88 55.91C479.45 55.73 479.065 55.45 478.725 55.07C478.385 54.69 478.115 54.205 477.915 53.615C477.715 53.015 477.615 52.295 477.615 51.455C477.615 50.565 477.72 49.795 477.93 49.145C478.14 48.495 478.425 47.96 478.785 47.54C479.145 47.12 479.555 46.81 480.015 46.61C480.475 46.4 480.96 46.295 481.47 46.295C482.1 46.295 482.645 46.41 483.105 46.64C483.565 46.86 483.945 47.125 484.245 47.435L483.09 48.755C482.92 48.575 482.7 48.42 482.43 48.29C482.16 48.15 481.885 48.08 481.605 48.08C481.245 48.08 480.91 48.185 480.6 48.395C480.3 48.605 480.06 48.96 479.88 49.46C479.71 49.95 479.625 50.615 479.625 51.455C479.625 52.245 479.695 52.865 479.835 53.315C479.985 53.755 480.18 54.07 480.42 54.26C480.66 54.44 480.91 54.53 481.17 54.53C481.39 54.53 481.59 54.475 481.77 54.365C481.95 54.255 482.095 54.09 482.205 53.87C482.315 53.64 482.37 53.345 482.37 52.985C482.37 52.645 482.315 52.375 482.205 52.175C482.095 51.975 481.945 51.83 481.755 51.74C481.575 51.65 481.365 51.605 481.125 51.605C480.875 51.605 480.615 51.68 480.345 51.83C480.085 51.98 479.85 52.245 479.64 52.625L479.535 51.185C479.785 50.815 480.105 50.535 480.495 50.345C480.885 50.145 481.235 50.045 481.545 50.045C482.085 50.045 482.57 50.15 483 50.36C483.43 50.57 483.765 50.895 484.005 51.335C484.255 51.765 484.38 52.315 484.38 52.985C484.38 53.645 484.235 54.215 483.945 54.695C483.665 55.175 483.285 55.545 482.805 55.805C482.325 56.055 481.795 56.18 481.215 56.18Z" fill="#CD93F0"/>
<path d="M360.25 58C360.3 57.21 360.38 56.485 360.49 55.825C360.6 55.155 360.755 54.52 360.955 53.92C361.165 53.32 361.43 52.73 361.75 52.15C362.07 51.57 362.465 50.965 362.935 50.335H358.66V48.475H365.29V49.825C364.73 50.505 364.27 51.14 363.91 51.73C363.56 52.32 363.29 52.92 363.1 53.53C362.91 54.14 362.77 54.805 362.68 55.525C362.59 56.245 362.52 57.07 362.47 58H360.25Z" fill="#CD93F0"/>
<path d="M407.975 199V191.56H410.18V199H407.975ZM409.07 190.465C408.7 190.465 408.4 190.36 408.17 190.15C407.94 189.94 407.825 189.66 407.825 189.31C407.825 188.96 407.94 188.68 408.17 188.47C408.4 188.26 408.7 188.155 409.07 188.155C409.44 188.155 409.74 188.26 409.97 188.47C410.2 188.68 410.315 188.96 410.315 189.31C410.315 189.66 410.2 189.94 409.97 190.15C409.74 190.36 409.44 190.465 409.07 190.465ZM412.121 199V191.56H413.921L414.071 192.505H414.131C414.441 192.195 414.791 191.93 415.181 191.71C415.571 191.49 416.016 191.38 416.516 191.38C417.336 191.38 417.926 191.65 418.286 192.19C418.646 192.72 418.826 193.45 418.826 194.38V199H416.621V194.665C416.621 194.125 416.546 193.755 416.396 193.555C416.256 193.355 416.026 193.255 415.706 193.255C415.426 193.255 415.186 193.32 414.986 193.45C414.786 193.57 414.566 193.745 414.326 193.975V199H412.121ZM423.359 199.18C422.439 199.18 421.699 198.835 421.139 198.145C420.589 197.445 420.314 196.49 420.314 195.28C420.314 194.47 420.459 193.775 420.749 193.195C421.049 192.615 421.434 192.17 421.904 191.86C422.384 191.54 422.884 191.38 423.404 191.38C423.814 191.38 424.159 191.45 424.439 191.59C424.719 191.73 424.984 191.92 425.234 192.16L425.144 191.02V188.485H427.349V199H425.549L425.399 198.265H425.339C425.079 198.525 424.774 198.745 424.424 198.925C424.074 199.095 423.719 199.18 423.359 199.18ZM423.929 197.38C424.169 197.38 424.389 197.33 424.589 197.23C424.789 197.13 424.974 196.955 425.144 196.705V193.66C424.954 193.48 424.754 193.355 424.544 193.285C424.334 193.215 424.124 193.18 423.914 193.18C423.674 193.18 423.454 193.255 423.254 193.405C423.054 193.555 422.889 193.785 422.759 194.095C422.639 194.395 422.579 194.78 422.579 195.25C422.579 195.98 422.699 196.52 422.939 196.87C423.179 197.21 423.509 197.38 423.929 197.38ZM432.633 199.18C431.923 199.18 431.283 199.025 430.713 198.715C430.143 198.405 429.693 197.96 429.363 197.38C429.033 196.8 428.868 196.1 428.868 195.28C428.868 194.47 429.033 193.775 429.363 193.195C429.703 192.615 430.143 192.17 430.683 191.86C431.223 191.54 431.788 191.38 432.378 191.38C433.088 191.38 433.678 191.54 434.148 191.86C434.618 192.17 434.968 192.595 435.198 193.135C435.428 193.675 435.543 194.28 435.543 194.95C435.543 195.14 435.533 195.33 435.513 195.52C435.493 195.7 435.473 195.845 435.453 195.955H430.578L430.548 194.425H433.653C433.653 194.035 433.558 193.715 433.368 193.465C433.178 193.205 432.863 193.075 432.423 193.075C432.183 193.075 431.948 193.14 431.718 193.27C431.488 193.4 431.298 193.625 431.148 193.945C430.998 194.265 430.928 194.71 430.938 195.28C430.948 195.84 431.048 196.28 431.238 196.6C431.438 196.92 431.688 197.15 431.988 197.29C432.288 197.42 432.603 197.485 432.933 197.485C433.223 197.485 433.498 197.445 433.758 197.365C434.028 197.275 434.293 197.155 434.553 197.005L435.273 198.355C434.903 198.615 434.483 198.82 434.013 198.97C433.543 199.11 433.083 199.18 432.633 199.18ZM436.053 199L438.333 195.13L436.188 191.56H438.558L439.218 192.76C439.318 192.97 439.418 193.185 439.518 193.405C439.628 193.615 439.738 193.825 439.848 194.035H439.908C439.988 193.825 440.073 193.615 440.163 193.405C440.253 193.185 440.338 192.97 440.418 192.76L440.928 191.56H443.208L441.048 195.385L443.343 199H440.973L440.253 197.77C440.133 197.56 440.013 197.345 439.893 197.125C439.783 196.905 439.668 196.69 439.548 196.48H439.488C439.398 196.69 439.303 196.905 439.203 197.125C439.103 197.335 439.008 197.55 438.918 197.77L438.333 199H436.053ZM445.798 194.32C445.418 194.32 445.098 194.185 444.838 193.915C444.588 193.645 444.463 193.32 444.463 192.94C444.463 192.54 444.588 192.21 444.838 191.95C445.098 191.68 445.418 191.545 445.798 191.545C446.188 191.545 446.508 191.68 446.758 191.95C447.008 192.21 447.133 192.54 447.133 192.94C447.133 193.32 447.008 193.645 446.758 193.915C446.508 194.185 446.188 194.32 445.798 194.32ZM445.798 199.18C445.418 199.18 445.098 199.045 444.838 198.775C444.588 198.505 444.463 198.18 444.463 197.8C444.463 197.4 444.588 197.07 444.838 196.81C445.098 196.54 445.418 196.405 445.798 196.405C446.188 196.405 446.508 196.54 446.758 196.81C447.008 197.07 447.133 197.4 447.133 197.8C447.133 198.18 447.008 198.505 446.758 198.775C446.508 199.045 446.188 199.18 445.798 199.18ZM451.603 199V197.635C452.403 196.925 453.113 196.26 453.733 195.64C454.363 195.02 454.853 194.445 455.203 193.915C455.563 193.385 455.743 192.9 455.743 192.46C455.743 191.99 455.623 191.635 455.383 191.395C455.143 191.145 454.813 191.02 454.393 191.02C454.053 191.02 453.743 191.12 453.463 191.32C453.193 191.51 452.938 191.735 452.698 191.995L451.543 190.855C452.003 190.335 452.473 189.945 452.953 189.685C453.443 189.425 454.023 189.295 454.693 189.295C455.313 189.295 455.858 189.42 456.328 189.67C456.808 189.92 457.178 190.27 457.438 190.72C457.708 191.17 457.843 191.7 457.843 192.31C457.843 192.88 457.688 193.44 457.378 193.99C457.078 194.53 456.678 195.07 456.178 195.61C455.678 196.15 455.148 196.7 454.588 197.26C454.828 197.23 455.098 197.205 455.398 197.185C455.698 197.155 455.958 197.14 456.178 197.14H458.308V199H451.603Z" fill="black"/>
<path d="M589 17V137" stroke="#757575"/>
<path d="M589.354 137.354L589.707 137L589 136.293L588.646 136.646L589.354 137.354ZM547.354 179.354L589.354 137.354L588.646 136.646L546.646 178.646L547.354 179.354Z" fill="#757575"/>
<path d="M589 137L706 137" stroke="#757575"/>
<path d="M588.603 17.0107C588.603 17.0107 547 58.0118 547 58.5059C547 59 666 59 666 59C666 59 705.491 17.0002 704.996 17C704.5 16.9998 588.603 17.0107 588.603 17.0107Z" fill="#D9D9D9" fill-opacity="0.4" stroke="#757575"/>
<path d="M547 59H666V179H547V59Z" fill="#D9D9D9" fill-opacity="0.4" stroke="#757575"/>
<path d="M705.766 17.0043C705.269 16.5044 666 59.5021 666 59.5021L666.048 178.996C666.048 179.496 705.816 137.498 705.816 137.498C705.816 137.498 706.262 17.5043 705.766 17.0043Z" fill="#CD93F0" fill-opacity="0.25" stroke="#757575"/>
<circle cx="547" cy="59" r="2" fill="#CD93F0"/>
<circle cx="666" cy="59" r="2" fill="#CD93F0"/>
<circle cx="705" cy="17" r="2" fill="#CD93F0"/>
<circle cx="589" cy="17" r="2" fill="#CD93F0"/>
<circle cx="589" cy="137" r="2" fill="#CD93F0"/>
<circle cx="547" cy="179" r="2" fill="#CD93F0"/>
<circle cx="666" cy="179" r="2" fill="#CD93F0"/>
<circle cx="706" cy="137" r="2" fill="#CD93F0"/>
<path d="M582.96 136.18C581.94 136.18 581.115 135.755 580.485 134.905C579.865 134.055 579.555 132.82 579.555 131.2C579.555 129.57 579.865 128.345 580.485 127.525C581.115 126.705 581.94 126.295 582.96 126.295C583.98 126.295 584.8 126.71 585.42 127.54C586.05 128.36 586.365 129.58 586.365 131.2C586.365 132.82 586.05 134.055 585.42 134.905C584.8 135.755 583.98 136.18 582.96 136.18ZM582.96 134.47C583.21 134.47 583.435 134.38 583.635 134.2C583.835 134.01 583.99 133.68 584.1 133.21C584.22 132.73 584.28 132.06 584.28 131.2C584.28 130.33 584.22 129.665 584.1 129.205C583.99 128.745 583.835 128.43 583.635 128.26C583.435 128.09 583.21 128.005 582.96 128.005C582.71 128.005 582.485 128.09 582.285 128.26C582.085 128.43 581.925 128.745 581.805 129.205C581.695 129.665 581.64 130.33 581.64 131.2C581.64 132.06 581.695 132.73 581.805 133.21C581.925 133.68 582.085 134.01 582.285 134.2C582.485 134.38 582.71 134.47 582.96 134.47Z" fill="#CD93F0"/>
<path d="M696.05 135V133.215H698.12V127.71H696.335V126.345C696.855 126.245 697.295 126.125 697.655 125.985C698.025 125.845 698.375 125.675 698.705 125.475H700.325V133.215H702.11V135H696.05Z" fill="#CD93F0"/>
<path d="M656.555 176V174.635C657.355 173.925 658.065 173.26 658.685 172.64C659.315 172.02 659.805 171.445 660.155 170.915C660.515 170.385 660.695 169.9 660.695 169.46C660.695 168.99 660.575 168.635 660.335 168.395C660.095 168.145 659.765 168.02 659.345 168.02C659.005 168.02 658.695 168.12 658.415 168.32C658.145 168.51 657.89 168.735 657.65 168.995L656.495 167.855C656.955 167.335 657.425 166.945 657.905 166.685C658.395 166.425 658.975 166.295 659.645 166.295C660.265 166.295 660.81 166.42 661.28 166.67C661.76 166.92 662.13 167.27 662.39 167.72C662.66 168.17 662.795 168.7 662.795 169.31C662.795 169.88 662.64 170.44 662.33 170.99C662.03 171.53 661.63 172.07 661.13 172.61C660.63 173.15 660.1 173.7 659.54 174.26C659.78 174.23 660.05 174.205 660.35 174.185C660.65 174.155 660.91 174.14 661.13 174.14H663.26V176H656.555Z" fill="#CD93F0"/>
<path d="M540.645 178.18C540.135 178.18 539.67 178.12 539.25 178C538.84 177.89 538.475 177.735 538.155 177.535C537.835 177.335 537.56 177.1 537.33 176.83L538.35 175.435C538.64 175.715 538.96 175.945 539.31 176.125C539.66 176.305 540.035 176.395 540.435 176.395C540.895 176.395 541.265 176.3 541.545 176.11C541.835 175.91 541.98 175.63 541.98 175.27C541.98 174.99 541.91 174.75 541.77 174.55C541.63 174.34 541.375 174.18 541.005 174.07C540.645 173.96 540.115 173.905 539.415 173.905V172.345C539.985 172.345 540.435 172.29 540.765 172.18C541.095 172.07 541.325 171.92 541.455 171.73C541.595 171.54 541.665 171.32 541.665 171.07C541.665 170.73 541.56 170.47 541.35 170.29C541.15 170.11 540.865 170.02 540.495 170.02C540.155 170.02 539.845 170.095 539.565 170.245C539.295 170.385 539.01 170.59 538.71 170.86L537.6 169.51C538.04 169.13 538.505 168.835 538.995 168.625C539.485 168.405 540.02 168.295 540.6 168.295C541.25 168.295 541.82 168.4 542.31 168.61C542.81 168.81 543.195 169.105 543.465 169.495C543.745 169.875 543.885 170.345 543.885 170.905C543.885 171.395 543.745 171.815 543.465 172.165C543.195 172.515 542.805 172.8 542.295 173.02V173.08C542.655 173.19 542.98 173.35 543.27 173.56C543.56 173.76 543.785 174.015 543.945 174.325C544.105 174.635 544.185 174.995 544.185 175.405C544.185 175.995 544.02 176.5 543.69 176.92C543.37 177.33 542.94 177.645 542.4 177.865C541.87 178.075 541.285 178.18 540.645 178.18Z" fill="#CD93F0"/>
<path d="M583.41 16V10.495C583.41 10.195 583.42 9.84 583.44 9.43C583.47 9.02 583.49 8.665 583.5 8.365H583.44C583.32 8.625 583.195 8.89 583.065 9.16C582.935 9.42 582.8 9.69 582.66 9.97L581.4 12.04H586.56V13.72H579.285V12.205L582.765 6.475H585.465V16H583.41Z" fill="#CD93F0"/>
<path d="M698.705 15.18C698.185 15.18 697.715 15.12 697.295 15C696.885 14.88 696.52 14.72 696.2 14.52C695.88 14.32 695.595 14.095 695.345 13.845L696.335 12.45C696.625 12.71 696.94 12.935 697.28 13.125C697.62 13.305 697.99 13.395 698.39 13.395C698.71 13.395 698.99 13.34 699.23 13.23C699.47 13.11 699.655 12.94 699.785 12.72C699.925 12.5 699.995 12.23 699.995 11.91C699.995 11.43 699.855 11.065 699.575 10.815C699.295 10.565 698.935 10.44 698.495 10.44C698.225 10.44 697.995 10.475 697.805 10.545C697.615 10.615 697.375 10.74 697.085 10.92L696.095 10.29L696.365 5.475H701.765V7.335H698.27L698.105 9.12C698.295 9.04 698.47 8.985 698.63 8.955C698.79 8.915 698.97 8.895 699.17 8.895C699.72 8.895 700.225 9 700.685 9.21C701.145 9.42 701.51 9.745 701.78 10.185C702.06 10.625 702.2 11.18 702.2 11.85C702.2 12.56 702.035 13.165 701.705 13.665C701.385 14.155 700.96 14.53 700.43 14.79C699.9 15.05 699.325 15.18 698.705 15.18Z" fill="#CD93F0"/>
<path d="M660.215 56.18C659.755 56.18 659.31 56.09 658.88 55.91C658.45 55.73 658.065 55.45 657.725 55.07C657.385 54.69 657.115 54.205 656.915 53.615C656.715 53.015 656.615 52.295 656.615 51.455C656.615 50.565 656.72 49.795 656.93 49.145C657.14 48.495 657.425 47.96 657.785 47.54C658.145 47.12 658.555 46.81 659.015 46.61C659.475 46.4 659.96 46.295 660.47 46.295C661.1 46.295 661.645 46.41 662.105 46.64C662.565 46.86 662.945 47.125 663.245 47.435L662.09 48.755C661.92 48.575 661.7 48.42 661.43 48.29C661.16 48.15 660.885 48.08 660.605 48.08C660.245 48.08 659.91 48.185 659.6 48.395C659.3 48.605 659.06 48.96 658.88 49.46C658.71 49.95 658.625 50.615 658.625 51.455C658.625 52.245 658.695 52.865 658.835 53.315C658.985 53.755 659.18 54.07 659.42 54.26C659.66 54.44 659.91 54.53 660.17 54.53C660.39 54.53 660.59 54.475 660.77 54.365C660.95 54.255 661.095 54.09 661.205 53.87C661.315 53.64 661.37 53.345 661.37 52.985C661.37 52.645 661.315 52.375 661.205 52.175C661.095 51.975 660.945 51.83 660.755 51.74C660.575 51.65 660.365 51.605 660.125 51.605C659.875 51.605 659.615 51.68 659.345 51.83C659.085 51.98 658.85 52.245 658.64 52.625L658.535 51.185C658.785 50.815 659.105 50.535 659.495 50.345C659.885 50.145 660.235 50.045 660.545 50.045C661.085 50.045 661.57 50.15 662 50.36C662.43 50.57 662.765 50.895 663.005 51.335C663.255 51.765 663.38 52.315 663.38 52.985C663.38 53.645 663.235 54.215 662.945 54.695C662.665 55.175 662.285 55.545 661.805 55.805C661.325 56.055 660.795 56.18 660.215 56.18Z" fill="#CD93F0"/>
<path d="M539.25 58C539.3 57.21 539.38 56.485 539.49 55.825C539.6 55.155 539.755 54.52 539.955 53.92C540.165 53.32 540.43 52.73 540.75 52.15C541.07 51.57 541.465 50.965 541.935 50.335H537.66V48.475H544.29V49.825C543.73 50.505 543.27 51.14 542.91 51.73C542.56 52.32 542.29 52.92 542.1 53.53C541.91 54.14 541.77 54.805 541.68 55.525C541.59 56.245 541.52 57.07 541.47 58H539.25Z" fill="#CD93F0"/>
<path d="M586.975 199V191.56H589.18V199H586.975ZM588.07 190.465C587.7 190.465 587.4 190.36 587.17 190.15C586.94 189.94 586.825 189.66 586.825 189.31C586.825 188.96 586.94 188.68 587.17 188.47C587.4 188.26 587.7 188.155 588.07 188.155C588.44 188.155 588.74 188.26 588.97 188.47C589.2 188.68 589.315 188.96 589.315 189.31C589.315 189.66 589.2 189.94 588.97 190.15C588.74 190.36 588.44 190.465 588.07 190.465ZM591.121 199V191.56H592.921L593.071 192.505H593.131C593.441 192.195 593.791 191.93 594.181 191.71C594.571 191.49 595.016 191.38 595.516 191.38C596.336 191.38 596.926 191.65 597.286 192.19C597.646 192.72 597.826 193.45 597.826 194.38V199H595.621V194.665C595.621 194.125 595.546 193.755 595.396 193.555C595.256 193.355 595.026 193.255 594.706 193.255C594.426 193.255 594.186 193.32 593.986 193.45C593.786 193.57 593.566 193.745 593.326 193.975V199H591.121ZM602.359 199.18C601.439 199.18 600.699 198.835 600.139 198.145C599.589 197.445 599.314 196.49 599.314 195.28C599.314 194.47 599.459 193.775 599.749 193.195C600.049 192.615 600.434 192.17 600.904 191.86C601.384 191.54 601.884 191.38 602.404 191.38C602.814 191.38 603.159 191.45 603.439 191.59C603.719 191.73 603.984 191.92 604.234 192.16L604.144 191.02V188.485H606.349V199H604.549L604.399 198.265H604.339C604.079 198.525 603.774 198.745 603.424 198.925C603.074 199.095 602.719 199.18 602.359 199.18ZM602.929 197.38C603.169 197.38 603.389 197.33 603.589 197.23C603.789 197.13 603.974 196.955 604.144 196.705V193.66C603.954 193.48 603.754 193.355 603.544 193.285C603.334 193.215 603.124 193.18 602.914 193.18C602.674 193.18 602.454 193.255 602.254 193.405C602.054 193.555 601.889 193.785 601.759 194.095C601.639 194.395 601.579 194.78 601.579 195.25C601.579 195.98 601.699 196.52 601.939 196.87C602.179 197.21 602.509 197.38 602.929 197.38ZM611.633 199.18C610.923 199.18 610.283 199.025 609.713 198.715C609.143 198.405 608.693 197.96 608.363 197.38C608.033 196.8 607.868 196.1 607.868 195.28C607.868 194.47 608.033 193.775 608.363 193.195C608.703 192.615 609.143 192.17 609.683 191.86C610.223 191.54 610.788 191.38 611.378 191.38C612.088 191.38 612.678 191.54 613.148 191.86C613.618 192.17 613.968 192.595 614.198 193.135C614.428 193.675 614.543 194.28 614.543 194.95C614.543 195.14 614.533 195.33 614.513 195.52C614.493 195.7 614.473 195.845 614.453 195.955H609.578L609.548 194.425H612.653C612.653 194.035 612.558 193.715 612.368 193.465C612.178 193.205 611.863 193.075 611.423 193.075C611.183 193.075 610.948 193.14 610.718 193.27C610.488 193.4 610.298 193.625 610.148 193.945C609.998 194.265 609.928 194.71 609.938 195.28C609.948 195.84 610.048 196.28 610.238 196.6C610.438 196.92 610.688 197.15 610.988 197.29C611.288 197.42 611.603 197.485 611.933 197.485C612.223 197.485 612.498 197.445 612.758 197.365C613.028 197.275 613.293 197.155 613.553 197.005L614.273 198.355C613.903 198.615 613.483 198.82 613.013 198.97C612.543 199.11 612.083 199.18 611.633 199.18ZM615.053 199L617.333 195.13L615.188 191.56H617.558L618.218 192.76C618.318 192.97 618.418 193.185 618.518 193.405C618.628 193.615 618.738 193.825 618.848 194.035H618.908C618.988 193.825 619.073 193.615 619.163 193.405C619.253 193.185 619.338 192.97 619.418 192.76L619.928 191.56H622.208L620.048 195.385L622.343 199H619.973L619.253 197.77C619.133 197.56 619.013 197.345 618.893 197.125C618.783 196.905 618.668 196.69 618.548 196.48H618.488C618.398 196.69 618.303 196.905 618.203 197.125C618.103 197.335 618.008 197.55 617.918 197.77L617.333 199H615.053ZM624.798 194.32C624.418 194.32 624.098 194.185 623.838 193.915C623.588 193.645 623.463 193.32 623.463 192.94C623.463 192.54 623.588 192.21 623.838 191.95C624.098 191.68 624.418 191.545 624.798 191.545C625.188 191.545 625.508 191.68 625.758 191.95C626.008 192.21 626.133 192.54 626.133 192.94C626.133 193.32 626.008 193.645 625.758 193.915C625.508 194.185 625.188 194.32 624.798 194.32ZM624.798 199.18C624.418 199.18 624.098 199.045 623.838 198.775C623.588 198.505 623.463 198.18 623.463 197.8C623.463 197.4 623.588 197.07 623.838 196.81C624.098 196.54 624.418 196.405 624.798 196.405C625.188 196.405 625.508 196.54 625.758 196.81C626.008 197.07 626.133 197.4 626.133 197.8C626.133 198.18 626.008 198.505 625.758 198.775C625.508 199.045 625.188 199.18 624.798 199.18ZM633.693 199.18C633.183 199.18 632.718 199.12 632.298 199C631.888 198.89 631.523 198.735 631.203 198.535C630.883 198.335 630.608 198.1 630.378 197.83L631.398 196.435C631.688 196.715 632.008 196.945 632.358 197.125C632.708 197.305 633.083 197.395 633.483 197.395C633.943 197.395 634.313 197.3 634.593 197.11C634.883 196.91 635.028 196.63 635.028 196.27C635.028 195.99 634.958 195.75 634.818 195.55C634.678 195.34 634.423 195.18 634.053 195.07C633.693 194.96 633.163 194.905 632.463 194.905V193.345C633.033 193.345 633.483 193.29 633.813 193.18C634.143 193.07 634.373 192.92 634.503 192.73C634.643 192.54 634.713 192.32 634.713 192.07C634.713 191.73 634.608 191.47 634.398 191.29C634.198 191.11 633.913 191.02 633.543 191.02C633.203 191.02 632.893 191.095 632.613 191.245C632.343 191.385 632.058 191.59 631.758 191.86L630.648 190.51C631.088 190.13 631.553 189.835 632.043 189.625C632.533 189.405 633.068 189.295 633.648 189.295C634.298 189.295 634.868 189.4 635.358 189.61C635.858 189.81 636.243 190.105 636.513 190.495C636.793 190.875 636.933 191.345 636.933 191.905C636.933 192.395 636.793 192.815 636.513 193.165C636.243 193.515 635.853 193.8 635.343 194.02V194.08C635.703 194.19 636.028 194.35 636.318 194.56C636.608 194.76 636.833 195.015 636.993 195.325C637.153 195.635 637.233 195.995 637.233 196.405C637.233 196.995 637.068 197.5 636.738 197.92C636.418 198.33 635.988 198.645 635.448 198.865C634.918 199.075 634.333 199.18 633.693 199.18Z" fill="black"/>
<path d="M768 17V137" stroke="#757575"/>
<path d="M768.354 137.354L768.707 137L768 136.293L767.646 136.646L768.354 137.354ZM726.354 179.354L768.354 137.354L767.646 136.646L725.646 178.646L726.354 179.354Z" fill="#757575"/>
<path d="M768 137L885 137" stroke="#757575"/>
<path d="M767.603 17.0107C767.603 17.0107 726 58.0118 726 58.5059C726 59 845 59 845 59C845 59 884.491 17.0002 883.996 17C883.5 16.9998 767.603 17.0107 767.603 17.0107Z" fill="#D9D9D9" fill-opacity="0.4" stroke="#757575"/>
<path d="M726 59H845V179H726V59Z" fill="#CD93F0" fill-opacity="0.25" stroke="#757575"/>
<path d="M884.766 17.0043C884.269 16.5044 845 59.5021 845 59.5021L845.048 178.996C845.048 179.496 884.816 137.498 884.816 137.498C884.816 137.498 885.262 17.5043 884.766 17.0043Z" fill="#D9D9D9" fill-opacity="0.4" stroke="#757575"/>
<circle cx="726" cy="59" r="2" fill="#CD93F0"/>
<circle cx="845" cy="59" r="2" fill="#CD93F0"/>
<circle cx="884" cy="17" r="2" fill="#CD93F0"/>
<circle cx="768" cy="17" r="2" fill="#CD93F0"/>
<circle cx="768" cy="137" r="2" fill="#CD93F0"/>
<circle cx="726" cy="179" r="2" fill="#CD93F0"/>
<circle cx="845" cy="179" r="2" fill="#CD93F0"/>
<circle cx="885" cy="137" r="2" fill="#CD93F0"/>
<path d="M761.96 136.18C760.94 136.18 760.115 135.755 759.485 134.905C758.865 134.055 758.555 132.82 758.555 131.2C758.555 129.57 758.865 128.345 759.485 127.525C760.115 126.705 760.94 126.295 761.96 126.295C762.98 126.295 763.8 126.71 764.42 127.54C765.05 128.36 765.365 129.58 765.365 131.2C765.365 132.82 765.05 134.055 764.42 134.905C763.8 135.755 762.98 136.18 761.96 136.18ZM761.96 134.47C762.21 134.47 762.435 134.38 762.635 134.2C762.835 134.01 762.99 133.68 763.1 133.21C763.22 132.73 763.28 132.06 763.28 131.2C763.28 130.33 763.22 129.665 763.1 129.205C762.99 128.745 762.835 128.43 762.635 128.26C762.435 128.09 762.21 128.005 761.96 128.005C761.71 128.005 761.485 128.09 761.285 128.26C761.085 128.43 760.925 128.745 760.805 129.205C760.695 129.665 760.64 130.33 760.64 131.2C760.64 132.06 760.695 132.73 760.805 133.21C760.925 133.68 761.085 134.01 761.285 134.2C761.485 134.38 761.71 134.47 761.96 134.47Z" fill="#CD93F0"/>
<path d="M875.05 135V133.215H877.12V127.71H875.335V126.345C875.855 126.245 876.295 126.125 876.655 125.985C877.025 125.845 877.375 125.675 877.705 125.475H879.325V133.215H881.11V135H875.05Z" fill="#CD93F0"/>
<path d="M835.555 176V174.635C836.355 173.925 837.065 173.26 837.685 172.64C838.315 172.02 838.805 171.445 839.155 170.915C839.515 170.385 839.695 169.9 839.695 169.46C839.695 168.99 839.575 168.635 839.335 168.395C839.095 168.145 838.765 168.02 838.345 168.02C838.005 168.02 837.695 168.12 837.415 168.32C837.145 168.51 836.89 168.735 836.65 168.995L835.495 167.855C835.955 167.335 836.425 166.945 836.905 166.685C837.395 166.425 837.975 166.295 838.645 166.295C839.265 166.295 839.81 166.42 840.28 166.67C840.76 166.92 841.13 167.27 841.39 167.72C841.66 168.17 841.795 168.7 841.795 169.31C841.795 169.88 841.64 170.44 841.33 170.99C841.03 171.53 840.63 172.07 840.13 172.61C839.63 173.15 839.1 173.7 838.54 174.26C838.78 174.23 839.05 174.205 839.35 174.185C839.65 174.155 839.91 174.14 840.13 174.14H842.26V176H835.555Z" fill="#CD93F0"/>
<path d="M719.645 178.18C719.135 178.18 718.67 178.12 718.25 178C717.84 177.89 717.475 177.735 717.155 177.535C716.835 177.335 716.56 177.1 716.33 176.83L717.35 175.435C717.64 175.715 717.96 175.945 718.31 176.125C718.66 176.305 719.035 176.395 719.435 176.395C719.895 176.395 720.265 176.3 720.545 176.11C720.835 175.91 720.98 175.63 720.98 175.27C720.98 174.99 720.91 174.75 720.77 174.55C720.63 174.34 720.375 174.18 720.005 174.07C719.645 173.96 719.115 173.905 718.415 173.905V172.345C718.985 172.345 719.435 172.29 719.765 172.18C720.095 172.07 720.325 171.92 720.455 171.73C720.595 171.54 720.665 171.32 720.665 171.07C720.665 170.73 720.56 170.47 720.35 170.29C720.15 170.11 719.865 170.02 719.495 170.02C719.155 170.02 718.845 170.095 718.565 170.245C718.295 170.385 718.01 170.59 717.71 170.86L716.6 169.51C717.04 169.13 717.505 168.835 717.995 168.625C718.485 168.405 719.02 168.295 719.6 168.295C720.25 168.295 720.82 168.4 721.31 168.61C721.81 168.81 722.195 169.105 722.465 169.495C722.745 169.875 722.885 170.345 722.885 170.905C722.885 171.395 722.745 171.815 722.465 172.165C722.195 172.515 721.805 172.8 721.295 173.02V173.08C721.655 173.19 721.98 173.35 722.27 173.56C722.56 173.76 722.785 174.015 722.945 174.325C723.105 174.635 723.185 174.995 723.185 175.405C723.185 175.995 723.02 176.5 722.69 176.92C722.37 177.33 721.94 177.645 721.4 177.865C720.87 178.075 720.285 178.18 719.645 178.18Z" fill="#CD93F0"/>
<path d="M762.41 16V10.495C762.41 10.195 762.42 9.84 762.44 9.43C762.47 9.02 762.49 8.665 762.5 8.365H762.44C762.32 8.625 762.195 8.89 762.065 9.16C761.935 9.42 761.8 9.69 761.66 9.97L760.4 12.04H765.56V13.72H758.285V12.205L761.765 6.475H764.465V16H762.41Z" fill="#CD93F0"/>
<path d="M877.705 15.18C877.185 15.18 876.715 15.12 876.295 15C875.885 14.88 875.52 14.72 875.2 14.52C874.88 14.32 874.595 14.095 874.345 13.845L875.335 12.45C875.625 12.71 875.94 12.935 876.28 13.125C876.62 13.305 876.99 13.395 877.39 13.395C877.71 13.395 877.99 13.34 878.23 13.23C878.47 13.11 878.655 12.94 878.785 12.72C878.925 12.5 878.995 12.23 878.995 11.91C878.995 11.43 878.855 11.065 878.575 10.815C878.295 10.565 877.935 10.44 877.495 10.44C877.225 10.44 876.995 10.475 876.805 10.545C876.615 10.615 876.375 10.74 876.085 10.92L875.095 10.29L875.365 5.475H880.765V7.335H877.27L877.105 9.12C877.295 9.04 877.47 8.985 877.63 8.955C877.79 8.915 877.97 8.895 878.17 8.895C878.72 8.895 879.225 9 879.685 9.21C880.145 9.42 880.51 9.745 880.78 10.185C881.06 10.625 881.2 11.18 881.2 11.85C881.2 12.56 881.035 13.165 880.705 13.665C880.385 14.155 879.96 14.53 879.43 14.79C878.9 15.05 878.325 15.18 877.705 15.18Z" fill="#CD93F0"/>
<path d="M839.215 56.18C838.755 56.18 838.31 56.09 837.88 55.91C837.45 55.73 837.065 55.45 836.725 55.07C836.385 54.69 836.115 54.205 835.915 53.615C835.715 53.015 835.615 52.295 835.615 51.455C835.615 50.565 835.72 49.795 835.93 49.145C836.14 48.495 836.425 47.96 836.785 47.54C837.145 47.12 837.555 46.81 838.015 46.61C838.475 46.4 838.96 46.295 839.47 46.295C840.1 46.295 840.645 46.41 841.105 46.64C841.565 46.86 841.945 47.125 842.245 47.435L841.09 48.755C840.92 48.575 840.7 48.42 840.43 48.29C840.16 48.15 839.885 48.08 839.605 48.08C839.245 48.08 838.91 48.185 838.6 48.395C838.3 48.605 838.06 48.96 837.88 49.46C837.71 49.95 837.625 50.615 837.625 51.455C837.625 52.245 837.695 52.865 837.835 53.315C837.985 53.755 838.18 54.07 838.42 54.26C838.66 54.44 838.91 54.53 839.17 54.53C839.39 54.53 839.59 54.475 839.77 54.365C839.95 54.255 840.095 54.09 840.205 53.87C840.315 53.64 840.37 53.345 840.37 52.985C840.37 52.645 840.315 52.375 840.205 52.175C840.095 51.975 839.945 51.83 839.755 51.74C839.575 51.65 839.365 51.605 839.125 51.605C838.875 51.605 838.615 51.68 838.345 51.83C838.085 51.98 837.85 52.245 837.64 52.625L837.535 51.185C837.785 50.815 838.105 50.535 838.495 50.345C838.885 50.145 839.235 50.045 839.545 50.045C840.085 50.045 840.57 50.15 841 50.36C841.43 50.57 841.765 50.895 842.005 51.335C842.255 51.765 842.38 52.315 842.38 52.985C842.38 53.645 842.235 54.215 841.945 54.695C841.665 55.175 841.285 55.545 840.805 55.805C840.325 56.055 839.795 56.18 839.215 56.18Z" fill="#CD93F0"/>
<path d="M718.25 58C718.3 57.21 718.38 56.485 718.49 55.825C718.6 55.155 718.755 54.52 718.955 53.92C719.165 53.32 719.43 52.73 719.75 52.15C720.07 51.57 720.465 50.965 720.935 50.335H716.66V48.475H723.29V49.825C722.73 50.505 722.27 51.14 721.91 51.73C721.56 52.32 721.29 52.92 721.1 53.53C720.91 54.14 720.77 54.805 720.68 55.525C720.59 56.245 720.52 57.07 720.47 58H718.25Z" fill="#CD93F0"/>
<path d="M765.975 199V191.56H768.18V199H765.975ZM767.07 190.465C766.7 190.465 766.4 190.36 766.17 190.15C765.94 189.94 765.825 189.66 765.825 189.31C765.825 188.96 765.94 188.68 766.17 188.47C766.4 188.26 766.7 188.155 767.07 188.155C767.44 188.155 767.74 188.26 767.97 188.47C768.2 188.68 768.315 188.96 768.315 189.31C768.315 189.66 768.2 189.94 767.97 190.15C767.74 190.36 767.44 190.465 767.07 190.465ZM770.121 199V191.56H771.921L772.071 192.505H772.131C772.441 192.195 772.791 191.93 773.181 191.71C773.571 191.49 774.016 191.38 774.516 191.38C775.336 191.38 775.926 191.65 776.286 192.19C776.646 192.72 776.826 193.45 776.826 194.38V199H774.621V194.665C774.621 194.125 774.546 193.755 774.396 193.555C774.256 193.355 774.026 193.255 773.706 193.255C773.426 193.255 773.186 193.32 772.986 193.45C772.786 193.57 772.566 193.745 772.326 193.975V199H770.121ZM781.359 199.18C780.439 199.18 779.699 198.835 779.139 198.145C778.589 197.445 778.314 196.49 778.314 195.28C778.314 194.47 778.459 193.775 778.749 193.195C779.049 192.615 779.434 192.17 779.904 191.86C780.384 191.54 780.884 191.38 781.404 191.38C781.814 191.38 782.159 191.45 782.439 191.59C782.719 191.73 782.984 191.92 783.234 192.16L783.144 191.02V188.485H785.349V199H783.549L783.399 198.265H783.339C783.079 198.525 782.774 198.745 782.424 198.925C782.074 199.095 781.719 199.18 781.359 199.18ZM781.929 197.38C782.169 197.38 782.389 197.33 782.589 197.23C782.789 197.13 782.974 196.955 783.144 196.705V193.66C782.954 193.48 782.754 193.355 782.544 193.285C782.334 193.215 782.124 193.18 781.914 193.18C781.674 193.18 781.454 193.255 781.254 193.405C781.054 193.555 780.889 193.785 780.759 194.095C780.639 194.395 780.579 194.78 780.579 195.25C780.579 195.98 780.699 196.52 780.939 196.87C781.179 197.21 781.509 197.38 781.929 197.38ZM790.633 199.18C789.923 199.18 789.283 199.025 788.713 198.715C788.143 198.405 787.693 197.96 787.363 197.38C787.033 196.8 786.868 196.1 786.868 195.28C786.868 194.47 787.033 193.775 787.363 193.195C787.703 192.615 788.143 192.17 788.683 191.86C789.223 191.54 789.788 191.38 790.378 191.38C791.088 191.38 791.678 191.54 792.148 191.86C792.618 192.17 792.968 192.595 793.198 193.135C793.428 193.675 793.543 194.28 793.543 194.95C793.543 195.14 793.533 195.33 793.513 195.52C793.493 195.7 793.473 195.845 793.453 195.955H788.578L788.548 194.425H791.653C791.653 194.035 791.558 193.715 791.368 193.465C791.178 193.205 790.863 193.075 790.423 193.075C790.183 193.075 789.948 193.14 789.718 193.27C789.488 193.4 789.298 193.625 789.148 193.945C788.998 194.265 788.928 194.71 788.938 195.28C788.948 195.84 789.048 196.28 789.238 196.6C789.438 196.92 789.688 197.15 789.988 197.29C790.288 197.42 790.603 197.485 790.933 197.485C791.223 197.485 791.498 197.445 791.758 197.365C792.028 197.275 792.293 197.155 792.553 197.005L793.273 198.355C792.903 198.615 792.483 198.82 792.013 198.97C791.543 199.11 791.083 199.18 790.633 199.18ZM794.053 199L796.333 195.13L794.188 191.56H796.558L797.218 192.76C797.318 192.97 797.418 193.185 797.518 193.405C797.628 193.615 797.738 193.825 797.848 194.035H797.908C797.988 193.825 798.073 193.615 798.163 193.405C798.253 193.185 798.338 192.97 798.418 192.76L798.928 191.56H801.208L799.048 195.385L801.343 199H798.973L798.253 197.77C798.133 197.56 798.013 197.345 797.893 197.125C797.783 196.905 797.668 196.69 797.548 196.48H797.488C797.398 196.69 797.303 196.905 797.203 197.125C797.103 197.335 797.008 197.55 796.918 197.77L796.333 199H794.053ZM803.798 194.32C803.418 194.32 803.098 194.185 802.838 193.915C802.588 193.645 802.463 193.32 802.463 192.94C802.463 192.54 802.588 192.21 802.838 191.95C803.098 191.68 803.418 191.545 803.798 191.545C804.188 191.545 804.508 191.68 804.758 191.95C805.008 192.21 805.133 192.54 805.133 192.94C805.133 193.32 805.008 193.645 804.758 193.915C804.508 194.185 804.188 194.32 803.798 194.32ZM803.798 199.18C803.418 199.18 803.098 199.045 802.838 198.775C802.588 198.505 802.463 198.18 802.463 197.8C802.463 197.4 802.588 197.07 802.838 196.81C803.098 196.54 803.418 196.405 803.798 196.405C804.188 196.405 804.508 196.54 804.758 196.81C805.008 197.07 805.133 197.4 805.133 197.8C805.133 198.18 805.008 198.505 804.758 198.775C804.508 199.045 804.188 199.18 803.798 199.18ZM813.458 199V193.495C813.458 193.195 813.468 192.84 813.488 192.43C813.518 192.02 813.538 191.665 813.548 191.365H813.488C813.368 191.625 813.243 191.89 813.113 192.16C812.983 192.42 812.848 192.69 812.708 192.97L811.448 195.04H816.608V196.72H809.333V195.205L812.813 189.475H815.513V199H813.458Z" fill="black"/>
<path d="M947 17V137" stroke="#757575"/>
<path d="M947.354 137.354L947.707 137L947 136.293L946.646 136.646L947.354 137.354ZM905.354 179.354L947.354 137.354L946.646 136.646L904.646 178.646L905.354 179.354Z" fill="#757575"/>
<path d="M947 137L1064 137" stroke="#757575"/>
<path d="M946.603 17.0107C946.603 17.0107 905 58.0118 905 58.5059C905 59 1024 59 1024 59C1024 59 1063.49 17.0002 1063 17C1062.5 16.9998 946.603 17.0107 946.603 17.0107Z" fill="#D9D9D9" fill-opacity="0.4" stroke="#757575"/>
<path d="M905 59H1024V179H905V59Z" fill="#D9D9D9" fill-opacity="0.4" stroke="#757575"/>
<path d="M947 17H1064V137H947V17Z" fill="#CD93F0" fill-opacity="0.25"/>
<path d="M1063.77 17.0043C1063.27 16.5044 1024 59.5021 1024 59.5021L1024.05 178.996C1024.05 179.496 1063.82 137.498 1063.82 137.498C1063.82 137.498 1064.26 17.5043 1063.77 17.0043Z" fill="#D9D9D9" fill-opacity="0.4" stroke="#757575"/>
<circle cx="905" cy="59" r="2" fill="#CD93F0"/>
<circle cx="1024" cy="59" r="2" fill="#CD93F0"/>
<circle cx="1063" cy="17" r="2" fill="#CD93F0"/>
<circle cx="947" cy="17" r="2" fill="#CD93F0"/>
<circle cx="947" cy="137" r="2" fill="#CD93F0"/>
<circle cx="905" cy="179" r="2" fill="#CD93F0"/>
<circle cx="1024" cy="179" r="2" fill="#CD93F0"/>
<circle cx="1064" cy="137" r="2" fill="#CD93F0"/>
<path d="M940.96 136.18C939.94 136.18 939.115 135.755 938.485 134.905C937.865 134.055 937.555 132.82 937.555 131.2C937.555 129.57 937.865 128.345 938.485 127.525C939.115 126.705 939.94 126.295 940.96 126.295C941.98 126.295 942.8 126.71 943.42 127.54C944.05 128.36 944.365 129.58 944.365 131.2C944.365 132.82 944.05 134.055 943.42 134.905C942.8 135.755 941.98 136.18 940.96 136.18ZM940.96 134.47C941.21 134.47 941.435 134.38 941.635 134.2C941.835 134.01 941.99 133.68 942.1 133.21C942.22 132.73 942.28 132.06 942.28 131.2C942.28 130.33 942.22 129.665 942.1 129.205C941.99 128.745 941.835 128.43 941.635 128.26C941.435 128.09 941.21 128.005 940.96 128.005C940.71 128.005 940.485 128.09 940.285 128.26C940.085 128.43 939.925 128.745 939.805 129.205C939.695 129.665 939.64 130.33 939.64 131.2C939.64 132.06 939.695 132.73 939.805 133.21C939.925 133.68 940.085 134.01 940.285 134.2C940.485 134.38 940.71 134.47 940.96 134.47Z" fill="#CD93F0"/>
<path d="M1054.05 135V133.215H1056.12V127.71H1054.34V126.345C1054.86 126.245 1055.3 126.125 1055.66 125.985C1056.03 125.845 1056.38 125.675 1056.71 125.475H1058.33V133.215H1060.11V135H1054.05Z" fill="#CD93F0"/>
<path d="M1014.56 176V174.635C1015.36 173.925 1016.07 173.26 1016.69 172.64C1017.32 172.02 1017.81 171.445 1018.16 170.915C1018.52 170.385 1018.7 169.9 1018.7 169.46C1018.7 168.99 1018.58 168.635 1018.34 168.395C1018.1 168.145 1017.77 168.02 1017.35 168.02C1017.01 168.02 1016.7 168.12 1016.42 168.32C1016.15 168.51 1015.89 168.735 1015.65 168.995L1014.49 167.855C1014.96 167.335 1015.43 166.945 1015.91 166.685C1016.4 166.425 1016.98 166.295 1017.65 166.295C1018.27 166.295 1018.81 166.42 1019.28 166.67C1019.76 166.92 1020.13 167.27 1020.39 167.72C1020.66 168.17 1020.8 168.7 1020.8 169.31C1020.8 169.88 1020.64 170.44 1020.33 170.99C1020.03 171.53 1019.63 172.07 1019.13 172.61C1018.63 173.15 1018.1 173.7 1017.54 174.26C1017.78 174.23 1018.05 174.205 1018.35 174.185C1018.65 174.155 1018.91 174.14 1019.13 174.14H1021.26V176H1014.56Z" fill="#CD93F0"/>
<path d="M898.645 178.18C898.135 178.18 897.67 178.12 897.25 178C896.84 177.89 896.475 177.735 896.155 177.535C895.835 177.335 895.56 177.1 895.33 176.83L896.35 175.435C896.64 175.715 896.96 175.945 897.31 176.125C897.66 176.305 898.035 176.395 898.435 176.395C898.895 176.395 899.265 176.3 899.545 176.11C899.835 175.91 899.98 175.63 899.98 175.27C899.98 174.99 899.91 174.75 899.77 174.55C899.63 174.34 899.375 174.18 899.005 174.07C898.645 173.96 898.115 173.905 897.415 173.905V172.345C897.985 172.345 898.435 172.29 898.765 172.18C899.095 172.07 899.325 171.92 899.455 171.73C899.595 171.54 899.665 171.32 899.665 171.07C899.665 170.73 899.56 170.47 899.35 170.29C899.15 170.11 898.865 170.02 898.495 170.02C898.155 170.02 897.845 170.095 897.565 170.245C897.295 170.385 897.01 170.59 896.71 170.86L895.6 169.51C896.04 169.13 896.505 168.835 896.995 168.625C897.485 168.405 898.02 168.295 898.6 168.295C899.25 168.295 899.82 168.4 900.31 168.61C900.81 168.81 901.195 169.105 901.465 169.495C901.745 169.875 901.885 170.345 901.885 170.905C901.885 171.395 901.745 171.815 901.465 172.165C901.195 172.515 900.805 172.8 900.295 173.02V173.08C900.655 173.19 900.98 173.35 901.27 173.56C901.56 173.76 901.785 174.015 901.945 174.325C902.105 174.635 902.185 174.995 902.185 175.405C902.185 175.995 902.02 176.5 901.69 176.92C901.37 177.33 900.94 177.645 900.4 177.865C899.87 178.075 899.285 178.18 898.645 178.18Z" fill="#CD93F0"/>
<path d="M941.41 16V10.495C941.41 10.195 941.42 9.84 941.44 9.43C941.47 9.02 941.49 8.665 941.5 8.365H941.44C941.32 8.625 941.195 8.89 941.065 9.16C940.935 9.42 940.8 9.69 940.66 9.97L939.4 12.04H944.56V13.72H937.285V12.205L940.765 6.475H943.465V16H941.41Z" fill="#CD93F0"/>
<path d="M1056.71 15.18C1056.19 15.18 1055.72 15.12 1055.3 15C1054.89 14.88 1054.52 14.72 1054.2 14.52C1053.88 14.32 1053.6 14.095 1053.35 13.845L1054.34 12.45C1054.63 12.71 1054.94 12.935 1055.28 13.125C1055.62 13.305 1055.99 13.395 1056.39 13.395C1056.71 13.395 1056.99 13.34 1057.23 13.23C1057.47 13.11 1057.66 12.94 1057.79 12.72C1057.93 12.5 1058 12.23 1058 11.91C1058 11.43 1057.86 11.065 1057.58 10.815C1057.3 10.565 1056.94 10.44 1056.5 10.44C1056.23 10.44 1056 10.475 1055.81 10.545C1055.62 10.615 1055.38 10.74 1055.09 10.92L1054.1 10.29L1054.37 5.475H1059.77V7.335H1056.27L1056.11 9.12C1056.3 9.04 1056.47 8.985 1056.63 8.955C1056.79 8.915 1056.97 8.895 1057.17 8.895C1057.72 8.895 1058.23 9 1058.69 9.21C1059.15 9.42 1059.51 9.745 1059.78 10.185C1060.06 10.625 1060.2 11.18 1060.2 11.85C1060.2 12.56 1060.04 13.165 1059.71 13.665C1059.39 14.155 1058.96 14.53 1058.43 14.79C1057.9 15.05 1057.33 15.18 1056.71 15.18Z" fill="#CD93F0"/>
<path d="M1018.22 56.18C1017.76 56.18 1017.31 56.09 1016.88 55.91C1016.45 55.73 1016.07 55.45 1015.73 55.07C1015.39 54.69 1015.12 54.205 1014.92 53.615C1014.72 53.015 1014.62 52.295 1014.62 51.455C1014.62 50.565 1014.72 49.795 1014.93 49.145C1015.14 48.495 1015.43 47.96 1015.79 47.54C1016.15 47.12 1016.56 46.81 1017.02 46.61C1017.48 46.4 1017.96 46.295 1018.47 46.295C1019.1 46.295 1019.65 46.41 1020.11 46.64C1020.57 46.86 1020.95 47.125 1021.25 47.435L1020.09 48.755C1019.92 48.575 1019.7 48.42 1019.43 48.29C1019.16 48.15 1018.89 48.08 1018.61 48.08C1018.25 48.08 1017.91 48.185 1017.6 48.395C1017.3 48.605 1017.06 48.96 1016.88 49.46C1016.71 49.95 1016.63 50.615 1016.63 51.455C1016.63 52.245 1016.7 52.865 1016.84 53.315C1016.99 53.755 1017.18 54.07 1017.42 54.26C1017.66 54.44 1017.91 54.53 1018.17 54.53C1018.39 54.53 1018.59 54.475 1018.77 54.365C1018.95 54.255 1019.1 54.09 1019.21 53.87C1019.32 53.64 1019.37 53.345 1019.37 52.985C1019.37 52.645 1019.32 52.375 1019.21 52.175C1019.1 51.975 1018.95 51.83 1018.76 51.74C1018.58 51.65 1018.37 51.605 1018.13 51.605C1017.88 51.605 1017.62 51.68 1017.35 51.83C1017.09 51.98 1016.85 52.245 1016.64 52.625L1016.54 51.185C1016.79 50.815 1017.11 50.535 1017.5 50.345C1017.89 50.145 1018.24 50.045 1018.55 50.045C1019.09 50.045 1019.57 50.15 1020 50.36C1020.43 50.57 1020.77 50.895 1021.01 51.335C1021.26 51.765 1021.38 52.315 1021.38 52.985C1021.38 53.645 1021.24 54.215 1020.95 54.695C1020.67 55.175 1020.29 55.545 1019.81 55.805C1019.33 56.055 1018.8 56.18 1018.22 56.18Z" fill="#CD93F0"/>
<path d="M897.25 58C897.3 57.21 897.38 56.485 897.49 55.825C897.6 55.155 897.755 54.52 897.955 53.92C898.165 53.32 898.43 52.73 898.75 52.15C899.07 51.57 899.465 50.965 899.935 50.335H895.66V48.475H902.29V49.825C901.73 50.505 901.27 51.14 900.91 51.73C900.56 52.32 900.29 52.92 900.1 53.53C899.91 54.14 899.77 54.805 899.68 55.525C899.59 56.245 899.52 57.07 899.47 58H897.25Z" fill="#CD93F0"/>
<path d="M944.975 199V191.56H947.18V199H944.975ZM946.07 190.465C945.7 190.465 945.4 190.36 945.17 190.15C944.94 189.94 944.825 189.66 944.825 189.31C944.825 188.96 944.94 188.68 945.17 188.47C945.4 188.26 945.7 188.155 946.07 188.155C946.44 188.155 946.74 188.26 946.97 188.47C947.2 188.68 947.315 188.96 947.315 189.31C947.315 189.66 947.2 189.94 946.97 190.15C946.74 190.36 946.44 190.465 946.07 190.465ZM949.121 199V191.56H950.921L951.071 192.505H951.131C951.441 192.195 951.791 191.93 952.181 191.71C952.571 191.49 953.016 191.38 953.516 191.38C954.336 191.38 954.926 191.65 955.286 192.19C955.646 192.72 955.826 193.45 955.826 194.38V199H953.621V194.665C953.621 194.125 953.546 193.755 953.396 193.555C953.256 193.355 953.026 193.255 952.706 193.255C952.426 193.255 952.186 193.32 951.986 193.45C951.786 193.57 951.566 193.745 951.326 193.975V199H949.121ZM960.359 199.18C959.439 199.18 958.699 198.835 958.139 198.145C957.589 197.445 957.314 196.49 957.314 195.28C957.314 194.47 957.459 193.775 957.749 193.195C958.049 192.615 958.434 192.17 958.904 191.86C959.384 191.54 959.884 191.38 960.404 191.38C960.814 191.38 961.159 191.45 961.439 191.59C961.719 191.73 961.984 191.92 962.234 192.16L962.144 191.02V188.485H964.349V199H962.549L962.399 198.265H962.339C962.079 198.525 961.774 198.745 961.424 198.925C961.074 199.095 960.719 199.18 960.359 199.18ZM960.929 197.38C961.169 197.38 961.389 197.33 961.589 197.23C961.789 197.13 961.974 196.955 962.144 196.705V193.66C961.954 193.48 961.754 193.355 961.544 193.285C961.334 193.215 961.124 193.18 960.914 193.18C960.674 193.18 960.454 193.255 960.254 193.405C960.054 193.555 959.889 193.785 959.759 194.095C959.639 194.395 959.579 194.78 959.579 195.25C959.579 195.98 959.699 196.52 959.939 196.87C960.179 197.21 960.509 197.38 960.929 197.38ZM969.633 199.18C968.923 199.18 968.283 199.025 967.713 198.715C967.143 198.405 966.693 197.96 966.363 197.38C966.033 196.8 965.868 196.1 965.868 195.28C965.868 194.47 966.033 193.775 966.363 193.195C966.703 192.615 967.143 192.17 967.683 191.86C968.223 191.54 968.788 191.38 969.378 191.38C970.088 191.38 970.678 191.54 971.148 191.86C971.618 192.17 971.968 192.595 972.198 193.135C972.428 193.675 972.543 194.28 972.543 194.95C972.543 195.14 972.533 195.33 972.513 195.52C972.493 195.7 972.473 195.845 972.453 195.955H967.578L967.548 194.425H970.653C970.653 194.035 970.558 193.715 970.368 193.465C970.178 193.205 969.863 193.075 969.423 193.075C969.183 193.075 968.948 193.14 968.718 193.27C968.488 193.4 968.298 193.625 968.148 193.945C967.998 194.265 967.928 194.71 967.938 195.28C967.948 195.84 968.048 196.28 968.238 196.6C968.438 196.92 968.688 197.15 968.988 197.29C969.288 197.42 969.603 197.485 969.933 197.485C970.223 197.485 970.498 197.445 970.758 197.365C971.028 197.275 971.293 197.155 971.553 197.005L972.273 198.355C971.903 198.615 971.483 198.82 971.013 198.97C970.543 199.11 970.083 199.18 969.633 199.18ZM973.053 199L975.333 195.13L973.188 191.56H975.558L976.218 192.76C976.318 192.97 976.418 193.185 976.518 193.405C976.628 193.615 976.738 193.825 976.848 194.035H976.908C976.988 193.825 977.073 193.615 977.163 193.405C977.253 193.185 977.338 192.97 977.418 192.76L977.928 191.56H980.208L978.048 195.385L980.343 199H977.973L977.253 197.77C977.133 197.56 977.013 197.345 976.893 197.125C976.783 196.905 976.668 196.69 976.548 196.48H976.488C976.398 196.69 976.303 196.905 976.203 197.125C976.103 197.335 976.008 197.55 975.918 197.77L975.333 199H973.053ZM982.798 194.32C982.418 194.32 982.098 194.185 981.838 193.915C981.588 193.645 981.463 193.32 981.463 192.94C981.463 192.54 981.588 192.21 981.838 191.95C982.098 191.68 982.418 191.545 982.798 191.545C983.188 191.545 983.508 191.68 983.758 191.95C984.008 192.21 984.133 192.54 984.133 192.94C984.133 193.32 984.008 193.645 983.758 193.915C983.508 194.185 983.188 194.32 982.798 194.32ZM982.798 199.18C982.418 199.18 982.098 199.045 981.838 198.775C981.588 198.505 981.463 198.18 981.463 197.8C981.463 197.4 981.588 197.07 981.838 196.81C982.098 196.54 982.418 196.405 982.798 196.405C983.188 196.405 983.508 196.54 983.758 196.81C984.008 197.07 984.133 197.4 984.133 197.8C984.133 198.18 984.008 198.505 983.758 198.775C983.508 199.045 983.188 199.18 982.798 199.18ZM991.753 199.18C991.233 199.18 990.763 199.12 990.343 199C989.933 198.88 989.568 198.72 989.248 198.52C988.928 198.32 988.643 198.095 988.393 197.845L989.383 196.45C989.673 196.71 989.988 196.935 990.328 197.125C990.668 197.305 991.038 197.395 991.438 197.395C991.758 197.395 992.038 197.34 992.278 197.23C992.518 197.11 992.703 196.94 992.833 196.72C992.973 196.5 993.043 196.23 993.043 195.91C993.043 195.43 992.903 195.065 992.623 194.815C992.343 194.565 991.983 194.44 991.543 194.44C991.273 194.44 991.043 194.475 990.853 194.545C990.663 194.615 990.423 194.74 990.133 194.92L989.143 194.29L989.413 189.475H994.813V191.335H991.318L991.153 193.12C991.343 193.04 991.518 192.985 991.678 192.955C991.838 192.915 992.018 192.895 992.218 192.895C992.768 192.895 993.273 193 993.733 193.21C994.193 193.42 994.558 193.745 994.828 194.185C995.108 194.625 995.248 195.18 995.248 195.85C995.248 196.56 995.083 197.165 994.753 197.665C994.433 198.155 994.008 198.53 993.478 198.79C992.948 199.05 992.373 199.18 991.753 199.18Z" fill="black"/>
</svg>
