<svg width="817" height="218" viewBox="0 0 817 218" fill="none" xmlns="http://www.w3.org/2000/svg">
<path d="M645.184 133.504V128.824H640.816V127.336H645.184V122.656H646.744V127.336H651.112V128.824H646.744V133.504H645.184Z" fill="#5447E9"/>
<path d="M642.984 154.744V153.232H648.504V154.744H642.984Z" fill="#5447E9"/>
<path d="M617.184 174.504V169.824H612.816V168.336H617.184V163.656H618.744V168.336H623.112V169.824H618.744V174.504H617.184Z" fill="#2A5D57"/>
<path d="M599.984 186.744V185.232H605.504V186.744H599.984Z" fill="#2A5D57"/>
<path d="M390.184 23.504V18.824H385.816V17.336H390.184V12.656H391.744V17.336H396.112V18.824H391.744V23.504H390.184Z" fill="#FF00E6"/>
<path d="M329.984 18.744V17.232H335.504V18.744H329.984Z" fill="#FF00E6"/>
<path d="M310 34V154" stroke="#757575"/>
<path d="M310.354 154.354L310.707 154L310 153.293L309.646 153.646L310.354 154.354ZM268.354 196.354L310.354 154.354L309.646 153.646L267.646 195.646L268.354 196.354Z" fill="#757575"/>
<path d="M310 154L427 154" stroke="#757575"/>
<path d="M309.603 34.0107C309.603 34.0107 268 75.0118 268 75.5059C268 76 387 76 387 76C387 76 426.491 34.0002 425.996 34C425.5 33.9998 309.603 34.0107 309.603 34.0107Z" fill="#D9D9D9" fill-opacity="0.4" stroke="#757575"/>
<path d="M268 76H387V196H268V76Z" fill="#D9D9D9" fill-opacity="0.4" stroke="#757575"/>
<path d="M426.766 34.0043C426.269 33.5044 387 76.5021 387 76.5021L387.048 195.996C387.048 196.496 426.816 154.498 426.816 154.498C426.816 154.498 427.262 34.5043 426.766 34.0043Z" fill="#D9D9D9" fill-opacity="0.4" stroke="#757575"/>
<path d="M367.766 34.0043C367.269 33.5044 328 76.5021 328 76.5021L328.048 195.996C328.048 196.496 367.816 154.498 367.816 154.498C367.816 154.498 368.262 34.5043 367.766 34.0043Z" fill="#D9D9D9" fill-opacity="0.4" stroke="#757575"/>
<circle cx="369" cy="95" r="1" fill="black"/>
<circle cx="406" cy="112" r="1" fill="black"/>
<circle cx="355" cy="112" r="2" fill="black"/>
<circle cx="268" cy="76" r="2" fill="black"/>
<circle cx="387" cy="76" r="2" fill="black"/>
<circle cx="310" cy="154" r="2" fill="black"/>
<circle cx="268" cy="196" r="2" fill="black"/>
<circle cx="387" cy="196" r="2" fill="black"/>
<circle cx="355" cy="54" r="1" fill="black"/>
<path d="M323.568 113.112C323.072 112.304 322.684 111.46 322.404 110.58C322.124 109.692 321.984 108.72 321.984 107.664C321.984 106.608 322.124 105.636 322.404 104.748C322.684 103.86 323.072 103.016 323.568 102.216L324.18 102.504C323.716 103.264 323.368 104.088 323.136 104.976C322.912 105.856 322.8 106.752 322.8 107.664C322.8 108.576 322.912 109.472 323.136 110.352C323.368 111.232 323.716 112.056 324.18 112.824L323.568 113.112ZM327.621 111.144C326.853 111.144 326.249 110.8 325.809 110.112C325.377 109.416 325.161 108.428 325.161 107.148C325.161 105.86 325.377 104.88 325.809 104.208C326.249 103.536 326.853 103.2 327.621 103.2C328.381 103.2 328.977 103.54 329.409 104.22C329.849 104.892 330.069 105.868 330.069 107.148C330.069 108.428 329.849 109.416 329.409 110.112C328.977 110.8 328.381 111.144 327.621 111.144ZM327.621 110.352C327.917 110.352 328.177 110.24 328.401 110.016C328.625 109.792 328.797 109.444 328.917 108.972C329.045 108.5 329.109 107.892 329.109 107.148C329.109 106.396 329.045 105.788 328.917 105.324C328.797 104.86 328.625 104.524 328.401 104.316C328.177 104.1 327.917 103.992 327.621 103.992C327.317 103.992 327.053 104.1 326.829 104.316C326.605 104.524 326.429 104.86 326.301 105.324C326.181 105.788 326.121 106.396 326.121 107.148C326.121 107.892 326.181 108.5 326.301 108.972C326.429 109.444 326.605 109.792 326.829 110.016C327.053 110.24 327.317 110.352 327.621 110.352ZM331.402 113.04L331.162 112.464C331.506 112.312 331.774 112.104 331.966 111.84C332.158 111.584 332.25 111.296 332.242 110.976L332.134 110.088L332.626 110.808C332.554 110.88 332.474 110.932 332.386 110.964C332.306 110.996 332.218 111.012 332.122 111.012C331.93 111.012 331.762 110.952 331.618 110.832C331.482 110.712 331.414 110.544 331.414 110.328C331.414 110.112 331.486 109.944 331.63 109.824C331.782 109.696 331.954 109.632 332.146 109.632C332.41 109.632 332.614 109.736 332.758 109.944C332.902 110.144 332.974 110.428 332.974 110.796C332.974 111.308 332.834 111.76 332.554 112.152C332.274 112.544 331.89 112.84 331.402 113.04ZM336.574 111.144C335.806 111.144 335.202 110.8 334.762 110.112C334.33 109.416 334.114 108.428 334.114 107.148C334.114 105.86 334.33 104.88 334.762 104.208C335.202 103.536 335.806 103.2 336.574 103.2C337.334 103.2 337.93 103.54 338.362 104.22C338.802 104.892 339.022 105.868 339.022 107.148C339.022 108.428 338.802 109.416 338.362 110.112C337.93 110.8 337.334 111.144 336.574 111.144ZM336.574 110.352C336.87 110.352 337.13 110.24 337.354 110.016C337.578 109.792 337.75 109.444 337.87 108.972C337.998 108.5 338.062 107.892 338.062 107.148C338.062 106.396 337.998 105.788 337.87 105.324C337.75 104.86 337.578 104.524 337.354 104.316C337.13 104.1 336.87 103.992 336.574 103.992C336.27 103.992 336.006 104.1 335.782 104.316C335.558 104.524 335.382 104.86 335.254 105.324C335.134 105.788 335.074 106.396 335.074 107.148C335.074 107.892 335.134 108.5 335.254 108.972C335.382 109.444 335.558 109.792 335.782 110.016C336.006 110.24 336.27 110.352 336.574 110.352ZM340.355 113.04L340.115 112.464C340.459 112.312 340.727 112.104 340.919 111.84C341.111 111.584 341.203 111.296 341.195 110.976L341.087 110.088L341.579 110.808C341.507 110.88 341.427 110.932 341.339 110.964C341.259 110.996 341.171 111.012 341.075 111.012C340.883 111.012 340.715 110.952 340.571 110.832C340.435 110.712 340.367 110.544 340.367 110.328C340.367 110.112 340.439 109.944 340.583 109.824C340.735 109.696 340.907 109.632 341.099 109.632C341.363 109.632 341.567 109.736 341.711 109.944C341.855 110.144 341.927 110.428 341.927 110.796C341.927 111.308 341.787 111.76 341.507 112.152C341.227 112.544 340.843 112.84 340.355 113.04ZM345.527 111.144C344.759 111.144 344.155 110.8 343.715 110.112C343.283 109.416 343.067 108.428 343.067 107.148C343.067 105.86 343.283 104.88 343.715 104.208C344.155 103.536 344.759 103.2 345.527 103.2C346.287 103.2 346.883 103.54 347.315 104.22C347.755 104.892 347.975 105.868 347.975 107.148C347.975 108.428 347.755 109.416 347.315 110.112C346.883 110.8 346.287 111.144 345.527 111.144ZM345.527 110.352C345.823 110.352 346.083 110.24 346.307 110.016C346.531 109.792 346.703 109.444 346.823 108.972C346.951 108.5 347.015 107.892 347.015 107.148C347.015 106.396 346.951 105.788 346.823 105.324C346.703 104.86 346.531 104.524 346.307 104.316C346.083 104.1 345.823 103.992 345.527 103.992C345.223 103.992 344.959 104.1 344.735 104.316C344.511 104.524 344.335 104.86 344.207 105.324C344.087 105.788 344.027 106.396 344.027 107.148C344.027 107.892 344.087 108.5 344.207 108.972C344.335 109.444 344.511 109.792 344.735 110.016C344.959 110.24 345.223 110.352 345.527 110.352ZM349.572 113.112L348.96 112.824C349.424 112.056 349.768 111.232 349.992 110.352C350.224 109.472 350.34 108.576 350.34 107.664C350.34 106.752 350.224 105.856 349.992 104.976C349.768 104.088 349.424 103.264 348.96 102.504L349.572 102.216C350.076 103.016 350.464 103.86 350.736 104.748C351.016 105.636 351.156 106.608 351.156 107.664C351.156 108.72 351.016 109.692 350.736 110.58C350.464 111.46 350.076 112.304 349.572 113.112Z" fill="black"/>
<path d="M368.499 96.9644C368.479 96.6889 368.24 96.4816 367.964 96.5013L363.476 96.8219C363.2 96.8416 362.993 97.0808 363.013 97.3562C363.032 97.6317 363.272 97.839 363.547 97.8193L367.537 97.5344L367.822 101.524C367.842 101.8 368.081 102.007 368.356 101.987C368.632 101.968 368.839 101.728 368.819 101.453L368.499 96.9644ZM355.378 112.327L368.378 97.3275L367.622 96.6725L354.622 111.673L355.378 112.327Z" fill="black"/>
<path d="M403.354 112.354C403.549 112.158 403.549 111.842 403.354 111.646L400.172 108.464C399.976 108.269 399.66 108.269 399.464 108.464C399.269 108.66 399.269 108.976 399.464 109.172L402.293 112L399.464 114.828C399.269 115.024 399.269 115.34 399.464 115.536C399.66 115.731 399.976 115.731 400.172 115.536L403.354 112.354ZM355 112.5L403 112.5V111.5L355 111.5V112.5Z" fill="#FF00E6"/>
<path d="M355.354 56.6464C355.158 56.4512 354.842 56.4512 354.646 56.6464L351.464 59.8284C351.269 60.0237 351.269 60.3403 351.464 60.5355C351.66 60.7308 351.976 60.7308 352.172 60.5355L355 57.7071L357.828 60.5355C358.024 60.7308 358.34 60.7308 358.536 60.5355C358.731 60.3403 358.731 60.0237 358.536 59.8284L355.354 56.6464ZM355.5 112V57H354.5V112H355.5Z" fill="black"/>
<path d="M409.168 114L411.076 110.952L409.312 108.168H410.38L411.16 109.452C411.248 109.604 411.34 109.764 411.436 109.932C411.54 110.092 411.64 110.256 411.736 110.424H411.784C411.872 110.256 411.96 110.092 412.048 109.932C412.136 109.764 412.224 109.604 412.312 109.452L413.02 108.168H414.052L412.288 111.06L414.184 114H413.116L412.264 112.644C412.16 112.468 412.052 112.292 411.94 112.116C411.836 111.94 411.732 111.768 411.628 111.6H411.58C411.476 111.768 411.376 111.94 411.28 112.116C411.184 112.284 411.088 112.46 410.992 112.644L410.2 114H409.168Z" fill="#FF00E6"/>
<path d="M373.08 105.508C372.952 105.508 372.828 105.496 372.708 105.472C372.596 105.448 372.492 105.42 372.396 105.388L372.612 104.62C372.684 104.644 372.756 104.66 372.828 104.668C372.9 104.684 372.968 104.692 373.032 104.692C373.368 104.692 373.64 104.572 373.848 104.332C374.064 104.1 374.232 103.804 374.352 103.444L374.484 103.012L372.144 97.168H373.164L374.352 100.396C374.448 100.644 374.544 100.912 374.64 101.2C374.736 101.488 374.828 101.768 374.916 102.04H374.964C375.052 101.768 375.136 101.492 375.216 101.212C375.304 100.924 375.384 100.652 375.456 100.396L376.5 97.168H377.46L375.264 103.48C375.128 103.864 374.964 104.208 374.772 104.512C374.58 104.824 374.348 105.068 374.076 105.244C373.804 105.42 373.472 105.508 373.08 105.508Z" fill="black"/>
<path d="M360.372 56V55.472L363.444 50.972H360.708V50.168H364.692V50.696L361.62 55.196H364.788V56H360.372Z" fill="black"/>
<path d="M328 195.5V76.5L367 34H426L427 154L386.5 196.5L328 195.5Z" fill="#FF00E6" fill-opacity="0.1"/>
<path d="M503 34V154" stroke="#757575"/>
<path d="M503.354 154.354L503.707 154L503 153.293L502.646 153.646L503.354 154.354ZM461.354 196.354L503.354 154.354L502.646 153.646L460.646 195.646L461.354 196.354Z" fill="#757575"/>
<path d="M503 154L620 154" stroke="#757575"/>
<path d="M502.603 34.0107C502.603 34.0107 461 75.0118 461 75.5059C461 76 580 76 580 76C580 76 619.491 34.0002 618.996 34C618.5 33.9998 502.603 34.0107 502.603 34.0107Z" fill="#D9D9D9" fill-opacity="0.4" stroke="#757575"/>
<path d="M502.603 97.0107C502.603 97.0107 461 138.012 461 138.506C461 139 580 139 580 139C580 139 619.491 97.0002 618.996 97C618.5 96.9998 502.603 97.0107 502.603 97.0107Z" fill="#D9D9D9" fill-opacity="0.4" stroke="#757575"/>
<path d="M461 76H580V196H461V76Z" fill="#D9D9D9" fill-opacity="0.4" stroke="#757575"/>
<path d="M482 54H601V174H482V54Z" fill="#D9D9D9" fill-opacity="0.4" stroke="#757575"/>
<path d="M619.766 34.0043C619.269 33.5044 580 76.5021 580 76.5021L580.048 195.996C580.048 196.496 619.816 154.498 619.816 154.498C619.816 154.498 620.262 34.5043 619.766 34.0043Z" fill="#D9D9D9" fill-opacity="0.4" stroke="#757575"/>
<circle cx="562" cy="95" r="1" fill="black"/>
<circle cx="599" cy="112" r="1" fill="black"/>
<circle cx="548" cy="112" r="2" fill="black"/>
<circle cx="461" cy="76" r="2" fill="black"/>
<circle cx="580" cy="76" r="2" fill="black"/>
<circle cx="619" cy="34" r="2" fill="black"/>
<circle cx="503" cy="34" r="2" fill="black"/>
<circle cx="503" cy="154" r="2" fill="black"/>
<circle cx="461" cy="196" r="2" fill="black"/>
<circle cx="580" cy="196" r="2" fill="black"/>
<circle cx="620" cy="154" r="2" fill="black"/>
<circle cx="548" cy="54" r="1" fill="black"/>
<path d="M516.568 113.112C516.072 112.304 515.684 111.46 515.404 110.58C515.124 109.692 514.984 108.72 514.984 107.664C514.984 106.608 515.124 105.636 515.404 104.748C515.684 103.86 516.072 103.016 516.568 102.216L517.18 102.504C516.716 103.264 516.368 104.088 516.136 104.976C515.912 105.856 515.8 106.752 515.8 107.664C515.8 108.576 515.912 109.472 516.136 110.352C516.368 111.232 516.716 112.056 517.18 112.824L516.568 113.112ZM520.621 111.144C519.853 111.144 519.249 110.8 518.809 110.112C518.377 109.416 518.161 108.428 518.161 107.148C518.161 105.86 518.377 104.88 518.809 104.208C519.249 103.536 519.853 103.2 520.621 103.2C521.381 103.2 521.977 103.54 522.409 104.22C522.849 104.892 523.069 105.868 523.069 107.148C523.069 108.428 522.849 109.416 522.409 110.112C521.977 110.8 521.381 111.144 520.621 111.144ZM520.621 110.352C520.917 110.352 521.177 110.24 521.401 110.016C521.625 109.792 521.797 109.444 521.917 108.972C522.045 108.5 522.109 107.892 522.109 107.148C522.109 106.396 522.045 105.788 521.917 105.324C521.797 104.86 521.625 104.524 521.401 104.316C521.177 104.1 520.917 103.992 520.621 103.992C520.317 103.992 520.053 104.1 519.829 104.316C519.605 104.524 519.429 104.86 519.301 105.324C519.181 105.788 519.121 106.396 519.121 107.148C519.121 107.892 519.181 108.5 519.301 108.972C519.429 109.444 519.605 109.792 519.829 110.016C520.053 110.24 520.317 110.352 520.621 110.352ZM524.402 113.04L524.162 112.464C524.506 112.312 524.774 112.104 524.966 111.84C525.158 111.584 525.25 111.296 525.242 110.976L525.134 110.088L525.626 110.808C525.554 110.88 525.474 110.932 525.386 110.964C525.306 110.996 525.218 111.012 525.122 111.012C524.93 111.012 524.762 110.952 524.618 110.832C524.482 110.712 524.414 110.544 524.414 110.328C524.414 110.112 524.486 109.944 524.63 109.824C524.782 109.696 524.954 109.632 525.146 109.632C525.41 109.632 525.614 109.736 525.758 109.944C525.902 110.144 525.974 110.428 525.974 110.796C525.974 111.308 525.834 111.76 525.554 112.152C525.274 112.544 524.89 112.84 524.402 113.04ZM529.574 111.144C528.806 111.144 528.202 110.8 527.762 110.112C527.33 109.416 527.114 108.428 527.114 107.148C527.114 105.86 527.33 104.88 527.762 104.208C528.202 103.536 528.806 103.2 529.574 103.2C530.334 103.2 530.93 103.54 531.362 104.22C531.802 104.892 532.022 105.868 532.022 107.148C532.022 108.428 531.802 109.416 531.362 110.112C530.93 110.8 530.334 111.144 529.574 111.144ZM529.574 110.352C529.87 110.352 530.13 110.24 530.354 110.016C530.578 109.792 530.75 109.444 530.87 108.972C530.998 108.5 531.062 107.892 531.062 107.148C531.062 106.396 530.998 105.788 530.87 105.324C530.75 104.86 530.578 104.524 530.354 104.316C530.13 104.1 529.87 103.992 529.574 103.992C529.27 103.992 529.006 104.1 528.782 104.316C528.558 104.524 528.382 104.86 528.254 105.324C528.134 105.788 528.074 106.396 528.074 107.148C528.074 107.892 528.134 108.5 528.254 108.972C528.382 109.444 528.558 109.792 528.782 110.016C529.006 110.24 529.27 110.352 529.574 110.352ZM533.355 113.04L533.115 112.464C533.459 112.312 533.727 112.104 533.919 111.84C534.111 111.584 534.203 111.296 534.195 110.976L534.087 110.088L534.579 110.808C534.507 110.88 534.427 110.932 534.339 110.964C534.259 110.996 534.171 111.012 534.075 111.012C533.883 111.012 533.715 110.952 533.571 110.832C533.435 110.712 533.367 110.544 533.367 110.328C533.367 110.112 533.439 109.944 533.583 109.824C533.735 109.696 533.907 109.632 534.099 109.632C534.363 109.632 534.567 109.736 534.711 109.944C534.855 110.144 534.927 110.428 534.927 110.796C534.927 111.308 534.787 111.76 534.507 112.152C534.227 112.544 533.843 112.84 533.355 113.04ZM538.527 111.144C537.759 111.144 537.155 110.8 536.715 110.112C536.283 109.416 536.067 108.428 536.067 107.148C536.067 105.86 536.283 104.88 536.715 104.208C537.155 103.536 537.759 103.2 538.527 103.2C539.287 103.2 539.883 103.54 540.315 104.22C540.755 104.892 540.975 105.868 540.975 107.148C540.975 108.428 540.755 109.416 540.315 110.112C539.883 110.8 539.287 111.144 538.527 111.144ZM538.527 110.352C538.823 110.352 539.083 110.24 539.307 110.016C539.531 109.792 539.703 109.444 539.823 108.972C539.951 108.5 540.015 107.892 540.015 107.148C540.015 106.396 539.951 105.788 539.823 105.324C539.703 104.86 539.531 104.524 539.307 104.316C539.083 104.1 538.823 103.992 538.527 103.992C538.223 103.992 537.959 104.1 537.735 104.316C537.511 104.524 537.335 104.86 537.207 105.324C537.087 105.788 537.027 106.396 537.027 107.148C537.027 107.892 537.087 108.5 537.207 108.972C537.335 109.444 537.511 109.792 537.735 110.016C537.959 110.24 538.223 110.352 538.527 110.352ZM542.572 113.112L541.96 112.824C542.424 112.056 542.768 111.232 542.992 110.352C543.224 109.472 543.34 108.576 543.34 107.664C543.34 106.752 543.224 105.856 542.992 104.976C542.768 104.088 542.424 103.264 541.96 102.504L542.572 102.216C543.076 103.016 543.464 103.86 543.736 104.748C544.016 105.636 544.156 106.608 544.156 107.664C544.156 108.72 544.016 109.692 543.736 110.58C543.464 111.46 543.076 112.304 542.572 113.112Z" fill="black"/>
<path d="M561.499 96.9644C561.479 96.6889 561.24 96.4816 560.964 96.5013L556.476 96.8219C556.2 96.8416 555.993 97.0808 556.013 97.3562C556.032 97.6317 556.272 97.839 556.547 97.8193L560.537 97.5344L560.822 101.524C560.842 101.8 561.081 102.007 561.356 101.987C561.632 101.968 561.839 101.728 561.819 101.453L561.499 96.9644ZM548.378 112.327L561.378 97.3275L560.622 96.6725L547.622 111.673L548.378 112.327Z" fill="#2A5D57"/>
<path d="M596.354 112.354C596.549 112.158 596.549 111.842 596.354 111.646L593.172 108.464C592.976 108.269 592.66 108.269 592.464 108.464C592.269 108.66 592.269 108.976 592.464 109.172L595.293 112L592.464 114.828C592.269 115.024 592.269 115.34 592.464 115.536C592.66 115.731 592.976 115.731 593.172 115.536L596.354 112.354ZM548 112.5L596 112.5V111.5L548 111.5V112.5Z" fill="black"/>
<path d="M548.354 56.6464C548.158 56.4512 547.842 56.4512 547.646 56.6464L544.464 59.8284C544.269 60.0237 544.269 60.3403 544.464 60.5355C544.66 60.7308 544.976 60.7308 545.172 60.5355L548 57.7071L550.828 60.5355C551.024 60.7308 551.34 60.7308 551.536 60.5355C551.731 60.3403 551.731 60.0237 551.536 59.8284L548.354 56.6464ZM548.5 112V57H547.5V112H548.5Z" fill="black"/>
<path d="M602.168 114L604.076 110.952L602.312 108.168H603.38L604.16 109.452C604.248 109.604 604.34 109.764 604.436 109.932C604.54 110.092 604.64 110.256 604.736 110.424H604.784C604.872 110.256 604.96 110.092 605.048 109.932C605.136 109.764 605.224 109.604 605.312 109.452L606.02 108.168H607.052L605.288 111.06L607.184 114H606.116L605.264 112.644C605.16 112.468 605.052 112.292 604.94 112.116C604.836 111.94 604.732 111.768 604.628 111.6H604.58C604.476 111.768 604.376 111.94 604.28 112.116C604.184 112.284 604.088 112.46 603.992 112.644L603.2 114H602.168Z" fill="black"/>
<path d="M566.08 105.508C565.952 105.508 565.828 105.496 565.708 105.472C565.596 105.448 565.492 105.42 565.396 105.388L565.612 104.62C565.684 104.644 565.756 104.66 565.828 104.668C565.9 104.684 565.968 104.692 566.032 104.692C566.368 104.692 566.64 104.572 566.848 104.332C567.064 104.1 567.232 103.804 567.352 103.444L567.484 103.012L565.144 97.168H566.164L567.352 100.396C567.448 100.644 567.544 100.912 567.64 101.2C567.736 101.488 567.828 101.768 567.916 102.04H567.964C568.052 101.768 568.136 101.492 568.216 101.212C568.304 100.924 568.384 100.652 568.456 100.396L569.5 97.168H570.46L568.264 103.48C568.128 103.864 567.964 104.208 567.772 104.512C567.58 104.824 567.348 105.068 567.076 105.244C566.804 105.42 566.472 105.508 566.08 105.508Z" fill="#2A5D57"/>
<path d="M553.372 56V55.472L556.444 50.972H553.708V50.168H557.692V50.696L554.62 55.196H557.788V56H553.372Z" fill="black"/>
<path d="M619.5 154L601 174H482V54L503 34H619.5V154Z" fill="#7BBAA9" fill-opacity="0.2"/>
<path d="M698 34V154" stroke="#757575"/>
<path d="M698.354 154.354L698.707 154L698 153.293L697.646 153.646L698.354 154.354ZM656.354 196.354L698.354 154.354L697.646 153.646L655.646 195.646L656.354 196.354Z" fill="#757575"/>
<path d="M698 154L815 154" stroke="#757575"/>
<path d="M697.603 34.0107C697.603 34.0107 656 75.0118 656 75.5059C656 76 775 76 775 76C775 76 814.491 34.0002 813.996 34C813.5 33.9998 697.603 34.0107 697.603 34.0107Z" fill="#D9D9D9" fill-opacity="0.4" stroke="#757575"/>
<path d="M697.603 97.0107C697.603 97.0107 656 138.012 656 138.506C656 139 775 139 775 139C775 139 814.491 97.0002 813.996 97C813.5 96.9998 697.603 97.0107 697.603 97.0107Z" fill="#D9D9D9" fill-opacity="0.4" stroke="#757575"/>
<path d="M656 76H775V196H656V76Z" fill="#D9D9D9" fill-opacity="0.4" stroke="#757575"/>
<path d="M814.766 34.0043C814.269 33.5044 775 76.5021 775 76.5021L775.048 195.996C775.048 196.496 814.816 154.498 814.816 154.498C814.816 154.498 815.262 34.5043 814.766 34.0043Z" fill="#D9D9D9" fill-opacity="0.4" stroke="#757575"/>
<circle cx="757" cy="95" r="1" fill="black"/>
<circle cx="794" cy="112" r="1" fill="black"/>
<circle cx="743" cy="112" r="2" fill="black"/>
<circle cx="656" cy="76" r="2" fill="black"/>
<circle cx="775" cy="76" r="2" fill="black"/>
<circle cx="814" cy="34" r="2" fill="black"/>
<circle cx="698" cy="34" r="2" fill="black"/>
<circle cx="698" cy="154" r="2" fill="black"/>
<circle cx="656" cy="196" r="2" fill="black"/>
<circle cx="775" cy="196" r="2" fill="black"/>
<circle cx="815" cy="154" r="2" fill="black"/>
<circle cx="743" cy="54" r="1" fill="black"/>
<path d="M711.568 113.112C711.072 112.304 710.684 111.46 710.404 110.58C710.124 109.692 709.984 108.72 709.984 107.664C709.984 106.608 710.124 105.636 710.404 104.748C710.684 103.86 711.072 103.016 711.568 102.216L712.18 102.504C711.716 103.264 711.368 104.088 711.136 104.976C710.912 105.856 710.8 106.752 710.8 107.664C710.8 108.576 710.912 109.472 711.136 110.352C711.368 111.232 711.716 112.056 712.18 112.824L711.568 113.112ZM715.621 111.144C714.853 111.144 714.249 110.8 713.809 110.112C713.377 109.416 713.161 108.428 713.161 107.148C713.161 105.86 713.377 104.88 713.809 104.208C714.249 103.536 714.853 103.2 715.621 103.2C716.381 103.2 716.977 103.54 717.409 104.22C717.849 104.892 718.069 105.868 718.069 107.148C718.069 108.428 717.849 109.416 717.409 110.112C716.977 110.8 716.381 111.144 715.621 111.144ZM715.621 110.352C715.917 110.352 716.177 110.24 716.401 110.016C716.625 109.792 716.797 109.444 716.917 108.972C717.045 108.5 717.109 107.892 717.109 107.148C717.109 106.396 717.045 105.788 716.917 105.324C716.797 104.86 716.625 104.524 716.401 104.316C716.177 104.1 715.917 103.992 715.621 103.992C715.317 103.992 715.053 104.1 714.829 104.316C714.605 104.524 714.429 104.86 714.301 105.324C714.181 105.788 714.121 106.396 714.121 107.148C714.121 107.892 714.181 108.5 714.301 108.972C714.429 109.444 714.605 109.792 714.829 110.016C715.053 110.24 715.317 110.352 715.621 110.352ZM719.402 113.04L719.162 112.464C719.506 112.312 719.774 112.104 719.966 111.84C720.158 111.584 720.25 111.296 720.242 110.976L720.134 110.088L720.626 110.808C720.554 110.88 720.474 110.932 720.386 110.964C720.306 110.996 720.218 111.012 720.122 111.012C719.93 111.012 719.762 110.952 719.618 110.832C719.482 110.712 719.414 110.544 719.414 110.328C719.414 110.112 719.486 109.944 719.63 109.824C719.782 109.696 719.954 109.632 720.146 109.632C720.41 109.632 720.614 109.736 720.758 109.944C720.902 110.144 720.974 110.428 720.974 110.796C720.974 111.308 720.834 111.76 720.554 112.152C720.274 112.544 719.89 112.84 719.402 113.04ZM724.574 111.144C723.806 111.144 723.202 110.8 722.762 110.112C722.33 109.416 722.114 108.428 722.114 107.148C722.114 105.86 722.33 104.88 722.762 104.208C723.202 103.536 723.806 103.2 724.574 103.2C725.334 103.2 725.93 103.54 726.362 104.22C726.802 104.892 727.022 105.868 727.022 107.148C727.022 108.428 726.802 109.416 726.362 110.112C725.93 110.8 725.334 111.144 724.574 111.144ZM724.574 110.352C724.87 110.352 725.13 110.24 725.354 110.016C725.578 109.792 725.75 109.444 725.87 108.972C725.998 108.5 726.062 107.892 726.062 107.148C726.062 106.396 725.998 105.788 725.87 105.324C725.75 104.86 725.578 104.524 725.354 104.316C725.13 104.1 724.87 103.992 724.574 103.992C724.27 103.992 724.006 104.1 723.782 104.316C723.558 104.524 723.382 104.86 723.254 105.324C723.134 105.788 723.074 106.396 723.074 107.148C723.074 107.892 723.134 108.5 723.254 108.972C723.382 109.444 723.558 109.792 723.782 110.016C724.006 110.24 724.27 110.352 724.574 110.352ZM728.355 113.04L728.115 112.464C728.459 112.312 728.727 112.104 728.919 111.84C729.111 111.584 729.203 111.296 729.195 110.976L729.087 110.088L729.579 110.808C729.507 110.88 729.427 110.932 729.339 110.964C729.259 110.996 729.171 111.012 729.075 111.012C728.883 111.012 728.715 110.952 728.571 110.832C728.435 110.712 728.367 110.544 728.367 110.328C728.367 110.112 728.439 109.944 728.583 109.824C728.735 109.696 728.907 109.632 729.099 109.632C729.363 109.632 729.567 109.736 729.711 109.944C729.855 110.144 729.927 110.428 729.927 110.796C729.927 111.308 729.787 111.76 729.507 112.152C729.227 112.544 728.843 112.84 728.355 113.04ZM733.527 111.144C732.759 111.144 732.155 110.8 731.715 110.112C731.283 109.416 731.067 108.428 731.067 107.148C731.067 105.86 731.283 104.88 731.715 104.208C732.155 103.536 732.759 103.2 733.527 103.2C734.287 103.2 734.883 103.54 735.315 104.22C735.755 104.892 735.975 105.868 735.975 107.148C735.975 108.428 735.755 109.416 735.315 110.112C734.883 110.8 734.287 111.144 733.527 111.144ZM733.527 110.352C733.823 110.352 734.083 110.24 734.307 110.016C734.531 109.792 734.703 109.444 734.823 108.972C734.951 108.5 735.015 107.892 735.015 107.148C735.015 106.396 734.951 105.788 734.823 105.324C734.703 104.86 734.531 104.524 734.307 104.316C734.083 104.1 733.823 103.992 733.527 103.992C733.223 103.992 732.959 104.1 732.735 104.316C732.511 104.524 732.335 104.86 732.207 105.324C732.087 105.788 732.027 106.396 732.027 107.148C732.027 107.892 732.087 108.5 732.207 108.972C732.335 109.444 732.511 109.792 732.735 110.016C732.959 110.24 733.223 110.352 733.527 110.352ZM737.572 113.112L736.96 112.824C737.424 112.056 737.768 111.232 737.992 110.352C738.224 109.472 738.34 108.576 738.34 107.664C738.34 106.752 738.224 105.856 737.992 104.976C737.768 104.088 737.424 103.264 736.96 102.504L737.572 102.216C738.076 103.016 738.464 103.86 738.736 104.748C739.016 105.636 739.156 106.608 739.156 107.664C739.156 108.72 739.016 109.692 738.736 110.58C738.464 111.46 738.076 112.304 737.572 113.112Z" fill="black"/>
<path d="M756.499 96.9644C756.479 96.6889 756.24 96.4816 755.964 96.5013L751.476 96.8219C751.2 96.8416 750.993 97.0808 751.013 97.3562C751.032 97.6317 751.272 97.839 751.547 97.8193L755.537 97.5344L755.822 101.524C755.842 101.8 756.081 102.007 756.356 101.987C756.632 101.968 756.839 101.728 756.819 101.453L756.499 96.9644ZM743.378 112.327L756.378 97.3275L755.622 96.6725L742.622 111.673L743.378 112.327Z" fill="black"/>
<path d="M791.354 112.354C791.549 112.158 791.549 111.842 791.354 111.646L788.172 108.464C787.976 108.269 787.66 108.269 787.464 108.464C787.269 108.66 787.269 108.976 787.464 109.172L790.293 112L787.464 114.828C787.269 115.024 787.269 115.34 787.464 115.536C787.66 115.731 787.976 115.731 788.172 115.536L791.354 112.354ZM743 112.5L791 112.5V111.5L743 111.5V112.5Z" fill="black"/>
<path d="M743.354 56.6464C743.158 56.4512 742.842 56.4512 742.646 56.6464L739.464 59.8284C739.269 60.0237 739.269 60.3403 739.464 60.5355C739.66 60.7308 739.976 60.7308 740.172 60.5355L743 57.7071L745.828 60.5355C746.024 60.7308 746.34 60.7308 746.536 60.5355C746.731 60.3403 746.731 60.0237 746.536 59.8284L743.354 56.6464ZM743.5 112V57H742.5V112H743.5Z" fill="#5447E9"/>
<path d="M797.168 114L799.076 110.952L797.312 108.168H798.38L799.16 109.452C799.248 109.604 799.34 109.764 799.436 109.932C799.54 110.092 799.64 110.256 799.736 110.424H799.784C799.872 110.256 799.96 110.092 800.048 109.932C800.136 109.764 800.224 109.604 800.312 109.452L801.02 108.168H802.052L800.288 111.06L802.184 114H801.116L800.264 112.644C800.16 112.468 800.052 112.292 799.94 112.116C799.836 111.94 799.732 111.768 799.628 111.6H799.58C799.476 111.768 799.376 111.94 799.28 112.116C799.184 112.284 799.088 112.46 798.992 112.644L798.2 114H797.168Z" fill="black"/>
<path d="M761.08 105.508C760.952 105.508 760.828 105.496 760.708 105.472C760.596 105.448 760.492 105.42 760.396 105.388L760.612 104.62C760.684 104.644 760.756 104.66 760.828 104.668C760.9 104.684 760.968 104.692 761.032 104.692C761.368 104.692 761.64 104.572 761.848 104.332C762.064 104.1 762.232 103.804 762.352 103.444L762.484 103.012L760.144 97.168H761.164L762.352 100.396C762.448 100.644 762.544 100.912 762.64 101.2C762.736 101.488 762.828 101.768 762.916 102.04H762.964C763.052 101.768 763.136 101.492 763.216 101.212C763.304 100.924 763.384 100.652 763.456 100.396L764.5 97.168H765.46L763.264 103.48C763.128 103.864 762.964 104.208 762.772 104.512C762.58 104.824 762.348 105.068 762.076 105.244C761.804 105.42 761.472 105.508 761.08 105.508Z" fill="black"/>
<path d="M748.372 56V55.472L751.444 50.972H748.708V50.168H752.692V50.696L749.62 55.196H752.788V56H748.372Z" fill="#5447E9"/>
<path d="M656 139V75.5L697.598 34H815V97L775 139H656Z" fill="#8F85FF" fill-opacity="0.2"/>
<circle cx="426" cy="34" r="2" fill="black"/>
<circle cx="310" cy="34" r="2" fill="black"/>
<circle cx="427" cy="154" r="2" fill="black"/>
<path d="M52 39V159" stroke="#757575"/>
<path d="M52.3536 159.354L52.7071 159L52 158.293L51.6464 158.646L52.3536 159.354ZM10.3536 201.354L52.3536 159.354L51.6464 158.646L9.64645 200.646L10.3536 201.354Z" fill="#757575"/>
<path d="M52 159L169 159" stroke="#757575"/>
<path d="M51.6028 39.0107C51.6028 39.0107 10 80.0118 10 80.5059C10 81 129 81 129 81C129 81 168.491 39.0002 167.996 39C167.5 38.9998 51.6028 39.0107 51.6028 39.0107Z" fill="#D9D9D9" fill-opacity="0.4" stroke="#757575"/>
<path d="M10 81H129V201H10V81Z" fill="#D9D9D9" fill-opacity="0.4" stroke="#757575"/>
<path d="M168.766 39.0043C168.269 38.5044 129 81.5021 129 81.5021L129.048 200.996C129.048 201.496 168.816 159.498 168.816 159.498C168.816 159.498 169.262 39.5043 168.766 39.0043Z" fill="#D9D9D9" fill-opacity="0.4" stroke="#757575"/>
<circle cx="111" cy="100" r="1" fill="black"/>
<circle cx="148" cy="117" r="1" fill="black"/>
<circle cx="97" cy="117" r="2" fill="black"/>
<circle cx="10" cy="81" r="2" fill="#CD93F0"/>
<circle cx="129" cy="81" r="2" fill="#CD93F0"/>
<circle cx="168" cy="39" r="2" fill="#CD93F0"/>
<circle cx="52" cy="39" r="2" fill="#CD93F0"/>
<circle cx="52" cy="159" r="2" fill="#CD93F0"/>
<circle cx="10" cy="201" r="2" fill="#CD93F0"/>
<circle cx="129" cy="201" r="2" fill="#CD93F0"/>
<circle cx="169" cy="159" r="2" fill="#CD93F0"/>
<circle cx="97" cy="59" r="1" fill="black"/>
<path d="M65.568 118.112C65.072 117.304 64.684 116.46 64.404 115.58C64.124 114.692 63.984 113.72 63.984 112.664C63.984 111.608 64.124 110.636 64.404 109.748C64.684 108.86 65.072 108.016 65.568 107.216L66.18 107.504C65.716 108.264 65.368 109.088 65.136 109.976C64.912 110.856 64.8 111.752 64.8 112.664C64.8 113.576 64.912 114.472 65.136 115.352C65.368 116.232 65.716 117.056 66.18 117.824L65.568 118.112ZM69.6208 116.144C68.8528 116.144 68.2488 115.8 67.8088 115.112C67.3768 114.416 67.1608 113.428 67.1608 112.148C67.1608 110.86 67.3768 109.88 67.8088 109.208C68.2488 108.536 68.8528 108.2 69.6208 108.2C70.3808 108.2 70.9768 108.54 71.4088 109.22C71.8488 109.892 72.0688 110.868 72.0688 112.148C72.0688 113.428 71.8488 114.416 71.4088 115.112C70.9768 115.8 70.3808 116.144 69.6208 116.144ZM69.6208 115.352C69.9168 115.352 70.1768 115.24 70.4008 115.016C70.6248 114.792 70.7968 114.444 70.9168 113.972C71.0448 113.5 71.1088 112.892 71.1088 112.148C71.1088 111.396 71.0448 110.788 70.9168 110.324C70.7968 109.86 70.6248 109.524 70.4008 109.316C70.1768 109.1 69.9168 108.992 69.6208 108.992C69.3168 108.992 69.0528 109.1 68.8288 109.316C68.6048 109.524 68.4288 109.86 68.3008 110.324C68.1808 110.788 68.1208 111.396 68.1208 112.148C68.1208 112.892 68.1808 113.5 68.3008 113.972C68.4288 114.444 68.6048 114.792 68.8288 115.016C69.0528 115.24 69.3168 115.352 69.6208 115.352ZM73.4017 118.04L73.1617 117.464C73.5057 117.312 73.7737 117.104 73.9657 116.84C74.1577 116.584 74.2497 116.296 74.2417 115.976L74.1337 115.088L74.6257 115.808C74.5537 115.88 74.4737 115.932 74.3857 115.964C74.3057 115.996 74.2177 116.012 74.1217 116.012C73.9297 116.012 73.7617 115.952 73.6177 115.832C73.4817 115.712 73.4137 115.544 73.4137 115.328C73.4137 115.112 73.4857 114.944 73.6297 114.824C73.7817 114.696 73.9537 114.632 74.1457 114.632C74.4097 114.632 74.6137 114.736 74.7577 114.944C74.9017 115.144 74.9737 115.428 74.9737 115.796C74.9737 116.308 74.8337 116.76 74.5537 117.152C74.2737 117.544 73.8897 117.84 73.4017 118.04ZM78.5739 116.144C77.8059 116.144 77.2019 115.8 76.7619 115.112C76.3299 114.416 76.1139 113.428 76.1139 112.148C76.1139 110.86 76.3299 109.88 76.7619 109.208C77.2019 108.536 77.8059 108.2 78.5739 108.2C79.3339 108.2 79.9299 108.54 80.3619 109.22C80.8019 109.892 81.0219 110.868 81.0219 112.148C81.0219 113.428 80.8019 114.416 80.3619 115.112C79.9299 115.8 79.3339 116.144 78.5739 116.144ZM78.5739 115.352C78.8699 115.352 79.1299 115.24 79.3539 115.016C79.5779 114.792 79.7499 114.444 79.8699 113.972C79.9979 113.5 80.0619 112.892 80.0619 112.148C80.0619 111.396 79.9979 110.788 79.8699 110.324C79.7499 109.86 79.5779 109.524 79.3539 109.316C79.1299 109.1 78.8699 108.992 78.5739 108.992C78.2699 108.992 78.0059 109.1 77.7819 109.316C77.5579 109.524 77.3819 109.86 77.2539 110.324C77.1339 110.788 77.0739 111.396 77.0739 112.148C77.0739 112.892 77.1339 113.5 77.2539 113.972C77.3819 114.444 77.5579 114.792 77.7819 115.016C78.0059 115.24 78.2699 115.352 78.5739 115.352ZM82.3548 118.04L82.1148 117.464C82.4588 117.312 82.7268 117.104 82.9188 116.84C83.1108 116.584 83.2028 116.296 83.1948 115.976L83.0868 115.088L83.5788 115.808C83.5068 115.88 83.4268 115.932 83.3388 115.964C83.2588 115.996 83.1708 116.012 83.0748 116.012C82.8828 116.012 82.7148 115.952 82.5708 115.832C82.4348 115.712 82.3668 115.544 82.3668 115.328C82.3668 115.112 82.4388 114.944 82.5828 114.824C82.7348 114.696 82.9068 114.632 83.0988 114.632C83.3628 114.632 83.5668 114.736 83.7108 114.944C83.8548 115.144 83.9268 115.428 83.9268 115.796C83.9268 116.308 83.7868 116.76 83.5068 117.152C83.2268 117.544 82.8428 117.84 82.3548 118.04ZM87.5271 116.144C86.7591 116.144 86.1551 115.8 85.7151 115.112C85.2831 114.416 85.0671 113.428 85.0671 112.148C85.0671 110.86 85.2831 109.88 85.7151 109.208C86.1551 108.536 86.7591 108.2 87.5271 108.2C88.2871 108.2 88.8831 108.54 89.3151 109.22C89.7551 109.892 89.9751 110.868 89.9751 112.148C89.9751 113.428 89.7551 114.416 89.3151 115.112C88.8831 115.8 88.2871 116.144 87.5271 116.144ZM87.5271 115.352C87.8231 115.352 88.0831 115.24 88.3071 115.016C88.5311 114.792 88.7031 114.444 88.8231 113.972C88.9511 113.5 89.0151 112.892 89.0151 112.148C89.0151 111.396 88.9511 110.788 88.8231 110.324C88.7031 109.86 88.5311 109.524 88.3071 109.316C88.0831 109.1 87.8231 108.992 87.5271 108.992C87.2231 108.992 86.9591 109.1 86.7351 109.316C86.5111 109.524 86.3351 109.86 86.2071 110.324C86.0871 110.788 86.0271 111.396 86.0271 112.148C86.0271 112.892 86.0871 113.5 86.2071 113.972C86.3351 114.444 86.5111 114.792 86.7351 115.016C86.9591 115.24 87.2231 115.352 87.5271 115.352ZM91.5719 118.112L90.9599 117.824C91.4239 117.056 91.7679 116.232 91.9919 115.352C92.2239 114.472 92.3399 113.576 92.3399 112.664C92.3399 111.752 92.2239 110.856 91.9919 109.976C91.7679 109.088 91.4239 108.264 90.9599 107.504L91.5719 107.216C92.0759 108.016 92.4639 108.86 92.7359 109.748C93.0159 110.636 93.1559 111.608 93.1559 112.664C93.1559 113.72 93.0159 114.692 92.7359 115.58C92.4639 116.46 92.0759 117.304 91.5719 118.112Z" fill="black"/>
<path d="M52.568 54.112C52.072 53.304 51.684 52.46 51.404 51.58C51.124 50.692 50.984 49.72 50.984 48.664C50.984 47.608 51.124 46.636 51.404 45.748C51.684 44.86 52.072 44.016 52.568 43.216L53.18 43.504C52.716 44.264 52.368 45.088 52.136 45.976C51.912 46.856 51.8 47.752 51.8 48.664C51.8 49.576 51.912 50.472 52.136 51.352C52.368 52.232 52.716 53.056 53.18 53.824L52.568 54.112ZM64.1282 54.04L63.8882 53.464C64.2322 53.312 64.5002 53.104 64.6922 52.84C64.8842 52.584 64.9762 52.296 64.9682 51.976L64.8602 51.088L65.3522 51.808C65.2802 51.88 65.2002 51.932 65.1122 51.964C65.0322 51.996 64.9442 52.012 64.8482 52.012C64.6562 52.012 64.4882 51.952 64.3442 51.832C64.2082 51.712 64.1402 51.544 64.1402 51.328C64.1402 51.112 64.2122 50.944 64.3562 50.824C64.5082 50.696 64.6802 50.632 64.8722 50.632C65.1362 50.632 65.3402 50.736 65.4842 50.944C65.6282 51.144 65.7002 51.428 65.7002 51.796C65.7002 52.308 65.5602 52.76 65.2802 53.152C65.0002 53.544 64.6162 53.84 64.1282 54.04ZM75.4837 54.04L75.2437 53.464C75.5877 53.312 75.8557 53.104 76.0477 52.84C76.2397 52.584 76.3317 52.296 76.3237 51.976L76.2157 51.088L76.7077 51.808C76.6357 51.88 76.5557 51.932 76.4677 51.964C76.3877 51.996 76.2997 52.012 76.2037 52.012C76.0117 52.012 75.8437 51.952 75.6997 51.832C75.5637 51.712 75.4957 51.544 75.4957 51.328C75.4957 51.112 75.5677 50.944 75.7117 50.824C75.8637 50.696 76.0357 50.632 76.2277 50.632C76.4917 50.632 76.6957 50.736 76.8397 50.944C76.9837 51.144 77.0557 51.428 77.0557 51.796C77.0557 52.308 76.9157 52.76 76.6357 53.152C76.3557 53.544 75.9717 53.84 75.4837 54.04ZM87.1032 54.112L86.4912 53.824C86.9552 53.056 87.2992 52.232 87.5232 51.352C87.7552 50.472 87.8712 49.576 87.8712 48.664C87.8712 47.752 87.7552 46.856 87.5232 45.976C87.2992 45.088 86.9552 44.264 86.4912 43.504L87.1032 43.216C87.6072 44.016 87.9952 44.86 88.2672 45.748C88.5472 46.636 88.6872 47.608 88.6872 48.664C88.6872 49.72 88.5472 50.692 88.2672 51.58C87.9952 52.46 87.6072 53.304 87.1032 54.112Z" fill="black"/>
<path d="M54.1248 49.372V48.616H56.8848V49.372H54.1248ZM58.3074 52V51.184H60.0594V45.544H58.6674V44.908C59.0114 44.844 59.3154 44.768 59.5794 44.68C59.8434 44.584 60.0794 44.472 60.2874 44.344H61.0434V51.184H62.6274V52H58.3074Z" fill="#FF00E6"/>
<path d="M69.6628 52V51.184H71.4148V45.544H70.0228V44.908C70.3668 44.844 70.6708 44.768 70.9348 44.68C71.1988 44.584 71.4348 44.472 71.6428 44.344H72.3988V51.184H73.9828V52H69.6628Z" fill="#2A5D57"/>
<path d="M81.0183 52V51.184H82.7703V45.544H81.3783V44.908C81.7223 44.844 82.0263 44.768 82.2903 44.68C82.5543 44.584 82.7903 44.472 82.9983 44.344H83.7543V51.184H85.3383V52H81.0183Z" fill="#5447E9"/>
<path d="M14.568 96.112C14.072 95.304 13.684 94.46 13.404 93.58C13.124 92.692 12.984 91.72 12.984 90.664C12.984 89.608 13.124 88.636 13.404 87.748C13.684 86.86 14.072 86.016 14.568 85.216L15.18 85.504C14.716 86.264 14.368 87.088 14.136 87.976C13.912 88.856 13.8 89.752 13.8 90.664C13.8 91.576 13.912 92.472 14.136 93.352C14.368 94.232 14.716 95.056 15.18 95.824L14.568 96.112ZM26.1282 96.04L25.8882 95.464C26.2322 95.312 26.5002 95.104 26.6922 94.84C26.8842 94.584 26.9762 94.296 26.9682 93.976L26.8602 93.088L27.3522 93.808C27.2802 93.88 27.2002 93.932 27.1122 93.964C27.0322 93.996 26.9442 94.012 26.8482 94.012C26.6562 94.012 26.4882 93.952 26.3442 93.832C26.2082 93.712 26.1402 93.544 26.1402 93.328C26.1402 93.112 26.2122 92.944 26.3562 92.824C26.5082 92.696 26.6802 92.632 26.8722 92.632C27.1362 92.632 27.3402 92.736 27.4842 92.944C27.6282 93.144 27.7002 93.428 27.7002 93.796C27.7002 94.308 27.5602 94.76 27.2802 95.152C27.0002 95.544 26.6162 95.84 26.1282 96.04ZM41.2103 96.04L40.9703 95.464C41.3143 95.312 41.5823 95.104 41.7743 94.84C41.9663 94.584 42.0583 94.296 42.0503 93.976L41.9423 93.088L42.4343 93.808C42.3623 93.88 42.2823 93.932 42.1943 93.964C42.1143 93.996 42.0263 94.012 41.9303 94.012C41.7383 94.012 41.5703 93.952 41.4263 93.832C41.2903 93.712 41.2223 93.544 41.2223 93.328C41.2223 93.112 41.2943 92.944 41.4383 92.824C41.5903 92.696 41.7623 92.632 41.9543 92.632C42.2183 92.632 42.4223 92.736 42.5663 92.944C42.7103 93.144 42.7823 93.428 42.7823 93.796C42.7823 94.308 42.6423 94.76 42.3623 95.152C42.0823 95.544 41.6983 95.84 41.2103 96.04ZM52.8297 96.112L52.2177 95.824C52.6817 95.056 53.0257 94.232 53.2497 93.352C53.4817 92.472 53.5977 91.576 53.5977 90.664C53.5977 89.752 53.4817 88.856 53.2497 87.976C53.0257 87.088 52.6817 86.264 52.2177 85.504L52.8297 85.216C53.3337 86.016 53.7217 86.86 53.9937 87.748C54.2737 88.636 54.4137 89.608 54.4137 90.664C54.4137 91.72 54.2737 92.692 53.9937 93.58C53.7217 94.46 53.3337 95.304 52.8297 96.112Z" fill="black"/>
<path d="M16.1248 91.372V90.616H18.8848V91.372H16.1248ZM20.3074 94V93.184H22.0594V87.544H20.6674V86.908C21.0114 86.844 21.3154 86.768 21.5794 86.68C21.8434 86.584 22.0794 86.472 22.2874 86.344H23.0434V93.184H24.6274V94H20.3074Z" fill="#FF00E6"/>
<path d="M31.2068 91.372V90.616H33.9668V91.372H31.2068ZM35.3894 94V93.184H37.1414V87.544H35.7494V86.908C36.0934 86.844 36.3974 86.768 36.6614 86.68C36.9254 86.584 37.1614 86.472 37.3694 86.344H38.1254V93.184H39.7094V94H35.3894Z" fill="#2A5D57"/>
<path d="M46.7449 94V93.184H48.4969V87.544H47.1049V86.908C47.4489 86.844 47.7529 86.768 48.0169 86.68C48.2809 86.584 48.5169 86.472 48.7249 86.344H49.4809V93.184H51.0649V94H46.7449Z" fill="#5447E9"/>
<path d="M52.568 174.112C52.072 173.304 51.684 172.46 51.404 171.58C51.124 170.692 50.984 169.72 50.984 168.664C50.984 167.608 51.124 166.636 51.404 165.748C51.684 164.86 52.072 164.016 52.568 163.216L53.18 163.504C52.716 164.264 52.368 165.088 52.136 165.976C51.912 166.856 51.8 167.752 51.8 168.664C51.8 169.576 51.912 170.472 52.136 171.352C52.368 172.232 52.716 173.056 53.18 173.824L52.568 174.112ZM64.1282 174.04L63.8882 173.464C64.2322 173.312 64.5002 173.104 64.6922 172.84C64.8842 172.584 64.9762 172.296 64.9682 171.976L64.8602 171.088L65.3522 171.808C65.2802 171.88 65.2002 171.932 65.1122 171.964C65.0322 171.996 64.9442 172.012 64.8482 172.012C64.6562 172.012 64.4882 171.952 64.3442 171.832C64.2082 171.712 64.1402 171.544 64.1402 171.328C64.1402 171.112 64.2122 170.944 64.3562 170.824C64.5082 170.696 64.6802 170.632 64.8722 170.632C65.1362 170.632 65.3402 170.736 65.4842 170.944C65.6282 171.144 65.7002 171.428 65.7002 171.796C65.7002 172.308 65.5602 172.76 65.2802 173.152C65.0002 173.544 64.6162 173.84 64.1282 174.04ZM75.4837 174.04L75.2437 173.464C75.5877 173.312 75.8557 173.104 76.0477 172.84C76.2397 172.584 76.3317 172.296 76.3237 171.976L76.2157 171.088L76.7077 171.808C76.6357 171.88 76.5557 171.932 76.4677 171.964C76.3877 171.996 76.2997 172.012 76.2037 172.012C76.0117 172.012 75.8437 171.952 75.6997 171.832C75.5637 171.712 75.4957 171.544 75.4957 171.328C75.4957 171.112 75.5677 170.944 75.7117 170.824C75.8637 170.696 76.0357 170.632 76.2277 170.632C76.4917 170.632 76.6957 170.736 76.8397 170.944C76.9837 171.144 77.0557 171.428 77.0557 171.796C77.0557 172.308 76.9157 172.76 76.6357 173.152C76.3557 173.544 75.9717 173.84 75.4837 174.04ZM90.8297 174.112L90.2177 173.824C90.6817 173.056 91.0257 172.232 91.2497 171.352C91.4817 170.472 91.5977 169.576 91.5977 168.664C91.5977 167.752 91.4817 166.856 91.2497 165.976C91.0257 165.088 90.6817 164.264 90.2177 163.504L90.8297 163.216C91.3337 164.016 91.7217 164.86 91.9937 165.748C92.2737 166.636 92.4137 167.608 92.4137 168.664C92.4137 169.72 92.2737 170.692 91.9937 171.58C91.7217 172.46 91.3337 173.304 90.8297 174.112Z" fill="black"/>
<path d="M54.1248 169.372V168.616H56.8848V169.372H54.1248ZM58.3074 172V171.184H60.0594V165.544H58.6674V164.908C59.0114 164.844 59.3154 164.768 59.5794 164.68C59.8434 164.584 60.0794 164.472 60.2874 164.344H61.0434V171.184H62.6274V172H58.3074Z" fill="#FF00E6"/>
<path d="M69.6628 172V171.184H71.4148V165.544H70.0228V164.908C70.3668 164.844 70.6708 164.768 70.9348 164.68C71.1988 164.584 71.4348 164.472 71.6428 164.344H72.3988V171.184H73.9828V172H69.6628Z" fill="#2A5D57"/>
<path d="M80.5623 169.372V168.616H83.3223V169.372H80.5623ZM84.7449 172V171.184H86.4969V165.544H85.1049V164.908C85.4489 164.844 85.7529 164.768 86.0169 164.68C86.2809 164.584 86.5169 164.472 86.7249 164.344H87.4809V171.184H89.0649V172H84.7449Z" fill="#5447E9"/>
<path d="M12.568 215.112C12.072 214.304 11.684 213.46 11.404 212.58C11.124 211.692 10.984 210.72 10.984 209.664C10.984 208.608 11.124 207.636 11.404 206.748C11.684 205.86 12.072 205.016 12.568 204.216L13.18 204.504C12.716 205.264 12.368 206.088 12.136 206.976C11.912 207.856 11.8 208.752 11.8 209.664C11.8 210.576 11.912 211.472 12.136 212.352C12.368 213.232 12.716 214.056 13.18 214.824L12.568 215.112ZM24.1282 215.04L23.8882 214.464C24.2322 214.312 24.5002 214.104 24.6922 213.84C24.8842 213.584 24.9762 213.296 24.9682 212.976L24.8602 212.088L25.3522 212.808C25.2802 212.88 25.2002 212.932 25.1122 212.964C25.0322 212.996 24.9442 213.012 24.8482 213.012C24.6562 213.012 24.4882 212.952 24.3442 212.832C24.2082 212.712 24.1402 212.544 24.1402 212.328C24.1402 212.112 24.2122 211.944 24.3562 211.824C24.5082 211.696 24.6802 211.632 24.8722 211.632C25.1362 211.632 25.3402 211.736 25.4842 211.944C25.6282 212.144 25.7002 212.428 25.7002 212.796C25.7002 213.308 25.5602 213.76 25.2802 214.152C25.0002 214.544 24.6162 214.84 24.1282 215.04ZM39.2103 215.04L38.9703 214.464C39.3143 214.312 39.5823 214.104 39.7743 213.84C39.9663 213.584 40.0583 213.296 40.0503 212.976L39.9423 212.088L40.4343 212.808C40.3623 212.88 40.2823 212.932 40.1943 212.964C40.1143 212.996 40.0263 213.012 39.9303 213.012C39.7383 213.012 39.5703 212.952 39.4263 212.832C39.2903 212.712 39.2223 212.544 39.2223 212.328C39.2223 212.112 39.2943 211.944 39.4383 211.824C39.5903 211.696 39.7623 211.632 39.9543 211.632C40.2183 211.632 40.4223 211.736 40.5663 211.944C40.7103 212.144 40.7823 212.428 40.7823 212.796C40.7823 213.308 40.6423 213.76 40.3623 214.152C40.0823 214.544 39.6983 214.84 39.2103 215.04ZM54.5563 215.112L53.9443 214.824C54.4083 214.056 54.7523 213.232 54.9763 212.352C55.2083 211.472 55.3243 210.576 55.3243 209.664C55.3243 208.752 55.2083 207.856 54.9763 206.976C54.7523 206.088 54.4083 205.264 53.9443 204.504L54.5563 204.216C55.0603 205.016 55.4483 205.86 55.7203 206.748C56.0003 207.636 56.1403 208.608 56.1403 209.664C56.1403 210.72 56.0003 211.692 55.7203 212.58C55.4483 213.46 55.0603 214.304 54.5563 215.112Z" fill="black"/>
<path d="M14.1248 210.372V209.616H16.8848V210.372H14.1248ZM18.3074 213V212.184H20.0594V206.544H18.6674V205.908C19.0114 205.844 19.3154 205.768 19.5794 205.68C19.8434 205.584 20.0794 205.472 20.2874 205.344H21.0434V212.184H22.6274V213H18.3074Z" fill="#FF00E6"/>
<path d="M29.2068 210.372V209.616H31.9668V210.372H29.2068ZM33.3894 213V212.184H35.1414V206.544H33.7494V205.908C34.0934 205.844 34.3974 205.768 34.6614 205.68C34.9254 205.584 35.1614 205.472 35.3694 205.344H36.1254V212.184H37.7094V213H33.3894Z" fill="#2A5D57"/>
<path d="M44.2889 210.372V209.616H47.0489V210.372H44.2889ZM48.4714 213V212.184H50.2234V206.544H48.8314V205.908C49.1754 205.844 49.4794 205.768 49.7434 205.68C50.0074 205.584 50.2434 205.472 50.4514 205.344H51.2074V212.184H52.7914V213H48.4714Z" fill="#5447E9"/>
<path d="M135.568 208.112C135.072 207.304 134.684 206.46 134.404 205.58C134.124 204.692 133.984 203.72 133.984 202.664C133.984 201.608 134.124 200.636 134.404 199.748C134.684 198.86 135.072 198.016 135.568 197.216L136.18 197.504C135.716 198.264 135.368 199.088 135.136 199.976C134.912 200.856 134.8 201.752 134.8 202.664C134.8 203.576 134.912 204.472 135.136 205.352C135.368 206.232 135.716 207.056 136.18 207.824L135.568 208.112ZM143.402 208.04L143.162 207.464C143.506 207.312 143.774 207.104 143.966 206.84C144.158 206.584 144.25 206.296 144.242 205.976L144.134 205.088L144.626 205.808C144.554 205.88 144.474 205.932 144.386 205.964C144.306 205.996 144.218 206.012 144.122 206.012C143.93 206.012 143.762 205.952 143.618 205.832C143.482 205.712 143.414 205.544 143.414 205.328C143.414 205.112 143.486 204.944 143.63 204.824C143.782 204.696 143.954 204.632 144.146 204.632C144.41 204.632 144.614 204.736 144.758 204.944C144.902 205.144 144.974 205.428 144.974 205.796C144.974 206.308 144.834 206.76 144.554 207.152C144.274 207.544 143.89 207.84 143.402 208.04ZM158.484 208.04L158.244 207.464C158.588 207.312 158.856 207.104 159.048 206.84C159.24 206.584 159.332 206.296 159.324 205.976L159.216 205.088L159.708 205.808C159.636 205.88 159.556 205.932 159.468 205.964C159.388 205.996 159.3 206.012 159.204 206.012C159.012 206.012 158.844 205.952 158.7 205.832C158.564 205.712 158.496 205.544 158.496 205.328C158.496 205.112 158.568 204.944 158.712 204.824C158.864 204.696 159.036 204.632 159.228 204.632C159.492 204.632 159.696 204.736 159.84 204.944C159.984 205.144 160.056 205.428 160.056 205.796C160.056 206.308 159.916 206.76 159.636 207.152C159.356 207.544 158.972 207.84 158.484 208.04ZM173.83 208.112L173.218 207.824C173.682 207.056 174.026 206.232 174.25 205.352C174.482 204.472 174.598 203.576 174.598 202.664C174.598 201.752 174.482 200.856 174.25 199.976C174.026 199.088 173.682 198.264 173.218 197.504L173.83 197.216C174.334 198.016 174.722 198.86 174.994 199.748C175.274 200.636 175.414 201.608 175.414 202.664C175.414 203.72 175.274 204.692 174.994 205.58C174.722 206.46 174.334 207.304 173.83 208.112Z" fill="black"/>
<path d="M137.581 206V205.184H139.333V199.544H137.941V198.908C138.285 198.844 138.589 198.768 138.853 198.68C139.117 198.584 139.353 198.472 139.561 198.344H140.317V205.184H141.901V206H137.581Z" fill="#FF00E6"/>
<path d="M148.48 203.372V202.616H151.24V203.372H148.48ZM152.663 206V205.184H154.415V199.544H153.023V198.908C153.367 198.844 153.671 198.768 153.935 198.68C154.199 198.584 154.435 198.472 154.643 198.344H155.399V205.184H156.983V206H152.663Z" fill="#2A5D57"/>
<path d="M163.562 203.372V202.616H166.322V203.372H163.562ZM167.745 206V205.184H169.497V199.544H168.105V198.908C168.449 198.844 168.753 198.768 169.017 198.68C169.281 198.584 169.517 198.472 169.725 198.344H170.481V205.184H172.065V206H167.745Z" fill="#5447E9"/>
<path d="M174.568 166.112C174.072 165.304 173.684 164.46 173.404 163.58C173.124 162.692 172.984 161.72 172.984 160.664C172.984 159.608 173.124 158.636 173.404 157.748C173.684 156.86 174.072 156.016 174.568 155.216L175.18 155.504C174.716 156.264 174.368 157.088 174.136 157.976C173.912 158.856 173.8 159.752 173.8 160.664C173.8 161.576 173.912 162.472 174.136 163.352C174.368 164.232 174.716 165.056 175.18 165.824L174.568 166.112ZM182.402 166.04L182.162 165.464C182.506 165.312 182.774 165.104 182.966 164.84C183.158 164.584 183.25 164.296 183.242 163.976L183.134 163.088L183.626 163.808C183.554 163.88 183.474 163.932 183.386 163.964C183.306 163.996 183.218 164.012 183.122 164.012C182.93 164.012 182.762 163.952 182.618 163.832C182.482 163.712 182.414 163.544 182.414 163.328C182.414 163.112 182.486 162.944 182.63 162.824C182.782 162.696 182.954 162.632 183.146 162.632C183.41 162.632 183.614 162.736 183.758 162.944C183.902 163.144 183.974 163.428 183.974 163.796C183.974 164.308 183.834 164.76 183.554 165.152C183.274 165.544 182.89 165.84 182.402 166.04ZM193.757 166.04L193.517 165.464C193.861 165.312 194.129 165.104 194.321 164.84C194.513 164.584 194.605 164.296 194.597 163.976L194.489 163.088L194.981 163.808C194.909 163.88 194.829 163.932 194.741 163.964C194.661 163.996 194.573 164.012 194.477 164.012C194.285 164.012 194.117 163.952 193.973 163.832C193.837 163.712 193.769 163.544 193.769 163.328C193.769 163.112 193.841 162.944 193.985 162.824C194.137 162.696 194.309 162.632 194.501 162.632C194.765 162.632 194.969 162.736 195.113 162.944C195.257 163.144 195.329 163.428 195.329 163.796C195.329 164.308 195.189 164.76 194.909 165.152C194.629 165.544 194.245 165.84 193.757 166.04ZM209.103 166.112L208.491 165.824C208.955 165.056 209.299 164.232 209.523 163.352C209.755 162.472 209.871 161.576 209.871 160.664C209.871 159.752 209.755 158.856 209.523 157.976C209.299 157.088 208.955 156.264 208.491 155.504L209.103 155.216C209.607 156.016 209.995 156.86 210.267 157.748C210.547 158.636 210.687 159.608 210.687 160.664C210.687 161.72 210.547 162.692 210.267 163.58C209.995 164.46 209.607 165.304 209.103 166.112Z" fill="black"/>
<path d="M176.581 164V163.184H178.333V157.544H176.941V156.908C177.285 156.844 177.589 156.768 177.853 156.68C178.117 156.584 178.353 156.472 178.561 156.344H179.317V163.184H180.901V164H176.581Z" fill="#FF00E6"/>
<path d="M187.936 164V163.184H189.688V157.544H188.296V156.908C188.64 156.844 188.944 156.768 189.208 156.68C189.472 156.584 189.708 156.472 189.916 156.344H190.672V163.184H192.256V164H187.936Z" fill="#2A5D57"/>
<path d="M198.836 161.372V160.616H201.596V161.372H198.836ZM203.018 164V163.184H204.77V157.544H203.378V156.908C203.722 156.844 204.026 156.768 204.29 156.68C204.554 156.584 204.79 156.472 204.998 156.344H205.754V163.184H207.338V164H203.018Z" fill="#5447E9"/>
<path d="M173.568 50.112C173.072 49.304 172.684 48.46 172.404 47.58C172.124 46.692 171.984 45.72 171.984 44.664C171.984 43.608 172.124 42.636 172.404 41.748C172.684 40.86 173.072 40.016 173.568 39.216L174.18 39.504C173.716 40.264 173.368 41.088 173.136 41.976C172.912 42.856 172.8 43.752 172.8 44.664C172.8 45.576 172.912 46.472 173.136 47.352C173.368 48.232 173.716 49.056 174.18 49.824L173.568 50.112ZM181.402 50.04L181.162 49.464C181.506 49.312 181.774 49.104 181.966 48.84C182.158 48.584 182.25 48.296 182.242 47.976L182.134 47.088L182.626 47.808C182.554 47.88 182.474 47.932 182.386 47.964C182.306 47.996 182.218 48.012 182.122 48.012C181.93 48.012 181.762 47.952 181.618 47.832C181.482 47.712 181.414 47.544 181.414 47.328C181.414 47.112 181.486 46.944 181.63 46.824C181.782 46.696 181.954 46.632 182.146 46.632C182.41 46.632 182.614 46.736 182.758 46.944C182.902 47.144 182.974 47.428 182.974 47.796C182.974 48.308 182.834 48.76 182.554 49.152C182.274 49.544 181.89 49.84 181.402 50.04ZM192.757 50.04L192.517 49.464C192.861 49.312 193.129 49.104 193.321 48.84C193.513 48.584 193.605 48.296 193.597 47.976L193.489 47.088L193.981 47.808C193.909 47.88 193.829 47.932 193.741 47.964C193.661 47.996 193.573 48.012 193.477 48.012C193.285 48.012 193.117 47.952 192.973 47.832C192.837 47.712 192.769 47.544 192.769 47.328C192.769 47.112 192.841 46.944 192.985 46.824C193.137 46.696 193.309 46.632 193.501 46.632C193.765 46.632 193.969 46.736 194.113 46.944C194.257 47.144 194.329 47.428 194.329 47.796C194.329 48.308 194.189 48.76 193.909 49.152C193.629 49.544 193.245 49.84 192.757 50.04ZM204.377 50.112L203.765 49.824C204.229 49.056 204.573 48.232 204.797 47.352C205.029 46.472 205.145 45.576 205.145 44.664C205.145 43.752 205.029 42.856 204.797 41.976C204.573 41.088 204.229 40.264 203.765 39.504L204.377 39.216C204.881 40.016 205.269 40.86 205.541 41.748C205.821 42.636 205.961 43.608 205.961 44.664C205.961 45.72 205.821 46.692 205.541 47.58C205.269 48.46 204.881 49.304 204.377 50.112Z" fill="black"/>
<path d="M175.581 48V47.184H177.333V41.544H175.941V40.908C176.285 40.844 176.589 40.768 176.853 40.68C177.117 40.584 177.353 40.472 177.561 40.344H178.317V47.184H179.901V48H175.581Z" fill="#FF00E6"/>
<path d="M186.936 48V47.184H188.688V41.544H187.296V40.908C187.64 40.844 187.944 40.768 188.208 40.68C188.472 40.584 188.708 40.472 188.916 40.344H189.672V47.184H191.256V48H186.936Z" fill="#2A5D57"/>
<path d="M198.292 48V47.184H200.044V41.544H198.652V40.908C198.996 40.844 199.3 40.768 199.564 40.68C199.828 40.584 200.064 40.472 200.272 40.344H201.028V47.184H202.612V48H198.292Z" fill="#5447E9"/>
<path d="M133.568 91.112C133.072 90.304 132.684 89.46 132.404 88.58C132.124 87.692 131.984 86.72 131.984 85.664C131.984 84.608 132.124 83.636 132.404 82.748C132.684 81.86 133.072 81.016 133.568 80.216L134.18 80.504C133.716 81.264 133.368 82.088 133.136 82.976C132.912 83.856 132.8 84.752 132.8 85.664C132.8 86.576 132.912 87.472 133.136 88.352C133.368 89.232 133.716 90.056 134.18 90.824L133.568 91.112ZM141.402 91.04L141.162 90.464C141.506 90.312 141.774 90.104 141.966 89.84C142.158 89.584 142.25 89.296 142.242 88.976L142.134 88.088L142.626 88.808C142.554 88.88 142.474 88.932 142.386 88.964C142.306 88.996 142.218 89.012 142.122 89.012C141.93 89.012 141.762 88.952 141.618 88.832C141.482 88.712 141.414 88.544 141.414 88.328C141.414 88.112 141.486 87.944 141.63 87.824C141.782 87.696 141.954 87.632 142.146 87.632C142.41 87.632 142.614 87.736 142.758 87.944C142.902 88.144 142.974 88.428 142.974 88.796C142.974 89.308 142.834 89.76 142.554 90.152C142.274 90.544 141.89 90.84 141.402 91.04ZM146.48 86.372V85.616H149.24V86.372H146.48ZM156.484 91.04L156.244 90.464C156.588 90.312 156.856 90.104 157.048 89.84C157.24 89.584 157.332 89.296 157.324 88.976L157.216 88.088L157.708 88.808C157.636 88.88 157.556 88.932 157.468 88.964C157.388 88.996 157.3 89.012 157.204 89.012C157.012 89.012 156.844 88.952 156.7 88.832C156.564 88.712 156.496 88.544 156.496 88.328C156.496 88.112 156.568 87.944 156.712 87.824C156.864 87.696 157.036 87.632 157.228 87.632C157.492 87.632 157.696 87.736 157.84 87.944C157.984 88.144 158.056 88.428 158.056 88.796C158.056 89.308 157.916 89.76 157.636 90.152C157.356 90.544 156.972 90.84 156.484 91.04ZM168.103 91.112L167.491 90.824C167.955 90.056 168.299 89.232 168.523 88.352C168.755 87.472 168.871 86.576 168.871 85.664C168.871 84.752 168.755 83.856 168.523 82.976C168.299 82.088 167.955 81.264 167.491 80.504L168.103 80.216C168.607 81.016 168.995 81.86 169.267 82.748C169.547 83.636 169.687 84.608 169.687 85.664C169.687 86.72 169.547 87.692 169.267 88.58C168.995 89.46 168.607 90.304 168.103 91.112Z" fill="black"/>
<path d="M135.581 89V88.184H137.333V82.544H135.941V81.908C136.285 81.844 136.589 81.768 136.853 81.68C137.117 81.584 137.353 81.472 137.561 81.344H138.317V88.184H139.901V89H135.581Z" fill="#FF00E6"/>
<path d="M150.663 89V88.184H152.415V82.544H151.023V81.908C151.367 81.844 151.671 81.768 151.935 81.68C152.199 81.584 152.435 81.472 152.643 81.344H153.399V88.184H154.983V89H150.663Z" fill="#2A5D57"/>
<path d="M162.018 89V88.184H163.77V82.544H162.378V81.908C162.722 81.844 163.026 81.768 163.29 81.68C163.554 81.584 163.79 81.472 163.998 81.344H164.754V88.184H166.338V89H162.018Z" fill="#5447E9"/>
<path d="M110.499 101.964C110.479 101.689 110.24 101.482 109.964 101.501L105.476 101.822C105.2 101.842 104.993 102.081 105.013 102.356C105.032 102.632 105.272 102.839 105.547 102.819L109.537 102.534L109.822 106.524C109.842 106.8 110.081 107.007 110.356 106.987C110.632 106.968 110.839 106.728 110.819 106.453L110.499 101.964ZM97.3778 117.327L110.378 102.327L109.622 101.673L96.6222 116.673L97.3778 117.327Z" fill="black"/>
<path d="M145.354 117.354C145.549 117.158 145.549 116.842 145.354 116.646L142.172 113.464C141.976 113.269 141.66 113.269 141.464 113.464C141.269 113.66 141.269 113.976 141.464 114.172L144.293 117L141.464 119.828C141.269 120.024 141.269 120.34 141.464 120.536C141.66 120.731 141.976 120.731 142.172 120.536L145.354 117.354ZM97 117.5L145 117.5V116.5L97 116.5V117.5Z" fill="black"/>
<path d="M97.3536 61.6464C97.1583 61.4512 96.8417 61.4512 96.6464 61.6464L93.4645 64.8284C93.2692 65.0237 93.2692 65.3403 93.4645 65.5355C93.6597 65.7308 93.9763 65.7308 94.1716 65.5355L97 62.7071L99.8284 65.5355C100.024 65.7308 100.34 65.7308 100.536 65.5355C100.731 65.3403 100.731 65.0237 100.536 64.8284L97.3536 61.6464ZM97.5 117L97.5 62H96.5L96.5 117H97.5Z" fill="black"/>
<path d="M151.168 119L153.076 115.952L151.312 113.168H152.38L153.16 114.452C153.248 114.604 153.34 114.764 153.436 114.932C153.54 115.092 153.64 115.256 153.736 115.424H153.784C153.872 115.256 153.96 115.092 154.048 114.932C154.136 114.764 154.224 114.604 154.312 114.452L155.02 113.168H156.052L154.288 116.06L156.184 119H155.116L154.264 117.644C154.16 117.468 154.052 117.292 153.94 117.116C153.836 116.94 153.732 116.768 153.628 116.6H153.58C153.476 116.768 153.376 116.94 153.28 117.116C153.184 117.284 153.088 117.46 152.992 117.644L152.2 119H151.168Z" fill="black"/>
<path d="M115.08 110.508C114.952 110.508 114.828 110.496 114.708 110.472C114.596 110.448 114.492 110.42 114.396 110.388L114.612 109.62C114.684 109.644 114.756 109.66 114.828 109.668C114.9 109.684 114.968 109.692 115.032 109.692C115.368 109.692 115.64 109.572 115.848 109.332C116.064 109.1 116.232 108.804 116.352 108.444L116.484 108.012L114.144 102.168H115.164L116.352 105.396C116.448 105.644 116.544 105.912 116.64 106.2C116.736 106.488 116.828 106.768 116.916 107.04H116.964C117.052 106.768 117.136 106.492 117.216 106.212C117.304 105.924 117.384 105.652 117.456 105.396L118.5 102.168H119.46L117.264 108.48C117.128 108.864 116.964 109.208 116.772 109.512C116.58 109.824 116.348 110.068 116.076 110.244C115.804 110.42 115.472 110.508 115.08 110.508Z" fill="black"/>
<path d="M102.372 61V60.472L105.444 55.972H102.708V55.168H106.692V55.696L103.62 60.196H106.788V61H102.372Z" fill="black"/>
<path d="M45.96 158.18C44.94 158.18 44.115 157.755 43.485 156.905C42.865 156.055 42.555 154.82 42.555 153.2C42.555 151.57 42.865 150.345 43.485 149.525C44.115 148.705 44.94 148.295 45.96 148.295C46.98 148.295 47.8 148.71 48.42 149.54C49.05 150.36 49.365 151.58 49.365 153.2C49.365 154.82 49.05 156.055 48.42 156.905C47.8 157.755 46.98 158.18 45.96 158.18ZM45.96 156.47C46.21 156.47 46.435 156.38 46.635 156.2C46.835 156.01 46.99 155.68 47.1 155.21C47.22 154.73 47.28 154.06 47.28 153.2C47.28 152.33 47.22 151.665 47.1 151.205C46.99 150.745 46.835 150.43 46.635 150.26C46.435 150.09 46.21 150.005 45.96 150.005C45.71 150.005 45.485 150.09 45.285 150.26C45.085 150.43 44.925 150.745 44.805 151.205C44.695 151.665 44.64 152.33 44.64 153.2C44.64 154.06 44.695 154.73 44.805 155.21C44.925 155.68 45.085 156.01 45.285 156.2C45.485 156.38 45.71 156.47 45.96 156.47Z" fill="#CD93F0"/>
<path d="M159.05 157V155.215H161.12V149.71H159.335V148.345C159.855 148.245 160.295 148.125 160.655 147.985C161.025 147.845 161.375 147.675 161.705 147.475H163.325V155.215H165.11V157H159.05Z" fill="#CD93F0"/>
<path d="M119.555 198V196.635C120.355 195.925 121.065 195.26 121.685 194.64C122.315 194.02 122.805 193.445 123.155 192.915C123.515 192.385 123.695 191.9 123.695 191.46C123.695 190.99 123.575 190.635 123.335 190.395C123.095 190.145 122.765 190.02 122.345 190.02C122.005 190.02 121.695 190.12 121.415 190.32C121.145 190.51 120.89 190.735 120.65 190.995L119.495 189.855C119.955 189.335 120.425 188.945 120.905 188.685C121.395 188.425 121.975 188.295 122.645 188.295C123.265 188.295 123.81 188.42 124.28 188.67C124.76 188.92 125.13 189.27 125.39 189.72C125.66 190.17 125.795 190.7 125.795 191.31C125.795 191.88 125.64 192.44 125.33 192.99C125.03 193.53 124.63 194.07 124.13 194.61C123.63 195.15 123.1 195.7 122.54 196.26C122.78 196.23 123.05 196.205 123.35 196.185C123.65 196.155 123.91 196.14 124.13 196.14H126.26V198H119.555Z" fill="#CD93F0"/>
<path d="M3.645 200.18C3.135 200.18 2.67 200.12 2.25 200C1.84 199.89 1.475 199.735 1.155 199.535C0.835 199.335 0.56 199.1 0.33 198.83L1.35 197.435C1.64 197.715 1.96 197.945 2.31 198.125C2.66 198.305 3.035 198.395 3.435 198.395C3.895 198.395 4.265 198.3 4.545 198.11C4.835 197.91 4.98 197.63 4.98 197.27C4.98 196.99 4.91 196.75 4.77 196.55C4.63 196.34 4.375 196.18 4.005 196.07C3.645 195.96 3.115 195.905 2.415 195.905V194.345C2.985 194.345 3.435 194.29 3.765 194.18C4.095 194.07 4.325 193.92 4.455 193.73C4.595 193.54 4.665 193.32 4.665 193.07C4.665 192.73 4.56 192.47 4.35 192.29C4.15 192.11 3.865 192.02 3.495 192.02C3.155 192.02 2.845 192.095 2.565 192.245C2.295 192.385 2.01 192.59 1.71 192.86L0.6 191.51C1.04 191.13 1.505 190.835 1.995 190.625C2.485 190.405 3.02 190.295 3.6 190.295C4.25 190.295 4.82 190.4 5.31 190.61C5.81 190.81 6.195 191.105 6.465 191.495C6.745 191.875 6.885 192.345 6.885 192.905C6.885 193.395 6.745 193.815 6.465 194.165C6.195 194.515 5.805 194.8 5.295 195.02V195.08C5.655 195.19 5.98 195.35 6.27 195.56C6.56 195.76 6.785 196.015 6.945 196.325C7.105 196.635 7.185 196.995 7.185 197.405C7.185 197.995 7.02 198.5 6.69 198.92C6.37 199.33 5.94 199.645 5.4 199.865C4.87 200.075 4.285 200.18 3.645 200.18Z" fill="#CD93F0"/>
<path d="M46.41 38V32.495C46.41 32.195 46.42 31.84 46.44 31.43C46.47 31.02 46.49 30.665 46.5 30.365H46.44C46.32 30.625 46.195 30.89 46.065 31.16C45.935 31.42 45.8 31.69 45.66 31.97L44.4 34.04H49.56V35.72H42.285V34.205L45.765 28.475H48.465V38H46.41Z" fill="#CD93F0"/>
<path d="M161.705 37.18C161.185 37.18 160.715 37.12 160.295 37C159.885 36.88 159.52 36.72 159.2 36.52C158.88 36.32 158.595 36.095 158.345 35.845L159.335 34.45C159.625 34.71 159.94 34.935 160.28 35.125C160.62 35.305 160.99 35.395 161.39 35.395C161.71 35.395 161.99 35.34 162.23 35.23C162.47 35.11 162.655 34.94 162.785 34.72C162.925 34.5 162.995 34.23 162.995 33.91C162.995 33.43 162.855 33.065 162.575 32.815C162.295 32.565 161.935 32.44 161.495 32.44C161.225 32.44 160.995 32.475 160.805 32.545C160.615 32.615 160.375 32.74 160.085 32.92L159.095 32.29L159.365 27.475H164.765V29.335H161.27L161.105 31.12C161.295 31.04 161.47 30.985 161.63 30.955C161.79 30.915 161.97 30.895 162.17 30.895C162.72 30.895 163.225 31 163.685 31.21C164.145 31.42 164.51 31.745 164.78 32.185C165.06 32.625 165.2 33.18 165.2 33.85C165.2 34.56 165.035 35.165 164.705 35.665C164.385 36.155 163.96 36.53 163.43 36.79C162.9 37.05 162.325 37.18 161.705 37.18Z" fill="#CD93F0"/>
<path d="M123.215 78.18C122.755 78.18 122.31 78.09 121.88 77.91C121.45 77.73 121.065 77.45 120.725 77.07C120.385 76.69 120.115 76.205 119.915 75.615C119.715 75.015 119.615 74.295 119.615 73.455C119.615 72.565 119.72 71.795 119.93 71.145C120.14 70.495 120.425 69.96 120.785 69.54C121.145 69.12 121.555 68.81 122.015 68.61C122.475 68.4 122.96 68.295 123.47 68.295C124.1 68.295 124.645 68.41 125.105 68.64C125.565 68.86 125.945 69.125 126.245 69.435L125.09 70.755C124.92 70.575 124.7 70.42 124.43 70.29C124.16 70.15 123.885 70.08 123.605 70.08C123.245 70.08 122.91 70.185 122.6 70.395C122.3 70.605 122.06 70.96 121.88 71.46C121.71 71.95 121.625 72.615 121.625 73.455C121.625 74.245 121.695 74.865 121.835 75.315C121.985 75.755 122.18 76.07 122.42 76.26C122.66 76.44 122.91 76.53 123.17 76.53C123.39 76.53 123.59 76.475 123.77 76.365C123.95 76.255 124.095 76.09 124.205 75.87C124.315 75.64 124.37 75.345 124.37 74.985C124.37 74.645 124.315 74.375 124.205 74.175C124.095 73.975 123.945 73.83 123.755 73.74C123.575 73.65 123.365 73.605 123.125 73.605C122.875 73.605 122.615 73.68 122.345 73.83C122.085 73.98 121.85 74.245 121.64 74.625L121.535 73.185C121.785 72.815 122.105 72.535 122.495 72.345C122.885 72.145 123.235 72.045 123.545 72.045C124.085 72.045 124.57 72.15 125 72.36C125.43 72.57 125.765 72.895 126.005 73.335C126.255 73.765 126.38 74.315 126.38 74.985C126.38 75.645 126.235 76.215 125.945 76.695C125.665 77.175 125.285 77.545 124.805 77.805C124.325 78.055 123.795 78.18 123.215 78.18Z" fill="#CD93F0"/>
<path d="M2.25 80C2.3 79.21 2.38 78.485 2.49 77.825C2.6 77.155 2.755 76.52 2.955 75.92C3.165 75.32 3.43 74.73 3.75 74.15C4.07 73.57 4.465 72.965 4.935 72.335H0.66V70.475H7.29V71.825C6.73 72.505 6.27 73.14 5.91 73.73C5.56 74.32 5.29 74.92 5.1 75.53C4.91 76.14 4.77 76.805 4.68 77.525C4.59 78.245 4.52 79.07 4.47 80H2.25Z" fill="#CD93F0"/>
<line x1="239.135" y1="218.005" x2="239.135" y2="-0.000488281" stroke="black"/>
</svg>
